<?xml version="1.0" encoding="utf-8"?>
<!-- Generator: Adobe Illustrator 15.0.2, SVG Export Plug-In . SVG Version: 6.00 Build 0)  -->
<!DOCTYPE svg PUBLIC "-//W3C//DTD SVG 1.1//EN" "http://www.w3.org/Graphics/SVG/1.1/DTD/svg11.dtd">
<svg version="1.1" id="Capa_1" xmlns="http://www.w3.org/2000/svg" xmlns:xlink="http://www.w3.org/1999/xlink" x="0px" y="0px"
	 width="1075.309px" height="33px" viewBox="0 0 1075.309 33" enable-background="new 0 0 1075.309 33" xml:space="preserve">
<g>
	<g>
		<g>
			<path fill="#D2DEB2" d="M265.68,16.164c0-0.178-0.068-0.591-0.204-0.728L249.776-0.5H140.279l16.192,16.502L140.283,32.5h109.497
				l15.695-15.77C265.611,16.594,265.68,16.343,265.68,16.164z"/>
		</g>
	</g>
	<g>
		<g>
			<g>
				<path fill="#D2DEB2" d="M443.291,16.164c0-0.178-0.067-0.591-0.203-0.728L427.388-0.5H317.892l16.19,16.502L317.895,32.5
					h109.498l15.695-15.77C443.224,16.594,443.291,16.343,443.291,16.164z"/>
			</g>
		</g>
	</g>
	<g>
		<g>
			<g>
				<g>
					<path fill="#D2DEB2" d="M624.803,16.164c0-0.178-0.068-0.591-0.203-0.728L608.898-0.5H499.4l16.195,16.502L499.405,32.5
						h109.498L624.6,16.73C624.734,16.594,624.803,16.343,624.803,16.164z"/>
				</g>
			</g>
		</g>
	</g>
	<g>
		<g>
			<g>
				<path fill="#D2DEB2" d="M978.635,16.164c0-0.178-0.067-0.591-0.204-0.728L962.732-0.5H853.235l16.192,16.502L853.239,32.5
					h109.498l15.693-15.77C978.567,16.594,978.635,16.343,978.635,16.164z"/>
			</g>
		</g>
	</g>
	<g>
		<g>
			<g>
				<path fill="#D2DEB2" d="M799.635,16.164c0-0.178-0.067-0.591-0.204-0.728L783.732-0.5H674.235l16.192,16.502L674.239,32.5
					h109.498l15.693-15.77C799.567,16.594,799.635,16.343,799.635,16.164z"/>
			</g>
		</g>
	</g>
	<g>
		<g>
			<g>
				<g enable-background="new    ">
					<path fill="#83A521" d="M177.802,6.271h1.056v7.7h-1.056V6.271z"/>
					<path fill="#83A521" d="M186.535,6.271h1.045v7.7h-1.067l-4.4-5.962v5.962h-1.056v-7.7h1.067l4.411,5.974V6.271z"/>
					<path fill="#83A521" d="M193.174,7.365c-0.385-0.113-0.739-0.171-1.062-0.171c-0.447,0-0.805,0.087-1.072,0.259
						c-0.268,0.173-0.402,0.409-0.402,0.71c0,0.271,0.081,0.493,0.242,0.665c0.161,0.173,0.359,0.308,0.594,0.407
						c0.234,0.099,0.561,0.214,0.979,0.347c0.521,0.161,0.942,0.315,1.265,0.462s0.598,0.364,0.825,0.654
						c0.227,0.29,0.341,0.673,0.341,1.149c0,0.44-0.119,0.825-0.357,1.155s-0.572,0.585-1.001,0.765s-0.922,0.27-1.479,0.27
						c-0.565,0-1.115-0.11-1.65-0.33c-0.536-0.221-0.998-0.514-1.386-0.88l0.473-0.913c0.367,0.359,0.779,0.636,1.237,0.83
						c0.458,0.194,0.904,0.292,1.337,0.292c0.513,0,0.918-0.102,1.215-0.303c0.297-0.202,0.445-0.475,0.445-0.819
						c0-0.271-0.081-0.495-0.242-0.671c-0.162-0.177-0.365-0.315-0.611-0.419c-0.246-0.103-0.577-0.216-0.995-0.341
						c-0.514-0.153-0.932-0.304-1.254-0.451c-0.323-0.146-0.596-0.362-0.819-0.648s-0.335-0.664-0.335-1.133
						c0-0.411,0.114-0.773,0.341-1.089c0.228-0.315,0.546-0.558,0.957-0.727c0.411-0.168,0.887-0.253,1.43-0.253
						c0.462,0,0.915,0.068,1.358,0.203c0.444,0.137,0.838,0.317,1.183,0.545l-0.44,0.946C193.931,7.649,193.559,7.479,193.174,7.365
						z"/>
					<path fill="#83A521" d="M196.567,6.271h1.056v7.7h-1.056V6.271z"/>
					<path fill="#83A521" d="M205.147,10.209h0.935v2.827c-0.389,0.308-0.843,0.554-1.364,0.736
						c-0.521,0.184-1.038,0.275-1.551,0.275c-0.741,0-1.419-0.174-2.035-0.522c-0.616-0.349-1.102-0.825-1.458-1.431
						c-0.356-0.604-0.534-1.267-0.534-1.985s0.18-1.376,0.539-1.975c0.359-0.598,0.851-1.068,1.474-1.413
						c0.623-0.345,1.312-0.517,2.068-0.517c0.535,0,1.058,0.095,1.567,0.285c0.51,0.191,0.952,0.451,1.326,0.781l-0.605,0.771
						c-0.308-0.286-0.662-0.508-1.062-0.666c-0.4-0.157-0.809-0.236-1.227-0.236c-0.55,0-1.056,0.132-1.518,0.396
						c-0.462,0.264-0.827,0.623-1.094,1.077c-0.268,0.455-0.402,0.954-0.402,1.496c0,0.543,0.136,1.044,0.407,1.502
						c0.271,0.458,0.638,0.821,1.1,1.089c0.462,0.268,0.968,0.401,1.518,0.401c0.323,0,0.651-0.053,0.985-0.159
						c0.333-0.106,0.644-0.255,0.929-0.445V10.209z"/>
					<path fill="#83A521" d="M208.084,6.271h1.056v3.433h4.4V6.271h1.067v7.7h-1.067V10.66h-4.4v3.311h-1.056V6.271z"/>
					<path fill="#83A521" d="M215.817,6.271h6.017v0.968h-2.486v6.732h-1.056V7.238h-2.475V6.271z"/>
					<path fill="#83A521" d="M226.426,7.365c-0.385-0.113-0.739-0.171-1.062-0.171c-0.447,0-0.805,0.087-1.072,0.259
						c-0.268,0.173-0.402,0.409-0.402,0.71c0,0.271,0.081,0.493,0.242,0.665c0.161,0.173,0.359,0.308,0.594,0.407
						c0.234,0.099,0.561,0.214,0.979,0.347c0.521,0.161,0.942,0.315,1.265,0.462s0.598,0.364,0.825,0.654
						c0.227,0.29,0.341,0.673,0.341,1.149c0,0.44-0.119,0.825-0.357,1.155s-0.572,0.585-1.001,0.765s-0.922,0.27-1.479,0.27
						c-0.565,0-1.115-0.11-1.65-0.33c-0.536-0.221-0.998-0.514-1.386-0.88l0.473-0.913c0.367,0.359,0.779,0.636,1.237,0.83
						c0.458,0.194,0.904,0.292,1.337,0.292c0.513,0,0.918-0.102,1.215-0.303c0.297-0.202,0.445-0.475,0.445-0.819
						c0-0.271-0.081-0.495-0.242-0.671c-0.162-0.177-0.365-0.315-0.611-0.419c-0.246-0.103-0.577-0.216-0.995-0.341
						c-0.514-0.153-0.932-0.304-1.254-0.451c-0.323-0.146-0.596-0.362-0.819-0.648s-0.335-0.664-0.335-1.133
						c0-0.411,0.114-0.773,0.341-1.089c0.228-0.315,0.546-0.558,0.957-0.727c0.411-0.168,0.887-0.253,1.43-0.253
						c0.462,0,0.915,0.068,1.358,0.203c0.444,0.137,0.838,0.317,1.183,0.545l-0.44,0.946C227.183,7.649,226.811,7.479,226.426,7.365
						z"/>
				</g>
				<g enable-background="new    ">
					<path fill="#83A521" d="M161.385,19.271h5.346v0.957h-4.29v2.376h3.839v0.957h-3.839v2.453h4.422v0.957h-5.478V19.271z"/>
					<path fill="#83A521" d="M171.95,20.365c-0.385-0.113-0.739-0.171-1.062-0.171c-0.447,0-0.805,0.087-1.072,0.259
						c-0.268,0.173-0.402,0.409-0.402,0.71c0,0.271,0.081,0.493,0.242,0.665c0.161,0.173,0.359,0.308,0.594,0.407
						c0.234,0.099,0.561,0.214,0.979,0.347c0.521,0.161,0.942,0.315,1.265,0.462s0.598,0.364,0.825,0.654
						c0.227,0.29,0.341,0.673,0.341,1.149c0,0.44-0.119,0.825-0.357,1.155s-0.572,0.585-1.001,0.765s-0.922,0.27-1.479,0.27
						c-0.565,0-1.115-0.11-1.65-0.33c-0.536-0.221-0.998-0.514-1.386-0.88l0.473-0.913c0.367,0.359,0.779,0.636,1.237,0.83
						c0.458,0.194,0.904,0.292,1.337,0.292c0.513,0,0.918-0.102,1.215-0.303c0.297-0.202,0.445-0.475,0.445-0.819
						c0-0.271-0.081-0.495-0.242-0.671c-0.162-0.177-0.365-0.315-0.611-0.419c-0.246-0.103-0.577-0.216-0.995-0.341
						c-0.514-0.153-0.932-0.304-1.254-0.451c-0.323-0.146-0.596-0.362-0.819-0.648s-0.335-0.664-0.335-1.133
						c0-0.411,0.114-0.773,0.341-1.089c0.228-0.315,0.546-0.558,0.957-0.727c0.411-0.168,0.887-0.253,1.43-0.253
						c0.462,0,0.915,0.068,1.358,0.203c0.444,0.137,0.838,0.317,1.183,0.545l-0.44,0.946
						C172.707,20.649,172.335,20.479,171.95,20.365z"/>
					<path fill="#83A521" d="M180.541,19.953c0.524,0.454,0.787,1.093,0.787,1.914c0,0.857-0.264,1.523-0.792,1.996
						s-1.269,0.709-2.222,0.709h-1.914v2.398h-1.056v-7.7h2.97C179.274,19.271,180.016,19.498,180.541,19.953z M179.787,23.182
						c0.352-0.29,0.528-0.717,0.528-1.282c0-0.55-0.176-0.966-0.528-1.248s-0.858-0.424-1.518-0.424l-1.87,0.011v3.377h1.87
						C178.929,23.615,179.435,23.471,179.787,23.182z"/>
					<path fill="#83A521" d="M188.131,19.722c0.62,0.345,1.109,0.815,1.469,1.413c0.359,0.599,0.539,1.256,0.539,1.975
						s-0.18,1.381-0.539,1.985c-0.359,0.605-0.849,1.082-1.469,1.431s-1.3,0.522-2.041,0.522s-1.421-0.174-2.041-0.522
						s-1.109-0.825-1.468-1.431c-0.359-0.604-0.539-1.267-0.539-1.985s0.18-1.376,0.539-1.975c0.359-0.598,0.847-1.068,1.463-1.413
						c0.616-0.345,1.298-0.517,2.046-0.517C186.831,19.205,187.511,19.377,188.131,19.722z M184.611,20.547
						c-0.458,0.264-0.823,0.621-1.094,1.072c-0.271,0.451-0.407,0.948-0.407,1.49c0,0.543,0.136,1.042,0.407,1.496
						c0.271,0.455,0.636,0.816,1.094,1.084c0.458,0.268,0.955,0.401,1.491,0.401c0.535,0,1.028-0.134,1.479-0.401
						s0.81-0.629,1.078-1.084c0.268-0.454,0.401-0.953,0.401-1.496c0-0.542-0.134-1.039-0.401-1.49
						c-0.268-0.451-0.627-0.809-1.078-1.072c-0.451-0.265-0.944-0.396-1.479-0.396C185.566,20.15,185.069,20.282,184.611,20.547z"/>
					<path fill="#83A521" d="M197.135,19.271h1.045v7.7h-1.067l-4.4-5.962v5.962h-1.056v-7.7h1.067l4.411,5.974V19.271z"/>
					<path fill="#83A521" d="M199.4,19.271h6.017v0.968h-2.486v6.732h-1.056v-6.732H199.4V19.271z"/>
					<path fill="#83A521" d="M211.61,26.971l-0.814-1.87h-4.059l-0.803,1.87h-1.111l3.421-7.7h1.1l3.41,7.7H211.61z M207.156,24.144
						h3.234l-1.628-3.74L207.156,24.144z M209.388,17.049l1.056,0.462l-1.364,1.078l-0.869-0.11L209.388,17.049z"/>
					<path fill="#83A521" d="M219.354,19.271h1.045v7.7h-1.067l-4.4-5.962v5.962h-1.056v-7.7h1.067l4.411,5.974V19.271z"/>
					<path fill="#83A521" d="M222.61,19.271h5.346v0.957h-4.29v2.376h3.839v0.957h-3.839v2.453h4.422v0.957h-5.478V19.271z"/>
					<path fill="#83A521" d="M235.199,19.722c0.62,0.345,1.109,0.815,1.469,1.413c0.359,0.599,0.539,1.256,0.539,1.975
						s-0.18,1.381-0.539,1.985c-0.359,0.605-0.849,1.082-1.469,1.431s-1.3,0.522-2.041,0.522s-1.421-0.174-2.041-0.522
						s-1.109-0.825-1.468-1.431c-0.359-0.604-0.539-1.267-0.539-1.985s0.18-1.376,0.539-1.975c0.359-0.598,0.847-1.068,1.463-1.413
						c0.616-0.345,1.298-0.517,2.046-0.517C233.9,19.205,234.58,19.377,235.199,19.722z M231.679,20.547
						c-0.458,0.264-0.823,0.621-1.094,1.072c-0.271,0.451-0.407,0.948-0.407,1.49c0,0.543,0.136,1.042,0.407,1.496
						c0.271,0.455,0.636,0.816,1.094,1.084c0.458,0.268,0.955,0.401,1.491,0.401c0.535,0,1.028-0.134,1.479-0.401
						s0.81-0.629,1.078-1.084c0.268-0.454,0.401-0.953,0.401-1.496c0-0.542-0.134-1.039-0.401-1.49
						c-0.268-0.451-0.627-0.809-1.078-1.072c-0.451-0.265-0.944-0.396-1.479-0.396C232.635,20.15,232.138,20.282,231.679,20.547z"/>
					<path fill="#83A521" d="M242.107,20.365c-0.385-0.113-0.739-0.171-1.062-0.171c-0.447,0-0.805,0.087-1.072,0.259
						c-0.268,0.173-0.402,0.409-0.402,0.71c0,0.271,0.081,0.493,0.242,0.665c0.161,0.173,0.359,0.308,0.594,0.407
						c0.234,0.099,0.561,0.214,0.979,0.347c0.521,0.161,0.942,0.315,1.265,0.462s0.598,0.364,0.825,0.654
						c0.227,0.29,0.341,0.673,0.341,1.149c0,0.44-0.119,0.825-0.357,1.155s-0.572,0.585-1.001,0.765s-0.922,0.27-1.479,0.27
						c-0.565,0-1.115-0.11-1.65-0.33c-0.536-0.221-0.998-0.514-1.386-0.88l0.473-0.913c0.367,0.359,0.779,0.636,1.237,0.83
						c0.458,0.194,0.904,0.292,1.337,0.292c0.513,0,0.918-0.102,1.215-0.303c0.297-0.202,0.445-0.475,0.445-0.819
						c0-0.271-0.081-0.495-0.242-0.671c-0.162-0.177-0.365-0.315-0.611-0.419c-0.246-0.103-0.577-0.216-0.995-0.341
						c-0.514-0.153-0.932-0.304-1.254-0.451c-0.323-0.146-0.596-0.362-0.819-0.648s-0.335-0.664-0.335-1.133
						c0-0.411,0.114-0.773,0.341-1.089c0.228-0.315,0.546-0.558,0.957-0.727c0.411-0.168,0.887-0.253,1.43-0.253
						c0.462,0,0.915,0.068,1.358,0.203c0.444,0.137,0.838,0.317,1.183,0.545l-0.44,0.946
						C242.865,20.649,242.492,20.479,242.107,20.365z"/>
				</g>
			</g>
			<g enable-background="new    ">
				<path fill="#83A521" d="M546.307,6.953c0.523,0.454,0.786,1.093,0.786,1.914c0,0.857-0.265,1.523-0.792,1.996
					s-1.269,0.709-2.223,0.709h-1.914v2.398h-1.055v-7.7h2.969C545.039,6.271,545.781,6.498,546.307,6.953z M545.553,10.182
					c0.352-0.29,0.527-0.717,0.527-1.282c0-0.55-0.176-0.966-0.527-1.248s-0.857-0.424-1.518-0.424l-1.871,0.011v3.377h1.871
					C544.696,10.615,545.201,10.471,545.553,10.182z"/>
				<path fill="#83A521" d="M549.969,12.491c0.393,0.399,0.934,0.6,1.623,0.6c0.682,0,1.217-0.2,1.605-0.6s0.584-0.955,0.584-1.667
					V6.271h1.055v4.554c0,1.005-0.287,1.794-0.863,2.365c-0.575,0.572-1.369,0.858-2.381,0.858c-1.02,0-1.818-0.286-2.398-0.858
					c-0.579-0.571-0.869-1.36-0.869-2.365V6.271h1.057v4.554C549.381,11.536,549.576,12.092,549.969,12.491z"/>
				<path fill="#83A521" d="M562.35,6.271h1.045v7.7h-1.066l-4.4-5.962v5.962h-1.057v-7.7h1.067l4.411,5.974V6.271z"/>
				<path fill="#83A521" d="M564.615,6.271h6.018v0.968h-2.486v6.732h-1.057V7.238h-2.475V6.271z"/>
				<path fill="#83A521" d="M576.765,6.722c0.62,0.345,1.109,0.815,1.469,1.413c0.358,0.599,0.539,1.256,0.539,1.975
					s-0.181,1.381-0.539,1.985c-0.359,0.605-0.849,1.082-1.469,1.431s-1.3,0.522-2.04,0.522c-0.741,0-1.422-0.174-2.041-0.522
					s-1.109-0.825-1.469-1.431c-0.359-0.604-0.539-1.267-0.539-1.985s0.18-1.376,0.539-1.975c0.359-0.598,0.848-1.068,1.463-1.413
					c0.617-0.345,1.299-0.517,2.047-0.517C575.465,6.205,576.145,6.377,576.765,6.722z M573.244,7.547
					c-0.457,0.264-0.822,0.621-1.094,1.072s-0.407,0.948-0.407,1.49c0,0.543,0.136,1.042,0.407,1.496
					c0.271,0.455,0.637,0.816,1.094,1.084c0.459,0.268,0.955,0.401,1.491,0.401c0.535,0,1.028-0.134,1.479-0.401
					s0.811-0.629,1.078-1.084c0.268-0.454,0.401-0.953,0.401-1.496c0-0.542-0.134-1.039-0.401-1.49s-0.627-0.809-1.078-1.072
					c-0.451-0.265-0.944-0.396-1.479-0.396C574.199,7.15,573.703,7.282,573.244,7.547z"/>
				<path fill="#83A521" d="M583.673,7.365c-0.385-0.113-0.739-0.171-1.062-0.171c-0.447,0-0.805,0.087-1.072,0.259
					c-0.268,0.173-0.402,0.409-0.402,0.71c0,0.271,0.082,0.493,0.242,0.665c0.162,0.173,0.359,0.308,0.595,0.407
					c0.234,0.099,0.562,0.214,0.979,0.347c0.52,0.161,0.941,0.315,1.264,0.462c0.323,0.146,0.598,0.364,0.826,0.654
					c0.227,0.29,0.34,0.673,0.34,1.149c0,0.44-0.119,0.825-0.357,1.155s-0.571,0.585-1,0.765c-0.43,0.18-0.923,0.27-1.48,0.27
					c-0.564,0-1.114-0.11-1.649-0.33c-0.536-0.221-0.997-0.514-1.386-0.88l0.473-0.913c0.367,0.359,0.779,0.636,1.237,0.83
					s0.903,0.292,1.337,0.292c0.514,0,0.918-0.102,1.215-0.303c0.297-0.202,0.445-0.475,0.445-0.819c0-0.271-0.08-0.495-0.241-0.671
					c-0.161-0.177-0.365-0.315-0.61-0.419c-0.246-0.103-0.578-0.216-0.996-0.341c-0.514-0.153-0.932-0.304-1.254-0.451
					c-0.322-0.146-0.596-0.362-0.819-0.648s-0.335-0.664-0.335-1.133c0-0.411,0.113-0.773,0.34-1.089
					c0.229-0.315,0.547-0.558,0.957-0.727c0.411-0.168,0.888-0.253,1.431-0.253c0.462,0,0.915,0.068,1.358,0.203
					c0.443,0.137,0.838,0.317,1.183,0.545l-0.44,0.946C584.43,7.649,584.059,7.479,583.673,7.365z"/>
			</g>
			<g enable-background="new    ">
				<path fill="#83A521" d="M544.311,19.771c0.605,0.334,1.08,0.794,1.424,1.38c0.346,0.587,0.518,1.243,0.518,1.97
					c0,0.726-0.174,1.382-0.522,1.969s-0.827,1.047-1.436,1.38c-0.608,0.334-1.291,0.501-2.046,0.501h-3.102v-7.7h3.135
					C543.03,19.271,543.705,19.438,544.311,19.771z M543.76,25.64c0.438-0.249,0.781-0.594,1.035-1.034
					c0.252-0.439,0.379-0.931,0.379-1.474c0-0.55-0.129-1.045-0.385-1.485c-0.257-0.439-0.607-0.786-1.051-1.039
					s-0.938-0.38-1.479-0.38h-2.058v5.786h2.102C542.838,26.014,543.324,25.889,543.76,25.64z"/>
				<path fill="#83A521" d="M547.759,19.271h5.346v0.957h-4.29v2.376h3.84v0.957h-3.84v2.453h4.422v0.957h-5.478V19.271z"/>
				<path fill="#83A521" d="M556.78,19.271h1.133l2.541,6.523l2.541-6.523h1.11l-3.124,7.7h-1.1L556.78,19.271z"/>
				<path fill="#83A521" d="M565.26,19.271h1.056v7.7h-1.056V19.271z"/>
				<path fill="#83A521" d="M571.899,20.365c-0.385-0.113-0.739-0.171-1.062-0.171c-0.447,0-0.805,0.087-1.072,0.259
					c-0.268,0.173-0.401,0.409-0.401,0.71c0,0.271,0.081,0.493,0.242,0.665c0.161,0.173,0.359,0.308,0.595,0.407
					c0.234,0.099,0.561,0.214,0.979,0.347c0.521,0.161,0.941,0.315,1.265,0.462s0.598,0.364,0.825,0.654
					c0.227,0.29,0.341,0.673,0.341,1.149c0,0.44-0.119,0.825-0.357,1.155s-0.571,0.585-1.001,0.765s-0.922,0.27-1.479,0.27
					c-0.565,0-1.114-0.11-1.649-0.33c-0.536-0.221-0.998-0.514-1.387-0.88l0.473-0.913c0.367,0.359,0.779,0.636,1.238,0.83
					c0.458,0.194,0.903,0.292,1.336,0.292c0.514,0,0.919-0.102,1.216-0.303c0.297-0.202,0.445-0.475,0.445-0.819
					c0-0.271-0.081-0.495-0.241-0.671c-0.162-0.177-0.365-0.315-0.611-0.419c-0.246-0.103-0.577-0.216-0.995-0.341
					c-0.514-0.153-0.932-0.304-1.255-0.451c-0.322-0.146-0.596-0.362-0.818-0.648c-0.225-0.286-0.336-0.664-0.336-1.133
					c0-0.411,0.113-0.773,0.341-1.089s0.546-0.558,0.957-0.727c0.411-0.168,0.888-0.253,1.431-0.253
					c0.461,0,0.914,0.068,1.357,0.203c0.444,0.137,0.838,0.317,1.184,0.545l-0.44,0.946
					C572.656,20.649,572.283,20.479,571.899,20.365z"/>
				<path fill="#83A521" d="M574.301,19.271h6.018v0.968h-2.486v6.732h-1.056v-6.732h-2.476V19.271z"/>
				<path fill="#83A521" d="M586.512,26.971l-0.814-1.87h-4.059l-0.803,1.87h-1.111l3.421-7.7h1.101l3.409,7.7H586.512z
					 M582.057,24.144h3.234l-1.629-3.74L582.057,24.144z"/>
			</g>
			<g enable-background="new    ">
				<path fill="#83A521" d="M711.405,12.429c0.524,0.454,0.787,1.093,0.787,1.914c0,0.857-0.265,1.523-0.793,1.996
					c-0.527,0.473-1.268,0.709-2.222,0.709h-1.914v2.398h-1.056v-7.7h2.97C710.138,11.746,710.88,11.974,711.405,12.429z
					 M710.651,15.657c0.353-0.29,0.528-0.717,0.528-1.282c0-0.55-0.176-0.966-0.528-1.248c-0.352-0.282-0.857-0.424-1.518-0.424
					l-1.87,0.011v3.377h1.87C709.793,16.091,710.299,15.946,710.651,15.657z"/>
				<path fill="#83A521" d="M718.858,19.446l-0.814-1.87h-4.059l-0.803,1.87h-1.111l3.421-7.7h1.101l3.409,7.7H718.858z
					 M714.403,16.619h3.234l-1.629-3.74L714.403,16.619z"/>
				<path fill="#83A521" d="M721.123,11.746h1.056v7.7h-1.056V11.746z"/>
				<path fill="#83A521" d="M729.858,11.746h1.045v7.7h-1.067l-4.4-5.962v5.962h-1.056v-7.7h1.066l4.412,5.974V11.746z"/>
				<path fill="#83A521" d="M738.311,12.429c0.523,0.454,0.786,1.093,0.786,1.914c0,0.857-0.265,1.523-0.792,1.996
					s-1.269,0.709-2.223,0.709h-1.914v2.398h-1.055v-7.7h2.969C737.043,11.746,737.785,11.974,738.311,12.429z M737.557,15.657
					c0.352-0.29,0.527-0.717,0.527-1.282c0-0.55-0.176-0.966-0.527-1.248s-0.857-0.424-1.518-0.424l-1.871,0.011v3.377h1.871
					C736.699,16.091,737.205,15.946,737.557,15.657z"/>
				<path fill="#83A521" d="M745.901,12.197c0.619,0.345,1.109,0.815,1.469,1.413c0.358,0.599,0.539,1.256,0.539,1.975
					s-0.181,1.381-0.539,1.985c-0.359,0.605-0.85,1.082-1.469,1.431c-0.62,0.349-1.301,0.522-2.041,0.522s-1.421-0.174-2.041-0.522
					c-0.619-0.349-1.108-0.825-1.468-1.431c-0.359-0.604-0.539-1.267-0.539-1.985s0.18-1.376,0.539-1.975
					c0.359-0.598,0.847-1.068,1.463-1.413s1.298-0.517,2.046-0.517C744.6,11.681,745.281,11.853,745.901,12.197z M742.38,13.022
					c-0.458,0.264-0.823,0.621-1.095,1.072s-0.406,0.948-0.406,1.49c0,0.543,0.135,1.042,0.406,1.496
					c0.271,0.455,0.637,0.816,1.095,1.084s0.955,0.401,1.491,0.401c0.535,0,1.027-0.134,1.479-0.401s0.811-0.629,1.078-1.084
					c0.268-0.454,0.402-0.953,0.402-1.496c0-0.542-0.135-1.039-0.402-1.49s-0.627-0.809-1.078-1.072
					c-0.451-0.265-0.943-0.396-1.479-0.396C743.335,12.626,742.838,12.758,742.38,13.022z"/>
				<path fill="#83A521" d="M749.426,11.746h1.056v7.7h-1.056V11.746z"/>
				<path fill="#83A521" d="M758.16,11.746h1.045v7.7h-1.067l-4.4-5.962v5.962h-1.056v-7.7h1.066l4.412,5.974V11.746z"/>
				<path fill="#83A521" d="M760.426,11.746h6.017v0.968h-2.485v6.732h-1.057v-6.732h-2.475V11.746z"/>
				<path fill="#83A521" d="M771.035,12.841c-0.385-0.113-0.739-0.171-1.062-0.171c-0.447,0-0.805,0.087-1.072,0.259
					c-0.268,0.173-0.401,0.409-0.401,0.71c0,0.271,0.081,0.493,0.242,0.665c0.161,0.173,0.359,0.308,0.595,0.407
					c0.234,0.099,0.561,0.214,0.979,0.347c0.521,0.161,0.941,0.315,1.265,0.462s0.598,0.364,0.825,0.654
					c0.227,0.29,0.341,0.673,0.341,1.149c0,0.44-0.119,0.825-0.357,1.155s-0.571,0.585-1.001,0.765s-0.922,0.27-1.479,0.27
					c-0.565,0-1.114-0.11-1.649-0.33c-0.536-0.221-0.998-0.514-1.387-0.88l0.473-0.913c0.367,0.359,0.779,0.636,1.238,0.83
					c0.458,0.194,0.903,0.292,1.336,0.292c0.514,0,0.919-0.102,1.216-0.303c0.297-0.202,0.445-0.475,0.445-0.819
					c0-0.271-0.081-0.495-0.241-0.671c-0.162-0.177-0.365-0.315-0.611-0.419c-0.246-0.103-0.577-0.216-0.995-0.341
					c-0.514-0.153-0.932-0.304-1.255-0.451c-0.322-0.146-0.596-0.362-0.818-0.648c-0.225-0.286-0.336-0.664-0.336-1.133
					c0-0.411,0.113-0.773,0.341-1.089s0.546-0.558,0.957-0.727c0.411-0.168,0.888-0.253,1.431-0.253
					c0.461,0,0.914,0.068,1.357,0.203c0.444,0.137,0.838,0.317,1.184,0.545l-0.44,0.946
					C771.792,13.125,771.42,12.954,771.035,12.841z"/>
			</g>
			<g enable-background="new    ">
				<path fill="#83A521" d="M887.389,11.746h1.254l2.816,5.412l2.793-5.412h1.266v7.7h-0.99l-0.011-6.149l-2.739,5.335h-0.648
					l-2.762-5.335v6.149h-0.979V11.746z"/>
				<path fill="#83A521" d="M897.718,11.746h5.346v0.957h-4.29v2.376h3.84v0.957h-3.84v2.453h4.422v0.957h-5.478V11.746z"/>
				<path fill="#83A521" d="M911.165,12.841c-0.385-0.113-0.739-0.171-1.062-0.171c-0.447,0-0.805,0.087-1.072,0.259
					c-0.268,0.173-0.402,0.409-0.402,0.71c0,0.271,0.082,0.493,0.242,0.665c0.162,0.173,0.359,0.308,0.595,0.407
					c0.234,0.099,0.562,0.214,0.979,0.347c0.52,0.161,0.941,0.315,1.264,0.462c0.323,0.146,0.598,0.364,0.826,0.654
					c0.227,0.29,0.34,0.673,0.34,1.149c0,0.44-0.119,0.825-0.357,1.155s-0.571,0.585-1,0.765c-0.43,0.18-0.923,0.27-1.48,0.27
					c-0.564,0-1.114-0.11-1.649-0.33c-0.536-0.221-0.997-0.514-1.386-0.88l0.473-0.913c0.367,0.359,0.779,0.636,1.237,0.83
					s0.903,0.292,1.337,0.292c0.514,0,0.918-0.102,1.215-0.303c0.297-0.202,0.445-0.475,0.445-0.819c0-0.271-0.08-0.495-0.241-0.671
					c-0.161-0.177-0.365-0.315-0.61-0.419c-0.246-0.103-0.578-0.216-0.996-0.341c-0.514-0.153-0.932-0.304-1.254-0.451
					c-0.322-0.146-0.596-0.362-0.819-0.648s-0.335-0.664-0.335-1.133c0-0.411,0.113-0.773,0.34-1.089
					c0.229-0.315,0.547-0.558,0.957-0.727c0.411-0.168,0.888-0.253,1.431-0.253c0.462,0,0.915,0.068,1.358,0.203
					c0.443,0.137,0.838,0.317,1.183,0.545l-0.44,0.946C911.922,13.125,911.551,12.954,911.165,12.841z"/>
				<path fill="#83A521" d="M914.559,11.746h1.056v7.7h-1.056V11.746z"/>
				<path fill="#83A521" d="M917.815,11.746h5.346v0.957h-4.29v2.376h3.839v0.957h-3.839v2.453h4.423v0.957h-5.479V11.746z"/>
				<path fill="#83A521" d="M930.476,11.746h1.045v7.7h-1.067l-4.4-5.962v5.962h-1.055v-7.7h1.066l4.411,5.974V11.746z"/>
				<path fill="#83A521" d="M932.741,11.746h6.017v0.968h-2.485v6.732h-1.056v-6.732h-2.476V11.746z"/>
				<path fill="#83A521" d="M944.891,12.197c0.619,0.345,1.109,0.815,1.469,1.413c0.359,0.599,0.539,1.256,0.539,1.975
					s-0.18,1.381-0.539,1.985c-0.359,0.605-0.85,1.082-1.469,1.431s-1.3,0.522-2.041,0.522c-0.74,0-1.42-0.174-2.04-0.522
					s-1.108-0.825-1.468-1.431c-0.359-0.604-0.539-1.267-0.539-1.985s0.18-1.376,0.539-1.975c0.359-0.598,0.847-1.068,1.463-1.413
					c0.615-0.345,1.297-0.517,2.045-0.517C943.591,11.681,944.272,11.853,944.891,12.197z M941.371,13.022
					c-0.459,0.264-0.824,0.621-1.095,1.072c-0.271,0.451-0.407,0.948-0.407,1.49c0,0.543,0.136,1.042,0.407,1.496
					c0.271,0.455,0.636,0.816,1.095,1.084c0.458,0.268,0.955,0.401,1.49,0.401s1.028-0.134,1.479-0.401s0.81-0.629,1.078-1.084
					c0.268-0.454,0.401-0.953,0.401-1.496c0-0.542-0.134-1.039-0.401-1.49c-0.269-0.451-0.627-0.809-1.078-1.072
					c-0.451-0.265-0.944-0.396-1.479-0.396S941.829,12.758,941.371,13.022z"/>
			</g>
			<g enable-background="new    ">
				<path fill="#83A521" d="M355.202,7.129c0.524,0.454,0.787,1.093,0.787,1.914c0,0.857-0.264,1.523-0.792,1.996
					s-1.269,0.709-2.222,0.709h-1.914v2.398h-1.056v-7.7h2.97C353.936,6.446,354.678,6.674,355.202,7.129z M354.449,10.357
					c0.352-0.29,0.528-0.717,0.528-1.282c0-0.55-0.176-0.966-0.528-1.248s-0.858-0.424-1.518-0.424l-1.87,0.011v3.377h1.87
					C353.591,10.791,354.097,10.646,354.449,10.357z"/>
				<path fill="#83A521" d="M362.358,14.146l-1.529-2.42c-0.176,0.015-0.319,0.021-0.429,0.021h-1.958v2.398h-1.056v-7.7h3.014
					c0.976,0,1.729,0.226,2.261,0.677s0.797,1.091,0.797,1.92c0,0.623-0.145,1.147-0.435,1.572c-0.29,0.426-0.706,0.733-1.249,0.924
					l1.793,2.607H362.358z M360.4,10.791c0.66,0,1.166-0.145,1.518-0.434c0.352-0.29,0.528-0.717,0.528-1.282
					c0-0.55-0.176-0.966-0.528-1.248s-0.858-0.424-1.518-0.424h-1.958v3.388H360.4z"/>
				<path fill="#83A521" d="M365.339,6.446h5.346v0.957h-4.29v2.376h3.839v0.957h-3.839v2.453h4.422v0.957h-5.478V6.446z"/>
				<path fill="#83A521" d="M377.845,10.385h0.935v2.827c-0.389,0.308-0.843,0.554-1.364,0.736
					c-0.521,0.184-1.038,0.275-1.551,0.275c-0.741,0-1.419-0.174-2.035-0.522c-0.616-0.349-1.102-0.825-1.458-1.431
					c-0.356-0.604-0.534-1.267-0.534-1.985s0.18-1.376,0.539-1.975c0.359-0.598,0.851-1.068,1.474-1.413
					c0.623-0.345,1.312-0.517,2.068-0.517c0.535,0,1.058,0.095,1.567,0.285c0.51,0.191,0.952,0.451,1.326,0.781l-0.605,0.771
					c-0.308-0.286-0.662-0.508-1.062-0.666c-0.4-0.157-0.809-0.236-1.227-0.236c-0.55,0-1.056,0.132-1.518,0.396
					c-0.462,0.264-0.827,0.623-1.094,1.077c-0.268,0.455-0.402,0.954-0.402,1.496c0,0.543,0.136,1.044,0.407,1.502
					c0.271,0.458,0.638,0.821,1.1,1.089c0.462,0.268,0.968,0.401,1.518,0.401c0.323,0,0.651-0.053,0.985-0.159
					c0.333-0.106,0.644-0.255,0.929-0.445V10.385z"/>
				<path fill="#83A521" d="M382.262,12.667c0.392,0.399,0.933,0.6,1.623,0.6c0.682,0,1.217-0.2,1.606-0.6s0.583-0.955,0.583-1.667
					V6.446h1.056V11c0,1.005-0.288,1.794-0.863,2.365c-0.576,0.572-1.37,0.858-2.381,0.858c-1.02,0-1.819-0.286-2.398-0.858
					c-0.58-0.571-0.869-1.36-0.869-2.365V6.446h1.056V11C381.674,11.712,381.87,12.268,382.262,12.667z"/>
				<path fill="#83A521" d="M394.643,6.446h1.045v7.7h-1.067l-4.4-5.962v5.962h-1.056v-7.7h1.067l4.411,5.974V6.446z"/>
				<path fill="#83A521" d="M396.908,6.446h6.017v0.968h-2.486v6.732h-1.056V7.414h-2.475V6.446z"/>
				<path fill="#83A521" d="M409.118,14.146l-0.814-1.87h-4.059l-0.803,1.87h-1.111l3.421-7.7h1.1l3.41,7.7H409.118z
					 M404.664,11.319h3.234l-1.628-3.74L404.664,11.319z"/>
				<path fill="#83A521" d="M414.69,7.541c-0.385-0.113-0.739-0.171-1.062-0.171c-0.447,0-0.805,0.087-1.072,0.259
					c-0.268,0.173-0.402,0.409-0.402,0.71c0,0.271,0.081,0.493,0.242,0.665c0.161,0.173,0.359,0.308,0.594,0.407
					c0.234,0.099,0.561,0.214,0.979,0.347c0.521,0.161,0.942,0.315,1.265,0.462s0.598,0.364,0.825,0.654
					c0.227,0.29,0.341,0.673,0.341,1.149c0,0.44-0.119,0.825-0.357,1.155s-0.572,0.585-1.001,0.765s-0.922,0.27-1.479,0.27
					c-0.565,0-1.115-0.11-1.65-0.33c-0.536-0.221-0.998-0.514-1.386-0.88L411,12.09c0.367,0.359,0.779,0.636,1.237,0.83
					c0.458,0.194,0.904,0.292,1.337,0.292c0.513,0,0.918-0.102,1.215-0.303c0.297-0.202,0.445-0.475,0.445-0.819
					c0-0.271-0.081-0.495-0.242-0.671c-0.162-0.177-0.365-0.315-0.611-0.419c-0.246-0.103-0.577-0.216-0.995-0.341
					c-0.514-0.153-0.932-0.304-1.254-0.451c-0.323-0.146-0.596-0.362-0.819-0.648s-0.335-0.664-0.335-1.133
					c0-0.411,0.114-0.773,0.341-1.089c0.228-0.315,0.546-0.558,0.957-0.727c0.411-0.168,0.887-0.253,1.43-0.253
					c0.462,0,0.915,0.068,1.358,0.203c0.444,0.137,0.838,0.317,1.183,0.545l-0.44,0.946C415.448,7.825,415.075,7.654,414.69,7.541z"
					/>
			</g>
			<g enable-background="new    ">
				<path fill="#83A521" d="M365.444,19.958c0.451,0.341,0.676,0.812,0.676,1.413c0,0.44-0.125,0.812-0.374,1.117
					c-0.25,0.304-0.59,0.508-1.023,0.61c0.535,0.081,0.955,0.295,1.26,0.644c0.304,0.349,0.456,0.782,0.456,1.304
					c0,0.659-0.247,1.175-0.742,1.545s-1.179,0.556-2.052,0.556h-3.344v-7.7h3.289C364.375,19.446,364.992,19.617,365.444,19.958z
					 M364.64,22.411c0.26-0.202,0.391-0.489,0.391-0.863c0-0.367-0.13-0.649-0.391-0.848c-0.26-0.197-0.629-0.293-1.105-0.286
					h-2.178v2.3h2.178C364.011,22.714,364.38,22.612,364.64,22.411z M364.877,25.854c0.323-0.223,0.484-0.537,0.484-0.94
					c0-0.389-0.162-0.692-0.484-0.913c-0.323-0.22-0.77-0.329-1.342-0.329h-2.178v2.508h2.178
					C364.107,26.186,364.554,26.078,364.877,25.854z"/>
				<path fill="#83A521" d="M373.853,27.146l-0.814-1.87h-4.059l-0.803,1.87h-1.111l3.421-7.7h1.1l3.41,7.7H373.853z
					 M369.398,24.319h3.234l-1.628-3.74L369.398,24.319z M371.631,17.225l1.056,0.462l-1.364,1.078l-0.869-0.11L371.631,17.225z"/>
				<path fill="#83A521" d="M379.425,20.541c-0.385-0.113-0.739-0.171-1.062-0.171c-0.447,0-0.805,0.087-1.072,0.259
					c-0.268,0.173-0.402,0.409-0.402,0.71c0,0.271,0.081,0.493,0.242,0.665c0.161,0.173,0.359,0.308,0.594,0.407
					c0.234,0.099,0.561,0.214,0.979,0.347c0.521,0.161,0.942,0.315,1.265,0.462s0.598,0.364,0.825,0.654
					c0.227,0.29,0.341,0.673,0.341,1.149c0,0.44-0.119,0.825-0.357,1.155s-0.572,0.585-1.001,0.765s-0.922,0.27-1.479,0.27
					c-0.565,0-1.115-0.11-1.65-0.33c-0.536-0.221-0.998-0.514-1.386-0.88l0.473-0.913c0.367,0.359,0.779,0.636,1.237,0.83
					c0.458,0.194,0.904,0.292,1.337,0.292c0.513,0,0.918-0.102,1.215-0.303c0.297-0.202,0.445-0.475,0.445-0.819
					c0-0.271-0.081-0.495-0.242-0.671c-0.162-0.177-0.365-0.315-0.611-0.419c-0.246-0.103-0.577-0.216-0.995-0.341
					c-0.514-0.153-0.932-0.304-1.254-0.451c-0.323-0.146-0.596-0.362-0.819-0.648s-0.335-0.664-0.335-1.133
					c0-0.411,0.114-0.773,0.341-1.089c0.228-0.315,0.546-0.558,0.957-0.727c0.411-0.168,0.887-0.253,1.43-0.253
					c0.462,0,0.915,0.068,1.358,0.203c0.444,0.137,0.838,0.317,1.183,0.545l-0.44,0.946
					C380.182,20.825,379.81,20.654,379.425,20.541z"/>
				<path fill="#83A521" d="M382.818,19.446h1.056v7.7h-1.056V19.446z"/>
				<path fill="#83A521" d="M390.628,20.574c-0.389-0.173-0.788-0.259-1.199-0.259c-0.543,0-1.042,0.132-1.496,0.396
					c-0.455,0.264-0.814,0.621-1.078,1.072c-0.264,0.451-0.396,0.947-0.396,1.49c0,0.535,0.132,1.03,0.396,1.485
					c0.264,0.454,0.624,0.813,1.078,1.078c0.455,0.264,0.953,0.396,1.496,0.396c0.403,0,0.799-0.082,1.188-0.247
					s0.733-0.391,1.034-0.677l0.638,0.693c-0.389,0.381-0.84,0.68-1.353,0.896c-0.513,0.216-1.034,0.324-1.562,0.324
					c-0.733,0-1.404-0.174-2.013-0.522c-0.609-0.349-1.089-0.823-1.441-1.425c-0.352-0.602-0.528-1.265-0.528-1.991
					c0-0.719,0.178-1.376,0.534-1.975c0.355-0.598,0.841-1.068,1.458-1.413c0.616-0.345,1.294-0.517,2.035-0.517
					c0.535,0,1.054,0.101,1.557,0.302c0.502,0.202,0.937,0.486,1.304,0.853l-0.627,0.76
					C391.358,20.986,391.016,20.746,390.628,20.574z"/>
				<path fill="#83A521" d="M399.439,27.146l-0.814-1.87h-4.059l-0.803,1.87h-1.111l3.421-7.7h1.1l3.41,7.7H399.439z
					 M394.984,24.319h3.234l-1.628-3.74L394.984,24.319z"/>
				<path fill="#83A521" d="M405.01,20.541c-0.385-0.113-0.739-0.171-1.062-0.171c-0.447,0-0.805,0.087-1.072,0.259
					c-0.268,0.173-0.402,0.409-0.402,0.71c0,0.271,0.081,0.493,0.242,0.665c0.161,0.173,0.359,0.308,0.594,0.407
					c0.234,0.099,0.561,0.214,0.979,0.347c0.521,0.161,0.942,0.315,1.265,0.462s0.598,0.364,0.825,0.654
					c0.227,0.29,0.341,0.673,0.341,1.149c0,0.44-0.119,0.825-0.357,1.155s-0.572,0.585-1.001,0.765s-0.922,0.27-1.479,0.27
					c-0.565,0-1.115-0.11-1.65-0.33c-0.536-0.221-0.998-0.514-1.386-0.88l0.473-0.913c0.367,0.359,0.779,0.636,1.237,0.83
					c0.458,0.194,0.904,0.292,1.337,0.292c0.513,0,0.918-0.102,1.215-0.303c0.297-0.202,0.445-0.475,0.445-0.819
					c0-0.271-0.081-0.495-0.242-0.671c-0.162-0.177-0.365-0.315-0.611-0.419c-0.246-0.103-0.577-0.216-0.995-0.341
					c-0.514-0.153-0.932-0.304-1.254-0.451c-0.323-0.146-0.596-0.362-0.819-0.648s-0.335-0.664-0.335-1.133
					c0-0.411,0.114-0.773,0.341-1.089c0.228-0.315,0.546-0.558,0.957-0.727c0.411-0.168,0.887-0.253,1.43-0.253
					c0.462,0,0.915,0.068,1.358,0.203c0.444,0.137,0.838,0.317,1.183,0.545l-0.44,0.946
					C405.767,20.825,405.395,20.654,405.01,20.541z"/>
			</g>
		</g>
	</g>
	<g>
		<path fill="#83A521" d="M647.937,6.111c-1.568,0.013-3.057,0.949-3.694,2.488l-3.535,8.535c-0.849,2.05,0.133,4.412,2.18,5.261
			l8.541,3.539c2.048,0.85,4.413-0.133,5.261-2.182l3.538-8.536c0.848-2.051-0.134-4.414-2.182-5.264l-8.539-3.538
			C648.991,6.206,648.459,6.107,647.937,6.111z M647.94,7.714c0.314-0.001,0.636,0.063,0.949,0.19l8.538,3.539
			c1.251,0.517,1.823,1.908,1.308,3.156l-3.535,8.538c-0.518,1.25-1.908,1.825-3.156,1.307l-8.542-3.539
			c-1.246-0.516-1.822-1.904-1.305-3.152l3.535-8.539C646.119,8.277,646.996,7.717,647.94,7.714z M654.49,13.358
			c-0.667,0-1.209,0.54-1.209,1.206c0,0.667,0.542,1.208,1.209,1.208c0.668,0,1.208-0.541,1.208-1.208
			C655.698,13.898,655.158,13.358,654.49,13.358z M650.466,14.97c-0.668,0-1.207,0.54-1.207,1.207c0,0.665,0.539,1.208,1.207,1.208
			l0,0c0.667,0,1.206-0.543,1.206-1.208l0,0C651.672,15.51,651.133,14.97,650.466,14.97z M646.44,16.578
			c-0.668,0-1.209,0.541-1.209,1.206c0,0.669,0.541,1.21,1.209,1.21c0.667,0,1.208-0.541,1.208-1.21
			C647.648,17.119,647.107,16.578,646.44,16.578z"/>
		<path fill="#83A521" d="M470.947,6.111c-1.568,0.013-3.057,0.949-3.696,2.488l-3.534,8.535c-0.851,2.05,0.132,4.414,2.179,5.263
			l8.54,3.539c2.048,0.848,4.413-0.135,5.262-2.184l3.536-8.536c0.849-2.049-0.131-4.414-2.179-5.261l-8.541-3.54
			C472,6.206,471.468,6.107,470.947,6.111z M470.948,7.714c0.312,0,0.638,0.063,0.946,0.19l8.541,3.539
			c1.251,0.517,1.824,1.908,1.307,3.156l-3.535,8.54c-0.519,1.248-1.906,1.823-3.157,1.305l-8.538-3.539
			c-1.25-0.516-1.825-1.904-1.31-3.152l3.536-8.539C469.125,8.277,470.007,7.721,470.948,7.714z M476.692,13.358
			c-0.666,0-1.207,0.54-1.207,1.206c0,0.67,0.541,1.208,1.207,1.208c0.669,0,1.21-0.538,1.21-1.208
			C477.902,13.898,477.361,13.358,476.692,13.358z M470.255,16.578c-0.668,0-1.208,0.541-1.208,1.207
			c0,0.668,0.54,1.209,1.208,1.209c0.665,0,1.208-0.541,1.208-1.209C471.463,17.119,470.92,16.578,470.255,16.578z"/>
		<path fill="#83A521" d="M826.806,6.111c-1.57,0.013-3.06,0.949-3.696,2.488l-3.536,8.535c-0.849,2.05,0.132,4.414,2.181,5.263
			l8.541,3.539c2.047,0.848,4.412-0.135,5.261-2.184l3.537-8.536c0.848-2.049-0.132-4.414-2.18-5.261l-8.541-3.54
			C827.86,6.206,827.326,6.107,826.806,6.111z M826.808,7.714c0.312,0,0.636,0.063,0.947,0.19l8.54,3.539
			c1.25,0.517,1.823,1.908,1.306,3.156l-3.533,8.54c-0.519,1.248-1.908,1.823-3.157,1.305l-8.539-3.539
			c-1.251-0.516-1.825-1.904-1.309-3.152l3.536-8.539C824.985,8.277,825.864,7.721,826.808,7.714z M832.722,13.566
			c-0.664-0.04-1.237,0.463-1.28,1.127c-0.042,0.667,0.465,1.24,1.129,1.281c0.667,0.043,1.24-0.461,1.283-1.129
			C833.895,14.18,833.389,13.608,832.722,13.566z M826.095,16.375c-0.667-0.043-1.238,0.466-1.281,1.13
			c-0.043,0.666,0.463,1.241,1.128,1.283c0.666,0.042,1.24-0.466,1.282-1.132C827.267,16.991,826.758,16.416,826.095,16.375z
			 M831.943,19.566c0.042-0.666-0.462-1.239-1.127-1.281c-0.669-0.042-1.24,0.465-1.281,1.129c-0.042,0.666,0.462,1.24,1.13,1.283
			C831.33,20.738,831.902,20.232,831.943,19.566z M829.136,12.938c0.042-0.666-0.465-1.239-1.13-1.281
			c-0.666-0.042-1.24,0.462-1.283,1.129c-0.042,0.665,0.465,1.24,1.13,1.282C828.521,14.11,829.095,13.602,829.136,12.938z"/>
		<path fill="#83A521" d="M291.299,6.111c-1.568,0.013-3.057,0.949-3.694,2.488l-3.537,8.535c-0.848,2.05,0.134,4.412,2.181,5.261
			l8.541,3.539c2.048,0.85,4.413-0.133,5.261-2.182l3.538-8.536c0.848-2.051-0.134-4.414-2.183-5.264l-8.538-3.538
			C292.354,6.206,291.821,6.107,291.299,6.111z M291.303,7.714c0.314-0.001,0.636,0.063,0.949,0.19l8.538,3.539
			c1.251,0.517,1.823,1.908,1.308,3.156l-3.535,8.538c-0.518,1.25-1.908,1.825-3.157,1.307l-8.542-3.539
			c-1.245-0.516-1.821-1.904-1.304-3.152l3.535-8.539C289.482,8.277,290.359,7.717,291.303,7.714z M293.828,14.97
			c-0.668,0-1.207,0.54-1.207,1.207c0,0.665,0.539,1.208,1.207,1.208l0,0c0.667,0,1.206-0.543,1.206-1.208l0,0
			C295.034,15.51,294.495,14.97,293.828,14.97z"/>
	</g>
	<path fill="#83A521" d="M136.896,16.002L120.71,32.5H15.97c-8.878,0-16.047-7.605-16.047-16.498C-0.077,7.114,7.092-0.5,15.97-0.5
		h104.732L136.896,16.002z"/>
	<g>
		<g enable-background="new    ">
			<path fill="#FFFFFF" d="M26.277,13.769c0.524,0.454,0.787,1.093,0.787,1.914c0,0.857-0.264,1.523-0.792,1.996
				s-1.269,0.709-2.222,0.709h-1.914v2.398H21.08v-7.7h2.97C25.01,13.086,25.753,13.313,26.277,13.769z M25.524,16.997
				c0.352-0.29,0.528-0.717,0.528-1.282c0-0.55-0.176-0.966-0.528-1.248s-0.858-0.424-1.518-0.424l-1.87,0.011v3.377h1.87
				C24.666,17.431,25.172,17.286,25.524,16.997z"/>
			<path fill="#FFFFFF" d="M33.432,20.786l-1.529-2.42c-0.176,0.015-0.319,0.021-0.429,0.021h-1.958v2.398h-1.056v-7.7h3.014
				c0.976,0,1.729,0.226,2.261,0.677s0.797,1.091,0.797,1.92c0,0.623-0.145,1.147-0.435,1.572c-0.29,0.426-0.706,0.733-1.249,0.924
				l1.793,2.607H33.432z M31.474,17.431c0.66,0,1.166-0.145,1.518-0.434c0.352-0.29,0.528-0.717,0.528-1.282
				c0-0.55-0.176-0.966-0.528-1.248s-0.858-0.424-1.518-0.424h-1.958v3.388H31.474z"/>
			<path fill="#FFFFFF" d="M41.82,13.537c0.62,0.345,1.109,0.815,1.469,1.413c0.359,0.599,0.539,1.256,0.539,1.975
				s-0.18,1.381-0.539,1.985c-0.359,0.605-0.849,1.082-1.469,1.431s-1.3,0.522-2.041,0.522s-1.421-0.174-2.041-0.522
				s-1.109-0.825-1.468-1.431c-0.359-0.604-0.539-1.267-0.539-1.985s0.18-1.376,0.539-1.975c0.359-0.598,0.847-1.068,1.463-1.413
				c0.616-0.345,1.298-0.517,2.046-0.517C40.52,13.021,41.2,13.192,41.82,13.537z M38.3,14.362
				c-0.458,0.264-0.823,0.621-1.094,1.072c-0.271,0.451-0.407,0.948-0.407,1.49c0,0.543,0.136,1.042,0.407,1.496
				c0.271,0.455,0.636,0.816,1.094,1.084c0.458,0.268,0.955,0.401,1.491,0.401c0.535,0,1.028-0.134,1.479-0.401
				s0.81-0.629,1.078-1.084c0.268-0.454,0.401-0.953,0.401-1.496c0-0.542-0.134-1.039-0.401-1.49
				c-0.268-0.451-0.627-0.809-1.078-1.072c-0.451-0.265-0.944-0.396-1.479-0.396C39.255,13.966,38.759,14.098,38.3,14.362z"/>
			<path fill="#FFFFFF" d="M50.488,13.598c0.451,0.341,0.676,0.812,0.676,1.413c0,0.44-0.125,0.812-0.374,1.117
				c-0.25,0.304-0.59,0.508-1.023,0.61c0.535,0.081,0.955,0.295,1.26,0.644c0.304,0.349,0.456,0.782,0.456,1.304
				c0,0.659-0.247,1.175-0.742,1.545s-1.179,0.556-2.052,0.556h-3.344v-7.7h3.289C49.419,13.086,50.037,13.257,50.488,13.598z
				 M49.685,16.051c0.26-0.202,0.391-0.489,0.391-0.863c0-0.367-0.13-0.649-0.391-0.848c-0.26-0.197-0.629-0.293-1.105-0.286h-2.178
				v2.3h2.178C49.056,16.354,49.425,16.252,49.685,16.051z M49.921,19.493c0.323-0.223,0.484-0.537,0.484-0.94
				c0-0.389-0.162-0.692-0.484-0.913c-0.323-0.22-0.77-0.329-1.342-0.329h-2.178v2.508h2.178
				C49.151,19.825,49.598,19.718,49.921,19.493z"/>
			<path fill="#FFFFFF" d="M53.177,13.086h1.056v6.743h3.366v0.957h-4.422V13.086z"/>
			<path fill="#FFFFFF" d="M58.941,13.086h5.346v0.957h-4.29v2.376h3.839v0.957h-3.839v2.453h4.422v0.957h-5.478V13.086z"/>
			<path fill="#FFFFFF" d="M66.124,13.086h1.254l2.816,5.412l2.794-5.412h1.265v7.7h-0.99l-0.011-6.149l-2.739,5.335h-0.649
				l-2.761-5.335v6.149h-0.979V13.086z"/>
			<path fill="#FFFFFF" d="M82.173,20.786l-0.814-1.87H77.3l-0.803,1.87h-1.111l3.421-7.7h1.1l3.41,7.7H82.173z M77.719,17.959
				h3.234l-1.628-3.74L77.719,17.959z M79.951,10.864l1.056,0.462l-1.364,1.078l-0.869-0.11L79.951,10.864z"/>
			<path fill="#FFFFFF" d="M82.712,13.086h6.017v0.968h-2.486v6.732h-1.056v-6.732h-2.475V13.086z"/>
			<path fill="#FFFFFF" d="M89.939,13.086h1.056v7.7h-1.056V13.086z"/>
			<path fill="#FFFFFF" d="M97.749,14.214c-0.389-0.173-0.788-0.259-1.199-0.259c-0.543,0-1.042,0.132-1.496,0.396
				c-0.455,0.264-0.814,0.621-1.078,1.072c-0.264,0.451-0.396,0.947-0.396,1.49c0,0.535,0.132,1.03,0.396,1.485
				c0.264,0.454,0.624,0.813,1.078,1.078c0.455,0.264,0.953,0.396,1.496,0.396c0.403,0,0.799-0.082,1.188-0.247
				s0.733-0.391,1.034-0.677l0.638,0.693c-0.389,0.381-0.84,0.68-1.353,0.896c-0.513,0.216-1.034,0.324-1.562,0.324
				c-0.733,0-1.404-0.174-2.013-0.522c-0.609-0.349-1.089-0.823-1.441-1.425c-0.352-0.602-0.528-1.265-0.528-1.991
				c0-0.719,0.178-1.376,0.534-1.975c0.355-0.598,0.841-1.068,1.458-1.413c0.616-0.345,1.294-0.517,2.035-0.517
				c0.535,0,1.054,0.101,1.557,0.302c0.502,0.202,0.937,0.486,1.304,0.853l-0.627,0.76C98.479,14.626,98.137,14.386,97.749,14.214z"
				/>
			<path fill="#FFFFFF" d="M106.56,20.786l-0.814-1.87h-4.059l-0.803,1.87h-1.111l3.421-7.7h1.1l3.41,7.7H106.56z M102.105,17.959
				h3.234l-1.628-3.74L102.105,17.959z"/>
		</g>
	</g>
	<g>
		<path fill="#D2DEB2" d="M1075.231,15.819c0,8.986-7.284,16.3-16.271,16.3c-0.048,0-0.091,0.193-0.139,0.188
			c-0.049,0.006-0.088,0.193-0.138,0.193H993.32l15.765-15.945c0.141-0.137,0.205-0.408,0.205-0.584c0-0.18-0.064-0.461-0.205-0.591
			L993.321-0.5h65.641C1067.947-0.5,1075.231,6.844,1075.231,15.819z"/>
		<g enable-background="new    ">
			<path fill="#83A521" d="M1026.79,20.854l-1.528-2.42c-0.176,0.015-0.319,0.021-0.43,0.021h-1.958v2.398h-1.056v-7.7h3.014
				c0.976,0,1.729,0.226,2.261,0.677s0.798,1.091,0.798,1.92c0,0.623-0.145,1.147-0.436,1.572c-0.289,0.426-0.705,0.733-1.248,0.924
				l1.793,2.607H1026.79z M1024.832,17.499c0.66,0,1.166-0.145,1.518-0.434c0.353-0.29,0.529-0.717,0.529-1.282
				c0-0.55-0.177-0.966-0.529-1.248c-0.352-0.282-0.857-0.424-1.518-0.424h-1.958v3.388H1024.832z"/>
			<path fill="#83A521" d="M1029.772,13.154h5.346v0.957h-4.29v2.376h3.839v0.957h-3.839v2.453h4.423v0.957h-5.479V13.154z"/>
			<path fill="#83A521" d="M1035.964,13.154h6.017v0.968h-2.485v6.732h-1.056v-6.732h-2.476V13.154z"/>
			<path fill="#83A521" d="M1048.114,13.605c0.619,0.345,1.109,0.815,1.469,1.413c0.359,0.599,0.539,1.256,0.539,1.975
				s-0.18,1.381-0.539,1.985c-0.359,0.605-0.85,1.082-1.469,1.431s-1.3,0.522-2.041,0.522c-0.74,0-1.42-0.174-2.04-0.522
				s-1.108-0.825-1.468-1.431c-0.359-0.604-0.539-1.267-0.539-1.985s0.18-1.376,0.539-1.975c0.359-0.598,0.847-1.068,1.463-1.413
				c0.615-0.345,1.297-0.517,2.045-0.517C1046.814,13.089,1047.494,13.261,1048.114,13.605z M1044.594,14.431
				c-0.459,0.264-0.824,0.621-1.095,1.072c-0.271,0.451-0.407,0.948-0.407,1.49c0,0.543,0.136,1.042,0.407,1.496
				c0.271,0.455,0.636,0.816,1.095,1.084c0.458,0.268,0.955,0.401,1.49,0.401s1.028-0.134,1.479-0.401s0.81-0.629,1.078-1.084
				c0.268-0.454,0.401-0.953,0.401-1.496c0-0.542-0.134-1.039-0.401-1.49c-0.269-0.451-0.627-0.809-1.078-1.072
				c-0.451-0.265-0.944-0.396-1.479-0.396S1045.052,14.166,1044.594,14.431z"/>
			<path fill="#83A521" d="M1055.022,14.249c-0.385-0.113-0.738-0.171-1.062-0.171c-0.447,0-0.805,0.087-1.072,0.259
				c-0.269,0.173-0.401,0.409-0.401,0.71c0,0.271,0.08,0.493,0.242,0.665c0.16,0.173,0.359,0.308,0.594,0.407
				c0.234,0.099,0.561,0.214,0.979,0.347c0.521,0.161,0.942,0.315,1.266,0.462c0.322,0.146,0.598,0.364,0.824,0.654
				c0.228,0.29,0.342,0.673,0.342,1.149c0,0.44-0.119,0.825-0.357,1.155s-0.572,0.585-1.002,0.765
				c-0.429,0.18-0.922,0.27-1.479,0.27c-0.565,0-1.115-0.11-1.65-0.33c-0.535-0.221-0.998-0.514-1.387-0.88l0.474-0.913
				c0.366,0.359,0.779,0.636,1.237,0.83c0.459,0.194,0.904,0.292,1.337,0.292c0.513,0,0.919-0.102,1.216-0.303
				c0.297-0.202,0.445-0.475,0.445-0.819c0-0.271-0.081-0.495-0.242-0.671c-0.162-0.177-0.365-0.315-0.611-0.419
				c-0.245-0.103-0.576-0.216-0.994-0.341c-0.514-0.153-0.932-0.304-1.255-0.451c-0.323-0.146-0.596-0.362-0.819-0.648
				s-0.336-0.664-0.336-1.133c0-0.411,0.114-0.773,0.342-1.089c0.227-0.315,0.546-0.558,0.957-0.727
				c0.41-0.168,0.887-0.253,1.43-0.253c0.462,0,0.914,0.068,1.358,0.203c0.444,0.137,0.838,0.317,1.183,0.545l-0.439,0.946
				C1055.78,14.533,1055.406,14.362,1055.022,14.249z"/>
		</g>
	</g>
</g>
</svg>
