<?xml version="1.0" encoding="utf-8"?>
<!-- Generator: Adobe Illustrator 15.0.2, SVG Export Plug-In . SVG Version: 6.00 Build 0)  -->
<!DOCTYPE svg PUBLIC "-//W3C//DTD SVG 1.1//EN" "http://www.w3.org/Graphics/SVG/1.1/DTD/svg11.dtd">
<svg version="1.1" id="Capa_1" xmlns="http://www.w3.org/2000/svg" xmlns:xlink="http://www.w3.org/1999/xlink" x="0px" y="0px"
	 width="1920px" height="180px" viewBox="0 0 1920 180" enable-background="new 0 0 1920 180" xml:space="preserve">
<rect x="0" fill="#2B2B2B" width="1920" height="180"/>
<g>
	<path fill="#706F6F" d="M498.412,73.285l-7.275,5.241c-1.438-1.179-3.492-1.363-5.068-0.226l-13.608,9.799
		c-1.882,1.352-2.308,3.971-0.951,5.851l1.224,1.7c1.354,1.881,3.977,2.308,5.854,0.953l13.606-9.796
		c1.577-1.137,2.062-3.145,1.396-4.878l7.438-5.358L498.412,73.285z"/>
</g>
<g>
	<g>
		<g>
			<g>
				<g>
					<g>
						<defs>
							<path id="SVGID_1_" d="M491.136,78.526c-1.438-1.178-3.491-1.362-5.068-0.226l-13.61,9.799
								c-1.879,1.352-2.306,3.973-0.948,5.851l1.224,1.7c1.354,1.881,3.974,2.308,5.854,0.953l13.608-9.796
								c1.577-1.137,2.06-3.145,1.396-4.878l7.438-5.358l-2.605-3.286L491.136,78.526z"/>
						</defs>
						<clipPath id="SVGID_2_">
							<use xlink:href="#SVGID_1_"  overflow="visible"/>
						</clipPath>
						<rect x="469" y="47.103" clip-path="url(#SVGID_2_)" fill="#9EB80D" width="81" height="51.897"/>
					</g>
				</g>
			</g>
		</g>
	</g>
</g>
<g>
	<g>
		<path fill="#9EB80D" d="M128.552,107.876c0-0.338,0.286-0.624,0.624-0.624h0.078h5.07c2.855,0,5.174,2.34,5.174,5.2
			s-2.314,5.174-5.174,5.174l-4.499,0.052v7.15c0,0.338-0.286,0.624-0.65,0.624c-0.338,0-0.624-0.286-0.624-0.624L128.552,107.876
			L128.552,107.876z M134.324,116.404c2.153-0.026,3.926-1.795,3.926-3.952c0-2.158-1.771-3.927-3.926-3.927h-4.499v7.879H134.324z"
			/>
		<path fill="#9EB80D" d="M152.758,121.345c0-1.325-0.676-2.157-1.482-2.756c-0.806-0.571-1.768-0.858-2.104-0.909
			c-0.078-0.027-0.104-0.053-0.13-0.053h-4.42v7.202c0,0.338-0.286,0.624-0.65,0.624c-0.338,0-0.624-0.286-0.624-0.624v-16.953
			c0-0.312,0.26-0.599,0.572-0.624h0.052h0.078h5.07c2.855,0,5.174,2.314,5.174,5.2c0,2.08-1.227,3.874-2.99,4.706
			c0.078,0.052,0.156,0.078,0.26,0.13c1.196,0.676,2.444,2.002,2.444,4.057c0,1.066,0.104,1.716,0.234,2.106
			c0.104,0.312,0.229,0.416,0.26,0.441c0.286-0.025,0.598,0.131,0.702,0.416c0.073,0.338-0.078,0.698-0.416,0.832
			c-0.026,0-0.156,0.022-0.312,0.022h-0.052c-0.338,0-0.884-0.261-1.17-0.832C152.94,123.736,152.758,122.878,152.758,121.345z
			 M149.118,108.525h-4.498v7.854h4.363h0.234c2.106-0.052,3.822-1.794,3.822-3.926
			C153.044,110.268,151.276,108.525,149.118,108.525z"/>
		<path fill="#9EB80D" d="M167.5,106.992c4.857,0,8.684,4.134,8.71,9.23c-0.026,5.096-3.853,9.229-8.71,9.229
			c-4.914,0-8.768-4.135-8.789-9.229C158.737,111.126,162.586,106.992,167.5,106.992z M167.5,124.18c4.004,0,7.384-3.511,7.41-7.957
			c-0.026-4.498-3.406-7.931-7.41-7.931c-4.134,0-7.52,3.433-7.52,7.931C159.985,120.668,163.366,124.18,167.5,124.18z"/>
		<path fill="#9EB80D" d="M180.733,107.876c0-0.338,0.286-0.624,0.624-0.624h0.078h3.979c2.496,0,4.521,2.028,4.521,4.55
			c0,1.431-0.702,2.704-1.742,3.536c2.059,0.702,3.562,2.626,3.562,4.914c0,2.887-2.34,5.2-5.2,5.2h-5.122h-0.078h-0.021
			c-0.338,0-0.603-0.286-0.603-0.624L180.733,107.876L180.733,107.876z M185.414,115.025c1.794,0,3.25-1.455,3.25-3.228
			c0-1.815-1.456-3.272-3.25-3.272h-3.406v6.5H185.414z M186.558,124.18c2.158,0,3.9-1.742,3.926-3.927
			c-0.021-2.158-1.768-3.926-3.926-3.926h-4.55v7.853H186.558L186.558,124.18z"/>
		<path fill="#9EB80D" d="M196.854,125.453h-0.052c-0.338,0-0.624-0.286-0.624-0.624v-16.953c0-0.338,0.286-0.624,0.624-0.624
			c0.364,0,0.65,0.286,0.65,0.624v16.304h8.71c0.359,0,0.646,0.285,0.646,0.649c0,0.338-0.286,0.624-0.646,0.624H196.854z"/>
		<path fill="#9EB80D" d="M210.815,107.876c0-0.338,0.286-0.624,0.624-0.624h0.057h9.308c0.364,0,0.624,0.286,0.624,0.624
			c0,0.364-0.26,0.649-0.624,0.649h-8.71v7.203h7.618c0.338,0,0.624,0.287,0.624,0.646c0,0.338-0.286,0.624-0.624,0.624h-7.618
			v7.181h8.71c0.364,0,0.624,0.281,0.624,0.646c0,0.338-0.26,0.624-0.624,0.624h-9.282h-0.078h-0.052
			c-0.312-0.026-0.572-0.286-0.572-0.624L210.815,107.876L210.815,107.876z"/>
		<path fill="#9EB80D" d="M240.273,109.852l-5.819,8.086c-0.135,0.209-0.343,0.287-0.521,0.287h-0.052
			c-0.234,0-0.416-0.078-0.546-0.287l-5.824-8.061v14.951c0,0.338-0.286,0.624-0.624,0.624c-0.364,0-0.65-0.286-0.65-0.624V107.98
			c0-0.209,0.104-0.395,0.265-0.494c0-0.026,0.021-0.026,0.052-0.053c0.286-0.186,0.676-0.129,0.884,0.152l6.476,8.975l6.446-8.975
			c0.187-0.281,0.603-0.338,0.886-0.152c0.076,0.074,0.132,0.131,0.185,0.209c0.052,0.104,0.104,0.229,0.104,0.338v16.849
			c0,0.338-0.284,0.624-0.624,0.624c-0.36,0-0.623-0.286-0.623-0.624v-14.978H240.273L240.273,109.852z"/>
		<path fill="#9EB80D" d="M259.747,125.037l-1.612-4.29h-8.294l-1.612,4.29c-0.104,0.26-0.338,0.416-0.598,0.416
			c-0.052,0-0.156-0.026-0.234-0.026c-0.312-0.13-0.494-0.52-0.359-0.832l6.313-16.875c0.104-0.233,0.364-0.39,0.624-0.39
			c0.286,0,0.546,0.156,0.624,0.39l6.318,16.875c0.13,0.312-0.026,0.702-0.338,0.832c-0.104,0-0.156,0.026-0.234,0.026
			C260.111,125.453,259.851,125.297,259.747,125.037z M250.309,119.473h7.358L254,109.695L250.309,119.473z M252.57,104.859
			c0.343,0,0.521-0.051,0.832-0.338l2.08-2.002c0.156-0.155,0.286-0.312,0.286-0.472c0-0.26-0.598-0.598-1.092-0.598
			c-0.312,0-0.521,0.151-0.729,0.468l-1.607,2.418c-0.052,0.078-0.104,0.186-0.104,0.286
			C252.232,104.756,252.389,104.859,252.57,104.859z"/>
		<path fill="#9EB80D" d="M269.678,108.525h-5.486c-0.338,0-0.624-0.285-0.624-0.649c0-0.338,0.286-0.624,0.624-0.624h12.225
			c0.338,0,0.624,0.286,0.624,0.624c0,0.364-0.286,0.649-0.624,0.649h-5.486v16.304c0,0.338-0.286,0.624-0.624,0.624
			s-0.624-0.286-0.624-0.624L269.678,108.525L269.678,108.525z"/>
		<path fill="#9EB80D" d="M282.002,107.876c0-0.338,0.286-0.624,0.624-0.624c0.364,0,0.646,0.286,0.646,0.624v16.953
			c0,0.338-0.286,0.624-0.646,0.624c-0.338,0-0.624-0.286-0.624-0.624V107.876z"/>
		<path fill="#9EB80D" d="M298.408,106.992c2.231,0,4.285,0.779,5.876,2.002c0.281,0.234,0.338,0.676,0.104,0.91
			c-0.208,0.312-0.624,0.338-0.884,0.13c-1.404-1.093-3.172-1.769-5.096-1.769c-4.555,0-8.19,3.562-8.19,8.008
			c0,4.343,3.641,7.9,8.19,7.9c1.924,0,3.688-0.619,5.044-1.768c0.312-0.208,0.728-0.156,0.905,0.152
			c0.265,0.233,0.208,0.701-0.073,0.91c-1.591,1.223-3.645,1.979-5.876,1.979c-5.229,0-9.469-4.108-9.469-9.183
			C288.944,111.1,293.182,107.018,298.408,106.992z"/>
		<path fill="#9EB80D" d="M319.364,120.747h-8.294l-1.612,4.29c-0.104,0.26-0.338,0.416-0.598,0.416
			c-0.052,0-0.156-0.026-0.229-0.026c-0.312-0.13-0.494-0.52-0.364-0.832l6.313-16.875c0.104-0.233,0.364-0.39,0.624-0.39
			c0.286,0,0.549,0.156,0.624,0.39l6.318,16.875c0.13,0.312-0.026,0.702-0.338,0.832c-0.104,0-0.156,0.026-0.234,0.026
			c-0.229,0-0.494-0.156-0.598-0.416L319.364,120.747z M311.533,119.473h7.358l-3.666-9.771L311.533,119.473z"/>
	</g>
	<g>
		<path fill="#9EB80D" d="M180.344,139.076c0-0.338,0.286-0.624,0.624-0.624c0.364,0,0.65,0.286,0.65,0.624v16.953
			c0,0.338-0.286,0.623-0.65,0.623c-0.338,0-0.624-0.285-0.624-0.623V139.076z"/>
		<path fill="#9EB80D" d="M189.418,141.13v14.897c0,0.339-0.286,0.625-0.624,0.625s-0.624-0.286-0.624-0.625v-16.691
			c-0.078-0.26,0-0.521,0.229-0.702c0.286-0.182,0.702-0.13,0.889,0.156l11.021,15.289v-14.82c0-0.338,0.286-0.624,0.624-0.624
			c0.364,0,0.65,0.286,0.65,0.624v16.771c0,0.338-0.286,0.624-0.65,0.624c-0.208,0-0.364-0.078-0.494-0.234
			c-0.021-0.025-0.078-0.052-0.104-0.104L189.418,141.13z"/>
		<path fill="#9EB80D" d="M207.41,139.076c0-0.338,0.281-0.624,0.624-0.624c0.359,0,0.646,0.286,0.646,0.624v16.953
			c0,0.338-0.286,0.623-0.646,0.623c-0.343,0-0.624-0.285-0.624-0.623V139.076z"/>
		<path fill="#9EB80D" d="M223.816,138.191c2.236,0,4.291,0.775,5.876,2.002c0.286,0.229,0.338,0.676,0.104,0.91
			c-0.208,0.312-0.624,0.338-0.884,0.129c-1.404-1.092-3.172-1.771-5.101-1.771c-4.55,0-8.188,3.562-8.188,8.012
			c0,4.342,3.64,7.9,8.188,7.9c1.926,0,3.692-0.624,5.044-1.771c0.312-0.209,0.729-0.152,0.91,0.156
			c0.26,0.233,0.208,0.701-0.078,0.909c-1.586,1.222-3.64,1.976-5.876,1.976c-5.226,0-9.464-4.104-9.464-9.178
			C214.352,142.3,218.59,138.218,223.816,138.191z"/>
		<path fill="#9EB80D" d="M235.386,139.076c0-0.338,0.286-0.624,0.624-0.624c0.364,0,0.65,0.286,0.65,0.624v16.953
			c0,0.338-0.286,0.623-0.65,0.623c-0.338,0-0.624-0.285-0.624-0.623V139.076z"/>
		<path fill="#9EB80D" d="M253.092,151.945h-8.294l-1.612,4.291c-0.104,0.26-0.338,0.416-0.598,0.416
			c-0.052,0-0.156-0.026-0.234-0.026c-0.312-0.13-0.494-0.521-0.364-0.832l6.318-16.875c0.104-0.233,0.364-0.39,0.624-0.39
			c0.286,0,0.546,0.156,0.624,0.39l6.318,16.875c0.13,0.312-0.026,0.702-0.338,0.832c-0.104,0-0.156,0.026-0.234,0.026
			c-0.234,0-0.494-0.156-0.598-0.416L253.092,151.945z M245.266,150.672h7.358l-3.666-9.775L245.266,150.672z"/>
		<path fill="#9EB80D" d="M260.605,156.652h-0.052c-0.338,0-0.624-0.286-0.624-0.625v-16.952c0-0.339,0.286-0.624,0.624-0.624
			c0.364,0,0.65,0.285,0.65,0.624v16.303h8.71c0.359,0,0.646,0.286,0.646,0.649c0,0.339-0.286,0.625-0.646,0.625H260.605z"/>
	</g>
</g>
<g>
	<g>
		<path fill="#9EB80D" d="M456.073,107.876c0-0.338,0.286-0.624,0.624-0.624c0.364,0,0.65,0.286,0.65,0.624v16.953
			c0,0.338-0.286,0.624-0.65,0.624c-0.338,0-0.624-0.286-0.624-0.624V107.876z"/>
		<path fill="#9EB80D" d="M465.148,109.93v14.898c0,0.338-0.286,0.624-0.624,0.624s-0.624-0.286-0.624-0.624v-16.693
			c-0.078-0.26,0-0.52,0.234-0.701c0.286-0.183,0.702-0.131,0.884,0.155l11.024,15.289v-14.819c0-0.338,0.281-0.625,0.624-0.625
			c0.359,0,0.646,0.287,0.646,0.625v16.771c0,0.338-0.286,0.624-0.646,0.624c-0.213,0-0.364-0.078-0.494-0.234
			c-0.026-0.024-0.078-0.052-0.104-0.104L465.148,109.93z"/>
		<path fill="#9EB80D" d="M483.031,122.046c0.208-0.26,0.572-0.286,0.811-0.078c1.352,1.093,3.609,2.366,5.979,2.341
			c1.586,0,3.021-0.469,4.004-1.197c1.019-0.728,1.562-1.688,1.562-2.699c0-1.04-0.494-1.82-1.482-2.496
			c-0.983-0.646-2.439-1.146-4.212-1.479h-0.052c-1.69-0.312-3.172-0.779-4.29-1.533c-1.118-0.729-1.872-1.82-1.872-3.172
			c0-1.379,0.754-2.574,1.898-3.406c1.144-0.832,2.678-1.326,4.394-1.326c2.392,0,4.188,1.17,5.616,2.105
			c0.26,0.183,0.338,0.521,0.156,0.807c-0.156,0.26-0.521,0.338-0.78,0.156c-1.431-0.938-2.99-1.926-4.992-1.926
			c-1.482,0-2.808,0.439-3.718,1.094c-0.91,0.676-1.435,1.56-1.435,2.496c0.026,0.906,0.442,1.586,1.354,2.209
			c0.91,0.625,2.262,1.062,3.896,1.379h0.056c1.815,0.338,3.432,0.854,4.628,1.664c1.196,0.775,2.002,1.976,2.002,3.432
			s-0.832,2.756-2.054,3.641c-1.227,0.885-2.86,1.43-4.685,1.43c-2.782-0.021-5.2-1.43-6.708-2.625
			C482.88,122.645,482.854,122.28,483.031,122.046z"/>
		<path fill="#9EB80D" d="M501.392,107.876c0-0.338,0.286-0.624,0.624-0.624c0.364,0,0.646,0.286,0.646,0.624v16.953
			c0,0.338-0.281,0.624-0.646,0.624c-0.338,0-0.624-0.286-0.624-0.624V107.876z"/>
		<path fill="#9EB80D" d="M517.642,117.262c-0.364,0-0.65-0.26-0.65-0.623c0-0.365,0.286-0.646,0.65-0.646h5.616h0.078
			c0.312,0.021,0.567,0.312,0.567,0.646v6.239v0.104c-0.021,0.182-0.104,0.359-0.229,0.468c-1.612,1.274-3.645,2.002-5.876,2.002
			c-5.229-0.026-9.464-4.108-9.464-9.257c0-5.069,4.233-9.203,9.464-9.203c2.262,0,4.264,0.779,5.897,2.054
			c0.234,0.183,0.312,0.624,0.078,0.884c-0.208,0.26-0.598,0.312-0.91,0.104c-1.321-1.093-3.115-1.769-5.065-1.769
			c-4.55,0-8.19,3.562-8.19,7.93c0,4.421,3.646,7.979,8.19,7.979c1.768,0,3.458-0.568,4.811-1.56v-5.356L517.642,117.262
			L517.642,117.262z"/>
		<path fill="#9EB80D" d="M539.768,116.977h-9.36v7.854c0,0.338-0.286,0.624-0.646,0.624c-0.338,0-0.624-0.286-0.624-0.624v-16.953
			c0-0.338,0.286-0.624,0.624-0.624c0.359,0,0.646,0.286,0.646,0.624v7.854h9.36v-7.854c0-0.338,0.286-0.624,0.624-0.624
			c0.364,0,0.65,0.286,0.65,0.624v16.953c0,0.338-0.286,0.624-0.65,0.624c-0.338,0-0.624-0.286-0.624-0.624V116.977z"/>
		<path fill="#9EB80D" d="M552.273,108.525h-5.486c-0.338,0-0.624-0.285-0.624-0.649c0-0.338,0.286-0.624,0.624-0.624h12.226
			c0.338,0,0.624,0.286,0.624,0.624c0,0.364-0.286,0.649-0.624,0.649h-5.486v16.304c0,0.338-0.286,0.624-0.624,0.624
			s-0.624-0.286-0.624-0.624L552.273,108.525L552.273,108.525z"/>
		<path fill="#9EB80D" d="M563.193,122.046c0.208-0.26,0.572-0.286,0.806-0.078c1.354,1.093,3.614,2.366,5.98,2.341
			c1.586,0,3.016-0.469,4.004-1.197c1.014-0.728,1.562-1.688,1.562-2.699c0-1.04-0.494-1.82-1.482-2.496
			c-0.988-0.646-2.444-1.146-4.212-1.479h-0.052c-1.69-0.312-3.172-0.779-4.291-1.533c-1.118-0.729-1.872-1.82-1.872-3.172
			c0-1.379,0.754-2.574,1.896-3.406c1.146-0.832,2.683-1.326,4.396-1.326c2.392,0,4.186,1.17,5.616,2.105
			c0.26,0.183,0.338,0.521,0.151,0.807c-0.151,0.26-0.52,0.338-0.775,0.156c-1.435-0.938-2.99-1.926-4.992-1.926
			c-1.482,0-2.812,0.439-3.718,1.094c-0.91,0.676-1.435,1.56-1.435,2.496c0.026,0.906,0.442,1.586,1.354,2.209
			c0.908,0.625,2.262,1.062,3.896,1.379h0.057c1.815,0.338,3.432,0.854,4.628,1.664c1.191,0.775,2.002,1.976,2.002,3.432
			s-0.832,2.756-2.059,3.641c-1.222,0.885-2.855,1.43-4.68,1.43c-2.782-0.021-5.2-1.43-6.708-2.625
			C563.032,122.645,563.011,122.28,563.193,122.046z"/>
	</g>
	<g>
		<path fill="#9EB80D" d="M420.714,139.076c0-0.338,0.286-0.624,0.624-0.624h0.052h9.309c0.364,0,0.624,0.286,0.624,0.624
			c0,0.363-0.26,0.65-0.624,0.65h-8.71v7.197h7.619c0.338,0,0.624,0.286,0.624,0.65c0,0.338-0.286,0.624-0.624,0.624h-7.619v7.176
			h8.71c0.364,0,0.624,0.286,0.624,0.646c0,0.34-0.26,0.625-0.624,0.625h-9.282h-0.073h-0.057c-0.312-0.022-0.567-0.285-0.567-0.625
			L420.714,139.076L420.714,139.076z"/>
		<path fill="#9EB80D" d="M435.299,153.246c0.208-0.26,0.567-0.286,0.806-0.078c1.352,1.092,3.614,2.366,5.98,2.34
			c1.586,0,3.016-0.468,4.004-1.195c1.014-0.729,1.56-1.688,1.56-2.705c0-1.039-0.494-1.815-1.479-2.496
			c-0.988-0.646-2.444-1.145-4.217-1.479h-0.052c-1.688-0.312-3.172-0.777-4.29-1.531c-1.118-0.729-1.872-1.819-1.872-3.175
			c0-1.378,0.754-2.571,1.898-3.403c1.144-0.832,2.678-1.325,4.394-1.325c2.396,0,4.188,1.17,5.616,2.104
			c0.26,0.187,0.338,0.521,0.156,0.81c-0.156,0.261-0.521,0.338-0.78,0.154c-1.43-0.938-2.99-1.926-4.992-1.926
			c-1.479,0-2.808,0.438-3.718,1.094c-0.91,0.678-1.43,1.562-1.43,2.494c0.021,0.91,0.438,1.588,1.352,2.211
			c0.913,0.623,2.262,1.065,3.9,1.381h0.052c1.82,0.338,3.432,0.854,4.628,1.662c1.196,0.778,2.002,1.979,2.002,3.436
			c0,1.455-0.832,2.756-2.054,3.64s-2.86,1.431-4.68,1.431c-2.782-0.023-5.2-1.431-6.708-2.627
			C435.144,153.844,435.115,153.48,435.299,153.246z"/>
		<path fill="#9EB80D" d="M453.473,139.076c0-0.338,0.286-0.624,0.624-0.624h0.078h5.065c2.86,0,5.179,2.34,5.179,5.2
			c0,2.855-2.314,5.174-5.179,5.174l-4.498,0.052v7.149c0,0.339-0.281,0.625-0.646,0.625c-0.338,0-0.624-0.286-0.624-0.625V139.076
			L453.473,139.076z M459.24,147.604c2.158-0.021,3.931-1.793,3.931-3.951c0-2.154-1.771-3.926-3.931-3.926h-4.498v7.877H459.24z"/>
		<path fill="#9EB80D" d="M476.614,138.191c4.862,0,8.688,4.134,8.71,9.229c-0.021,5.098-3.849,9.229-8.71,9.229
			c-4.915,0-8.762-4.133-8.789-9.229C467.852,142.326,471.698,138.191,476.614,138.191z M476.614,155.378
			c4.004,0,7.384-3.51,7.41-7.957c-0.026-4.498-3.406-7.93-7.41-7.93c-4.134,0-7.514,3.432-7.514,7.93
			C469.1,151.868,472.479,155.378,476.614,155.378z"/>
		<path fill="#9EB80D" d="M491.406,141.13v14.897c0,0.339-0.286,0.625-0.624,0.625s-0.624-0.286-0.624-0.625v-16.691
			c-0.078-0.26,0-0.521,0.234-0.702c0.286-0.182,0.702-0.13,0.884,0.156l11.024,15.289v-14.82c0-0.338,0.286-0.624,0.624-0.624
			c0.359,0,0.646,0.286,0.646,0.624v16.771c0,0.338-0.286,0.624-0.646,0.624c-0.208,0-0.364-0.078-0.494-0.234
			c-0.026-0.025-0.078-0.052-0.104-0.104L491.406,141.13z"/>
		<path fill="#9EB80D" d="M514.573,139.727h-5.481c-0.343,0-0.624-0.287-0.624-0.646c0-0.338,0.281-0.624,0.624-0.624h12.22
			c0.338,0,0.624,0.286,0.624,0.624c0,0.359-0.286,0.646-0.624,0.646h-5.486v16.307c0,0.338-0.286,0.619-0.624,0.619
			s-0.624-0.281-0.624-0.619L514.573,139.727L514.573,139.727z"/>
		<path fill="#9EB80D" d="M538.281,156.236l-1.607-4.291h-8.294l-1.612,4.291c-0.104,0.26-0.338,0.416-0.599,0.416
			c-0.056,0-0.155-0.026-0.233-0.026c-0.312-0.13-0.494-0.521-0.364-0.832l6.318-16.875c0.104-0.233,0.363-0.39,0.624-0.39
			c0.286,0,0.546,0.156,0.624,0.39l6.313,16.875c0.134,0.312-0.021,0.702-0.338,0.832c-0.104,0-0.151,0.026-0.229,0.026
			C538.649,156.652,538.389,156.496,538.281,156.236z M528.847,150.672h7.354l-3.666-9.775L528.847,150.672z M531.109,136.061
			c0.338,0,0.521-0.053,0.832-0.338l2.08-2.003c0.156-0.155,0.286-0.312,0.286-0.468c0-0.26-0.598-0.598-1.092-0.598
			c-0.312,0-0.521,0.156-0.729,0.468l-1.607,2.418c-0.057,0.078-0.104,0.183-0.104,0.286
			C530.771,135.956,530.927,136.061,531.109,136.061z"/>
		<path fill="#9EB80D" d="M544.837,141.13v14.897c0,0.339-0.286,0.625-0.624,0.625c-0.343,0-0.624-0.286-0.624-0.625v-16.691
			c-0.078-0.26,0-0.521,0.229-0.702c0.286-0.182,0.702-0.13,0.884,0.156l11.024,15.289v-14.82c0-0.338,0.286-0.624,0.624-0.624
			c0.364,0,0.647,0.286,0.647,0.624v16.771c0,0.338-0.283,0.624-0.647,0.624c-0.208,0-0.364-0.078-0.494-0.234
			c-0.026-0.025-0.078-0.052-0.104-0.104L544.837,141.13z"/>
		<path fill="#9EB80D" d="M561.893,139.076c0-0.338,0.286-0.624,0.624-0.624h0.052h9.312c0.359,0,0.624,0.286,0.624,0.624
			c0,0.363-0.265,0.65-0.624,0.65h-8.71v7.197h7.614c0.341,0,0.624,0.286,0.624,0.65c0,0.338-0.281,0.624-0.624,0.624h-7.614v7.176
			h8.71c0.359,0,0.624,0.286,0.624,0.646c0,0.34-0.265,0.625-0.624,0.625h-9.282h-0.078h-0.052
			c-0.312-0.022-0.572-0.285-0.572-0.625L561.893,139.076L561.893,139.076z"/>
		<path fill="#9EB80D" d="M585.291,138.191c4.858,0,8.685,4.134,8.711,9.229c-0.026,5.098-3.854,9.229-8.711,9.229
			c-4.914,0-8.766-4.133-8.788-9.229C576.53,142.326,580.378,138.191,585.291,138.191z M585.291,155.378
			c4.005,0,7.385-3.51,7.406-7.957c-0.021-4.498-3.401-7.93-7.406-7.93c-4.138,0-7.518,3.432-7.518,7.93
			C577.778,151.868,581.156,155.378,585.291,155.378z"/>
		<path fill="#9EB80D" d="M598.474,153.246c0.208-0.26,0.572-0.286,0.806-0.078c1.354,1.092,3.614,2.366,5.98,2.34
			c1.586,0,3.016-0.468,4.004-1.195c1.014-0.729,1.56-1.688,1.56-2.705c0-1.039-0.494-1.815-1.479-2.496
			c-0.988-0.646-2.444-1.145-4.212-1.479h-0.057c-1.688-0.312-3.172-0.777-4.291-1.531c-1.113-0.729-1.872-1.819-1.872-3.175
			c0-1.378,0.759-2.571,1.898-3.403c1.146-0.832,2.678-1.325,4.396-1.325c2.393,0,4.187,1.17,5.612,2.104
			c0.265,0.187,0.339,0.521,0.156,0.81c-0.156,0.261-0.521,0.338-0.78,0.154c-1.43-0.938-2.986-1.926-4.988-1.926
			c-1.481,0-2.812,0.438-3.722,1.094c-0.908,0.678-1.43,1.562-1.43,2.494c0.026,0.91,0.442,1.588,1.352,2.211
			c0.91,0.623,2.267,1.065,3.9,1.381h0.052c1.82,0.338,3.437,0.854,4.628,1.662c1.196,0.778,2.002,1.979,2.002,3.436
			c0,1.455-0.83,2.756-2.054,3.64c-1.222,0.884-2.858,1.431-4.68,1.431c-2.782-0.023-5.2-1.431-6.708-2.627
			C598.317,153.844,598.291,153.48,598.474,153.246z"/>
	</g>
</g>
<g>
	<g>
		<path fill="#9EB80D" d="M708.74,107.876c0-0.338,0.286-0.624,0.624-0.624h0.078h5.07c2.855,0,5.174,2.34,5.174,5.2
			s-2.312,5.174-5.174,5.174l-4.498,0.052v7.15c0,0.338-0.286,0.624-0.65,0.624c-0.338,0-0.624-0.286-0.624-0.624V107.876z
			 M714.514,116.404c2.158-0.026,3.926-1.795,3.926-3.952c0-2.158-1.768-3.927-3.926-3.927h-4.498v7.879H714.514z"/>
		<path fill="#9EB80D" d="M732.948,121.345c0-1.325-0.676-2.157-1.479-2.756c-0.811-0.571-1.771-0.858-2.106-0.909
			c-0.078-0.027-0.104-0.053-0.13-0.053h-4.42v7.202c0,0.338-0.286,0.624-0.65,0.624c-0.338,0-0.624-0.286-0.624-0.624v-16.953
			c0-0.312,0.265-0.599,0.572-0.624h0.052h0.078h5.07c2.859,0,5.174,2.314,5.174,5.2c0,2.08-1.222,3.874-2.99,4.706
			c0.078,0.052,0.156,0.078,0.265,0.13c1.191,0.676,2.439,2.002,2.439,4.057c0,1.066,0.104,1.716,0.234,2.106
			c0.104,0.312,0.23,0.416,0.26,0.441c0.286-0.025,0.599,0.131,0.702,0.416c0.078,0.338-0.078,0.698-0.416,0.832
			c-0.026,0-0.156,0.022-0.312,0.022h-0.053c-0.338,0-0.884-0.261-1.17-0.832C733.13,123.736,732.948,122.878,732.948,121.345z
			 M729.308,108.525h-4.498v7.854h4.368h0.229c2.106-0.052,3.822-1.794,3.822-3.926
			C733.234,110.268,731.466,108.525,729.308,108.525z"/>
		<path fill="#9EB80D" d="M740.149,107.876c0-0.338,0.286-0.624,0.624-0.624h0.052h9.312c0.361,0,0.624,0.286,0.624,0.624
			c0,0.364-0.263,0.649-0.624,0.649h-8.71v7.203h7.619c0.338,0,0.624,0.287,0.624,0.646c0,0.338-0.286,0.624-0.624,0.624h-7.619
			v7.181h8.71c0.361,0,0.624,0.281,0.624,0.646c0,0.338-0.263,0.624-0.624,0.624h-9.282h-0.078h-0.052
			c-0.312-0.026-0.572-0.286-0.572-0.624L740.149,107.876L740.149,107.876z"/>
		<path fill="#9EB80D" d="M764.07,117.262c-0.364,0-0.646-0.26-0.646-0.623c0-0.365,0.281-0.646,0.646-0.646h5.616h0.078
			c0.312,0.021,0.572,0.312,0.572,0.646v6.239v0.104c-0.026,0.182-0.104,0.359-0.234,0.468c-1.612,1.274-3.64,2.002-5.876,2.002
			c-5.226-0.026-9.464-4.108-9.464-9.257c0-5.069,4.238-9.203,9.464-9.203c2.262,0,4.264,0.779,5.902,2.054
			c0.229,0.183,0.312,0.624,0.077,0.884c-0.207,0.26-0.602,0.312-0.909,0.104c-1.326-1.093-3.12-1.769-5.07-1.769
			c-4.55,0-8.19,3.562-8.19,7.93c0,4.421,3.646,7.979,8.19,7.979c1.768,0,3.458-0.568,4.811-1.56v-5.356L764.07,117.262
			L764.07,117.262z"/>
		<path fill="#9EB80D" d="M776.757,107.876c0-0.338,0.286-0.624,0.624-0.624c0.359,0,0.646,0.286,0.646,0.624v10.218
			c0,3.354,2.73,6.059,6.062,6.084c3.38-0.025,6.105-2.729,6.105-6.084v-10.218c0-0.338,0.286-0.624,0.624-0.624
			c0.364,0,0.65,0.286,0.65,0.624v10.218c0,4.057-3.302,7.358-7.384,7.358c-4.03,0-7.333-3.302-7.333-7.358L776.757,107.876
			L776.757,107.876z"/>
		<path fill="#9EB80D" d="M798.826,109.93v14.898c0,0.338-0.281,0.624-0.624,0.624c-0.338,0-0.624-0.286-0.624-0.624v-16.693
			c-0.073-0.26,0-0.52,0.234-0.701c0.286-0.183,0.702-0.131,0.884,0.155l11.024,15.289v-14.819c0-0.338,0.286-0.625,0.624-0.625
			c0.362,0,0.646,0.287,0.646,0.625v16.771c0,0.338-0.283,0.624-0.646,0.624c-0.208,0-0.364-0.078-0.494-0.234
			c-0.026-0.024-0.078-0.052-0.104-0.104L798.826,109.93z"/>
		<path fill="#9EB80D" d="M821.992,108.525h-5.481c-0.338,0-0.624-0.285-0.624-0.649c0-0.338,0.286-0.624,0.624-0.624h12.221
			c0.338,0,0.624,0.286,0.624,0.624c0,0.364-0.286,0.649-0.624,0.649h-5.486v16.304c0,0.338-0.284,0.624-0.624,0.624
			c-0.338,0-0.624-0.286-0.624-0.624L821.992,108.525L821.992,108.525z"/>
		<path fill="#9EB80D" d="M841.653,120.747h-8.294l-1.612,4.29c-0.104,0.26-0.338,0.416-0.598,0.416
			c-0.052,0-0.156-0.026-0.234-0.026c-0.312-0.13-0.489-0.52-0.359-0.832l6.313-16.875c0.104-0.233,0.364-0.39,0.624-0.39
			c0.286,0,0.547,0.156,0.624,0.39l6.318,16.875c0.13,0.312-0.026,0.702-0.338,0.832c-0.104,0-0.156,0.026-0.234,0.026
			c-0.229,0-0.494-0.156-0.598-0.416L841.653,120.747z M833.823,119.473h7.358l-3.666-9.771L833.823,119.473z"/>
		<path fill="#9EB80D" d="M847.217,122.046c0.208-0.26,0.567-0.286,0.806-0.078c1.354,1.093,3.614,2.366,5.98,2.341
			c1.586,0,3.016-0.469,4.004-1.197c1.014-0.728,1.56-1.688,1.56-2.699c0-1.04-0.494-1.82-1.479-2.496
			c-0.988-0.646-2.444-1.146-4.216-1.479h-0.053c-1.688-0.312-3.172-0.779-4.291-1.533c-1.118-0.729-1.872-1.82-1.872-3.172
			c0-1.379,0.754-2.574,1.898-3.406c1.144-0.832,2.678-1.326,4.395-1.326c2.396,0,4.188,1.17,5.616,2.105
			c0.26,0.183,0.338,0.521,0.156,0.807c-0.156,0.26-0.521,0.338-0.78,0.156c-1.43-0.938-2.99-1.926-4.992-1.926
			c-1.479,0-2.808,0.439-3.718,1.094c-0.91,0.676-1.43,1.56-1.43,2.496c0.021,0.906,0.438,1.586,1.352,2.209
			c0.91,0.625,2.267,1.062,3.9,1.379h0.052c1.82,0.338,3.433,0.854,4.628,1.664c1.196,0.775,2.002,1.976,2.002,3.432
			s-0.832,2.756-2.054,3.641c-1.223,0.885-2.86,1.43-4.68,1.43c-2.782-0.021-5.2-1.43-6.708-2.625
			C847.061,122.645,847.031,122.28,847.217,122.046z"/>
	</g>
	<g>
		<path fill="#9EB80D" d="M731.617,139.076c0-0.338,0.286-0.624,0.624-0.624h0.078h3.979c2.496,0,4.521,2.028,4.521,4.55
			c0,1.43-0.702,2.704-1.74,3.536c2.057,0.702,3.562,2.626,3.562,4.914c0,2.886-2.34,5.2-5.2,5.2h-5.122h-0.078h-0.021
			c-0.338,0-0.603-0.286-0.603-0.625V139.076L731.617,139.076z M736.302,146.227c1.794,0,3.25-1.457,3.25-3.225
			c0-1.82-1.456-3.275-3.25-3.275h-3.406v6.5H736.302z M737.446,155.378c2.158,0,3.9-1.742,3.926-3.926
			c-0.021-2.158-1.768-3.927-3.926-3.927h-4.55v7.854L737.446,155.378L737.446,155.378z"/>
		<path fill="#9EB80D" d="M758.636,156.236l-1.612-4.291h-8.294l-1.612,4.291c-0.104,0.26-0.338,0.416-0.598,0.416
			c-0.052,0-0.156-0.026-0.234-0.026c-0.312-0.13-0.494-0.521-0.359-0.832l6.313-16.875c0.104-0.233,0.364-0.39,0.624-0.39
			c0.286,0,0.546,0.156,0.624,0.39l6.318,16.875c0.13,0.312-0.026,0.702-0.338,0.832c-0.104,0-0.156,0.026-0.234,0.026
			C759,156.652,758.74,156.496,758.636,156.236z M749.198,150.672h7.358l-3.666-9.775L749.198,150.672z M751.46,136.061
			c0.338,0,0.52-0.053,0.831-0.338l2.076-2.003c0.156-0.155,0.286-0.312,0.286-0.468c0-0.26-0.598-0.598-1.092-0.598
			c-0.312,0-0.521,0.156-0.729,0.468l-1.612,2.418c-0.052,0.078-0.104,0.183-0.104,0.286
			C751.117,135.956,751.278,136.061,751.46,136.061z"/>
		<path fill="#9EB80D" d="M763.03,153.246c0.208-0.26,0.572-0.286,0.811-0.078c1.352,1.092,3.609,2.366,5.979,2.34
			c1.586,0,3.021-0.468,4.004-1.195c1.019-0.729,1.562-1.688,1.562-2.705c0-1.039-0.494-1.815-1.482-2.496
			c-0.986-0.646-2.44-1.145-4.212-1.479h-0.052c-1.69-0.312-3.172-0.777-4.29-1.531c-1.118-0.729-1.872-1.819-1.872-3.175
			c0-1.378,0.754-2.571,1.896-3.403c1.146-0.832,2.68-1.325,4.396-1.325c2.394,0,4.187,1.17,5.616,2.104
			c0.26,0.187,0.338,0.521,0.154,0.81c-0.154,0.261-0.521,0.338-0.778,0.154c-1.435-0.938-2.99-1.926-4.992-1.926
			c-1.481,0-2.808,0.438-3.718,1.094c-0.91,0.678-1.435,1.562-1.435,2.494c0.026,0.91,0.442,1.588,1.354,2.211
			s2.262,1.065,3.896,1.381h0.057c1.815,0.338,3.432,0.854,4.628,1.662c1.191,0.778,2.002,1.979,2.002,3.436
			c0,1.455-0.832,2.756-2.055,3.64c-1.226,0.884-2.859,1.431-4.684,1.431c-2.782-0.023-5.2-1.431-6.708-2.627
			C762.869,153.844,762.848,153.48,763.03,153.246z"/>
		<path fill="#9EB80D" d="M781.386,139.076c0-0.338,0.286-0.624,0.624-0.624c0.359,0,0.646,0.286,0.646,0.624v16.953
			c0,0.338-0.286,0.623-0.646,0.623c-0.338,0-0.624-0.285-0.624-0.623V139.076z"/>
		<path fill="#9EB80D" d="M797.791,138.191c2.232,0,4.291,0.775,5.877,2.002c0.281,0.229,0.338,0.676,0.104,0.91
			c-0.208,0.312-0.624,0.338-0.884,0.129c-1.404-1.092-3.172-1.771-5.097-1.771c-4.554,0-8.189,3.562-8.189,8.012
			c0,4.342,3.64,7.9,8.189,7.9c1.925,0,3.688-0.624,5.045-1.771c0.312-0.209,0.728-0.152,0.905,0.156
			c0.265,0.233,0.208,0.701-0.073,0.909c-1.59,1.222-3.645,1.976-5.877,1.976c-5.229,0-9.468-4.104-9.468-9.178
			C788.323,142.3,792.565,138.218,797.791,138.191z"/>
		<path fill="#9EB80D" d="M818.743,151.945h-8.294l-1.607,4.291c-0.104,0.26-0.338,0.416-0.603,0.416
			c-0.052,0-0.151-0.026-0.229-0.026c-0.312-0.13-0.494-0.521-0.364-0.832l6.318-16.875c0.104-0.233,0.359-0.39,0.624-0.39
			c0.281,0,0.546,0.156,0.624,0.39l6.313,16.875c0.13,0.312-0.021,0.702-0.338,0.832c-0.104,0-0.156,0.026-0.231,0.026
			c-0.232,0-0.492-0.156-0.601-0.416L818.743,151.945z M810.922,150.672h7.354l-3.666-9.775L810.922,150.672z"/>
		<path fill="#9EB80D" d="M824.311,153.246c0.208-0.26,0.572-0.286,0.806-0.078c1.354,1.092,3.614,2.366,5.98,2.34
			c1.586,0,3.016-0.468,4.004-1.195c1.014-0.729,1.56-1.688,1.56-2.705c0-1.039-0.494-1.815-1.479-2.496
			c-0.988-0.646-2.444-1.145-4.212-1.479h-0.057c-1.688-0.312-3.172-0.777-4.285-1.531c-1.118-0.729-1.872-1.819-1.872-3.175
			c0-1.378,0.754-2.571,1.896-3.403c1.146-0.832,2.678-1.325,4.396-1.325c2.392,0,4.186,1.17,5.611,2.104
			c0.265,0.187,0.343,0.521,0.156,0.81c-0.156,0.261-0.52,0.338-0.78,0.154c-1.43-0.938-2.985-1.926-4.987-1.926
			c-1.482,0-2.812,0.438-3.723,1.094c-0.905,0.678-1.43,1.562-1.43,2.494c0.026,0.91,0.442,1.588,1.352,2.211
			c0.91,0.623,2.267,1.065,3.9,1.381h0.052c1.82,0.338,3.437,0.854,4.628,1.662c1.196,0.778,2.002,1.979,2.002,3.436
			c0,1.455-0.827,2.756-2.054,3.64c-1.222,0.884-2.855,1.431-4.68,1.431c-2.782-0.023-5.2-1.431-6.708-2.627
			C824.155,153.844,824.129,153.48,824.311,153.246z"/>
	</g>
</g>
<g>
	<path fill="#9EB80D" d="M958.966,138.141h-8.294l-1.612,4.291c-0.104,0.26-0.338,0.416-0.598,0.416
		c-0.057,0-0.156-0.023-0.234-0.023c-0.312-0.133-0.494-0.521-0.364-0.831l6.318-16.875c0.104-0.234,0.364-0.394,0.624-0.394
		c0.286,0,0.546,0.155,0.624,0.394l6.313,16.875c0.135,0.312-0.021,0.698-0.338,0.831c-0.104,0-0.151,0.023-0.229,0.023
		c-0.233,0-0.493-0.156-0.603-0.416L958.966,138.141z M951.14,136.866h7.354l-3.666-9.776L951.14,136.866z"/>
	<path fill="#9EB80D" d="M973.448,124.386c2.236,0,4.29,0.78,5.876,2.003c0.286,0.233,0.338,0.676,0.104,0.909
		c-0.208,0.312-0.624,0.338-0.884,0.13c-1.404-1.092-3.178-1.768-5.102-1.768c-4.55,0-8.188,3.562-8.188,8.008
		c0,4.342,3.641,7.904,8.188,7.904c1.924,0,3.692-0.624,5.044-1.768c0.312-0.213,0.729-0.156,0.91,0.151
		c0.26,0.229,0.208,0.702-0.078,0.91c-1.586,1.222-3.64,1.976-5.876,1.976c-5.226,0-9.464-4.104-9.464-9.178
		C963.984,128.494,968.223,124.412,973.448,124.386z"/>
	<path fill="#9EB80D" d="M989.541,125.92h-5.485c-0.338,0-0.624-0.286-0.624-0.65c0-0.338,0.286-0.623,0.624-0.623h12.221
		c0.338,0,0.624,0.285,0.624,0.623c0,0.364-0.286,0.65-0.624,0.65h-5.482v16.303c0,0.338-0.285,0.625-0.625,0.625
		c-0.341,0-0.623-0.287-0.623-0.625L989.541,125.92L989.541,125.92z"/>
	<path fill="#9EB80D" d="M1008.262,124.386c4.861,0,8.685,4.134,8.71,9.23c-0.025,5.096-3.849,9.229-8.71,9.229
		c-4.914,0-8.764-4.134-8.788-9.229C999.494,128.52,1003.348,124.386,1008.262,124.386z M1008.262,141.573
		c4.004,0,7.384-3.511,7.41-7.957c-0.026-4.498-3.406-7.931-7.41-7.931c-4.135,0-7.52,3.433-7.52,7.931
		C1000.742,138.062,1004.127,141.573,1008.262,141.573z"/>
	<path fill="#9EB80D" d="M1031.428,138.738c0-1.326-0.678-2.158-1.482-2.756c-0.807-0.572-1.769-0.858-2.104-0.91
		c-0.078-0.026-0.104-0.053-0.135-0.053h-4.42v7.203c0,0.338-0.281,0.623-0.646,0.623c-0.338,0-0.624-0.285-0.624-0.623V125.27
		c0-0.312,0.261-0.598,0.572-0.623h0.052h0.078h5.065c2.86,0,5.174,2.313,5.174,5.199c0,2.08-1.222,3.874-2.985,4.706
		c0.077,0.052,0.151,0.078,0.261,0.13c1.196,0.676,2.443,2.002,2.443,4.061c0,1.062,0.104,1.716,0.229,2.104
		c0.104,0.312,0.234,0.416,0.261,0.442c0.285-0.026,0.603,0.13,0.701,0.416c0.078,0.338-0.078,0.702-0.416,0.832
		c-0.021,0-0.154,0.024-0.312,0.024h-0.054c-0.341,0-0.888-0.263-1.173-0.832C1031.609,141.131,1031.428,140.271,1031.428,138.738z
		 M1027.782,125.92h-4.498v7.854h4.368h0.233c2.104-0.053,3.821-1.795,3.821-3.926
		C1031.713,127.662,1029.945,125.92,1027.782,125.92z"/>
	<path fill="#9EB80D" d="M1038.629,125.27c0-0.338,0.285-0.623,0.624-0.623h0.052h9.309c0.364,0,0.624,0.285,0.624,0.623
		c0,0.364-0.26,0.65-0.624,0.65h-8.71v7.202h7.618c0.338,0,0.624,0.286,0.624,0.649c0,0.338-0.286,0.625-0.624,0.625h-7.618v7.176
		h8.71c0.364,0,0.624,0.285,0.624,0.65c0,0.338-0.26,0.619-0.624,0.619h-9.281h-0.074h-0.057c-0.312-0.021-0.567-0.281-0.567-0.619
		L1038.629,125.27L1038.629,125.27z"/>
	<path fill="#9EB80D" d="M1053.215,139.439c0.208-0.26,0.567-0.285,0.806-0.078c1.353,1.093,3.614,2.367,5.979,2.341
		c1.587,0,3.018-0.468,4.005-1.196c1.015-0.729,1.561-1.689,1.561-2.704c0-1.04-0.494-1.819-1.479-2.495
		c-0.987-0.646-2.444-1.146-4.216-1.479h-0.053c-1.688-0.312-3.173-0.78-4.29-1.534c-1.118-0.729-1.872-1.817-1.872-3.172
		c0-1.378,0.756-2.574,1.897-3.406c1.145-0.832,2.679-1.323,4.395-1.323c2.396,0,4.188,1.172,5.616,2.104
		c0.26,0.182,0.338,0.521,0.156,0.806c-0.156,0.265-0.521,0.341-0.78,0.156c-1.43-0.938-2.99-1.924-4.992-1.924
		c-1.479,0-2.809,0.438-3.719,1.092c-0.909,0.676-1.43,1.562-1.43,2.496c0.021,0.905,0.438,1.586,1.353,2.21
		c0.909,0.624,2.264,1.062,3.899,1.378h0.053c1.819,0.338,3.433,0.854,4.628,1.664c1.196,0.776,2.002,1.979,2.002,3.437
		c0,1.455-0.832,2.756-2.054,3.641c-1.223,0.884-2.86,1.43-4.682,1.43c-2.781-0.025-5.199-1.43-6.707-2.626
		C1053.059,140.039,1053.031,139.675,1053.215,139.439z"/>
</g>
<g>
	<path fill="#9EB80D" d="M1154.875,125.27c0-0.338,0.282-0.623,0.625-0.623h0.073h5.07c2.858,0,5.174,2.34,5.174,5.199
		c0,2.86-2.312,5.174-5.174,5.174l-4.498,0.057v7.146c0,0.338-0.286,0.623-0.65,0.623c-0.338,0-0.624-0.285-0.624-0.623
		L1154.875,125.27L1154.875,125.27z M1160.648,133.798c2.158-0.026,3.926-1.794,3.926-3.952s-1.768-3.926-3.926-3.926h-4.498v7.878
		H1160.648z"/>
	<path fill="#9EB80D" d="M1178.172,138.141h-8.294l-1.612,4.291c-0.104,0.26-0.338,0.416-0.598,0.416
		c-0.057,0-0.156-0.023-0.234-0.023c-0.312-0.133-0.494-0.521-0.363-0.831l6.317-16.875c0.104-0.234,0.364-0.394,0.624-0.394
		c0.286,0,0.547,0.155,0.624,0.394l6.313,16.875c0.135,0.312-0.021,0.698-0.338,0.831c-0.104,0-0.154,0.023-0.229,0.023
		c-0.234,0-0.494-0.156-0.604-0.416L1178.172,138.141z M1170.346,136.866h7.354l-3.666-9.776L1170.346,136.866z"/>
	<path fill="#9EB80D" d="M1185.191,125.27c0-0.338,0.286-0.623,0.624-0.623c0.364,0,0.65,0.285,0.65,0.623v16.953
		c0,0.338-0.286,0.625-0.65,0.625c-0.338,0-0.624-0.287-0.624-0.625V125.27z"/>
	<path fill="#9EB80D" d="M1194.266,127.324v14.898c0,0.338-0.286,0.619-0.624,0.619s-0.624-0.281-0.624-0.619V125.53
		c-0.078-0.261,0-0.521,0.234-0.702c0.28-0.182,0.696-0.13,0.884,0.156l11.021,15.289v-14.82c0-0.338,0.286-0.624,0.624-0.624
		c0.364,0,0.649,0.286,0.649,0.624v16.771c0,0.338-0.285,0.623-0.649,0.623c-0.208,0-0.359-0.078-0.494-0.233
		c-0.021-0.026-0.074-0.052-0.104-0.104L1194.266,127.324z"/>
	<path fill="#9EB80D" d="M1212.985,125.27c0-0.338,0.286-0.623,0.624-0.623h0.078h5.07c2.854,0,5.174,2.34,5.174,5.199
		c0,2.86-2.314,5.174-5.174,5.174l-4.498,0.057v7.146c0,0.338-0.286,0.623-0.65,0.623c-0.338,0-0.624-0.285-0.624-0.623V125.27
		L1212.985,125.27z M1218.758,133.798c2.158-0.026,3.926-1.794,3.926-3.952s-1.768-3.926-3.926-3.926h-4.498v7.878H1218.758z"/>
	<path fill="#9EB80D" d="M1236.125,124.386c4.858,0,8.686,4.134,8.711,9.23c-0.025,5.096-3.853,9.229-8.711,9.229
		c-4.913,0-8.767-4.134-8.787-9.229C1227.363,128.52,1231.212,124.386,1236.125,124.386z M1236.125,141.573
		c4.005,0,7.385-3.511,7.406-7.957c-0.021-4.498-3.401-7.931-7.406-7.931c-4.138,0-7.519,3.433-7.519,7.931
		C1228.611,138.062,1231.99,141.573,1236.125,141.573z"/>
	<path fill="#9EB80D" d="M1249.15,125.27c0-0.338,0.286-0.623,0.624-0.623c0.364,0,0.65,0.285,0.65,0.623v16.953
		c0,0.338-0.286,0.625-0.65,0.625c-0.338,0-0.624-0.287-0.624-0.625V125.27z"/>
	<path fill="#9EB80D" d="M1258.225,127.324v14.898c0,0.338-0.286,0.619-0.624,0.619s-0.624-0.281-0.624-0.619V125.53
		c-0.078-0.261,0-0.521,0.234-0.702c0.28-0.182,0.696-0.13,0.884,0.156l11.021,15.289v-14.82c0-0.338,0.286-0.624,0.624-0.624
		c0.364,0,0.649,0.286,0.649,0.624v16.771c0,0.338-0.285,0.623-0.649,0.623c-0.208,0-0.359-0.078-0.494-0.233
		c-0.021-0.026-0.074-0.052-0.104-0.104L1258.225,127.324z"/>
	<path fill="#9EB80D" d="M1281.391,125.92h-5.486c-0.338,0-0.624-0.286-0.624-0.65c0-0.338,0.286-0.623,0.624-0.623h12.221
		c0.343,0,0.625,0.285,0.625,0.623c0,0.364-0.282,0.65-0.625,0.65h-5.481v16.303c0,0.338-0.286,0.625-0.624,0.625
		s-0.624-0.287-0.624-0.625L1281.391,125.92L1281.391,125.92z"/>
	<path fill="#9EB80D" d="M1292.311,139.439c0.208-0.26,0.572-0.285,0.806-0.078c1.354,1.093,3.614,2.367,5.98,2.341
		c1.586,0,3.017-0.468,4.004-1.196c1.015-0.729,1.562-1.689,1.562-2.704c0-1.04-0.49-1.819-1.479-2.495
		c-0.987-0.646-2.444-1.146-4.212-1.479h-0.053c-1.689-0.312-3.177-0.78-4.291-1.534c-1.116-0.729-1.87-1.817-1.87-3.172
		c0-1.378,0.754-2.574,1.896-3.406c1.146-0.832,2.681-1.323,4.396-1.323c2.392,0,4.186,1.172,5.612,2.104
		c0.264,0.182,0.341,0.521,0.155,0.806c-0.155,0.265-0.521,0.341-0.78,0.156c-1.43-0.938-2.985-1.924-4.987-1.924
		c-1.482,0-2.812,0.438-3.724,1.092c-0.904,0.676-1.43,1.562-1.43,2.496c0.026,0.905,0.442,1.586,1.354,2.21
		c0.907,0.624,2.265,1.062,3.897,1.378h0.053c1.819,0.338,3.437,0.854,4.629,1.664c1.195,0.776,2.002,1.979,2.002,3.437
		c0,1.455-0.832,2.756-2.055,3.641c-1.223,0.884-2.859,1.43-4.681,1.43c-2.782-0.025-5.2-1.43-6.708-2.626
		C1292.154,140.039,1292.129,139.675,1292.311,139.439z"/>
</g>
<g>
	<path fill="#9EB80D" d="M1413.395,127.246l-5.824,8.086c-0.131,0.208-0.339,0.286-0.521,0.286h-0.052
		c-0.234,0-0.416-0.078-0.551-0.286l-5.819-8.061v14.951c0,0.338-0.286,0.619-0.624,0.619c-0.364,0-0.65-0.281-0.65-0.619V125.37
		c0-0.208,0.104-0.394,0.26-0.494c0-0.022,0.026-0.022,0.053-0.052c0.285-0.186,0.681-0.133,0.889,0.152l6.474,8.974l6.448-8.974
		c0.183-0.285,0.599-0.338,0.885-0.152c0.077,0.074,0.13,0.13,0.186,0.208c0.053,0.104,0.104,0.231,0.104,0.338v16.853
		c0,0.338-0.286,0.62-0.625,0.62c-0.363,0-0.623-0.282-0.623-0.62L1413.395,127.246L1413.395,127.246z"/>
	<path fill="#9EB80D" d="M1419.992,125.27c0-0.338,0.286-0.623,0.624-0.623h0.057h9.309c0.364,0,0.624,0.285,0.624,0.623
		c0,0.364-0.26,0.65-0.624,0.65h-8.71v7.202h7.618c0.338,0,0.624,0.286,0.624,0.649c0,0.338-0.286,0.625-0.624,0.625h-7.618v7.176
		h8.71c0.364,0,0.624,0.285,0.624,0.65c0,0.338-0.26,0.619-0.624,0.619h-9.282h-0.078h-0.052c-0.312-0.021-0.571-0.281-0.571-0.619
		L1419.992,125.27L1419.992,125.27z"/>
	<path fill="#9EB80D" d="M1442.383,139.439c0.208-0.26,0.572-0.285,0.806-0.078c1.354,1.093,3.614,2.367,5.98,2.341
		c1.586,0,3.017-0.468,4.004-1.196c1.015-0.729,1.561-1.689,1.561-2.704c0-1.04-0.494-1.819-1.479-2.495
		c-0.987-0.646-2.444-1.146-4.213-1.479h-0.056c-1.688-0.312-3.173-0.78-4.29-1.534c-1.114-0.729-1.871-1.817-1.871-3.172
		c0-1.378,0.757-2.574,1.896-3.406c1.145-0.832,2.679-1.323,4.395-1.323c2.396,0,4.188,1.172,5.616,2.104
		c0.261,0.182,0.338,0.521,0.156,0.806c-0.156,0.265-0.521,0.341-0.78,0.156c-1.43-0.938-2.99-1.924-4.992-1.924
		c-1.479,0-2.809,0.438-3.719,1.092c-0.909,0.676-1.43,1.562-1.43,2.496c0.024,0.905,0.44,1.586,1.353,2.21
		c0.909,0.624,2.267,1.062,3.899,1.378h0.053c1.819,0.338,3.436,0.854,4.628,1.664c1.196,0.776,2.002,1.979,2.002,3.437
		c0,1.455-0.832,2.756-2.054,3.641c-1.223,0.884-2.859,1.43-4.681,1.43c-2.782-0.025-5.2-1.43-6.708-2.626
		C1442.227,140.039,1442.198,139.675,1442.383,139.439z"/>
	<path fill="#9EB80D" d="M1460.738,125.27c0-0.338,0.286-0.623,0.624-0.623c0.364,0,0.65,0.285,0.65,0.623v16.953
		c0,0.338-0.286,0.625-0.65,0.625c-0.338,0-0.624-0.287-0.624-0.625V125.27z"/>
	<path fill="#9EB80D" d="M1468.486,125.27c0-0.338,0.286-0.623,0.624-0.623h0.052h9.312c0.363,0,0.624,0.285,0.624,0.623
		c0,0.364-0.261,0.65-0.624,0.65h-8.71v7.202h7.618c0.338,0,0.624,0.286,0.624,0.649c0,0.338-0.286,0.625-0.624,0.625h-7.618v7.176
		h8.71c0.363,0,0.624,0.285,0.624,0.65c0,0.338-0.261,0.619-0.624,0.619h-9.282h-0.078h-0.052c-0.312-0.021-0.572-0.281-0.572-0.619
		L1468.486,125.27L1468.486,125.27z"/>
	<path fill="#9EB80D" d="M1485.23,127.324v14.898c0,0.338-0.286,0.619-0.624,0.619s-0.624-0.281-0.624-0.619V125.53
		c-0.078-0.261,0-0.521,0.234-0.702c0.284-0.182,0.696-0.13,0.884,0.156l11.021,15.289v-14.82c0-0.338,0.286-0.624,0.625-0.624
		c0.363,0,0.648,0.286,0.648,0.624v16.771c0,0.338-0.285,0.623-0.648,0.623c-0.209,0-0.36-0.078-0.49-0.233
		c-0.026-0.026-0.078-0.052-0.104-0.104L1485.23,127.324z"/>
	<path fill="#9EB80D" d="M1508.422,125.92h-5.486c-0.338,0-0.624-0.286-0.624-0.65c0-0.338,0.286-0.623,0.624-0.623h12.221
		c0.338,0,0.624,0.285,0.624,0.623c0,0.364-0.286,0.65-0.624,0.65h-5.481v16.303c0,0.338-0.286,0.625-0.624,0.625
		c-0.342,0-0.624-0.287-0.624-0.625L1508.422,125.92L1508.422,125.92z"/>
	<path fill="#9EB80D" d="M1527.115,124.386c4.862,0,8.688,4.134,8.71,9.23c-0.021,5.096-3.848,9.229-8.71,9.229
		c-4.914,0-8.763-4.134-8.788-9.229C1518.354,128.52,1522.198,124.386,1527.115,124.386z M1527.115,141.573
		c4.004,0,7.386-3.511,7.41-7.957c-0.024-4.498-3.406-7.931-7.41-7.931c-4.134,0-7.515,3.433-7.515,7.931
		C1519.602,138.062,1522.982,141.573,1527.115,141.573z"/>
</g>
<g>
	<path fill="#706F6F" d="M1680.57,121.345c0-1.325-0.677-2.157-1.479-2.756c-0.812-0.571-1.771-0.858-2.106-0.909
		c-0.078-0.027-0.104-0.053-0.13-0.053h-4.42v7.202c0,0.338-0.286,0.624-0.65,0.624c-0.338,0-0.624-0.286-0.624-0.624v-16.953
		c0-0.312,0.265-0.599,0.572-0.624h0.052h0.078h5.07c2.855,0,5.174,2.314,5.174,5.2c0,2.08-1.226,3.874-2.99,4.706
		c0.078,0.052,0.156,0.078,0.261,0.13c1.196,0.676,2.444,2.002,2.444,4.057c0,1.066,0.104,1.716,0.232,2.106
		c0.104,0.312,0.23,0.416,0.261,0.441c0.286-0.025,0.599,0.131,0.702,0.416c0.078,0.338-0.078,0.698-0.416,0.832
		c-0.025,0-0.156,0.022-0.312,0.022h-0.052c-0.339,0-0.885-0.261-1.171-0.832C1680.752,123.736,1680.57,122.878,1680.57,121.345z
		 M1676.93,108.525h-4.498v7.854h4.368h0.229c2.106-0.052,3.822-1.794,3.822-3.926
		C1680.855,110.268,1679.088,108.525,1676.93,108.525z"/>
	<path fill="#706F6F" d="M1687.771,107.876c0-0.338,0.286-0.624,0.624-0.624h0.052h9.312c0.359,0,0.624,0.286,0.624,0.624
		c0,0.364-0.265,0.649-0.624,0.649h-8.71v7.203h7.618c0.338,0,0.623,0.287,0.623,0.646c0,0.338-0.285,0.624-0.623,0.624h-7.618
		v7.181h8.71c0.359,0,0.624,0.281,0.624,0.646c0,0.338-0.265,0.624-0.624,0.624h-9.282h-0.078h-0.052
		c-0.312-0.026-0.572-0.286-0.572-0.624L1687.771,107.876L1687.771,107.876z"/>
	<path fill="#706F6F" d="M1707.896,108.525h-5.486c-0.338,0-0.624-0.285-0.624-0.649c0-0.338,0.286-0.624,0.624-0.624h12.226
		c0.338,0,0.624,0.286,0.624,0.624c0,0.364-0.286,0.649-0.624,0.649h-5.486v16.304c0,0.338-0.286,0.624-0.624,0.624
		s-0.624-0.286-0.624-0.624L1707.896,108.525L1707.896,108.525z"/>
	<path fill="#706F6F" d="M1726.59,106.992c4.857,0,8.685,4.134,8.71,9.23c-0.025,5.096-3.853,9.229-8.71,9.229
		c-4.914,0-8.768-4.135-8.788-9.229C1717.823,111.126,1721.676,106.992,1726.59,106.992z M1726.59,124.18
		c4.004,0,7.384-3.511,7.41-7.957c-0.026-4.498-3.406-7.931-7.41-7.931c-4.14,0-7.52,3.433-7.52,7.931
		C1719.073,120.668,1722.45,124.18,1726.59,124.18z"/>
	<path fill="#706F6F" d="M1739.771,122.046c0.208-0.26,0.572-0.286,0.806-0.078c1.354,1.093,3.614,2.366,5.98,2.341
		c1.586,0,3.017-0.469,4.004-1.197c1.015-0.728,1.561-1.688,1.561-2.699c0-1.04-0.489-1.82-1.479-2.496
		c-0.988-0.646-2.443-1.146-4.212-1.479h-0.053c-1.689-0.312-3.176-0.779-4.289-1.533c-1.118-0.729-1.872-1.82-1.872-3.172
		c0-1.379,0.754-2.574,1.896-3.406c1.146-0.832,2.683-1.326,4.396-1.326c2.392,0,4.187,1.17,5.615,2.105
		c0.261,0.183,0.338,0.521,0.152,0.807c-0.152,0.26-0.521,0.338-0.776,0.156c-1.435-0.938-2.989-1.926-4.991-1.926
		c-1.482,0-2.812,0.439-3.719,1.094c-0.91,0.676-1.435,1.56-1.435,2.496c0.026,0.906,0.442,1.586,1.354,2.209
		c0.911,0.625,2.263,1.062,3.896,1.379h0.056c1.816,0.338,3.434,0.854,4.629,1.664c1.193,0.775,2.002,1.976,2.002,3.432
		s-0.832,2.756-2.057,3.641c-1.224,0.885-2.856,1.43-4.682,1.43c-2.782-0.021-5.2-1.43-6.708-2.625
		C1739.614,122.645,1739.589,122.28,1739.771,122.046z"/>
</g>
<g>
	<path fill="#706F6F" d="M1639.672,138.191c2.231,0,4.29,0.775,5.876,2.002c0.286,0.229,0.339,0.676,0.104,0.91
		c-0.208,0.312-0.624,0.338-0.884,0.129c-1.404-1.092-3.173-1.771-5.098-1.771c-4.554,0-8.189,3.562-8.189,8.012
		c0,4.342,3.641,7.9,8.189,7.9c1.925,0,3.688-0.624,5.045-1.771c0.312-0.209,0.729-0.152,0.905,0.156
		c0.266,0.233,0.209,0.701-0.073,0.909c-1.59,1.222-3.645,1.976-5.877,1.976c-5.229,0-9.468-4.104-9.468-9.178
		C1630.207,142.3,1634.445,138.218,1639.672,138.191z"/>
	<path fill="#706F6F" d="M1658.522,138.191c4.862,0,8.686,4.134,8.71,9.229c-0.025,5.098-3.848,9.229-8.71,9.229
		c-4.914,0-8.763-4.133-8.788-9.229C1649.76,142.326,1653.608,138.191,1658.522,138.191z M1658.522,155.378
		c4.004,0,7.384-3.51,7.41-7.957c-0.026-4.498-3.406-7.93-7.41-7.93c-4.134,0-7.515,3.432-7.515,7.93
		C1651.008,151.868,1654.389,155.378,1658.522,155.378z"/>
	<path fill="#706F6F" d="M1673.315,141.13v14.897c0,0.339-0.286,0.625-0.624,0.625s-0.624-0.286-0.624-0.625v-16.691
		c-0.078-0.26,0-0.521,0.233-0.702c0.286-0.182,0.702-0.13,0.885,0.156l11.024,15.289v-14.82c0-0.338,0.281-0.624,0.623-0.624
		c0.359,0,0.646,0.286,0.646,0.624v16.771c0,0.338-0.286,0.624-0.646,0.624c-0.207,0-0.363-0.078-0.493-0.234
		c-0.026-0.025-0.078-0.052-0.104-0.104L1673.315,141.13z"/>
	<path fill="#706F6F" d="M1700.693,138.191c2.236,0,4.29,0.775,5.876,2.002c0.286,0.229,0.339,0.676,0.104,0.91
		c-0.208,0.312-0.624,0.338-0.889,0.129c-1.399-1.092-3.173-1.771-5.097-1.771c-4.55,0-8.188,3.562-8.188,8.012
		c0,4.342,3.642,7.9,8.188,7.9c1.924,0,3.692-0.624,5.044-1.771c0.312-0.209,0.729-0.152,0.91,0.156
		c0.261,0.233,0.208,0.701-0.078,0.909c-1.586,1.222-3.64,1.976-5.876,1.976c-5.229,0-9.464-4.104-9.464-9.178
		C1691.229,142.3,1695.467,138.218,1700.693,138.191z"/>
	<path fill="#706F6F" d="M1721.129,152.544c0-1.326-0.681-2.158-1.481-2.756c-0.806-0.572-1.769-0.858-2.104-0.91
		c-0.078-0.026-0.104-0.052-0.132-0.052h-4.423v7.201c0,0.339-0.284,0.625-0.646,0.625c-0.338,0-0.624-0.286-0.624-0.625v-16.952
		c0-0.312,0.26-0.599,0.569-0.624h0.055h0.078h5.065c2.86,0,5.175,2.314,5.175,5.199c0,2.08-1.223,3.875-2.985,4.707
		c0.075,0.052,0.151,0.078,0.26,0.129c1.192,0.677,2.44,2.003,2.44,4.057c0,1.066,0.104,1.716,0.232,2.105
		c0.104,0.312,0.234,0.416,0.262,0.438c0.284-0.022,0.602,0.134,0.7,0.416c0.078,0.338-0.077,0.702-0.416,0.832
		c-0.021,0-0.153,0.026-0.312,0.026h-0.053c-0.342,0-0.889-0.264-1.174-0.832C1721.312,154.938,1721.129,154.078,1721.129,152.544z
		 M1717.489,139.727h-4.498v7.854h4.368h0.234c2.104-0.054,3.821-1.794,3.821-3.929
		C1721.41,141.468,1719.647,139.727,1717.489,139.727z"/>
	<path fill="#706F6F" d="M1728.326,139.076c0-0.338,0.286-0.624,0.625-0.624h0.056h9.309c0.364,0,0.624,0.286,0.624,0.624
		c0,0.363-0.26,0.65-0.624,0.65h-8.71v7.197h7.618c0.338,0,0.624,0.286,0.624,0.65c0,0.338-0.286,0.624-0.624,0.624h-7.618v7.176
		h8.71c0.364,0,0.624,0.286,0.624,0.646c0,0.34-0.26,0.625-0.624,0.625h-9.282h-0.078h-0.052c-0.312-0.022-0.571-0.285-0.571-0.625
		v-16.947L1728.326,139.076L1728.326,139.076z"/>
	<path fill="#706F6F" d="M1748.45,139.727h-5.481c-0.338,0-0.624-0.287-0.624-0.646c0-0.338,0.286-0.624,0.624-0.624h12.221
		c0.338,0,0.624,0.286,0.624,0.624c0,0.359-0.286,0.646-0.624,0.646h-5.486v16.307c0,0.338-0.285,0.619-0.624,0.619
		c-0.338,0-0.624-0.281-0.624-0.619L1748.45,139.727L1748.45,139.727z"/>
	<path fill="#706F6F" d="M1767.149,138.191c4.862,0,8.688,4.134,8.71,9.229c-0.024,5.098-3.848,9.229-8.71,9.229
		c-4.914,0-8.763-4.133-8.788-9.229C1758.387,142.326,1762.235,138.191,1767.149,138.191z M1767.149,155.378
		c4.004,0,7.384-3.51,7.41-7.957c-0.026-4.498-3.406-7.93-7.41-7.93c-4.134,0-7.515,3.432-7.515,7.93
		C1759.635,151.868,1763.016,155.378,1767.149,155.378z"/>
	<path fill="#706F6F" d="M1780.325,153.246c0.208-0.26,0.572-0.286,0.811-0.078c1.353,1.092,3.614,2.366,5.979,2.34
		c1.587,0,3.021-0.468,4.005-1.195c1.019-0.729,1.562-1.688,1.562-2.705c0-1.039-0.494-1.815-1.482-2.496
		c-0.986-0.646-2.439-1.145-4.212-1.479h-0.052c-1.69-0.312-3.173-0.777-4.29-1.531c-1.118-0.729-1.872-1.819-1.872-3.175
		c0-1.378,0.754-2.571,1.897-3.403c1.145-0.832,2.679-1.325,4.395-1.325c2.393,0,4.187,1.17,5.616,2.104
		c0.26,0.187,0.338,0.521,0.155,0.81c-0.155,0.261-0.521,0.338-0.779,0.154c-1.434-0.938-2.99-1.926-4.992-1.926
		c-1.482,0-2.809,0.438-3.719,1.094c-0.909,0.678-1.434,1.562-1.434,2.494c0.025,0.91,0.441,1.588,1.354,2.211
		c0.909,0.623,2.262,1.065,3.896,1.381h0.056c1.814,0.338,3.432,0.854,4.628,1.662c1.196,0.778,2.002,1.979,2.002,3.436
		c0,1.455-0.832,2.756-2.054,3.64c-1.228,0.884-2.86,1.431-4.686,1.431c-2.78-0.023-5.198-1.431-6.708-2.627
		C1780.174,153.844,1780.148,153.48,1780.325,153.246z"/>
</g>
<g>
	<path fill="#706F6F" d="M532.073,61.987c0,8.921-7.229,16.153-16.15,16.153c-8.926,0-16.153-7.232-16.153-16.153
		c0-8.922,7.229-16.154,16.153-16.154C524.842,45.833,532.073,53.065,532.073,61.987 M536.921,61.987c0-11.598-9.402-21-21.001-21
		c-11.603,0-20.999,9.402-20.999,21c0,11.598,9.396,21,20.999,21C527.519,82.987,536.921,73.585,536.921,61.987"/>
</g>
<g>
	<g>
		<g>
			<g>
				<g>
					<g>
						<defs>
							<path id="SVGID_3_" d="M499.767,61.987c0-8.923,7.229-16.153,16.153-16.153c8.922,0,16.15,7.23,16.15,16.153
								c0,8.921-7.229,16.153-16.15,16.153C506.994,78.14,499.767,70.908,499.767,61.987 M494.921,61.987
								c0,11.597,9.396,21,20.999,21c11.599,0,21.001-9.403,21.001-21c0-11.598-9.402-21-21.001-21
								C504.321,40.987,494.921,50.389,494.921,61.987"/>
						</defs>
						<clipPath id="SVGID_4_">
							<use xlink:href="#SVGID_3_"  overflow="visible"/>
						</clipPath>
						<rect x="482" y="39.259" clip-path="url(#SVGID_4_)" fill="#9EB80D" width="68" height="47.741"/>
					</g>
				</g>
			</g>
		</g>
	</g>
</g>
<g>
	<path fill="#706F6F" d="M1732.192,61.987c0,11.151-9.041,20.192-20.193,20.192c-11.146,0-20.188-9.041-20.188-20.192
		c0-11.153,9.039-20.192,20.188-20.192C1723.151,41.795,1732.192,50.834,1732.192,61.987 M1738.25,61.987
		c0-14.497-11.752-26.25-26.252-26.25c-14.497,0-26.248,11.753-26.248,26.25c0,14.497,11.75,26.249,26.248,26.249
		C1726.498,88.236,1738.25,76.484,1738.25,61.987"/>
	<path fill="#9EB80D" d="M232.937,43.243c-0.586-0.256-1.233-0.269-1.835-0.035c-0.596,0.233-1.062,0.685-1.321,1.271
		c-0.257,0.587-0.269,1.239-0.03,1.835c0.229,0.596,0.685,1.065,1.271,1.322c5.797,2.532,9.544,8.255,9.544,14.578
		c0,8.768-7.133,15.901-15.896,15.901c-8.771,0-15.901-7.133-15.901-15.901c0-6.322,3.745-12.045,9.541-14.578
		c1.211-0.531,1.764-1.946,1.235-3.157c-0.259-0.586-0.729-1.038-1.322-1.271c-0.597-0.235-1.247-0.222-1.834,0.035
		c-7.541,3.298-12.413,10.745-12.413,18.971c0,11.41,9.283,20.695,20.694,20.695c11.408,0,20.689-9.285,20.689-20.695
		C245.354,53.985,240.48,46.538,232.937,43.243"/>
	<path fill="#9EB80D" d="M224.66,60.262c1.316,0,2.396-1.076,2.396-2.397V41.396c0-1.322-1.075-2.396-2.396-2.396
		c-1.322,0-2.397,1.075-2.397,2.396v16.468C222.263,59.186,223.338,60.262,224.66,60.262"/>
	<path fill="#9EB80D" d="M652.182,62.817c-0.711,1.257-2.305,1.699-3.562,0.988c-1.256-0.711-1.693-2.305-0.982-3.562
		c0.711-1.256,2.304-1.698,3.561-0.987S652.893,61.56,652.182,62.817 M657.273,76.25l9.475-16.746
		c1.101-1.939,0.412-4.408-1.521-5.505l-16.749-9.476c-1.938-1.097-4.407-0.412-5.503,1.526l-9.479,16.748
		c-1.096,1.938-0.412,4.407,1.527,5.504l16.748,9.475C653.703,78.873,656.177,78.188,657.273,76.25"/>
	<path fill="#9EB80D" d="M907.95,59.721c-0.711,1.257-2.305,1.699-3.561,0.988c-1.257-0.711-1.699-2.305-0.988-3.562
		c0.711-1.256,2.31-1.698,3.562-0.987C908.224,56.871,908.666,58.464,907.95,59.721 M888.365,65.153
		c-0.711,1.257-2.305,1.699-3.561,0.988c-1.257-0.711-1.699-2.305-0.988-3.562c0.711-1.256,2.308-1.698,3.562-0.987
		C888.632,62.303,889.074,63.896,888.365,65.153 M903.034,76.25l9.479-16.746c1.096-1.939,0.412-4.408-1.526-5.505l-16.749-9.476
		c-1.938-1.097-4.406-0.412-5.503,1.526l-9.476,16.748c-1.101,1.938-0.412,4.407,1.522,5.504l16.748,9.475
		C899.474,78.873,901.942,78.188,903.034,76.25"/>
	<path fill="#9EB80D" d="M1130.773,59.721c-0.711,1.257-2.306,1.699-3.562,0.988c-1.262-0.711-1.699-2.305-0.987-3.562
		c0.711-1.256,2.305-1.698,3.561-0.987C1131.041,56.871,1131.484,58.464,1130.773,59.721 M1120.764,62.817
		c-0.71,1.257-2.304,1.699-3.562,0.988c-1.257-0.711-1.693-2.305-0.982-3.562c0.71-1.256,2.305-1.698,3.562-0.987
		S1121.477,61.56,1120.764,62.817 M1111.187,65.153c-0.712,1.257-2.306,1.699-3.562,0.988c-1.261-0.711-1.698-2.305-0.987-3.562
		c0.711-1.256,2.305-1.698,3.562-0.987C1111.45,62.303,1111.897,63.896,1111.187,65.153 M1125.857,76.25l9.476-16.746
		c1.1-1.939,0.411-4.408-1.521-5.505l-16.75-9.476c-1.938-1.097-4.406-0.412-5.503,1.526l-9.479,16.748
		c-1.096,1.938-0.41,4.407,1.527,5.504l16.748,9.475C1122.291,78.873,1124.76,78.188,1125.857,76.25"/>
	<path fill="#9EB80D" d="M1353.754,72.231c-0.711,1.256-2.31,1.698-3.562,0.987c-1.257-0.711-1.699-2.304-0.988-3.561
		c0.713-1.257,2.311-1.699,3.562-0.988S1354.465,70.974,1353.754,72.231 M1360.826,59.721c-0.711,1.257-2.305,1.699-3.561,0.988
		c-1.257-0.711-1.699-2.305-0.988-3.562c0.711-1.256,2.311-1.698,3.562-0.987C1361.101,56.871,1361.543,58.464,1360.826,59.721
		 M1341.24,65.153c-0.711,1.257-2.305,1.699-3.562,0.988c-1.256-0.711-1.698-2.305-0.987-3.562c0.711-1.256,2.307-1.698,3.562-0.987
		C1341.508,62.303,1341.95,63.896,1341.24,65.153 M1348.321,52.643c-0.711,1.257-2.304,1.699-3.561,0.988
		c-1.258-0.711-1.699-2.305-0.988-3.561c0.711-1.257,2.305-1.699,3.562-0.988C1348.591,49.793,1349.031,51.387,1348.321,52.643
		 M1355.916,76.25l9.474-16.746c1.097-1.939,0.413-4.408-1.525-5.505l-16.749-9.476c-1.938-1.097-4.406-0.412-5.503,1.526
		l-9.476,16.748c-1.096,1.938-0.412,4.407,1.521,5.504l16.748,9.475C1352.351,78.873,1354.818,78.188,1355.916,76.25"/>
	<path fill="#FFFFFF" d="M1708.77,60.954l-2.108-1.122l-2.525,15.009c-0.062,0.353,0.11,0.706,0.431,0.875
		c0.2,0.106,0.432,0.124,0.637,0.061c0.12-0.037,0.233-0.101,0.331-0.193l11.027-10.49l-2.108-1.121
		c-0.39,0.425-0.884,0.764-1.473,0.944c-1.76,0.538-3.628-0.455-4.166-2.215C1708.63,62.113,1708.635,61.514,1708.77,60.954"/>
	<path fill="#FF0000" d="M1719.438,47.739c-0.316-0.169-0.705-0.116-0.966,0.131l-11.028,10.49l2.109,1.122
		c0.389-0.425,0.882-0.764,1.473-0.944c1.76-0.538,3.627,0.455,4.164,2.214c0.182,0.59,0.176,1.189,0.041,1.749l2.109,1.121
		l2.529-15.009C1719.928,48.26,1719.755,47.908,1719.438,47.739"/>
	<path fill="#9EB80D" d="M766.822,50.49l-7.749-4.519c0.494-1.788-0.175-3.744-1.854-4.722L742.731,32.8
		c-2-1.166-4.567-0.49-5.732,1.51l-1.057,1.81c-1.167,2.002-0.491,4.569,1.51,5.735l14.486,8.449c1.679,0.978,3.709,0.6,5.022-0.712
		l7.921,4.619L766.822,50.49z"/>
	<path fill="#9EB80D" d="M1249.275,53.907l8.079-3.897c1.207,1.409,3.202,1.948,4.952,1.104l15.104-7.287
		c2.087-1.005,2.962-3.512,1.955-5.597l-0.91-1.887c-1.008-2.087-3.514-2.963-5.6-1.955l-15.104,7.284
		c-1.75,0.846-2.567,2.74-2.22,4.563l-8.258,3.983L1249.275,53.907z"/>
	<path fill="#9EB80D" d="M1478.57,79.802l5.113,7.37c-1.203,1.413-1.424,3.469-0.314,5.064l9.562,13.779
		c1.317,1.898,3.932,2.375,5.834,1.055l1.721-1.194c1.905-1.321,2.377-3.933,1.058-5.836l-9.56-13.779
		c-1.106-1.597-3.106-2.111-4.853-1.477l-5.229-7.534L1478.57,79.802z"/>
	<path fill="#706F6F" d="M800.477,61.987c0,8.921-7.233,16.153-16.155,16.153c-8.921,0-16.153-7.232-16.153-16.153
		c0-8.922,7.232-16.154,16.153-16.154S800.477,53.065,800.477,61.987 M805.323,61.987c0-11.598-9.397-21-21.001-21
		c-11.598,0-20.999,9.402-20.999,21c0,11.598,9.401,21,20.999,21C795.92,82.987,805.323,73.585,805.323,61.987"/>
	<g>
		<g>
			<g>
				<defs>
					<path id="SVGID_5_" d="M768.168,61.987c0-8.923,7.229-16.153,16.151-16.153c8.922,0,16.152,7.23,16.152,16.153
						c0,8.921-7.23,16.153-16.152,16.153S768.168,70.908,768.168,61.987 M763.323,61.987c0,11.597,9.398,21,20.999,21
						s21.001-9.403,21.001-21c0-11.598-9.4-21-21.001-21C772.722,40.987,763.323,50.389,763.323,61.987"/>
				</defs>
				<clipPath id="SVGID_6_">
					<use xlink:href="#SVGID_5_"  overflow="visible"/>
				</clipPath>
				<rect x="750.402" y="23.167" clip-path="url(#SVGID_6_)" fill="#9EB80D" width="68" height="63.833"/>
			</g>
		</g>
	</g>
	<path fill="#706F6F" d="M1023.605,61.987c0,8.921-7.232,16.153-16.155,16.153c-8.921,0-16.147-7.232-16.147-16.153
		c0-8.922,7.229-16.154,16.147-16.154S1023.605,53.065,1023.605,61.987 M1028.448,61.987c0-11.598-9.396-21-21.001-21
		c-11.598,0-20.999,9.402-20.999,21c0,11.598,9.401,21,20.999,21C1019.05,82.987,1028.448,73.585,1028.448,61.987"/>
	<g>
		<defs>
			<path id="SVGID_7_" d="M991.294,61.987c0-8.923,7.229-16.153,16.151-16.153c8.922,0,16.152,7.23,16.152,16.153
				c0,8.921-7.23,16.153-16.152,16.153S991.294,70.908,991.294,61.987 M986.448,61.987c0,11.597,9.398,21,20.999,21
				s21.001-9.403,21.001-21c0-11.598-9.4-21-21.001-21C995.848,40.987,986.448,50.389,986.448,61.987"/>
		</defs>
		<clipPath id="SVGID_8_">
			<use xlink:href="#SVGID_7_"  overflow="visible"/>
		</clipPath>
		<rect x="973.528" y="-20.5" clip-path="url(#SVGID_8_)" fill="#9EB80D" width="68" height="107.5"/>
	</g>
	<path fill="#706F6F" d="M1246.112,61.987c0,8.921-7.229,16.153-16.154,16.153c-8.922,0-16.148-7.232-16.148-16.153
		c0-8.922,7.229-16.154,16.148-16.154C1238.88,45.833,1246.112,53.065,1246.112,61.987 M1250.959,61.987
		c0-11.598-9.402-21-21.002-21c-11.603,0-20.998,9.402-20.998,21c0,11.598,9.396,21,20.998,21
		C1241.557,82.987,1250.959,73.585,1250.959,61.987"/>
	<g>
		<defs>
			<path id="SVGID_9_" d="M1213.806,61.987c0-8.923,7.229-16.153,16.151-16.153c8.922,0,16.152,7.23,16.152,16.153
				c0,8.921-7.23,16.153-16.152,16.153S1213.806,70.908,1213.806,61.987 M1208.959,61.987c0,11.597,9.398,21,20.999,21
				s21.001-9.403,21.001-21c0-11.598-9.4-21-21.001-21C1218.36,40.987,1208.959,50.389,1208.959,61.987"/>
		</defs>
		<use xlink:href="#SVGID_9_"  overflow="visible" fill="#9EB80D"/>
		<clipPath id="SVGID_10_">
			<use xlink:href="#SVGID_9_"  overflow="visible"/>
		</clipPath>
		<rect x="1196.039" y="55.631" clip-path="url(#SVGID_10_)" fill="#9EB80D" width="68" height="31.369"/>
	</g>
	<path fill="#706F6F" d="M1483.723,61.987c0,8.921-7.233,16.153-16.155,16.153c-8.921,0-16.153-7.232-16.153-16.153
		c0-8.922,7.232-16.154,16.153-16.154S1483.723,53.065,1483.723,61.987 M1488.568,61.987c0-11.598-9.401-21-21.001-21
		c-11.599,0-20.999,9.402-20.999,21c0,11.598,9.4,21,20.999,21C1479.166,82.987,1488.568,73.585,1488.568,61.987"/>
	<g>
		<defs>
			<path id="SVGID_11_" d="M1451.414,61.987c0-8.923,7.229-16.153,16.151-16.153c8.922,0,16.152,7.23,16.152,16.153
				c0,8.921-7.23,16.153-16.152,16.153S1451.414,70.908,1451.414,61.987 M1446.568,61.987c0,11.597,9.398,21,20.999,21
				s21.001-9.403,21.001-21c0-11.598-9.4-21-21.001-21C1455.968,40.987,1446.568,50.389,1446.568,61.987"/>
		</defs>
		<clipPath id="SVGID_12_">
			<use xlink:href="#SVGID_11_"  overflow="visible"/>
		</clipPath>
		<rect x="1433.648" y="67.823" clip-path="url(#SVGID_12_)" fill="#9EB80D" width="68" height="19.177"/>
	</g>
	<path fill="#9EB80D" d="M1020.357,45.499l5.146-7.348c1.737,0.64,3.745,0.136,4.854-1.457l9.62-13.739
		c1.328-1.896,0.867-4.511-1.029-5.838l-1.717-1.202c-1.896-1.329-4.513-0.868-5.84,1.03l-9.62,13.736
		c-1.113,1.593-0.904,3.647,0.294,5.065l-5.259,7.511L1020.357,45.499z"/>
</g>
</svg>
