<?xml version="1.0" encoding="utf-8"?>
<!-- Generator: Adobe Illustrator 15.0.2, SVG Export Plug-In . SVG Version: 6.00 Build 0)  -->
<!DOCTYPE svg PUBLIC "-//W3C//DTD SVG 1.1//EN" "http://www.w3.org/Graphics/SVG/1.1/DTD/svg11.dtd">
<svg version="1.1" id="Capa_1" xmlns="http://www.w3.org/2000/svg" xmlns:xlink="http://www.w3.org/1999/xlink" x="0px" y="0px"
	 width="637px" height="470px" viewBox="0 0 637 470" enable-background="new 0 0 637 470" xml:space="preserve">
<g>
	<g>
		<g>
			<g id="XMLID_1_">
				<g>
					<path fill="#F2E456" d="M568.17,207.28c1.08,1.1,1.62,2.54,1.62,4.33s-0.54,3.24-1.62,4.36c-1.09,1.12-2.49,1.68-4.21,1.68
						c-1.75,0-3.17-0.56-4.28-1.68c-1.1-1.12-1.649-2.57-1.649-4.36s0.55-3.23,1.649-4.33c1.101-1.11,2.53-1.66,4.28-1.66
						C565.68,205.62,567.08,206.17,568.17,207.28z"/>
					<path fill="#F2E456" d="M584.5,181.06v56.67c0,22.1-18.09,47.8-41.4,47.8c-23.319,0-41.409-25.7-41.409-47.8v-56.67H584.5z
						 M570.14,217.49c1.591-1.5,2.391-3.46,2.391-5.88s-0.811-4.39-2.42-5.91c-1.61-1.52-3.66-2.28-6.15-2.28
						c-2.55,0-4.63,0.76-6.22,2.28c-1.601,1.52-2.391,3.49-2.391,5.91s0.79,4.38,2.391,5.88c1.59,1.51,3.67,2.26,6.22,2.26
						C566.49,219.75,568.54,219,570.14,217.49z M551.571,243.76v-3.26h-21.48l12.391-12.87c2.1-2.21,3.76-4.33,4.97-6.38
						c1.2-2.05,1.81-3.9,1.81-5.54c0-2.7-1.04-4.85-3.13-6.46c-2.08-1.61-4.87-2.42-8.38-2.42c-2.17,0-4.35,0.44-6.54,1.31
						c-2.19,0.88-4.17,2.1-5.96,3.68l1.63,2.68c1.51-1.4,3.19-2.5,5.04-3.28c1.86-0.79,3.66-1.19,5.41-1.19
						c2.56,0,4.55,0.55,5.99,1.63c1.439,1.09,2.149,2.59,2.149,4.52c0,1.23-0.489,2.67-1.47,4.33c-0.98,1.67-2.31,3.37-3.99,5.12
						l-14.5,15.13v3H551.571z"/>
					<path fill="#EBF8A0" d="M349.941,62.76c1.699,1.72,2.55,3.98,2.55,6.78c0,2.79-0.851,5.06-2.55,6.81
						c-1.7,1.76-3.891,2.63-6.57,2.63c-2.74,0-4.97-0.87-6.7-2.63c-1.72-1.75-2.58-4.02-2.58-6.81c0-2.8,0.86-5.06,2.58-6.78
						c1.73-1.73,3.96-2.59,6.7-2.59C346.05,60.17,348.24,61.03,349.941,62.76z"/>
					<path fill="#EBF8A0" d="M384.031,18.12v88.7c0,36.21-29.67,78.3-67.93,78.3c-17.83,0-35.05-9.19-48.48-25.9
						c-12.19-15.15-19.46-34.74-19.46-52.4v-88.7v-4h4h127.87h4V18.12z M356.76,69.54c0-3.78-1.26-6.86-3.779-9.25
						c-2.521-2.38-5.721-3.57-9.61-3.57c-4,0-7.24,1.19-9.73,3.57c-2.5,2.39-3.739,5.47-3.739,9.25c0,3.77,1.239,6.84,3.739,9.2
						c2.49,2.35,5.73,3.53,9.73,3.53c3.939,0,7.16-1.18,9.649-3.53C355.51,76.38,356.76,73.31,356.76,69.54z M317.16,119.81v-57.5
						h-19.55v5.09h13.89v52.41H317.16z"/>
					<path fill="#666666" d="M635,356v115H443V356H635z M629,465V362H449v103H629z"/>
					<path fill="#666666" d="M622.97,190.39c1.721,0,3.04,1.23,3.32,3.08c-0.19,8.21-2.84,47.35-35.38,55.1l-1.19,0.279l-0.29,1.19
						c-4.46,18.46-20.06,38.62-41.27,41.44l-1.74,0.239v53.45h27.561c1.739,0,3.329,1.58,3.329,3.32s-1.59,3.319-3.329,3.319H512.92
						c-1.74,0-3.32-1.579-3.32-3.319s1.58-3.32,3.32-3.32h27.561v-53.45l-1.73-0.239c-19.12-2.54-36.09-19.58-41.28-41.431
						l-0.279-1.2l-1.2-0.279c-28.681-6.83-34.99-39.05-34.32-55.21c0-1.64,1.49-2.97,3.33-2.97h31.11v-12.65
						c0-1.74,1.58-3.33,3.319-3.33h89.11c1.74,0,3.32,1.59,3.32,3.33v12.65H622.97z M618.571,198.82l0.149-2.14H590.8v45.33
						l2.681-0.979C613.281,233.83,617.7,211.49,618.571,198.82z M584.5,237.73v-56.67h-82.81v56.67c0,22.1,18.09,47.8,41.409,47.8
						C566.41,285.53,584.5,259.83,584.5,237.73z M495.401,241.99v-45.31H467.47l0.15,2.14c1.54,22.3,10.22,36.9,25.1,42.21
						l2.67,0.96H495.401z"/>
					<path fill="#666666" d="M572.531,211.61c0,2.42-0.8,4.38-2.391,5.88c-1.6,1.51-3.649,2.26-6.18,2.26
						c-2.55,0-4.63-0.75-6.22-2.26c-1.601-1.5-2.391-3.46-2.391-5.88s0.79-4.39,2.391-5.91c1.59-1.52,3.67-2.28,6.22-2.28
						c2.49,0,4.54,0.76,6.15,2.28C571.72,207.22,572.531,209.19,572.531,211.61z M569.79,211.61c0-1.79-0.54-3.23-1.62-4.33
						c-1.09-1.11-2.49-1.66-4.21-1.66c-1.75,0-3.18,0.55-4.28,1.66c-1.1,1.1-1.649,2.54-1.649,4.33s0.55,3.24,1.649,4.36
						c1.11,1.12,2.53,1.68,4.28,1.68c1.72,0,3.12-0.56,4.21-1.68C569.25,214.85,569.79,213.4,569.79,211.61z"/>
					<path fill="#666666" d="M551.571,240.5v3.26H525.51v-3l14.5-15.13c1.681-1.75,3.01-3.45,3.99-5.12
						c0.98-1.66,1.47-3.1,1.47-4.33c0-1.93-0.71-3.43-2.149-4.52c-1.44-1.08-3.431-1.63-5.99-1.63c-1.75,0-3.55,0.4-5.41,1.19
						c-1.85,0.78-3.53,1.88-5.04,3.28l-1.63-2.68c1.79-1.58,3.77-2.8,5.96-3.68c2.19-0.87,4.37-1.31,6.54-1.31
						c3.51,0,6.3,0.81,8.38,2.42c2.09,1.61,3.13,3.76,3.13,6.46c0,1.64-0.609,3.49-1.81,5.54c-1.21,2.05-2.87,4.17-4.97,6.38
						L530.09,240.5H551.571z"/>
					<path fill="#666666" d="M445.7,30.76c2.729,0,4.27,2.12,4.63,4.3c-0.2,8.63-1.771,30.11-11.62,50.43
						c-9.95,20.56-25.16,33.4-45.2,38.18l-2.39,0.56l-0.58,2.39c-3.91,16.2-12.4,31.76-23.91,43.82
						c-12.3,12.89-26.97,20.79-42.42,22.85l-3.47,0.46v3.5v80.64v4h4h41.47c2.38,0,4.64,2.261,4.64,4.65c0,2.38-2.26,4.64-4.64,4.64
						h-99.07c-2.39,0-4.64-2.26-4.64-4.64c0-2.39,2.25-4.65,4.64-4.65h41.47h4v-4v-80.64v-3.5l-3.47-0.46
						c-15.53-2.07-30.2-9.9-42.43-22.64c-11.53-12.01-20.02-27.64-23.9-44.02l-0.57-2.39l-2.4-0.57
						c-46.05-10.97-56.18-62.8-55.1-88.68v-0.08v-0.09c0-2.24,2.08-4.06,4.64-4.06h47.23h4v-4V9.48c0-2.39,2.26-4.65,4.64-4.65
						h144.57v0.01c2.39,0,4.649,2.25,4.649,4.64v17.28v4h4H445.7z M439.321,43.74l0.3-4.28h-4.29h-38.59h-4v4v63.36v2.31v5.71
						l5.359-1.96C430.63,101.06,437.89,64.48,439.321,43.74z M384.031,106.82v-88.7v-4h-4H252.16h-4v4v88.7
						c0,17.66,7.27,37.25,19.46,52.4c13.43,16.71,30.65,25.9,48.48,25.9C354.361,185.12,384.031,143.03,384.031,106.82z
						 M239.46,114.8v-5.68v-2.3V43.46v-4h-4h-38.59h-4.29l0.3,4.27c2.51,36.51,16.77,60.43,41.23,69.16L239.46,114.8z"/>
					<path fill="#666666" d="M411,298v173H219V298H411z M405,465V304H225v161H405z"/>
					<path fill="#666666" d="M352.981,60.29c2.52,2.39,3.779,5.47,3.779,9.25c0,3.77-1.25,6.84-3.74,9.2
						c-2.489,2.35-5.71,3.53-9.649,3.53c-4,0-7.24-1.18-9.73-3.53c-2.5-2.36-3.739-5.43-3.739-9.2c0-3.78,1.239-6.86,3.739-9.25
						c2.49-2.38,5.73-3.57,9.73-3.57C347.26,56.72,350.46,57.91,352.981,60.29z M352.49,69.54c0-2.8-0.851-5.06-2.55-6.78
						c-1.7-1.73-3.891-2.59-6.57-2.59c-2.74,0-4.97,0.86-6.7,2.59c-1.72,1.72-2.58,3.98-2.58,6.78c0,2.79,0.86,5.06,2.58,6.81
						c1.73,1.76,3.96,2.63,6.7,2.63c2.68,0,4.87-0.87,6.57-2.63C351.64,74.6,352.49,72.33,352.49,69.54z"/>
					<polygon fill="#666666" points="317.16,62.31 317.16,119.81 311.5,119.81 311.5,67.4 297.61,67.4 297.61,62.31 					"/>
					<path fill="#666666" d="M191,391v80H-1v-80H191z M185,465v-68H5v68H185z"/>
					<path fill="#666666" d="M152.55,275.37c1.37,0,2.46,1.02,2.67,2.49c-0.13,5.649-1.95,33.01-24.72,38.43l-0.6,0.14l-0.14,0.601
						c-3.01,12.46-13.31,26.819-28.81,28.89l-0.87,0.12v36.18h18.64c1.41,0,2.68,1.28,2.68,2.681c0,1.399-1.28,2.68-2.68,2.68H76.58
						c-1.41,0-2.68-1.28-2.68-2.68c0-1.4,1.27-2.681,2.68-2.681h18.64v-36.18l-0.87-0.12c-13.35-1.78-25.2-13.66-28.81-28.89
						l-0.14-0.601l-0.6-0.14c-20.04-4.771-24.45-27.23-23.99-38.49c0-1.34,1.21-2.43,2.68-2.43h21.1v-8.351
						c0-1.399,1.27-2.68,2.67-2.68h61.51c1.41,0,2.68,1.28,2.68,2.68v8.351H152.55z M149.13,281.55l0.07-1.069h-18.49v30.359
						l1.34-0.479C145.52,305.46,148.53,290.21,149.13,281.55z M125.6,308.44V269.7H69.2v38.74c0,15.079,12.32,32.609,28.2,32.609
						C113.29,341.05,125.6,323.52,125.6,308.44z M64.09,310.84V280.48H45.6l0.08,1.069c1.05,15.23,6.96,25.19,17.08,28.811
						L64.09,310.84z"/>
					<path fill="#D1D54F" d="M125.6,269.7v38.74c0,15.079-12.31,32.609-28.2,32.609c-15.88,0-28.2-17.53-28.2-32.609V269.7H125.6z
						 M116.19,295.11c1.12-1.061,1.69-2.45,1.69-4.15c0-1.71-0.57-3.1-1.71-4.17c-1.14-1.08-2.58-1.62-4.34-1.62
						c-1.8,0-3.27,0.54-4.39,1.62c-1.13,1.07-1.69,2.46-1.69,4.17c0,1.7,0.56,3.08,1.69,4.15c1.12,1.06,2.59,1.59,4.39,1.59
						C113.61,296.7,115.06,296.17,116.19,295.11z M101.18,309.92c0.8-1.22,1.2-2.63,1.2-4.21c0-2.08-0.81-3.72-2.43-4.93
						c-1.62-1.21-3.8-1.86-6.54-1.971l-1.63-0.069l9.27-9.34v-1.71h-16.2v2.3h12.86l-8.82,8.899v1.67h3.33
						c2.42,0,4.31,0.45,5.66,1.351c1.34,0.899,2.02,2.22,2.02,3.95c0,1.729-0.68,3.12-2.04,4.17c-1.36,1.05-3.22,1.58-5.56,1.58
						c-1.34,0-2.67-0.221-3.99-0.641s-2.5-0.979-3.54-1.7l-1.15,2c1.19,0.771,2.56,1.381,4.12,1.841c1.55,0.449,3.12,0.68,4.7,0.68
						c2.01,0,3.76-0.34,5.27-1.021C99.22,312.09,100.37,311.14,101.18,309.92z"/>
					<path fill="#666666" d="M117.88,290.96c0,1.7-0.57,3.09-1.69,4.15c-1.13,1.06-2.58,1.59-4.36,1.59c-1.8,0-3.27-0.53-4.39-1.59
						c-1.13-1.07-1.69-2.45-1.69-4.15c0-1.71,0.56-3.1,1.69-4.17c1.12-1.08,2.59-1.62,4.39-1.62c1.76,0,3.2,0.54,4.34,1.62
						C117.31,287.86,117.88,289.25,117.88,290.96z M115.95,290.96c0-1.26-0.39-2.28-1.15-3.06c-0.77-0.78-1.76-1.17-2.97-1.17
						c-1.23,0-2.24,0.39-3.02,1.17c-0.77,0.77-1.17,1.8-1.17,3.06s0.4,2.28,1.17,3.07c0.78,0.8,1.79,1.189,3.02,1.189
						c1.21,0,2.2-0.39,2.97-1.189C115.57,293.24,115.95,292.22,115.95,290.96z"/>
					<path fill="#D1D54F" d="M114.8,287.9c0.76,0.779,1.15,1.8,1.15,3.06s-0.38,2.28-1.15,3.07c-0.77,0.8-1.76,1.189-2.97,1.189
						c-1.23,0-2.24-0.39-3.02-1.189c-0.77-0.79-1.17-1.811-1.17-3.07s0.4-2.29,1.17-3.06c0.78-0.78,1.79-1.17,3.02-1.17
						C113.04,286.73,114.03,287.12,114.8,287.9z"/>
					<path fill="#666666" d="M102.38,305.71c0,1.58-0.4,2.99-1.2,4.21c-0.81,1.22-1.96,2.17-3.47,2.85
						c-1.51,0.681-3.26,1.021-5.27,1.021c-1.58,0-3.15-0.23-4.7-0.68c-1.56-0.46-2.93-1.07-4.12-1.841l1.15-2
						c1.04,0.721,2.22,1.28,3.54,1.7s2.65,0.641,3.99,0.641c2.34,0,4.2-0.53,5.56-1.58c1.36-1.05,2.04-2.44,2.04-4.17
						c0-1.73-0.68-3.051-2.02-3.95c-1.35-0.9-3.24-1.351-5.66-1.351h-3.33v-1.67l8.82-8.899H84.85v-2.3h16.2v1.71l-9.27,9.34
						l1.63,0.069c2.74,0.11,4.92,0.761,6.54,1.971C101.57,301.99,102.38,303.63,102.38,305.71z"/>
				</g>
				<g>
				</g>
			</g>
		</g>
	</g>
</g>
<polyline opacity="0.7" fill="#FFFFFF" points="405,304 405,465 225,465 225,304 405,304 "/>
<polyline opacity="0.7" fill="#FFFFFF" points="185,397 185,465 5,465 5,397 185,397 "/>
<polyline opacity="0.7" fill="#FFFFFF" points="629,362 629,465 449,465 449,362 629,362 "/>
</svg>
