<?xml version="1.0" encoding="utf-8"?>
<!-- Generator: Adobe Illustrator 15.0.2, SVG Export Plug-In . SVG Version: 6.00 Build 0)  -->
<!DOCTYPE svg PUBLIC "-//W3C//DTD SVG 1.1//EN" "http://www.w3.org/Graphics/SVG/1.1/DTD/svg11.dtd">
<svg version="1.1" id="Capa_1" xmlns="http://www.w3.org/2000/svg" xmlns:xlink="http://www.w3.org/1999/xlink" x="0px" y="0px"
	 width="637px" height="470px" viewBox="0 0 637 470" enable-background="new 0 0 637 470" xml:space="preserve">
<g>
	<g>
		<g enable-background="new    ">
			<path fill="#666666" d="M99.953,300.78c1.618,1.212,2.428,2.854,2.428,4.931c0,1.582-0.402,2.984-1.205,4.208
				c-0.804,1.224-1.959,2.175-3.466,2.854c-1.508,0.68-3.263,1.02-5.265,1.02c-1.582,0-3.15-0.229-4.708-0.686
				c-1.557-0.457-2.929-1.069-4.114-1.836l1.148-2.002c1.038,0.717,2.219,1.285,3.541,1.705s2.65,0.631,3.985,0.631
				c2.348,0,4.202-0.524,5.561-1.576c1.359-1.051,2.039-2.439,2.039-4.17c0-1.729-0.673-3.047-2.02-3.948
				c-1.349-0.901-3.232-1.353-5.653-1.353h-3.337v-1.67l8.823-8.896H84.846v-2.3h16.2v1.705l-9.269,9.344l1.632,0.072
				C96.153,298.915,98.334,299.57,99.953,300.78z"/>
			<path fill="#666666" d="M116.171,286.786c1.137,1.075,1.706,2.465,1.706,4.171c0,1.705-0.562,3.09-1.688,4.15
				c-1.125,1.063-2.576,1.596-4.355,1.596c-1.805,0-3.27-0.531-4.394-1.596c-1.125-1.062-1.687-2.445-1.687-4.15
				c0-1.706,0.562-3.096,1.687-4.171c1.124-1.075,2.588-1.612,4.394-1.612C113.589,285.174,115.034,285.711,116.171,286.786z
				 M108.813,287.898c-0.778,0.777-1.168,1.798-1.168,3.059c0,1.26,0.39,2.286,1.168,3.076c0.778,0.792,1.785,1.187,3.021,1.187
				c1.211,0,2.2-0.395,2.966-1.187c0.766-0.79,1.149-1.816,1.149-3.076c0-1.261-0.384-2.28-1.149-3.059
				c-0.766-0.779-1.755-1.168-2.966-1.168C110.598,286.73,109.591,287.12,108.813,287.898z"/>
		</g>
		<path fill="#666666" d="M155.222,277.86c-0.212-1.469-1.303-2.488-2.674-2.488h-21.096v-8.353c0-1.4-1.276-2.676-2.678-2.676
			h-61.51c-1.4,0-2.676,1.275-2.676,2.676v8.353H43.493c-1.477,0-2.678,1.091-2.678,2.433c-0.466,11.252,3.948,33.713,23.982,38.482
			l0.599,0.143l0.143,0.6c3.614,15.229,15.461,27.11,28.811,28.891l0.868,0.115v36.186H76.575c-1.401,0-2.678,1.275-2.678,2.676
			c0,1.401,1.276,2.677,2.678,2.677h42.15c1.4,0,2.676-1.275,2.676-2.677c0-1.4-1.275-2.676-2.676-2.676h-18.645v-36.186
			l0.868-0.115c15.5-2.067,25.8-16.428,28.811-28.895l0.144-0.597l0.597-0.142C153.267,310.865,155.092,283.51,155.222,277.86z
			 M64.094,310.837l-1.336-0.478c-10.122-3.616-16.028-13.578-17.079-28.811l-0.074-1.068h18.489V310.837z M125.604,308.438
			c0,15.081-12.319,32.612-28.201,32.612c-15.882,0-28.2-17.531-28.2-32.612v-38.739h56.401V308.438z M132.055,310.356l-1.342,0.488
			v-30.366h18.49l-0.074,1.068C148.532,290.205,145.52,305.46,132.055,310.356z"/>
	</g>
	<g>
		<g enable-background="new    ">
			<path fill="#666666" d="M551.568,240.501v3.257h-26.054v-2.994l14.498-15.129c1.68-1.75,3.011-3.457,3.992-5.121
				c0.979-1.663,1.471-3.107,1.471-4.334c0-1.925-0.719-3.432-2.154-4.518c-1.436-1.085-3.432-1.628-5.988-1.628
				c-1.752,0-3.555,0.394-5.409,1.182c-1.857,0.788-3.537,1.883-5.043,3.283l-1.63-2.679c1.786-1.576,3.773-2.802,5.964-3.678
				c2.188-0.875,4.366-1.312,6.539-1.312c3.502,0,6.295,0.806,8.379,2.416c2.083,1.611,3.125,3.765,3.125,6.461
				c0,1.646-0.604,3.493-1.812,5.542c-1.207,2.049-2.862,4.176-4.963,6.382l-12.396,12.87H551.568L551.568,240.501z"/>
			<path fill="#666666" d="M570.11,205.7c1.611,1.523,2.417,3.493,2.417,5.91c0,2.416-0.797,4.378-2.39,5.883
				c-1.594,1.506-3.651,2.259-6.172,2.259c-2.559,0-4.634-0.753-6.227-2.259c-1.594-1.505-2.39-3.467-2.39-5.883
				c0-2.417,0.796-4.387,2.39-5.91c1.593-1.523,3.668-2.285,6.227-2.285C566.449,203.415,568.498,204.177,570.11,205.7z
				 M559.684,207.276c-1.104,1.103-1.655,2.548-1.655,4.334c0,1.785,0.552,3.239,1.655,4.359c1.103,1.121,2.529,1.681,4.281,1.681
				c1.715,0,3.114-0.56,4.201-1.681c1.086-1.12,1.629-2.574,1.629-4.359c0-1.786-0.543-3.231-1.629-4.334
				c-1.087-1.104-2.486-1.655-4.201-1.655C562.213,205.621,560.785,206.173,559.684,207.276z"/>
		</g>
		<path fill="#666666" d="M626.294,193.471c-0.283-1.85-1.604-3.083-3.321-3.083h-31.11v-12.649c0-1.74-1.585-3.325-3.325-3.325
			h-89.104c-1.741,0-3.326,1.585-3.326,3.325v12.649h-31.111c-1.832,0-3.322,1.332-3.322,2.969
			c-0.673,16.164,5.637,48.381,34.317,55.212l1.198,0.285l0.284,1.198c5.183,21.845,22.154,38.883,41.272,41.433l1.735,0.231v53.451
			h-27.559c-1.74,0-3.325,1.584-3.325,3.324c0,1.739,1.585,3.323,3.325,3.323h61.06c1.74,0,3.324-1.584,3.324-3.323
			c0-1.74-1.584-3.324-3.324-3.324h-27.561v-53.451l1.735-0.231c21.21-2.829,36.819-22.988,41.275-41.44l0.288-1.191l1.193-0.284
			C623.448,240.819,626.101,201.684,626.294,193.471z M495.395,241.988l-2.673-0.954c-14.884-5.316-23.565-19.914-25.105-42.214
			l-0.147-2.138h27.926V241.988z M584.497,237.73c0,22.103-18.085,47.795-41.4,47.795c-23.318,0-41.405-25.692-41.405-47.795
			l-0.002-56.669h82.808V237.73z M593.481,241.03l-2.684,0.976v-45.325h27.924l-0.147,2.137
			C617.7,211.492,613.281,233.828,593.481,241.03z"/>
	</g>
	<g>
		<path fill="#666666" d="M438.715,85.494c9.842-20.324,11.412-41.804,11.616-50.433c-0.362-2.183-1.905-4.305-4.634-4.305h-47.229
			h-4v-4V9.477c0-2.386-2.255-4.641-4.643-4.641V4.835h-144.57c-2.386,0-4.643,2.255-4.643,4.641v17.283v4h-4h-47.23
			c-2.56,0-4.64,1.822-4.64,4.063v0.083l-0.005,0.083c-1.077,25.878,9.053,77.714,55.106,88.679l2.397,0.57l0.567,2.396
			c3.884,16.374,12.374,32.008,23.905,44.019c12.229,12.74,26.902,20.568,42.427,22.637l3.471,0.463v3.502v80.641v4h-4h-41.473
			c-2.385,0-4.639,2.256-4.639,4.642c0,2.385,2.255,4.64,4.639,4.64h99.073c2.385,0,4.64-2.255,4.64-4.64
			c0-2.386-2.255-4.642-4.64-4.642h-41.474h-4v-4v-80.641v-3.502l3.474-0.463c15.449-2.06,30.117-9.96,42.418-22.845
			c11.513-12.061,20.007-27.625,23.917-43.825l0.574-2.385l2.388-0.568C413.551,118.894,428.76,106.051,438.715,85.494z
			 M239.459,43.46v63.359v2.306v5.677l-5.348-1.91c-24.459-8.737-38.717-32.651-41.235-69.157l-0.295-4.275h4.286h38.592h4V43.46z
			 M384.035,18.116v88.703c0,36.212-29.676,78.306-67.936,78.306c-17.832,0-35.048-9.198-48.478-25.903
			c-12.186-15.154-19.458-34.744-19.458-52.403V18.116v-4h4h127.871h4V18.116z M398.105,112.884l-5.367,1.952v-5.71v-2.306V43.461
			v-4h4h38.596h4.283l-0.295,4.275C437.891,64.484,430.632,101.056,398.105,112.884z"/>
		<g enable-background="new    ">
			<path fill="#666666" d="M297.613,62.306h19.551v57.503h-5.668v-52.41h-13.883V62.306z"/>
			<path fill="#666666" d="M352.981,60.294c2.518,2.383,3.778,5.463,3.778,9.242c0,3.778-1.246,6.846-3.737,9.2
				c-2.493,2.355-5.709,3.532-9.652,3.532c-3.998,0-7.242-1.177-9.733-3.532c-2.492-2.354-3.738-5.422-3.738-9.2
				c0-3.779,1.246-6.859,3.738-9.242c2.491-2.382,5.735-3.573,9.733-3.573C347.257,56.72,350.461,57.912,352.981,60.294z
				 M336.674,62.759c-1.726,1.725-2.588,3.984-2.588,6.777s0.862,5.065,2.588,6.817c1.725,1.754,3.956,2.629,6.694,2.629
				c2.684,0,4.873-0.875,6.572-2.629c1.696-1.752,2.546-4.024,2.546-6.817s-0.85-5.053-2.546-6.777
				c-1.699-1.726-3.89-2.588-6.572-2.588C340.63,60.171,338.399,61.033,336.674,62.759z"/>
		</g>
	</g>
	<g>
		<g>
			<path fill="#666666" d="M405,304v161H225V304H405 M411,298H219v173h192V298L411,298z"/>
		</g>
		<g>
			<path fill="#666666" d="M629,362v103H449V362H629 M635,356H443v115h192V356L635,356z"/>
		</g>
		<g>
			<path fill="#666666" d="M185,397v68H5v-68H185 M191,391H-1v80h192V391L191,391z"/>
		</g>
	</g>
</g>
</svg>
