<?xml version="1.0" encoding="utf-8"?>
<!-- Generator: Adobe Illustrator 15.0.2, SVG Export Plug-In . SVG Version: 6.00 Build 0)  -->
<!DOCTYPE svg PUBLIC "-//W3C//DTD SVG 1.1//EN" "http://www.w3.org/Graphics/SVG/1.1/DTD/svg11.dtd">
<svg version="1.1" id="Capa_1" xmlns="http://www.w3.org/2000/svg" xmlns:xlink="http://www.w3.org/1999/xlink" x="0px" y="0px"
	 width="1281px" height="236px" viewBox="0 0 1281 236" enable-background="new 0 0 1281 236" xml:space="preserve">
<path fill="#D2DEB2" d="M282.014,22.886c0-12.807-10.383-23.19-23.189-23.19c-0.006,0-0.01,0-0.015,0
	c-1.359-0.131-2.764-0.197-4.206-0.197H6.993c-19.738,0-48.553,27.61-48.553,72c0,46.218,24.687,72,70.553,72h16.964l13.108-25.495
	L45.951,92.5H28.993c-7.746,0-14.059-15.154-14.059-23.244c0-8.092,6.312-22.756,19.226-22.756H259.77
	c4.9,0,9.487-1.963,13.142-5.198C278.443,37.064,282.014,30.394,282.014,22.886z"/>
<rect x="0" y="-242.5" display="none" fill="#ECEED7" width="1280" height="720"/>
<g>
	<g>
		<g>
			<g>
				<g>
					<path fill="#D2DEB2" d="M985.973,118.117c0-0.26-0.1-0.729-0.299-0.929L973.698,94H813.461l12.696,24.005L813.47,142h160.237
						l11.967-23.064C985.873,118.734,985.973,118.377,985.973,118.117z"/>
				</g>
			</g>
		</g>
	</g>
	<g>
		<g>
			<g>
				<g>
					<g>
						<g>
							<g>
								<g>
									<path fill="#D2DEB2" d="M236.639,118.117c0-0.26-0.1-0.729-0.299-0.929L224.365,94H64.128l12.697,24.005L64.136,142
										h160.237l11.967-23.064C236.539,118.734,236.639,118.377,236.639,118.117z"/>
								</g>
							</g>
						</g>
					</g>
				</g>
				<g>
					<g>
						<g enable-background="new    ">
							<path fill="#83A521" d="M107.572,103.474h1.769v12.894h-1.769V103.474z"/>
							<path fill="#83A521" d="M122.196,103.474h1.75v12.894h-1.787l-7.367-9.983v9.983h-1.769v-12.894h1.787l7.386,10.002V103.474z
								"/>
							<path fill="#83A521" d="M133.312,105.307c-0.645-0.19-1.237-0.285-1.777-0.285c-0.75,0-1.348,0.144-1.796,0.433
								c-0.449,0.288-0.672,0.685-0.672,1.188c0,0.455,0.135,0.826,0.405,1.114c0.27,0.289,0.602,0.517,0.995,0.682
								c0.393,0.166,0.939,0.359,1.639,0.58c0.872,0.271,1.578,0.528,2.118,0.774c0.54,0.245,1,0.61,1.381,1.096
								c0.38,0.485,0.571,1.127,0.571,1.925c0,0.736-0.2,1.381-0.599,1.934c-0.399,0.553-0.958,0.979-1.676,1.28
								s-1.544,0.451-2.478,0.451c-0.945,0-1.867-0.184-2.763-0.553c-0.896-0.368-1.67-0.859-2.321-1.474l0.792-1.528
								c0.614,0.602,1.305,1.065,2.072,1.391c0.767,0.325,1.513,0.488,2.238,0.488c0.859,0,1.538-0.169,2.035-0.507
								c0.498-0.338,0.746-0.795,0.746-1.372c0-0.454-0.135-0.829-0.405-1.124c-0.27-0.294-0.611-0.527-1.022-0.699
								c-0.412-0.172-0.967-0.362-1.667-0.571c-0.86-0.258-1.56-0.51-2.1-0.755c-0.541-0.246-0.998-0.608-1.372-1.087
								s-0.562-1.111-0.562-1.897c0-0.688,0.19-1.295,0.571-1.823c0.38-0.528,0.915-0.933,1.603-1.216
								c0.688-0.282,1.485-0.424,2.395-0.424c0.773,0,1.532,0.114,2.274,0.341c0.743,0.228,1.403,0.531,1.98,0.912l-0.737,1.584
								C134.58,105.782,133.957,105.497,133.312,105.307z"/>
							<path fill="#83A521" d="M138.994,103.474h1.769v12.894h-1.769V103.474z"/>
							<path fill="#83A521" d="M153.361,110.067h1.565v4.734c-0.651,0.516-1.412,0.927-2.284,1.233
								c-0.872,0.308-1.738,0.461-2.597,0.461c-1.241,0-2.376-0.292-3.408-0.875c-1.031-0.583-1.845-1.381-2.44-2.395
								c-0.596-1.013-0.894-2.121-0.894-3.324s0.301-2.306,0.903-3.307c0.602-1.001,1.424-1.789,2.468-2.367
								c1.043-0.576,2.198-0.865,3.462-0.865c0.896,0,1.771,0.16,2.625,0.479c0.853,0.32,1.593,0.756,2.219,1.309l-1.013,1.289
								c-0.516-0.479-1.108-0.851-1.778-1.114c-0.669-0.265-1.354-0.396-2.054-0.396c-0.921,0-1.768,0.222-2.542,0.663
								c-0.774,0.442-1.385,1.044-1.833,1.806c-0.448,0.761-0.672,1.596-0.672,2.505c0,0.908,0.227,1.747,0.681,2.514
								c0.454,0.768,1.068,1.376,1.842,1.824c0.774,0.448,1.621,0.672,2.542,0.672c0.54,0,1.09-0.089,1.648-0.268
								c0.559-0.178,1.078-0.426,1.557-0.745V110.067z"/>
							<path fill="#83A521" d="M158.279,103.474h1.769v5.747h7.367v-5.747h1.787v12.894h-1.787v-5.544h-7.367v5.544h-1.769V103.474z
								"/>
							<path fill="#83A521" d="M171.227,103.474h10.075v1.621h-4.163v11.272h-1.768v-11.272h-4.145V103.474z"/>
							<path fill="#83A521" d="M188.992,105.307c-0.645-0.19-1.237-0.285-1.777-0.285c-0.75,0-1.348,0.144-1.796,0.433
								c-0.449,0.288-0.672,0.685-0.672,1.188c0,0.455,0.135,0.826,0.405,1.114c0.27,0.289,0.602,0.517,0.995,0.682
								c0.393,0.166,0.939,0.359,1.639,0.58c0.872,0.271,1.578,0.528,2.118,0.774c0.54,0.245,1,0.61,1.381,1.096
								c0.38,0.485,0.571,1.127,0.571,1.925c0,0.736-0.2,1.381-0.599,1.934c-0.399,0.553-0.958,0.979-1.676,1.28
								s-1.544,0.451-2.478,0.451c-0.945,0-1.867-0.184-2.763-0.553c-0.896-0.368-1.67-0.859-2.321-1.474l0.792-1.528
								c0.614,0.602,1.305,1.065,2.072,1.391c0.767,0.325,1.513,0.488,2.238,0.488c0.859,0,1.538-0.169,2.035-0.507
								c0.498-0.338,0.746-0.795,0.746-1.372c0-0.454-0.135-0.829-0.405-1.124c-0.27-0.294-0.611-0.527-1.022-0.699
								c-0.412-0.172-0.967-0.362-1.667-0.571c-0.86-0.258-1.56-0.51-2.1-0.755c-0.541-0.246-0.998-0.608-1.372-1.087
								s-0.562-1.111-0.562-1.897c0-0.688,0.19-1.295,0.571-1.823c0.38-0.528,0.915-0.933,1.603-1.216
								c0.688-0.282,1.485-0.424,2.395-0.424c0.773,0,1.532,0.114,2.274,0.341c0.743,0.228,1.403,0.531,1.98,0.912l-0.737,1.584
								C190.26,105.782,189.637,105.497,188.992,105.307z"/>
						</g>
						<g enable-background="new    ">
							<path fill="#83A521" d="M80.081,121.893h8.952v1.603h-7.183v3.979h6.428v1.603h-6.428v4.107h7.404v1.603h-9.173V121.893z"/>
							<path fill="#83A521" d="M97.773,123.726c-0.645-0.19-1.237-0.285-1.777-0.285c-0.75,0-1.348,0.144-1.796,0.433
								c-0.449,0.288-0.672,0.685-0.672,1.188c0,0.455,0.135,0.826,0.405,1.114c0.27,0.289,0.602,0.517,0.995,0.682
								c0.393,0.166,0.939,0.359,1.639,0.58c0.872,0.271,1.578,0.528,2.118,0.774c0.54,0.245,1,0.61,1.381,1.096
								c0.38,0.485,0.571,1.127,0.571,1.925c0,0.736-0.2,1.381-0.599,1.934c-0.399,0.553-0.958,0.979-1.676,1.28
								s-1.544,0.451-2.478,0.451c-0.945,0-1.867-0.184-2.763-0.553c-0.896-0.368-1.67-0.859-2.321-1.474l0.792-1.528
								c0.614,0.602,1.305,1.065,2.072,1.391c0.767,0.325,1.513,0.488,2.238,0.488c0.859,0,1.538-0.169,2.035-0.507
								c0.498-0.338,0.746-0.795,0.746-1.372c0-0.454-0.135-0.829-0.405-1.124c-0.27-0.294-0.611-0.527-1.022-0.699
								c-0.412-0.172-0.967-0.362-1.667-0.571c-0.86-0.258-1.56-0.51-2.1-0.755c-0.541-0.246-0.998-0.608-1.372-1.087
								s-0.562-1.111-0.562-1.897c0-0.688,0.19-1.295,0.571-1.823c0.38-0.528,0.915-0.933,1.603-1.216
								c0.688-0.282,1.485-0.424,2.395-0.424c0.773,0,1.532,0.114,2.274,0.341c0.743,0.228,1.403,0.531,1.98,0.912l-0.737,1.584
								C99.04,124.201,98.417,123.916,97.773,123.726z"/>
							<path fill="#83A521" d="M112.157,123.035c0.878,0.761,1.317,1.829,1.317,3.204c0,1.438-0.442,2.552-1.326,3.344
								s-2.125,1.188-3.721,1.188h-3.205v4.016h-1.769v-12.894h4.973C110.036,121.893,111.28,122.273,112.157,123.035z
								 M110.896,128.44c0.589-0.484,0.884-1.2,0.884-2.146c0-0.921-0.295-1.618-0.884-2.091s-1.437-0.709-2.542-0.709l-3.131,0.019
								v5.654h3.131C109.459,129.168,110.306,128.926,110.896,128.44z"/>
							<path fill="#83A521" d="M124.867,122.647c1.038,0.578,1.857,1.366,2.459,2.367c0.602,1.001,0.902,2.104,0.902,3.307
								s-0.301,2.312-0.902,3.324c-0.602,1.014-1.421,1.812-2.459,2.395c-1.038,0.583-2.177,0.875-3.417,0.875
								s-2.379-0.292-3.417-0.875c-1.038-0.583-1.857-1.381-2.459-2.395c-0.602-1.013-0.903-2.121-0.903-3.324
								s0.301-2.306,0.903-3.307c0.602-1.001,1.418-1.789,2.45-2.367c1.031-0.576,2.173-0.865,3.426-0.865
								C122.69,121.782,123.829,122.071,124.867,122.647z M118.973,124.029c-0.768,0.442-1.379,1.041-1.833,1.796
								s-0.681,1.587-0.681,2.496c0,0.908,0.227,1.743,0.681,2.505s1.065,1.366,1.833,1.814c0.767,0.448,1.599,0.672,2.496,0.672
								c0.896,0,1.722-0.224,2.478-0.672c0.755-0.448,1.356-1.053,1.805-1.814s0.672-1.597,0.672-2.505
								c0-0.909-0.224-1.741-0.672-2.496s-1.05-1.354-1.805-1.796c-0.755-0.442-1.582-0.663-2.478-0.663
								C120.572,123.366,119.74,123.587,118.973,124.029z"/>
							<path fill="#83A521" d="M139.943,121.893h1.75v12.894h-1.787l-7.367-9.983v9.983h-1.769v-12.894h1.787l7.386,10.002V121.893z
								"/>
							<path fill="#83A521" d="M143.737,121.893h10.075v1.621h-4.163v11.272h-1.768v-11.272h-4.145V121.893z"/>
							<path fill="#83A521" d="M164.182,134.786l-1.363-3.131h-6.796l-1.345,3.131h-1.86l5.729-12.894h1.842l5.71,12.894H164.182z
								 M156.722,130.053h5.416l-2.726-6.263L156.722,130.053z M160.461,118.172l1.768,0.773l-2.284,1.806l-1.455-0.185
								L160.461,118.172z"/>
							<path fill="#83A521" d="M177.149,121.893h1.75v12.894h-1.787l-7.367-9.983v9.983h-1.769v-12.894h1.787l7.386,10.002V121.893z
								"/>
							<path fill="#83A521" d="M182.601,121.893h8.952v1.603h-7.183v3.979h6.428v1.603h-6.428v4.107h7.404v1.603h-9.173V121.893z"/>
							<path fill="#83A521" d="M203.682,122.647c1.038,0.578,1.857,1.366,2.459,2.367c0.602,1.001,0.902,2.104,0.902,3.307
								s-0.301,2.312-0.902,3.324c-0.602,1.014-1.421,1.812-2.459,2.395c-1.038,0.583-2.177,0.875-3.417,0.875
								s-2.379-0.292-3.417-0.875c-1.038-0.583-1.857-1.381-2.459-2.395c-0.602-1.013-0.903-2.121-0.903-3.324
								s0.301-2.306,0.903-3.307c0.602-1.001,1.418-1.789,2.45-2.367c1.031-0.576,2.173-0.865,3.426-0.865
								C201.505,121.782,202.644,122.071,203.682,122.647z M197.788,124.029c-0.768,0.442-1.379,1.041-1.833,1.796
								s-0.681,1.587-0.681,2.496c0,0.908,0.227,1.743,0.681,2.505s1.065,1.366,1.833,1.814c0.767,0.448,1.599,0.672,2.496,0.672
								c0.896,0,1.722-0.224,2.478-0.672c0.755-0.448,1.356-1.053,1.805-1.814s0.672-1.597,0.672-2.505
								c0-0.909-0.224-1.741-0.672-2.496s-1.05-1.354-1.805-1.796c-0.755-0.442-1.582-0.663-2.478-0.663
								C199.387,123.366,198.555,123.587,197.788,124.029z"/>
							<path fill="#83A521" d="M215.249,123.726c-0.645-0.19-1.237-0.285-1.777-0.285c-0.75,0-1.348,0.144-1.796,0.433
								c-0.449,0.288-0.672,0.685-0.672,1.188c0,0.455,0.135,0.826,0.405,1.114c0.27,0.289,0.602,0.517,0.995,0.682
								c0.393,0.166,0.939,0.359,1.639,0.58c0.872,0.271,1.578,0.528,2.118,0.774c0.54,0.245,1,0.61,1.381,1.096
								c0.38,0.485,0.571,1.127,0.571,1.925c0,0.736-0.2,1.381-0.599,1.934c-0.399,0.553-0.958,0.979-1.676,1.28
								s-1.544,0.451-2.478,0.451c-0.945,0-1.867-0.184-2.763-0.553c-0.896-0.368-1.67-0.859-2.321-1.474l0.792-1.528
								c0.614,0.602,1.305,1.065,2.072,1.391c0.767,0.325,1.513,0.488,2.238,0.488c0.859,0,1.538-0.169,2.035-0.507
								c0.498-0.338,0.746-0.795,0.746-1.372c0-0.454-0.135-0.829-0.405-1.124c-0.27-0.294-0.611-0.527-1.022-0.699
								c-0.412-0.172-0.967-0.362-1.667-0.571c-0.86-0.258-1.56-0.51-2.1-0.755c-0.541-0.246-0.998-0.608-1.372-1.087
								s-0.562-1.111-0.562-1.897c0-0.688,0.19-1.295,0.571-1.823c0.38-0.528,0.915-0.933,1.603-1.216
								c0.688-0.282,1.485-0.424,2.395-0.424c0.773,0,1.532,0.114,2.274,0.341c0.743,0.228,1.403,0.531,1.98,0.912l-0.737,1.584
								C216.516,124.201,215.893,123.916,215.249,123.726z"/>
						</g>
					</g>
				</g>
			</g>
			<g>
				<g>
					<g>
						<g>
							<path fill="#EADFD4" d="M742.971,118.117c0-0.26-0.103-0.729-0.299-0.929L730.695,94H570.46l12.697,24.005L570.468,142
								h160.234l11.97-23.064C742.868,118.734,742.971,118.377,742.971,118.117z"/>
						</g>
					</g>
				</g>
				<g>
					<g>
						<g>
							<path fill="#D2DEB2" d="M742.971,118.117c0-0.26-0.103-0.729-0.299-0.929L730.695,94H570.46l12.697,24.005L570.468,142
								h160.234l11.97-23.064C742.868,118.734,742.971,118.377,742.971,118.117z"/>
						</g>
					</g>
				</g>
				<g enable-background="new    ">
					<path fill="#83A521" d="M625.527,104.616c0.878,0.761,1.317,1.829,1.317,3.204c0,1.438-0.442,2.552-1.326,3.344
						s-2.125,1.188-3.721,1.188h-3.205v4.016h-1.769v-12.894h4.973C623.406,103.474,624.649,103.854,625.527,104.616z
						 M624.265,110.021c0.589-0.484,0.884-1.2,0.884-2.146c0-0.921-0.295-1.618-0.884-2.091s-1.437-0.709-2.542-0.709l-3.131,0.019
						v5.654h3.131C622.829,110.749,623.676,110.507,624.265,110.021z"/>
					<path fill="#83A521" d="M631.66,113.89c0.657,0.67,1.562,1.004,2.717,1.004c1.142,0,2.038-0.334,2.689-1.004
						c0.651-0.669,0.977-1.6,0.977-2.79v-7.626h1.768v7.626c0,1.683-0.482,3.002-1.446,3.96c-0.964,0.958-2.293,1.437-3.988,1.437
						c-1.707,0-3.045-0.479-4.016-1.437c-0.97-0.958-1.455-2.277-1.455-3.96v-7.626h1.769v7.626
						C630.675,112.29,631.003,113.221,631.66,113.89z"/>
					<path fill="#83A521" d="M652.391,103.474h1.75v12.894h-1.787l-7.367-9.983v9.983h-1.769v-12.894h1.786l7.387,10.002V103.474z"
						/>
					<path fill="#83A521" d="M656.186,103.474h10.074v1.621h-4.162v11.272h-1.768v-11.272h-4.145V103.474z"/>
					<path fill="#83A521" d="M676.53,104.229c1.037,0.578,1.856,1.366,2.459,2.367c0.602,1.001,0.902,2.104,0.902,3.307
						s-0.301,2.312-0.902,3.324c-0.603,1.014-1.422,1.812-2.459,2.395c-1.039,0.583-2.178,0.875-3.418,0.875
						s-2.379-0.292-3.416-0.875c-1.038-0.583-1.857-1.381-2.459-2.395c-0.602-1.013-0.902-2.121-0.902-3.324
						s0.301-2.306,0.902-3.307s1.418-1.789,2.449-2.367c1.031-0.576,2.174-0.865,3.426-0.865
						C674.352,103.363,675.49,103.652,676.53,104.229z M670.635,105.61c-0.768,0.442-1.379,1.041-1.833,1.796
						s-0.681,1.587-0.681,2.496c0,0.908,0.227,1.743,0.681,2.505s1.065,1.366,1.833,1.814s1.6,0.672,2.496,0.672
						c0.896,0,1.722-0.224,2.477-0.672c0.756-0.448,1.357-1.053,1.805-1.814c0.449-0.762,0.673-1.597,0.673-2.505
						c0-0.909-0.224-1.741-0.673-2.496c-0.447-0.755-1.049-1.354-1.805-1.796c-0.755-0.442-1.581-0.663-2.477-0.663
						C672.235,104.947,671.403,105.168,670.635,105.61z"/>
					<path fill="#83A521" d="M688.096,105.307c-0.645-0.19-1.237-0.285-1.777-0.285c-0.75,0-1.348,0.144-1.796,0.433
						c-0.448,0.288-0.673,0.685-0.673,1.188c0,0.455,0.135,0.826,0.406,1.114c0.27,0.289,0.602,0.517,0.994,0.682
						c0.393,0.166,0.939,0.359,1.639,0.58c0.872,0.271,1.578,0.528,2.119,0.774c0.539,0.245,1,0.61,1.381,1.096
						s0.571,1.127,0.571,1.925c0,0.736-0.2,1.381-0.599,1.934c-0.399,0.553-0.958,0.979-1.676,1.28
						c-0.719,0.301-1.545,0.451-2.479,0.451c-0.945,0-1.866-0.184-2.762-0.553c-0.896-0.368-1.67-0.859-2.321-1.474l0.792-1.528
						c0.613,0.602,1.305,1.065,2.072,1.391s1.514,0.488,2.238,0.488c0.859,0,1.537-0.169,2.035-0.507
						c0.497-0.338,0.746-0.795,0.746-1.372c0-0.454-0.136-0.829-0.406-1.124c-0.27-0.294-0.61-0.527-1.021-0.699
						c-0.412-0.172-0.967-0.362-1.667-0.571c-0.86-0.258-1.56-0.51-2.101-0.755c-0.54-0.246-0.997-0.608-1.371-1.087
						c-0.375-0.479-0.562-1.111-0.562-1.897c0-0.688,0.19-1.295,0.571-1.823c0.38-0.528,0.915-0.933,1.603-1.216
						c0.688-0.282,1.485-0.424,2.395-0.424c0.773,0,1.531,0.114,2.274,0.341c0.743,0.228,1.403,0.531,1.98,0.912l-0.737,1.584
						C689.364,105.782,688.74,105.497,688.096,105.307z"/>
				</g>
				<g enable-background="new    ">
					<path fill="#83A521" d="M622.184,122.73c1.013,0.56,1.808,1.33,2.385,2.312c0.577,0.983,0.866,2.082,0.866,3.298
						c0,1.215-0.292,2.314-0.875,3.297c-0.583,0.982-1.385,1.753-2.404,2.312s-2.161,0.838-3.426,0.838h-5.194v-12.894h5.25
						C620.038,121.893,621.171,122.172,622.184,122.73z M621.263,132.558c0.73-0.418,1.308-0.995,1.731-1.731
						c0.423-0.737,0.635-1.56,0.635-2.469c0-0.921-0.215-1.749-0.645-2.486c-0.43-0.736-1.016-1.316-1.759-1.74
						s-1.569-0.636-2.477-0.636h-3.444v9.688h3.518C619.719,133.184,620.532,132.975,621.263,132.558z"/>
					<path fill="#83A521" d="M627.958,121.893h8.952v1.603h-7.183v3.979h6.428v1.603h-6.428v4.107h7.404v1.603h-9.173V121.893z"/>
					<path fill="#83A521" d="M643.062,121.893h1.897l4.254,10.923l4.256-10.923h1.859l-5.23,12.894h-1.842L643.062,121.893z"/>
					<path fill="#83A521" d="M657.262,121.893h1.77v12.894h-1.77V121.893z"/>
					<path fill="#83A521" d="M668.378,123.726c-0.645-0.19-1.237-0.285-1.777-0.285c-0.749,0-1.349,0.144-1.796,0.433
						c-0.449,0.288-0.672,0.685-0.672,1.188c0,0.455,0.135,0.826,0.404,1.114c0.271,0.289,0.602,0.517,0.995,0.682
						c0.393,0.166,0.939,0.359,1.64,0.58c0.871,0.271,1.577,0.528,2.117,0.774c0.541,0.245,1.001,0.61,1.382,1.096
						c0.38,0.485,0.571,1.127,0.571,1.925c0,0.736-0.199,1.381-0.599,1.934s-0.958,0.979-1.677,1.28
						c-0.718,0.301-1.544,0.451-2.477,0.451c-0.945,0-1.867-0.184-2.764-0.553c-0.896-0.368-1.67-0.859-2.32-1.474l0.792-1.528
						c0.614,0.602,1.305,1.065,2.072,1.391c0.767,0.325,1.513,0.488,2.237,0.488c0.859,0,1.539-0.169,2.035-0.507
						c0.498-0.338,0.746-0.795,0.746-1.372c0-0.454-0.135-0.829-0.404-1.124c-0.271-0.294-0.611-0.527-1.022-0.699
						s-0.968-0.362-1.667-0.571c-0.859-0.258-1.56-0.51-2.1-0.755c-0.541-0.246-0.998-0.608-1.373-1.087
						c-0.374-0.479-0.561-1.111-0.561-1.897c0-0.688,0.189-1.295,0.57-1.823s0.914-0.933,1.603-1.216
						c0.688-0.282,1.485-0.424,2.395-0.424c0.773,0,1.532,0.114,2.274,0.341c0.743,0.228,1.402,0.531,1.98,0.912l-0.736,1.584
						C669.646,124.201,669.023,123.916,668.378,123.726z"/>
					<path fill="#83A521" d="M672.403,121.893h10.075v1.621h-4.163v11.272h-1.768v-11.272h-4.145V121.893z"/>
					<path fill="#83A521" d="M692.848,134.786l-1.363-3.131h-6.797l-1.344,3.131h-1.861l5.729-12.894h1.842l5.711,12.894H692.848z
						 M685.388,130.053h5.415l-2.726-6.263L685.388,130.053z"/>
				</g>
			</g>
			<g>
				<g enable-background="new    ">
					<path fill="#83A521" d="M857.502,113.164c0.879,0.761,1.317,1.829,1.317,3.204c0,1.438-0.442,2.552-1.326,3.344
						s-2.124,1.188-3.721,1.188h-3.204v4.016h-1.77v-12.894h4.974C855.381,112.021,856.625,112.402,857.502,113.164z
						 M856.24,118.569c0.59-0.484,0.885-1.2,0.885-2.146c0-0.921-0.295-1.618-0.885-2.091c-0.589-0.473-1.436-0.709-2.541-0.709
						l-3.131,0.019v5.654h3.131C854.805,119.297,855.652,119.055,856.24,118.569z"/>
					<path fill="#83A521" d="M869.982,124.915l-1.363-3.131h-6.796l-1.346,3.131h-1.859l5.729-12.894h1.842l5.709,12.894H869.982z
						 M862.522,120.182h5.416l-2.727-6.263L862.522,120.182z"/>
					<path fill="#83A521" d="M873.776,112.021h1.77v12.894h-1.77V112.021z"/>
					<path fill="#83A521" d="M888.401,112.021h1.75v12.894h-1.787l-7.367-9.983v9.983h-1.769v-12.894h1.786l7.387,10.002V112.021z"
						/>
					<path fill="#83A521" d="M902.555,113.164c0.879,0.761,1.317,1.829,1.317,3.204c0,1.438-0.442,2.552-1.326,3.344
						s-2.124,1.188-3.721,1.188h-3.204v4.016h-1.77v-12.894h4.974C900.434,112.021,901.678,112.402,902.555,113.164z
						 M901.293,118.569c0.59-0.484,0.885-1.2,0.885-2.146c0-0.921-0.295-1.618-0.885-2.091c-0.589-0.473-1.436-0.709-2.541-0.709
						l-3.131,0.019v5.654h3.131C899.858,119.297,900.704,119.055,901.293,118.569z"/>
					<path fill="#83A521" d="M915.264,112.776c1.038,0.578,1.857,1.366,2.459,2.367s0.902,2.104,0.902,3.307
						s-0.301,2.312-0.902,3.324c-0.602,1.014-1.421,1.812-2.459,2.395c-1.037,0.583-2.176,0.875-3.416,0.875
						s-2.379-0.292-3.417-0.875s-1.857-1.381-2.459-2.395c-0.603-1.013-0.903-2.121-0.903-3.324s0.301-2.306,0.903-3.307
						c0.602-1.001,1.418-1.789,2.45-2.367c1.031-0.576,2.173-0.865,3.426-0.865C913.088,111.911,914.227,112.2,915.264,112.776z
						 M909.37,114.158c-0.768,0.442-1.379,1.041-1.833,1.796s-0.682,1.587-0.682,2.496c0,0.908,0.228,1.743,0.682,2.505
						s1.065,1.366,1.833,1.814c0.767,0.448,1.599,0.672,2.495,0.672s1.723-0.224,2.479-0.672c0.754-0.448,1.355-1.053,1.805-1.814
						c0.447-0.762,0.672-1.597,0.672-2.505c0-0.909-0.225-1.741-0.672-2.496c-0.449-0.755-1.051-1.354-1.805-1.796
						c-0.756-0.442-1.582-0.663-2.479-0.663S910.137,113.716,909.37,114.158z"/>
					<path fill="#83A521" d="M921.168,112.021h1.768v12.894h-1.768V112.021z"/>
					<path fill="#83A521" d="M935.792,112.021h1.75v12.894h-1.787l-7.367-9.983v9.983h-1.769v-12.894h1.787l7.386,10.002V112.021z"
						/>
					<path fill="#83A521" d="M939.586,112.021h10.075v1.621h-4.163v11.272h-1.768v-11.272h-4.145V112.021z"/>
					<path fill="#83A521" d="M957.352,113.854c-0.645-0.19-1.238-0.285-1.777-0.285c-0.75,0-1.349,0.144-1.797,0.433
						c-0.448,0.288-0.672,0.685-0.672,1.188c0,0.455,0.135,0.826,0.405,1.114c0.271,0.289,0.602,0.517,0.995,0.682
						c0.393,0.166,0.939,0.359,1.639,0.58c0.871,0.271,1.578,0.528,2.118,0.774c0.54,0.245,1.001,0.61,1.382,1.096
						c0.38,0.485,0.57,1.127,0.57,1.925c0,0.736-0.199,1.381-0.598,1.934c-0.4,0.553-0.959,0.979-1.677,1.28
						s-1.544,0.451-2.478,0.451c-0.945,0-1.867-0.184-2.763-0.553c-0.896-0.368-1.67-0.859-2.321-1.474l0.793-1.528
						c0.613,0.602,1.305,1.065,2.072,1.391c0.767,0.325,1.513,0.488,2.237,0.488c0.859,0,1.538-0.169,2.035-0.507
						s0.746-0.795,0.746-1.372c0-0.454-0.136-0.829-0.405-1.124c-0.27-0.294-0.611-0.527-1.021-0.699
						c-0.412-0.172-0.968-0.362-1.668-0.571c-0.859-0.258-1.559-0.51-2.1-0.755c-0.541-0.246-0.998-0.608-1.372-1.087
						s-0.562-1.111-0.562-1.897c0-0.688,0.189-1.295,0.57-1.823s0.915-0.933,1.604-1.216c0.688-0.282,1.484-0.424,2.395-0.424
						c0.773,0,1.531,0.114,2.273,0.341c0.744,0.228,1.403,0.531,1.98,0.912l-0.736,1.584
						C958.619,114.33,957.996,114.045,957.352,113.854z"/>
				</g>
			</g>
			<g>
				<g>
					<g>
						<g>
							<g>
								<path fill="#D2DEB2" d="M1229.252,118.117c0-0.26-0.101-0.729-0.3-0.929L1216.979,94h-160.234l12.697,24.005L1056.75,142
									h160.235l11.967-23.064C1229.152,118.734,1229.252,118.377,1229.252,118.117z"/>
							</g>
						</g>
					</g>
				</g>
				<g enable-background="new    ">
					<path fill="#83A521" d="M1094.471,113.021h2.101l4.715,9.062l4.679-9.062h2.118v12.894h-1.657l-0.02-10.296l-4.586,8.933
						h-1.086l-4.623-8.933v10.296h-1.641V113.021z"/>
					<path fill="#83A521" d="M1111.767,113.021h8.952v1.603h-7.184v3.979h6.428v1.603h-6.428v4.107h7.404v1.603h-9.173V113.021z"/>
					<path fill="#83A521" d="M1134.284,114.854c-0.645-0.19-1.237-0.285-1.777-0.285c-0.749,0-1.349,0.144-1.796,0.433
						c-0.449,0.288-0.672,0.685-0.672,1.188c0,0.455,0.135,0.826,0.404,1.114c0.271,0.289,0.602,0.517,0.995,0.682
						c0.393,0.166,0.939,0.359,1.64,0.58c0.871,0.271,1.577,0.528,2.117,0.774c0.541,0.245,1.001,0.61,1.382,1.096
						c0.38,0.485,0.571,1.127,0.571,1.925c0,0.736-0.199,1.381-0.599,1.934s-0.958,0.979-1.677,1.28
						c-0.718,0.301-1.544,0.451-2.477,0.451c-0.945,0-1.867-0.184-2.764-0.553c-0.896-0.368-1.67-0.859-2.32-1.474l0.792-1.528
						c0.614,0.602,1.305,1.065,2.072,1.391c0.767,0.325,1.513,0.488,2.237,0.488c0.859,0,1.539-0.169,2.035-0.507
						c0.498-0.338,0.746-0.795,0.746-1.372c0-0.454-0.135-0.829-0.404-1.124c-0.271-0.294-0.611-0.527-1.022-0.699
						s-0.968-0.362-1.667-0.571c-0.859-0.258-1.56-0.51-2.1-0.755c-0.541-0.246-0.998-0.608-1.373-1.087
						c-0.374-0.479-0.561-1.111-0.561-1.897c0-0.688,0.189-1.295,0.57-1.823s0.914-0.933,1.603-1.216
						c0.688-0.282,1.485-0.424,2.395-0.424c0.773,0,1.532,0.114,2.274,0.341c0.743,0.228,1.402,0.531,1.98,0.912l-0.736,1.584
						C1135.552,115.33,1134.929,115.045,1134.284,114.854z"/>
					<path fill="#83A521" d="M1139.967,113.021h1.768v12.894h-1.768V113.021z"/>
					<path fill="#83A521" d="M1145.418,113.021h8.951v1.603h-7.183v3.979h6.429v1.603h-6.429v4.107h7.404v1.603h-9.173V113.021z"/>
					<path fill="#83A521" d="M1166.619,113.021h1.75v12.894h-1.787l-7.367-9.983v9.983h-1.77v-12.894h1.787l7.387,10.002V113.021z"
						/>
					<path fill="#83A521" d="M1170.412,113.021h10.076v1.621h-4.163v11.272h-1.769v-11.272h-4.145V113.021z"/>
					<path fill="#83A521" d="M1190.756,113.776c1.038,0.578,1.857,1.366,2.459,2.367s0.902,2.104,0.902,3.307
						s-0.301,2.312-0.902,3.324c-0.602,1.014-1.421,1.812-2.459,2.395c-1.037,0.583-2.176,0.875-3.416,0.875
						s-2.379-0.292-3.417-0.875s-1.857-1.381-2.459-2.395c-0.603-1.013-0.903-2.121-0.903-3.324s0.301-2.306,0.903-3.307
						c0.602-1.001,1.418-1.789,2.45-2.367c1.031-0.576,2.173-0.865,3.426-0.865C1188.58,112.911,1189.719,113.2,1190.756,113.776z
						 M1184.863,115.158c-0.768,0.442-1.379,1.041-1.833,1.796s-0.682,1.587-0.682,2.496c0,0.908,0.228,1.743,0.682,2.505
						s1.065,1.366,1.833,1.814c0.767,0.448,1.599,0.672,2.495,0.672s1.723-0.224,2.479-0.672c0.754-0.448,1.355-1.053,1.805-1.814
						c0.447-0.762,0.672-1.597,0.672-2.505c0-0.909-0.225-1.741-0.672-2.496c-0.449-0.755-1.051-1.354-1.805-1.796
						c-0.756-0.442-1.582-0.663-2.479-0.663S1185.629,114.716,1184.863,115.158z"/>
				</g>
			</g>
			<g>
				<g>
					<g>
						<g>
							<g>
								<path fill="#D2DEB2" d="M481.274,118.117c0-0.26-0.102-0.729-0.301-0.929L469,94H308.764l12.697,24.005L308.771,142h160.237
									l11.967-23.064C481.175,118.734,481.274,118.377,481.274,118.117z"/>
							</g>
						</g>
					</g>
				</g>
				<g>
					<g>
						<g enable-background="new    ">
							<path fill="#83A521" d="M346.277,105.763c0.878,0.761,1.317,1.829,1.317,3.204c0,1.438-0.442,2.552-1.326,3.344
								s-2.125,1.188-3.721,1.188h-3.205v4.016h-1.769V104.62h4.973C344.156,104.62,345.399,105.001,346.277,105.763z
								 M345.015,111.168c0.589-0.484,0.884-1.2,0.884-2.146c0-0.921-0.295-1.618-0.884-2.091s-1.437-0.709-2.542-0.709
								l-3.131,0.019v5.654h3.131C343.579,111.896,344.426,111.653,345.015,111.168z"/>
							<path fill="#83A521" d="M358.259,117.514l-2.561-4.052c-0.294,0.024-0.534,0.036-0.718,0.036h-3.278v4.016h-1.769V104.62
								h5.047c1.633,0,2.895,0.378,3.785,1.133c0.89,0.755,1.335,1.827,1.335,3.214c0,1.044-0.243,1.922-0.728,2.635
								c-0.485,0.712-1.182,1.228-2.091,1.547l3.002,4.365H358.259z M354.98,111.896c1.105,0,1.953-0.242,2.542-0.728
								c0.589-0.484,0.884-1.2,0.884-2.146c0-0.921-0.294-1.618-0.884-2.091s-1.437-0.709-2.542-0.709h-3.278v5.673H354.98z"/>
							<path fill="#83A521" d="M363.25,104.62h8.952v1.603h-7.183v3.979h6.428v1.603h-6.428v4.107h7.404v1.603h-9.173V104.62z"/>
							<path fill="#83A521" d="M384.193,111.214h1.565v4.734c-0.651,0.516-1.412,0.927-2.284,1.233
								c-0.872,0.308-1.738,0.461-2.597,0.461c-1.241,0-2.376-0.292-3.408-0.875c-1.031-0.583-1.845-1.381-2.44-2.395
								c-0.596-1.013-0.894-2.121-0.894-3.324s0.301-2.306,0.903-3.307c0.602-1.001,1.424-1.789,2.468-2.367
								c1.043-0.576,2.198-0.865,3.462-0.865c0.896,0,1.771,0.16,2.625,0.479c0.853,0.32,1.593,0.756,2.219,1.309l-1.013,1.289
								c-0.516-0.479-1.108-0.851-1.778-1.114c-0.669-0.265-1.354-0.396-2.054-0.396c-0.921,0-1.768,0.222-2.542,0.663
								c-0.774,0.442-1.385,1.044-1.833,1.806c-0.448,0.761-0.672,1.596-0.672,2.505c0,0.908,0.227,1.747,0.681,2.514
								c0.454,0.768,1.068,1.376,1.842,1.824c0.774,0.448,1.621,0.672,2.542,0.672c0.54,0,1.09-0.089,1.648-0.268
								c0.559-0.178,1.078-0.426,1.557-0.745V111.214z"/>
							<path fill="#83A521" d="M391.588,115.036c0.657,0.67,1.562,1.004,2.717,1.004c1.142,0,2.038-0.334,2.689-1.004
								c0.651-0.669,0.977-1.6,0.977-2.79v-7.626h1.768v7.626c0,1.683-0.482,3.002-1.446,3.96c-0.964,0.958-2.293,1.437-3.988,1.437
								c-1.707,0-3.045-0.479-4.016-1.437c-0.97-0.958-1.455-2.277-1.455-3.96v-7.626h1.769v7.626
								C390.602,113.437,390.93,114.367,391.588,115.036z"/>
							<path fill="#83A521" d="M412.318,104.62h1.75v12.894h-1.787l-7.367-9.983v9.983h-1.769V104.62h1.787l7.386,10.002V104.62z"/>
							<path fill="#83A521" d="M416.112,104.62h10.075v1.621h-4.163v11.272h-1.768v-11.272h-4.145V104.62z"/>
							<path fill="#83A521" d="M436.557,117.514l-1.363-3.131h-6.796l-1.345,3.131h-1.86l5.729-12.894h1.842l5.71,12.894H436.557z
								 M429.097,112.78h5.416l-2.726-6.263L429.097,112.78z"/>
							<path fill="#83A521" d="M445.887,106.453c-0.645-0.19-1.237-0.285-1.777-0.285c-0.75,0-1.348,0.144-1.796,0.433
								c-0.449,0.288-0.672,0.685-0.672,1.188c0,0.455,0.135,0.826,0.405,1.114c0.27,0.289,0.602,0.517,0.995,0.682
								c0.393,0.166,0.939,0.359,1.639,0.58c0.872,0.271,1.578,0.528,2.118,0.774c0.54,0.245,1,0.61,1.381,1.096
								c0.38,0.485,0.571,1.127,0.571,1.925c0,0.736-0.2,1.381-0.599,1.934c-0.399,0.553-0.958,0.979-1.676,1.28
								s-1.544,0.451-2.478,0.451c-0.945,0-1.867-0.184-2.763-0.553c-0.896-0.368-1.67-0.859-2.321-1.474l0.792-1.528
								c0.614,0.602,1.305,1.065,2.072,1.391c0.767,0.325,1.513,0.488,2.238,0.488c0.859,0,1.538-0.169,2.035-0.507
								c0.498-0.338,0.746-0.795,0.746-1.372c0-0.454-0.135-0.829-0.405-1.124c-0.27-0.294-0.611-0.527-1.022-0.699
								c-0.412-0.172-0.967-0.362-1.667-0.571c-0.86-0.258-1.56-0.51-2.1-0.755c-0.541-0.246-0.998-0.608-1.372-1.087
								s-0.562-1.111-0.562-1.897c0-0.688,0.19-1.295,0.571-1.823c0.38-0.528,0.915-0.933,1.603-1.216
								c0.688-0.282,1.485-0.424,2.395-0.424c0.773,0,1.532,0.114,2.274,0.341c0.743,0.228,1.403,0.531,1.98,0.912l-0.737,1.584
								C447.155,106.929,446.531,106.644,445.887,106.453z"/>
						</g>
						<g enable-background="new    ">
							<path fill="#83A521" d="M363.425,123.895c0.755,0.571,1.133,1.36,1.133,2.367c0,0.736-0.209,1.36-0.626,1.869
								c-0.417,0.51-0.989,0.851-1.713,1.022c0.896,0.136,1.599,0.494,2.109,1.077c0.509,0.584,0.764,1.312,0.764,2.184
								c0,1.104-0.414,1.968-1.243,2.588c-0.829,0.62-1.974,0.93-3.435,0.93h-5.6v-12.894h5.507
								C361.635,123.038,362.67,123.324,363.425,123.895z M362.08,128.002c0.436-0.337,0.654-0.819,0.654-1.445
								c0-0.614-0.218-1.087-0.654-1.419c-0.436-0.331-1.053-0.49-1.851-0.479h-3.647v3.85h3.647
								C361.027,128.509,361.644,128.34,362.08,128.002z M362.476,133.768c0.54-0.375,0.81-0.899,0.81-1.575
								c0-0.65-0.27-1.16-0.81-1.528c-0.541-0.369-1.29-0.553-2.247-0.553h-3.647v4.199h3.647
								C361.187,134.323,361.936,134.143,362.476,133.768z"/>
							<path fill="#83A521" d="M377.506,135.932l-1.363-3.131h-6.796l-1.345,3.131h-1.86l5.729-12.894h1.842l5.71,12.894H377.506z
								 M370.046,131.198h5.416l-2.726-6.263L370.046,131.198z M373.785,119.317l1.768,0.773l-2.284,1.806l-1.455-0.185
								L373.785,119.317z"/>
							<path fill="#83A521" d="M386.836,124.871c-0.645-0.19-1.237-0.285-1.777-0.285c-0.75,0-1.348,0.144-1.796,0.433
								c-0.449,0.288-0.672,0.685-0.672,1.188c0,0.455,0.135,0.826,0.405,1.114c0.27,0.289,0.602,0.517,0.995,0.682
								c0.393,0.166,0.939,0.359,1.639,0.58c0.872,0.271,1.578,0.528,2.118,0.774c0.54,0.245,1,0.61,1.381,1.096
								c0.38,0.485,0.571,1.127,0.571,1.925c0,0.736-0.2,1.381-0.599,1.934c-0.399,0.553-0.958,0.979-1.676,1.28
								s-1.544,0.451-2.478,0.451c-0.945,0-1.867-0.184-2.763-0.553c-0.896-0.368-1.67-0.859-2.321-1.474l0.792-1.528
								c0.614,0.602,1.305,1.065,2.072,1.391c0.767,0.325,1.513,0.488,2.238,0.488c0.859,0,1.538-0.169,2.035-0.507
								c0.498-0.338,0.746-0.795,0.746-1.372c0-0.454-0.135-0.829-0.405-1.124c-0.27-0.294-0.611-0.527-1.022-0.699
								c-0.412-0.172-0.967-0.362-1.667-0.571c-0.86-0.258-1.56-0.51-2.1-0.755c-0.541-0.246-0.998-0.608-1.372-1.087
								s-0.562-1.111-0.562-1.897c0-0.688,0.19-1.295,0.571-1.823c0.38-0.528,0.915-0.933,1.603-1.216
								c0.688-0.282,1.485-0.424,2.395-0.424c0.773,0,1.532,0.114,2.274,0.341c0.743,0.228,1.403,0.531,1.98,0.912l-0.737,1.584
								C388.103,125.347,387.48,125.062,386.836,124.871z"/>
							<path fill="#83A521" d="M392.517,123.038h1.769v12.894h-1.769V123.038z"/>
							<path fill="#83A521" d="M405.595,124.926c-0.651-0.288-1.32-0.433-2.007-0.433c-0.909,0-1.744,0.222-2.505,0.663
								c-0.761,0.442-1.363,1.041-1.805,1.796c-0.442,0.755-0.663,1.587-0.663,2.496c0,0.896,0.221,1.726,0.663,2.486
								c0.442,0.762,1.043,1.363,1.805,1.806c0.761,0.441,1.596,0.663,2.505,0.663c0.675,0,1.338-0.139,1.989-0.415
								c0.65-0.276,1.228-0.653,1.731-1.133l1.068,1.16c-0.651,0.639-1.406,1.14-2.266,1.502s-1.731,0.543-2.615,0.543
								c-1.228,0-2.352-0.292-3.371-0.875c-1.02-0.583-1.824-1.378-2.413-2.385s-0.884-2.118-0.884-3.334
								c0-1.203,0.298-2.306,0.894-3.307c0.595-1.001,1.409-1.789,2.44-2.367c1.032-0.576,2.167-0.865,3.408-0.865
								c0.896,0,1.765,0.169,2.606,0.507c0.841,0.338,1.568,0.813,2.183,1.427l-1.05,1.271
								C406.817,125.617,406.246,125.215,405.595,124.926z"/>
							<path fill="#83A521" d="M420.349,135.932l-1.363-3.131h-6.796l-1.345,3.131h-1.86l5.729-12.894h1.842l5.71,12.894H420.349z
								 M412.889,131.198h5.416l-2.726-6.263L412.889,131.198z"/>
							<path fill="#83A521" d="M429.678,124.871c-0.645-0.19-1.237-0.285-1.777-0.285c-0.75,0-1.348,0.144-1.796,0.433
								c-0.449,0.288-0.672,0.685-0.672,1.188c0,0.455,0.135,0.826,0.405,1.114c0.27,0.289,0.602,0.517,0.995,0.682
								c0.393,0.166,0.939,0.359,1.639,0.58c0.872,0.271,1.578,0.528,2.118,0.774c0.54,0.245,1,0.61,1.381,1.096
								c0.38,0.485,0.571,1.127,0.571,1.925c0,0.736-0.2,1.381-0.599,1.934c-0.399,0.553-0.958,0.979-1.676,1.28
								s-1.544,0.451-2.478,0.451c-0.945,0-1.867-0.184-2.763-0.553c-0.896-0.368-1.67-0.859-2.321-1.474l0.792-1.528
								c0.614,0.602,1.305,1.065,2.072,1.391c0.767,0.325,1.513,0.488,2.238,0.488c0.859,0,1.538-0.169,2.035-0.507
								c0.498-0.338,0.746-0.795,0.746-1.372c0-0.454-0.135-0.829-0.405-1.124c-0.27-0.294-0.611-0.527-1.022-0.699
								c-0.412-0.172-0.967-0.362-1.667-0.571c-0.86-0.258-1.56-0.51-2.1-0.755c-0.541-0.246-0.998-0.608-1.372-1.087
								s-0.562-1.111-0.562-1.897c0-0.688,0.19-1.295,0.571-1.823c0.38-0.528,0.915-0.933,1.603-1.216
								c0.688-0.282,1.485-0.424,2.395-0.424c0.773,0,1.532,0.114,2.274,0.341c0.743,0.228,1.403,0.531,1.98,0.912l-0.737,1.584
								C430.946,125.347,430.323,125.062,429.678,124.871z"/>
						</g>
					</g>
				</g>
			</g>
			<g>
				<g>
					<g enable-background="new    ">
						<path fill="#83A521" d="M990.356,86.305c0.785,0.683,1.18,1.64,1.18,2.871c0,1.287-0.396,2.285-1.188,2.995
							c-0.792,0.709-1.903,1.064-3.333,1.064h-2.871v3.597h-1.584v-11.55h4.455C988.455,85.282,989.569,85.623,990.356,86.305z
							 M989.225,91.147c0.528-0.435,0.792-1.075,0.792-1.922c0-0.825-0.264-1.449-0.792-1.873c-0.527-0.423-1.287-0.635-2.277-0.635
							l-2.805,0.017V91.8h2.805C987.938,91.8,988.698,91.582,989.225,91.147z"/>
						<path fill="#83A521" d="M1001.533,96.832l-1.221-2.805h-6.088l-1.205,2.805h-1.666l5.131-11.55h1.65l5.115,11.55H1001.533z
							 M994.852,92.592h4.851l-2.442-5.61L994.852,92.592z"/>
						<path fill="#83A521" d="M1012.391,96.832l-2.293-3.63c-0.265,0.022-0.479,0.033-0.645,0.033h-2.937v3.597h-1.584v-11.55h4.521
							c1.463,0,2.594,0.338,3.391,1.015c0.799,0.677,1.197,1.637,1.197,2.879c0,0.936-0.218,1.722-0.652,2.359
							c-0.435,0.639-1.059,1.101-1.873,1.387l2.689,3.91H1012.391z M1009.453,91.8c0.99,0,1.75-0.218,2.277-0.652
							c0.528-0.435,0.793-1.075,0.793-1.922c0-0.825-0.265-1.449-0.793-1.873c-0.527-0.423-1.287-0.635-2.277-0.635h-2.937V91.8
							H1009.453z"/>
						<path fill="#83A521" d="M1025.442,96.832l-1.221-2.805h-6.088l-1.205,2.805h-1.666l5.131-11.55h1.65l5.115,11.55H1025.442z
							 M1018.76,92.592h4.851l-2.442-5.61L1018.76,92.592z"/>
						<path fill="#83A521" d="M1036.588,86.033c0.907,0.5,1.619,1.19,2.137,2.07c0.517,0.88,0.775,1.864,0.775,2.953
							c0,1.09-0.262,2.074-0.783,2.954c-0.523,0.88-1.24,1.57-2.154,2.07c-0.912,0.501-1.936,0.751-3.068,0.751h-4.653v-11.55h4.702
							C1034.666,85.282,1035.68,85.532,1036.588,86.033z M1035.763,94.836c0.654-0.374,1.171-0.892,1.551-1.552
							c0.38-0.659,0.569-1.396,0.569-2.211c0-0.825-0.192-1.567-0.578-2.228c-0.385-0.66-0.91-1.18-1.575-1.559
							c-0.665-0.38-1.405-0.569-2.22-0.569h-3.085v8.679h3.151C1034.379,95.396,1035.108,95.21,1035.763,94.836z"/>
						<path fill="#83A521" d="M1050.061,96.832l-1.222-2.805h-6.089l-1.204,2.805h-1.667l5.133-11.55h1.649l5.114,11.55H1050.061z
							 M1043.377,92.592h4.852l-2.441-5.61L1043.377,92.592z"/>
					</g>
					<g enable-background="new    ">
						<path fill="#83A521" d="M987.22,139.282h1.584v10.114h5.05v1.436h-6.634V139.282z"/>
						<path fill="#83A521" d="M998.085,148.612c0.589,0.601,1.399,0.899,2.435,0.899c1.022,0,1.825-0.299,2.408-0.899
							c0.583-0.599,0.875-1.433,0.875-2.499v-6.831h1.584v6.831c0,1.507-0.432,2.689-1.295,3.547
							c-0.864,0.858-2.055,1.287-3.572,1.287c-1.529,0-2.729-0.429-3.598-1.287c-0.869-0.857-1.304-2.04-1.304-3.547v-6.831h1.584
							v6.831C997.202,147.18,997.496,148.014,998.085,148.612z M1001.426,135.949l1.584,0.692l-2.045,1.617l-1.305-0.165
							L1001.426,135.949z"/>
						<path fill="#83A521" d="M1016.186,140.033c0.907,0.5,1.619,1.19,2.137,2.07c0.517,0.88,0.775,1.864,0.775,2.953
							c0,1.09-0.262,2.074-0.783,2.954c-0.523,0.88-1.24,1.57-2.154,2.07c-0.912,0.501-1.936,0.751-3.068,0.751h-4.653v-11.55h4.702
							C1014.264,139.282,1015.278,139.532,1016.186,140.033z M1015.361,148.836c0.654-0.374,1.171-0.892,1.551-1.552
							c0.38-0.659,0.569-1.396,0.569-2.211c0-0.825-0.192-1.567-0.578-2.228c-0.385-0.66-0.91-1.18-1.575-1.559
							c-0.665-0.38-1.405-0.569-2.22-0.569h-3.085v8.679h3.151C1013.977,149.396,1014.705,149.21,1015.361,148.836z"/>
						<path fill="#83A521" d="M1021.358,139.282h1.584v11.55h-1.584V139.282z"/>
						<path fill="#83A521" d="M1033.073,140.974c-0.582-0.259-1.182-0.388-1.798-0.388c-0.814,0-1.562,0.197-2.244,0.594
							c-0.683,0.396-1.222,0.932-1.617,1.608s-0.594,1.422-0.594,2.236c0,0.803,0.198,1.545,0.594,2.228
							c0.396,0.682,0.935,1.221,1.617,1.616c0.683,0.396,1.43,0.595,2.244,0.595c0.604,0,1.198-0.124,1.782-0.372
							c0.582-0.247,1.1-0.585,1.551-1.015l0.957,1.04c-0.584,0.572-1.26,1.021-2.029,1.345c-0.771,0.324-1.551,0.486-2.344,0.486
							c-1.1,0-2.105-0.261-3.02-0.783c-0.912-0.522-1.633-1.235-2.161-2.137c-0.528-0.902-0.792-1.897-0.792-2.986
							c0-1.078,0.267-2.065,0.801-2.962c0.533-0.896,1.262-1.604,2.186-2.12c0.924-0.518,1.941-0.776,3.053-0.776
							c0.803,0,1.581,0.151,2.335,0.454c0.753,0.303,1.405,0.729,1.955,1.279l-0.94,1.138
							C1034.167,141.592,1033.656,141.231,1033.073,140.974z"/>
						<path fill="#83A521" d="M1046.289,150.832l-1.221-2.805h-6.089l-1.204,2.805h-1.667l5.132-11.55h1.65l5.114,11.55H1046.289z
							 M1039.607,146.592h4.851l-2.441-5.61L1039.607,146.592z"/>
					</g>
					<g>
						<path fill="#83A521" d="M1030.678,107.726c-0.945-2.227-3.155-3.795-5.723-3.794l-14.237,0.004
							c-3.418,0-6.21,2.795-6.21,6.213l0.008,14.244c0.003,3.416,2.793,6.207,6.211,6.205l14.241-0.002
							c3.416,0,6.208-2.795,6.204-6.211l-0.002-14.249C1031.166,109.284,1030.99,108.465,1030.678,107.726z M1028.396,108.677
							c0.185,0.445,0.286,0.943,0.289,1.461l0.001,14.249c0.003,2.084-1.638,3.723-3.723,3.723l-14.24,0.009
							c-2.083-0.005-3.725-1.64-3.724-3.726l-0.003-14.246c-0.001-2.086,1.635-3.723,3.724-3.724l14.235-0.004
							C1026.521,106.414,1027.834,107.336,1028.396,108.677z"/>
						<circle fill="#83A521" cx="1021.73" cy="121.22" r="1.86"/>
						<circle fill="#83A521" cx="1013.93" cy="113.307" r="1.863"/>
						<path fill="#83A521" d="M1021.199,111.605c-0.979,0.316-1.517,1.366-1.199,2.343c0.318,0.98,1.367,1.515,2.349,1.195
							c0.976-0.316,1.515-1.365,1.194-2.346C1023.225,111.821,1022.177,111.287,1021.199,111.605z"/>
						<circle fill="#83A521" cx="1013.883" cy="121.159" r="1.862"/>
					</g>
				</g>
				<g>
					<g enable-background="new    ">
						<path fill="#83A521" d="M761.377,97.545c0.524,0.454,0.787,1.093,0.787,1.914c0,0.857-0.265,1.523-0.793,1.996
							c-0.527,0.473-1.268,0.709-2.222,0.709h-1.914v2.398h-1.056v-7.7h2.97C760.111,96.862,760.853,97.09,761.377,97.545z
							 M760.623,100.773c0.353-0.29,0.528-0.717,0.528-1.282c0-0.55-0.176-0.966-0.528-1.248c-0.352-0.282-0.857-0.424-1.518-0.424
							l-1.87,0.011v3.377h1.87C759.766,101.207,760.272,101.062,760.623,100.773z"/>
						<path fill="#83A521" d="M768.83,104.562l-0.814-1.87h-4.059l-0.803,1.87h-1.111l3.421-7.7h1.101l3.409,7.7H768.83z
							 M764.375,101.735h3.234l-1.629-3.74L764.375,101.735z"/>
						<path fill="#83A521" d="M776.068,104.562l-1.528-2.42c-0.176,0.015-0.319,0.021-0.43,0.021h-1.958v2.398h-1.056v-7.7h3.014
							c0.976,0,1.729,0.226,2.261,0.677s0.798,1.091,0.798,1.92c0,0.623-0.145,1.147-0.436,1.572
							c-0.289,0.426-0.705,0.733-1.248,0.924l1.793,2.607H776.068z M774.11,101.207c0.66,0,1.166-0.145,1.518-0.434
							c0.353-0.29,0.529-0.717,0.529-1.282c0-0.55-0.177-0.966-0.529-1.248c-0.352-0.282-0.857-0.424-1.518-0.424h-1.958v3.388
							H774.11z"/>
						<path fill="#83A521" d="M784.769,104.562l-0.813-1.87h-4.06l-0.803,1.87h-1.11l3.42-7.7h1.101l3.409,7.7H784.769z
							 M780.315,101.735h3.233l-1.628-3.74L780.315,101.735z"/>
						<path fill="#83A521" d="M792.199,97.363c0.605,0.334,1.08,0.794,1.424,1.38c0.346,0.587,0.518,1.243,0.518,1.97
							c0,0.726-0.174,1.382-0.522,1.969s-0.827,1.047-1.436,1.38c-0.608,0.334-1.291,0.501-2.046,0.501h-3.102v-7.7h3.135
							C790.918,96.862,791.594,97.029,792.199,97.363z M791.649,103.231c0.438-0.249,0.781-0.594,1.035-1.034
							c0.252-0.439,0.379-0.931,0.379-1.474c0-0.55-0.129-1.045-0.385-1.485c-0.257-0.439-0.607-0.786-1.051-1.039
							s-0.938-0.38-1.479-0.38h-2.058v5.786h2.102C790.727,103.605,791.213,103.48,791.649,103.231z"/>
						<path fill="#83A521" d="M801.18,104.562l-0.813-1.87h-4.06l-0.803,1.87h-1.11l3.421-7.7h1.1l3.41,7.7H801.18z
							 M796.726,101.735h3.233l-1.627-3.74L796.726,101.735z"/>
					</g>
					<g enable-background="new    ">
						<path fill="#83A521" d="M759.287,132.862h1.056v6.743h3.366v0.957h-4.422V132.862z"/>
						<path fill="#83A521" d="M766.531,139.083c0.392,0.399,0.933,0.6,1.622,0.6c0.682,0,1.218-0.2,1.606-0.6
							s0.583-0.955,0.583-1.667v-4.554h1.056v4.554c0,1.005-0.288,1.794-0.863,2.365c-0.575,0.572-1.37,0.858-2.382,0.858
							c-1.02,0-1.818-0.286-2.397-0.858c-0.579-0.571-0.869-1.36-0.869-2.365v-4.554h1.056v4.554
							C765.942,138.128,766.138,138.684,766.531,139.083z M768.758,130.641l1.056,0.462l-1.364,1.078l-0.869-0.11L768.758,130.641z"
							/>
						<path fill="#83A521" d="M778.598,133.363c0.605,0.334,1.08,0.794,1.424,1.38c0.346,0.587,0.518,1.243,0.518,1.97
							c0,0.726-0.174,1.382-0.522,1.969s-0.827,1.047-1.436,1.38c-0.608,0.334-1.291,0.501-2.046,0.501h-3.102v-7.7h3.135
							C777.317,132.862,777.992,133.029,778.598,133.363z M778.047,139.231c0.438-0.249,0.781-0.594,1.035-1.034
							c0.252-0.439,0.379-0.931,0.379-1.474c0-0.55-0.129-1.045-0.385-1.485c-0.257-0.439-0.607-0.786-1.051-1.039
							s-0.938-0.38-1.479-0.38h-2.058v5.786h2.102C777.125,139.605,777.612,139.48,778.047,139.231z"/>
						<path fill="#83A521" d="M782.046,132.862h1.056v7.7h-1.056V132.862z"/>
						<path fill="#83A521" d="M789.856,133.99c-0.389-0.173-0.788-0.259-1.199-0.259c-0.543,0-1.041,0.132-1.496,0.396
							c-0.454,0.264-0.813,0.621-1.078,1.072c-0.264,0.451-0.396,0.947-0.396,1.49c0,0.535,0.132,1.03,0.396,1.485
							c0.265,0.454,0.624,0.813,1.078,1.078c0.455,0.264,0.953,0.396,1.496,0.396c0.404,0,0.8-0.082,1.188-0.247
							s0.733-0.391,1.034-0.677l0.638,0.693c-0.389,0.381-0.84,0.68-1.353,0.896c-0.514,0.216-1.034,0.324-1.562,0.324
							c-0.733,0-1.404-0.174-2.013-0.522s-1.089-0.823-1.441-1.425c-0.352-0.602-0.528-1.265-0.528-1.991
							c0-0.719,0.178-1.376,0.534-1.975c0.355-0.598,0.841-1.068,1.458-1.413c0.615-0.345,1.293-0.517,2.034-0.517
							c0.535,0,1.054,0.101,1.557,0.302c0.503,0.202,0.937,0.486,1.304,0.853l-0.627,0.76
							C790.586,134.402,790.244,134.162,789.856,133.99z"/>
						<path fill="#83A521" d="M798.666,140.562l-0.813-1.87h-4.06l-0.803,1.87h-1.11l3.421-7.7h1.1l3.41,7.7H798.666z
							 M794.212,137.735h3.233l-1.627-3.74L794.212,137.735z"/>
					</g>
					<path fill="#83A521" d="M773.094,110.609c-1.398,0.594-2.383,1.982-2.382,3.595l0.007,8.94
						c0.003,2.146,1.755,3.896,3.898,3.894l8.948-0.005c2.144-0.002,3.896-1.756,3.894-3.898l-0.007-8.944
						c-0.001-2.148-1.755-3.897-3.899-3.896l-8.945,0.006C774.071,110.301,773.557,110.412,773.094,110.609z M773.691,112.042
						c0.277-0.118,0.591-0.181,0.918-0.182l8.944-0.004c1.311-0.003,2.338,1.027,2.341,2.336l0.007,8.943
						c0,1.309-1.028,2.34-2.338,2.34l-8.947,0.004c-1.309,0.002-2.337-1.023-2.338-2.334l-0.007-8.941
						C772.271,113.22,772.848,112.394,773.691,112.042z M781.64,114.655c-0.597,0.248-0.88,0.931-0.633,1.527
						c0.248,0.597,0.934,0.879,1.527,0.632c0.598-0.248,0.88-0.932,0.633-1.529C782.921,114.69,782.236,114.408,781.64,114.655z
						 M778.638,117.588c-0.595,0.247-0.877,0.932-0.63,1.527c0.247,0.597,0.932,0.879,1.525,0.632l0,0
						c0.597-0.248,0.878-0.931,0.631-1.527l0,0C779.916,117.624,779.235,117.342,778.638,117.588z M775.637,120.52
						c-0.596,0.248-0.879,0.935-0.632,1.526c0.247,0.599,0.933,0.884,1.527,0.634c0.598-0.246,0.88-0.933,0.632-1.529
						C776.918,120.557,776.232,120.271,775.637,120.52z"/>
				</g>
				<g>
					<g enable-background="new    ">
						<path fill="#83A521" d="M512.441,97.99c-0.389-0.173-0.788-0.259-1.199-0.259c-0.543,0-1.042,0.132-1.496,0.396
							c-0.455,0.264-0.814,0.621-1.078,1.072c-0.264,0.451-0.396,0.947-0.396,1.49c0,0.535,0.132,1.03,0.396,1.485
							c0.264,0.454,0.624,0.813,1.078,1.078c0.455,0.264,0.953,0.396,1.496,0.396c0.403,0,0.799-0.082,1.188-0.247
							s0.733-0.391,1.034-0.677l0.638,0.693c-0.389,0.381-0.84,0.68-1.353,0.896c-0.513,0.216-1.034,0.324-1.562,0.324
							c-0.733,0-1.404-0.174-2.013-0.522c-0.609-0.349-1.089-0.823-1.441-1.425c-0.352-0.602-0.528-1.265-0.528-1.991
							c0-0.719,0.178-1.376,0.534-1.975c0.355-0.598,0.841-1.068,1.458-1.413c0.616-0.345,1.294-0.517,2.035-0.517
							c0.535,0,1.054,0.101,1.557,0.302c0.502,0.202,0.937,0.486,1.304,0.853l-0.627,0.76
							C513.171,98.402,512.83,98.162,512.441,97.99z"/>
						<path fill="#83A521" d="M521.252,104.562l-0.814-1.87h-4.059l-0.803,1.87h-1.111l3.421-7.7h1.1l3.41,7.7H521.252z
							 M516.798,101.735h3.234l-1.628-3.74L516.798,101.735z"/>
						<path fill="#83A521" d="M526.824,97.957c-0.385-0.113-0.739-0.171-1.062-0.171c-0.447,0-0.805,0.087-1.072,0.259
							c-0.268,0.173-0.402,0.409-0.402,0.71c0,0.271,0.081,0.493,0.242,0.665c0.161,0.173,0.359,0.308,0.594,0.407
							c0.234,0.099,0.561,0.214,0.979,0.347c0.521,0.161,0.942,0.315,1.265,0.462s0.598,0.364,0.825,0.654
							c0.227,0.29,0.341,0.673,0.341,1.149c0,0.44-0.119,0.825-0.357,1.155s-0.572,0.585-1.001,0.765s-0.922,0.27-1.479,0.27
							c-0.565,0-1.115-0.11-1.65-0.33c-0.536-0.221-0.998-0.514-1.386-0.88l0.473-0.913c0.367,0.359,0.779,0.636,1.237,0.83
							c0.458,0.194,0.904,0.292,1.337,0.292c0.513,0,0.918-0.102,1.215-0.303c0.297-0.202,0.445-0.475,0.445-0.819
							c0-0.271-0.081-0.495-0.242-0.671c-0.162-0.177-0.365-0.315-0.611-0.419c-0.246-0.103-0.577-0.216-0.995-0.341
							c-0.514-0.153-0.932-0.304-1.254-0.451c-0.323-0.146-0.596-0.362-0.819-0.648s-0.335-0.664-0.335-1.133
							c0-0.411,0.114-0.773,0.341-1.089c0.228-0.315,0.546-0.558,0.957-0.727c0.411-0.168,0.887-0.253,1.43-0.253
							c0.462,0,0.915,0.068,1.358,0.203c0.444,0.137,0.838,0.317,1.183,0.545l-0.44,0.946
							C527.581,98.241,527.209,98.07,526.824,97.957z"/>
						<path fill="#83A521" d="M535.624,97.313c0.62,0.345,1.109,0.815,1.469,1.413c0.359,0.599,0.539,1.256,0.539,1.975
							s-0.18,1.381-0.539,1.985c-0.359,0.605-0.849,1.082-1.469,1.431s-1.3,0.522-2.041,0.522s-1.421-0.174-2.041-0.522
							s-1.109-0.825-1.468-1.431c-0.359-0.604-0.539-1.267-0.539-1.985s0.18-1.376,0.539-1.975c0.359-0.598,0.847-1.068,1.463-1.413
							c0.616-0.345,1.298-0.517,2.046-0.517C534.324,96.797,535.004,96.969,535.624,97.313z M532.104,98.139
							c-0.458,0.264-0.823,0.621-1.094,1.072c-0.271,0.451-0.407,0.948-0.407,1.49c0,0.543,0.136,1.042,0.407,1.496
							c0.271,0.455,0.636,0.816,1.094,1.084c0.458,0.268,0.955,0.401,1.491,0.401c0.535,0,1.028-0.134,1.479-0.401
							s0.81-0.629,1.078-1.084c0.268-0.454,0.401-0.953,0.401-1.496c0-0.542-0.134-1.039-0.401-1.49
							c-0.268-0.451-0.627-0.809-1.078-1.072c-0.451-0.265-0.944-0.396-1.479-0.396C533.059,97.742,532.562,97.874,532.104,98.139z"
							/>
						<path fill="#83A521" d="M542.531,97.957c-0.385-0.113-0.739-0.171-1.062-0.171c-0.447,0-0.805,0.087-1.072,0.259
							c-0.268,0.173-0.402,0.409-0.402,0.71c0,0.271,0.081,0.493,0.242,0.665c0.161,0.173,0.359,0.308,0.594,0.407
							c0.234,0.099,0.561,0.214,0.979,0.347c0.521,0.161,0.942,0.315,1.265,0.462s0.598,0.364,0.825,0.654
							c0.227,0.29,0.341,0.673,0.341,1.149c0,0.44-0.119,0.825-0.357,1.155s-0.572,0.585-1.001,0.765s-0.922,0.27-1.479,0.27
							c-0.565,0-1.115-0.11-1.65-0.33c-0.536-0.221-0.998-0.514-1.386-0.88l0.473-0.913c0.367,0.359,0.779,0.636,1.237,0.83
							c0.458,0.194,0.904,0.292,1.337,0.292c0.513,0,0.918-0.102,1.215-0.303c0.297-0.202,0.445-0.475,0.445-0.819
							c0-0.271-0.081-0.495-0.242-0.671c-0.162-0.177-0.365-0.315-0.611-0.419c-0.246-0.103-0.577-0.216-0.995-0.341
							c-0.514-0.153-0.932-0.304-1.254-0.451c-0.323-0.146-0.596-0.362-0.819-0.648s-0.335-0.664-0.335-1.133
							c0-0.411,0.114-0.773,0.341-1.089c0.228-0.315,0.546-0.558,0.957-0.727c0.411-0.168,0.887-0.253,1.43-0.253
							c0.462,0,0.915,0.068,1.358,0.203c0.444,0.137,0.838,0.317,1.183,0.545l-0.44,0.946
							C543.289,98.241,542.917,98.07,542.531,97.957z"/>
					</g>
					<g enable-background="new    ">
						<path fill="#83A521" d="M500.215,133.545c0.524,0.454,0.787,1.093,0.787,1.914c0,0.857-0.264,1.523-0.792,1.996
							s-1.269,0.709-2.222,0.709h-1.914v2.398h-1.056v-7.7h2.97C498.948,132.862,499.69,133.09,500.215,133.545z M499.461,136.773
							c0.352-0.29,0.528-0.717,0.528-1.282c0-0.55-0.176-0.966-0.528-1.248s-0.858-0.424-1.518-0.424l-1.87,0.011v3.377h1.87
							C498.603,137.207,499.109,137.062,499.461,136.773z"/>
						<path fill="#83A521" d="M507.37,140.562l-1.529-2.42c-0.176,0.015-0.319,0.021-0.429,0.021h-1.958v2.398h-1.056v-7.7h3.014
							c0.976,0,1.729,0.226,2.261,0.677s0.797,1.091,0.797,1.92c0,0.623-0.145,1.147-0.435,1.572
							c-0.29,0.426-0.706,0.733-1.249,0.924l1.793,2.607H507.37z M505.412,137.207c0.66,0,1.166-0.145,1.518-0.434
							c0.352-0.29,0.528-0.717,0.528-1.282c0-0.55-0.176-0.966-0.528-1.248s-0.858-0.424-1.518-0.424h-1.958v3.388H505.412z"/>
						<path fill="#83A521" d="M516.071,140.562l-0.814-1.87h-4.059l-0.803,1.87h-1.111l3.421-7.7h1.1l3.41,7.7H516.071z
							 M511.616,137.735h3.234l-1.628-3.74L511.616,137.735z M513.849,130.641l1.056,0.462l-1.364,1.078l-0.869-0.11
							L513.849,130.641z"/>
						<path fill="#83A521" d="M522.704,133.99c-0.389-0.173-0.788-0.259-1.199-0.259c-0.543,0-1.042,0.132-1.496,0.396
							c-0.455,0.264-0.814,0.621-1.078,1.072c-0.264,0.451-0.396,0.947-0.396,1.49c0,0.535,0.132,1.03,0.396,1.485
							c0.264,0.454,0.624,0.813,1.078,1.078c0.455,0.264,0.953,0.396,1.496,0.396c0.403,0,0.799-0.082,1.188-0.247
							s0.733-0.391,1.034-0.677l0.638,0.693c-0.389,0.381-0.84,0.68-1.353,0.896c-0.513,0.216-1.034,0.324-1.562,0.324
							c-0.733,0-1.404-0.174-2.013-0.522c-0.609-0.349-1.089-0.823-1.441-1.425c-0.352-0.602-0.528-1.265-0.528-1.991
							c0-0.719,0.178-1.376,0.534-1.975c0.355-0.598,0.841-1.068,1.458-1.413c0.616-0.345,1.294-0.517,2.035-0.517
							c0.535,0,1.054,0.101,1.557,0.302c0.502,0.202,0.937,0.486,1.304,0.853l-0.627,0.76
							C523.434,134.402,523.093,134.162,522.704,133.99z"/>
						<path fill="#83A521" d="M524.849,132.862h6.017v0.968h-2.486v6.732h-1.056v-6.732h-2.475V132.862z"/>
						<path fill="#83A521" d="M532.076,132.862h1.056v7.7h-1.056V132.862z"/>
						<path fill="#83A521" d="M539.885,133.99c-0.389-0.173-0.788-0.259-1.199-0.259c-0.543,0-1.042,0.132-1.496,0.396
							c-0.455,0.264-0.814,0.621-1.078,1.072c-0.264,0.451-0.396,0.947-0.396,1.49c0,0.535,0.132,1.03,0.396,1.485
							c0.264,0.454,0.624,0.813,1.078,1.078c0.455,0.264,0.953,0.396,1.496,0.396c0.403,0,0.799-0.082,1.188-0.247
							s0.733-0.391,1.034-0.677l0.638,0.693c-0.389,0.381-0.84,0.68-1.353,0.896c-0.513,0.216-1.034,0.324-1.562,0.324
							c-0.733,0-1.404-0.174-2.013-0.522c-0.609-0.349-1.089-0.823-1.441-1.425c-0.352-0.602-0.528-1.265-0.528-1.991
							c0-0.719,0.178-1.376,0.534-1.975c0.355-0.598,0.841-1.068,1.458-1.413c0.616-0.345,1.294-0.517,2.035-0.517
							c0.535,0,1.054,0.101,1.557,0.302c0.502,0.202,0.937,0.486,1.304,0.853l-0.627,0.76
							C540.615,134.402,540.274,134.162,539.885,133.99z"/>
						<path fill="#83A521" d="M548.251,133.313c0.62,0.345,1.109,0.815,1.469,1.413c0.359,0.599,0.539,1.256,0.539,1.975
							s-0.18,1.381-0.539,1.985c-0.359,0.605-0.849,1.082-1.469,1.431s-1.3,0.522-2.041,0.522s-1.421-0.174-2.041-0.522
							s-1.109-0.825-1.468-1.431c-0.359-0.604-0.539-1.267-0.539-1.985s0.18-1.376,0.539-1.975c0.359-0.598,0.847-1.068,1.463-1.413
							c0.616-0.345,1.298-0.517,2.046-0.517C546.951,132.797,547.632,132.969,548.251,133.313z M544.731,134.139
							c-0.458,0.264-0.823,0.621-1.094,1.072c-0.271,0.451-0.407,0.948-0.407,1.49c0,0.543,0.136,1.042,0.407,1.496
							c0.271,0.455,0.636,0.816,1.094,1.084c0.458,0.268,0.955,0.401,1.491,0.401c0.535,0,1.028-0.134,1.479-0.401
							s0.81-0.629,1.078-1.084c0.268-0.454,0.401-0.953,0.401-1.496c0-0.542-0.134-1.039-0.401-1.49
							c-0.268-0.451-0.627-0.809-1.078-1.072c-0.451-0.265-0.944-0.396-1.479-0.396C545.686,133.742,545.19,133.874,544.731,134.139
							z"/>
						<path fill="#83A521" d="M555.159,133.957c-0.385-0.113-0.739-0.171-1.062-0.171c-0.447,0-0.805,0.087-1.072,0.259
							c-0.268,0.173-0.402,0.409-0.402,0.71c0,0.271,0.081,0.493,0.242,0.665c0.161,0.173,0.359,0.308,0.594,0.407
							c0.234,0.099,0.561,0.214,0.979,0.347c0.521,0.161,0.942,0.315,1.265,0.462s0.598,0.364,0.825,0.654
							c0.227,0.29,0.341,0.673,0.341,1.149c0,0.44-0.119,0.825-0.357,1.155s-0.572,0.585-1.001,0.765s-0.922,0.27-1.479,0.27
							c-0.565,0-1.115-0.11-1.65-0.33c-0.536-0.221-0.998-0.514-1.386-0.88l0.473-0.913c0.367,0.359,0.779,0.636,1.237,0.83
							c0.458,0.194,0.904,0.292,1.337,0.292c0.513,0,0.918-0.102,1.215-0.303c0.297-0.202,0.445-0.475,0.445-0.819
							c0-0.271-0.081-0.495-0.242-0.671c-0.162-0.177-0.365-0.315-0.611-0.419c-0.246-0.103-0.577-0.216-0.995-0.341
							c-0.514-0.153-0.932-0.304-1.254-0.451c-0.323-0.146-0.596-0.362-0.819-0.648s-0.335-0.664-0.335-1.133
							c0-0.411,0.114-0.773,0.341-1.089c0.228-0.315,0.546-0.558,0.957-0.727c0.411-0.168,0.887-0.253,1.43-0.253
							c0.462,0,0.915,0.068,1.358,0.203c0.444,0.137,0.838,0.317,1.183,0.545l-0.44,0.946
							C555.916,134.241,555.544,134.07,555.159,133.957z"/>
					</g>
					<g>
						<path fill="#83A521" d="M519.508,109.442c-1.483,0.629-2.53,2.102-2.529,3.814l0.004,9.493c0,2.278,1.862,4.14,4.143,4.14
							l9.494-0.006c2.278-0.002,4.138-1.861,4.138-4.14l-0.003-9.494c0-2.278-1.862-4.139-4.14-4.137l-9.499,0.001
							C520.547,109.115,520,109.232,519.508,109.442z M520.142,110.962c0.298-0.124,0.63-0.192,0.975-0.193l9.499-0.001
							c1.391-0.001,2.481,1.092,2.481,2.481l0.005,9.494c-0.003,1.389-1.094,2.483-2.483,2.481l-9.497,0.002
							c-1.39,0.002-2.481-1.09-2.482-2.48l-0.002-9.493C518.633,112.213,519.247,111.337,520.142,110.962z M527.814,114.058
							c-0.634,0.263-0.936,0.987-0.674,1.621c0.264,0.635,0.989,0.934,1.623,0.671c0.635-0.263,0.936-0.987,0.67-1.622
							C529.172,114.095,528.447,113.795,527.814,114.058z M522.968,119.646c-0.632,0.263-0.934,0.99-0.669,1.623
							c0.264,0.633,0.988,0.935,1.62,0.672c0.632-0.262,0.935-0.989,0.673-1.623C524.329,119.688,523.6,119.387,522.968,119.646z"/>
					</g>
				</g>
				<g>
					<g enable-background="new    ">
						<path fill="#83A521" d="M255.046,97.545c0.524,0.454,0.787,1.093,0.787,1.914c0,0.857-0.264,1.523-0.792,1.996
							s-1.269,0.709-2.222,0.709h-1.914v2.398h-1.056v-7.7h2.97C253.779,96.862,254.521,97.09,255.046,97.545z M254.292,100.773
							c0.352-0.29,0.528-0.717,0.528-1.282c0-0.55-0.176-0.966-0.528-1.248s-0.858-0.424-1.518-0.424l-1.87,0.011v3.377h1.87
							C253.434,101.207,253.94,101.062,254.292,100.773z"/>
						<path fill="#83A521" d="M262.498,104.562l-0.814-1.87h-4.059l-0.803,1.87h-1.111l3.421-7.7h1.1l3.41,7.7H262.498z
							 M258.044,101.735h3.234l-1.628-3.74L258.044,101.735z"/>
						<path fill="#83A521" d="M269.736,104.562l-1.529-2.42c-0.176,0.015-0.319,0.021-0.429,0.021h-1.958v2.398h-1.056v-7.7h3.014
							c0.976,0,1.729,0.226,2.261,0.677s0.797,1.091,0.797,1.92c0,0.623-0.145,1.147-0.435,1.572
							c-0.29,0.426-0.706,0.733-1.249,0.924l1.793,2.607H269.736z M267.778,101.207c0.66,0,1.166-0.145,1.518-0.434
							c0.352-0.29,0.528-0.717,0.528-1.282c0-0.55-0.176-0.966-0.528-1.248s-0.858-0.424-1.518-0.424h-1.958v3.388H267.778z"/>
						<path fill="#83A521" d="M278.437,104.562l-0.814-1.87h-4.059l-0.803,1.87h-1.111l3.421-7.7h1.1l3.41,7.7H278.437z
							 M273.983,101.735h3.234l-1.628-3.74L273.983,101.735z"/>
						<path fill="#83A521" d="M285.868,97.363c0.605,0.334,1.08,0.794,1.424,1.38c0.345,0.587,0.517,1.243,0.517,1.97
							c0,0.726-0.174,1.382-0.522,1.969c-0.349,0.587-0.827,1.047-1.436,1.38c-0.609,0.334-1.291,0.501-2.046,0.501h-3.102v-7.7
							h3.135C284.586,96.862,285.263,97.029,285.868,97.363z M285.318,103.231c0.437-0.249,0.781-0.594,1.034-1.034
							c0.253-0.439,0.379-0.931,0.379-1.474c0-0.55-0.128-1.045-0.385-1.485c-0.257-0.439-0.607-0.786-1.051-1.039
							s-0.937-0.38-1.479-0.38h-2.057v5.786h2.101C284.395,103.605,284.882,103.48,285.318,103.231z"/>
						<path fill="#83A521" d="M294.849,104.562l-0.814-1.87h-4.059l-0.803,1.87h-1.111l3.421-7.7h1.1l3.41,7.7H294.849z
							 M290.394,101.735h3.234L292,97.995L290.394,101.735z"/>
					</g>
					<g enable-background="new    ">
						<path fill="#83A521" d="M252.955,132.862h1.056v6.743h3.366v0.957h-4.422V132.862z"/>
						<path fill="#83A521" d="M260.198,139.083c0.392,0.399,0.933,0.6,1.623,0.6c0.682,0,1.217-0.2,1.606-0.6
							s0.583-0.955,0.583-1.667v-4.554h1.056v4.554c0,1.005-0.288,1.794-0.863,2.365c-0.576,0.572-1.37,0.858-2.381,0.858
							c-1.02,0-1.819-0.286-2.398-0.858c-0.58-0.571-0.869-1.36-0.869-2.365v-4.554h1.056v4.554
							C259.61,138.128,259.806,138.684,260.198,139.083z M262.426,130.641l1.056,0.462l-1.364,1.078l-0.869-0.11L262.426,130.641z"
							/>
						<path fill="#83A521" d="M272.266,133.363c0.605,0.334,1.08,0.794,1.424,1.38c0.345,0.587,0.517,1.243,0.517,1.97
							c0,0.726-0.174,1.382-0.522,1.969c-0.349,0.587-0.827,1.047-1.436,1.38c-0.609,0.334-1.291,0.501-2.046,0.501h-3.102v-7.7
							h3.135C270.984,132.862,271.661,133.029,272.266,133.363z M271.716,139.231c0.437-0.249,0.781-0.594,1.034-1.034
							c0.253-0.439,0.379-0.931,0.379-1.474c0-0.55-0.128-1.045-0.385-1.485c-0.257-0.439-0.607-0.786-1.051-1.039
							s-0.937-0.38-1.479-0.38h-2.057v5.786h2.101C270.793,139.605,271.28,139.48,271.716,139.231z"/>
						<path fill="#83A521" d="M275.714,132.862h1.056v7.7h-1.056V132.862z"/>
						<path fill="#83A521" d="M283.524,133.99c-0.389-0.173-0.788-0.259-1.199-0.259c-0.543,0-1.042,0.132-1.496,0.396
							c-0.455,0.264-0.814,0.621-1.078,1.072c-0.264,0.451-0.396,0.947-0.396,1.49c0,0.535,0.132,1.03,0.396,1.485
							c0.264,0.454,0.624,0.813,1.078,1.078c0.455,0.264,0.953,0.396,1.496,0.396c0.403,0,0.799-0.082,1.188-0.247
							s0.733-0.391,1.034-0.677l0.638,0.693c-0.389,0.381-0.84,0.68-1.353,0.896c-0.513,0.216-1.034,0.324-1.562,0.324
							c-0.733,0-1.404-0.174-2.013-0.522c-0.609-0.349-1.089-0.823-1.441-1.425c-0.352-0.602-0.528-1.265-0.528-1.991
							c0-0.719,0.178-1.376,0.534-1.975c0.355-0.598,0.841-1.068,1.458-1.413c0.616-0.345,1.294-0.517,2.035-0.517
							c0.535,0,1.054,0.101,1.557,0.302c0.502,0.202,0.937,0.486,1.304,0.853l-0.627,0.76
							C284.254,134.402,283.912,134.162,283.524,133.99z"/>
						<path fill="#83A521" d="M292.335,140.562l-0.814-1.87h-4.059l-0.803,1.87h-1.111l3.421-7.7h1.1l3.41,7.7H292.335z
							 M287.88,137.735h3.234l-1.628-3.74L287.88,137.735z"/>
					</g>
					<path fill="#83A521" d="M267.207,110.609c-1.399,0.594-2.383,1.982-2.382,3.595l0.007,8.94
						c0.002,2.146,1.755,3.896,3.898,3.894l8.948-0.005c2.144-0.002,3.895-1.756,3.893-3.898l-0.006-8.944
						c-0.001-2.148-1.755-3.897-3.899-3.896l-8.947,0.006C268.185,110.301,267.67,110.412,267.207,110.609z M267.805,112.042
						c0.278-0.118,0.591-0.181,0.918-0.182l8.945-0.004c1.31-0.003,2.338,1.027,2.34,2.336l0.006,8.943
						c0.001,1.309-1.028,2.34-2.338,2.34l-8.947,0.004c-1.307,0.002-2.336-1.023-2.337-2.334l-0.007-8.941
						C266.386,113.22,266.961,112.394,267.805,112.042z M272.751,117.588c-0.596,0.247-0.877,0.932-0.63,1.527
						c0.247,0.597,0.931,0.879,1.526,0.632l0,0c0.597-0.248,0.878-0.931,0.631-1.527l0,0
						C274.031,117.624,273.349,117.342,272.751,117.588z"/>
				</g>
			</g>
		</g>
	</g>
</g>
<g>
	<g>
		<g>
			<g>
				<g enable-background="new    ">
					<path fill="#83A521" d="M43.475,17.483c0.878,0.761,1.317,1.829,1.317,3.204c0,1.438-0.442,2.552-1.326,3.344
						s-2.125,1.188-3.721,1.188H36.54v4.016h-1.769V16.341h4.973C41.353,16.341,42.597,16.722,43.475,17.483z M42.213,22.889
						c0.589-0.484,0.884-1.2,0.884-2.146c0-0.921-0.295-1.618-0.884-2.091s-1.437-0.709-2.542-0.709l-3.131,0.019v5.654h3.131
						C40.777,23.616,41.624,23.374,42.213,22.889z"/>
					<path fill="#83A521" d="M55.456,29.234l-2.561-4.052c-0.294,0.024-0.534,0.036-0.718,0.036h-3.278v4.016h-1.769V16.341h5.047
						c1.633,0,2.895,0.378,3.785,1.133c0.89,0.755,1.335,1.827,1.335,3.214c0,1.044-0.243,1.922-0.728,2.635
						c-0.485,0.712-1.182,1.228-2.091,1.547l3.002,4.365H55.456z M52.177,23.616c1.105,0,1.953-0.242,2.542-0.728
						c0.589-0.484,0.884-1.2,0.884-2.146c0-0.921-0.294-1.618-0.884-2.091s-1.437-0.709-2.542-0.709h-3.278v5.673H52.177z"/>
					<path fill="#83A521" d="M69.501,17.096c1.038,0.578,1.857,1.366,2.459,2.367c0.602,1.001,0.902,2.104,0.902,3.307
						s-0.301,2.312-0.902,3.324c-0.602,1.014-1.421,1.812-2.459,2.395c-1.038,0.583-2.177,0.875-3.417,0.875
						s-2.379-0.292-3.417-0.875c-1.038-0.583-1.857-1.381-2.459-2.395c-0.602-1.013-0.903-2.121-0.903-3.324
						s0.301-2.306,0.903-3.307c0.602-1.001,1.418-1.789,2.45-2.367c1.031-0.576,2.173-0.865,3.426-0.865
						C67.324,16.23,68.463,16.52,69.501,17.096z M63.607,18.478c-0.768,0.442-1.379,1.041-1.833,1.796s-0.681,1.587-0.681,2.496
						c0,0.908,0.227,1.743,0.681,2.505s1.065,1.366,1.833,1.814c0.767,0.448,1.599,0.672,2.496,0.672
						c0.896,0,1.722-0.224,2.478-0.672c0.755-0.448,1.356-1.053,1.805-1.814s0.672-1.597,0.672-2.505
						c0-0.909-0.224-1.741-0.672-2.496s-1.05-1.354-1.805-1.796c-0.755-0.442-1.582-0.663-2.478-0.663
						C65.206,17.814,64.374,18.035,63.607,18.478z"/>
					<path fill="#83A521" d="M84.015,17.197c0.755,0.571,1.133,1.36,1.133,2.367c0,0.736-0.209,1.36-0.626,1.869
						c-0.417,0.51-0.989,0.851-1.713,1.022c0.896,0.136,1.599,0.494,2.109,1.077c0.509,0.584,0.764,1.312,0.764,2.184
						c0,1.104-0.414,1.968-1.243,2.588c-0.829,0.62-1.974,0.93-3.435,0.93h-5.6V16.341h5.507
						C82.225,16.341,83.26,16.627,84.015,17.197z M82.671,21.305c0.436-0.337,0.654-0.819,0.654-1.445
						c0-0.614-0.218-1.087-0.654-1.419c-0.436-0.331-1.053-0.49-1.851-0.479h-3.647v3.85h3.647
						C81.617,21.812,82.235,21.643,82.671,21.305z M83.067,27.07c0.54-0.375,0.81-0.899,0.81-1.575c0-0.65-0.27-1.16-0.81-1.528
						c-0.541-0.369-1.29-0.553-2.247-0.553h-3.647v4.199h3.647C81.777,27.626,82.526,27.445,83.067,27.07z"/>
					<path fill="#83A521" d="M88.518,16.341h1.769v11.291h5.636v1.603h-7.405V16.341z"/>
					<path fill="#83A521" d="M98.169,16.341h8.952v1.603h-7.183v3.979h6.428v1.603h-6.428v4.107h7.404v1.603h-9.173V16.341z"/>
					<path fill="#83A521" d="M110.197,16.341h2.1l4.715,9.062l4.679-9.062h2.118v12.894h-1.658l-0.019-10.296l-4.586,8.933h-1.086
						l-4.623-8.933v10.296h-1.64V16.341z"/>
					<path fill="#83A521" d="M137.071,29.234l-1.363-3.131h-6.796l-1.345,3.131h-1.86l5.729-12.894h1.842l5.71,12.894H137.071z
						 M129.611,24.501h5.416l-2.726-6.263L129.611,24.501z M133.35,12.62l1.768,0.773l-2.284,1.806l-1.455-0.185L133.35,12.62z"/>
					<path fill="#83A521" d="M137.973,16.341h10.075v1.621h-4.163v11.272h-1.768V17.962h-4.145V16.341z"/>
					<path fill="#83A521" d="M150.074,16.341h1.769v12.894h-1.769V16.341z"/>
					<path fill="#83A521" d="M163.152,18.229c-0.651-0.288-1.32-0.433-2.007-0.433c-0.909,0-1.744,0.222-2.505,0.663
						c-0.761,0.442-1.363,1.041-1.805,1.796c-0.442,0.755-0.663,1.587-0.663,2.496c0,0.896,0.221,1.726,0.663,2.486
						c0.442,0.762,1.043,1.363,1.805,1.806c0.761,0.441,1.596,0.663,2.505,0.663c0.675,0,1.338-0.139,1.989-0.415
						c0.65-0.276,1.228-0.653,1.731-1.133l1.068,1.16c-0.651,0.639-1.406,1.14-2.266,1.502s-1.731,0.543-2.615,0.543
						c-1.228,0-2.352-0.292-3.371-0.875c-1.02-0.583-1.824-1.378-2.413-2.385s-0.884-2.118-0.884-3.334
						c0-1.203,0.298-2.306,0.894-3.307c0.595-1.001,1.409-1.789,2.44-2.367c1.032-0.576,2.167-0.865,3.408-0.865
						c0.896,0,1.765,0.169,2.606,0.507c0.841,0.338,1.568,0.813,2.183,1.427l-1.05,1.271
						C164.373,18.92,163.802,18.518,163.152,18.229z"/>
					<path fill="#83A521" d="M177.906,29.234l-1.363-3.131h-6.796l-1.345,3.131h-1.86l5.729-12.894h1.842l5.71,12.894H177.906z
						 M170.446,24.501h5.416l-2.726-6.263L170.446,24.501z"/>
					<path fill="#83A521" d="M186.525,16.341h1.769v12.894h-1.769V16.341z"/>
					<path fill="#83A521" d="M201.15,16.341h1.75v12.894h-1.787l-7.367-9.983v9.983h-1.769V16.341h1.787l7.386,10.002V16.341z"/>
					<path fill="#83A521" d="M206.602,16.341h1.769v12.894h-1.769V16.341z"/>
					<path fill="#83A521" d="M219.679,18.229c-0.651-0.288-1.32-0.433-2.007-0.433c-0.909,0-1.744,0.222-2.505,0.663
						c-0.761,0.442-1.363,1.041-1.805,1.796c-0.442,0.755-0.663,1.587-0.663,2.496c0,0.896,0.221,1.726,0.663,2.486
						c0.442,0.762,1.043,1.363,1.805,1.806c0.761,0.441,1.596,0.663,2.505,0.663c0.675,0,1.338-0.139,1.989-0.415
						c0.65-0.276,1.228-0.653,1.731-1.133l1.068,1.16c-0.651,0.639-1.406,1.14-2.266,1.502s-1.731,0.543-2.615,0.543
						c-1.228,0-2.352-0.292-3.371-0.875c-1.02-0.583-1.824-1.378-2.413-2.385s-0.884-2.118-0.884-3.334
						c0-1.203,0.298-2.306,0.894-3.307c0.595-1.001,1.409-1.789,2.44-2.367c1.032-0.576,2.167-0.865,3.408-0.865
						c0.896,0,1.765,0.169,2.606,0.507c0.841,0.338,1.568,0.813,2.183,1.427l-1.05,1.271
						C220.901,18.92,220.33,18.518,219.679,18.229z"/>
					<path fill="#83A521" d="M224.928,16.341h1.769v12.894h-1.769V16.341z"/>
					<path fill="#83A521" d="M239.958,29.234l-1.363-3.131h-6.796l-1.345,3.131h-1.86l5.729-12.894h1.842l5.71,12.894H239.958z
						 M232.498,24.501h5.416l-2.726-6.263L232.498,24.501z"/>
					<path fill="#83A521" d="M243.752,16.341h1.769v11.291h5.636v1.603h-7.405V16.341z"/>
				</g>
			</g>
		</g>
	</g>
</g>
<path fill="#D2DEB2" d="M1281,96.102c-6-1.671-14.22-2.523-22.673-2.523h-26.032l12.342,22.865c0.201,0.203,0.305,0.228,0.305,0.491
	c0,0.263-0.104,0.816-0.305,1.02l-12.334,23.624h26.025c7.735,0,15.363,8.267,15.038,22.747
	c-0.323,14.418-8.636,22.16-15.038,22.255H1066.15v0.532c-13.704,0-24.813,11.109-24.813,24.812
	c0,13.705,11.109,24.814,24.813,24.814c2.623,0,5.148-0.409,7.521-1.163h184.655c8.453,0,16.672-0.854,22.672,17.479V116.103V96.102
	H1281z"/>
<g>
	<g>
		<g enable-background="new    ">
			<path fill="#83A521" d="M1086.039,218.168l-2.561-4.052c-0.295,0.024-0.534,0.036-0.719,0.036h-3.277v4.016h-1.77v-12.894h5.047
				c1.633,0,2.895,0.378,3.785,1.133s1.336,1.827,1.336,3.214c0,1.044-0.242,1.922-0.728,2.635
				c-0.485,0.712-1.183,1.228-2.091,1.547l3.002,4.365H1086.039z M1082.76,212.55c1.105,0,1.953-0.242,2.543-0.728
				c0.589-0.484,0.883-1.2,0.883-2.146c0-0.921-0.294-1.618-0.883-2.091c-0.59-0.473-1.438-0.709-2.543-0.709h-3.277v5.673H1082.76z
				"/>
			<path fill="#83A521" d="M1091.031,205.274h8.952v1.603h-7.184v3.979h6.428v1.603h-6.428v4.107h7.404v1.603h-9.173V205.274z"/>
			<path fill="#83A521" d="M1101.401,205.274h10.075v1.621h-4.163v11.272h-1.768v-11.272h-4.145V205.274z"/>
			<path fill="#83A521" d="M1121.744,206.029c1.037,0.578,1.857,1.366,2.459,2.367s0.902,2.104,0.902,3.307
				s-0.301,2.312-0.902,3.324c-0.602,1.014-1.422,1.812-2.459,2.395c-1.038,0.583-2.177,0.875-3.417,0.875s-2.379-0.292-3.417-0.875
				c-1.037-0.583-1.857-1.381-2.459-2.395c-0.602-1.013-0.902-2.121-0.902-3.324s0.301-2.306,0.902-3.307s1.418-1.789,2.45-2.367
				c1.031-0.576,2.173-0.865,3.426-0.865C1119.568,205.164,1120.706,205.453,1121.744,206.029z M1115.85,207.411
				c-0.768,0.442-1.379,1.041-1.832,1.796c-0.455,0.755-0.682,1.587-0.682,2.496c0,0.908,0.227,1.743,0.682,2.505
				c0.453,0.762,1.064,1.366,1.832,1.814s1.6,0.672,2.496,0.672s1.723-0.224,2.478-0.672s1.356-1.053,1.805-1.814
				s0.673-1.597,0.673-2.505c0-0.909-0.225-1.741-0.673-2.496s-1.05-1.354-1.805-1.796s-1.581-0.663-2.478-0.663
				S1116.617,206.969,1115.85,207.411z"/>
			<path fill="#83A521" d="M1133.311,207.107c-0.645-0.19-1.236-0.285-1.777-0.285c-0.749,0-1.348,0.144-1.795,0.433
				c-0.449,0.288-0.673,0.685-0.673,1.188c0,0.455,0.135,0.826,0.405,1.114c0.27,0.289,0.602,0.517,0.994,0.682
				c0.393,0.166,0.939,0.359,1.64,0.58c0.872,0.271,1.577,0.528,2.118,0.774c0.54,0.245,1,0.61,1.381,1.096s0.572,1.127,0.572,1.925
				c0,0.736-0.2,1.381-0.6,1.934c-0.398,0.553-0.957,0.979-1.676,1.28s-1.545,0.451-2.478,0.451c-0.945,0-1.866-0.184-2.763-0.553
				c-0.896-0.368-1.67-0.859-2.32-1.474l0.791-1.528c0.614,0.602,1.305,1.065,2.072,1.391s1.514,0.488,2.238,0.488
				c0.859,0,1.538-0.169,2.035-0.507c0.498-0.338,0.746-0.795,0.746-1.372c0-0.454-0.135-0.829-0.405-1.124
				c-0.271-0.294-0.61-0.527-1.022-0.699c-0.411-0.172-0.967-0.362-1.666-0.571c-0.86-0.258-1.561-0.51-2.101-0.755
				c-0.54-0.246-0.997-0.608-1.372-1.087s-0.562-1.111-0.562-1.897c0-0.688,0.19-1.295,0.571-1.823
				c0.38-0.528,0.914-0.933,1.602-1.216c0.688-0.282,1.486-0.424,2.395-0.424c0.773,0,1.532,0.114,2.275,0.341
				c0.742,0.228,1.402,0.531,1.98,0.912l-0.737,1.584C1134.578,207.583,1133.955,207.298,1133.311,207.107z"/>
			<path fill="#83A521" d="M1151.445,207.162c-0.651-0.288-1.319-0.433-2.007-0.433c-0.91,0-1.744,0.222-2.506,0.663
				c-0.762,0.442-1.363,1.041-1.805,1.796c-0.442,0.755-0.663,1.587-0.663,2.496c0,0.896,0.221,1.726,0.663,2.486
				c0.441,0.762,1.043,1.363,1.805,1.806c0.762,0.441,1.596,0.663,2.506,0.663c0.674,0,1.338-0.139,1.988-0.415
				s1.229-0.653,1.731-1.133l1.068,1.16c-0.651,0.639-1.406,1.14-2.266,1.502s-1.731,0.543-2.615,0.543
				c-1.228,0-2.352-0.292-3.37-0.875c-1.02-0.583-1.824-1.378-2.414-2.385c-0.589-1.007-0.884-2.118-0.884-3.334
				c0-1.203,0.298-2.306,0.894-3.307s1.409-1.789,2.44-2.367c1.032-0.576,2.167-0.865,3.407-0.865c0.896,0,1.766,0.169,2.607,0.507
				c0.84,0.338,1.568,0.813,2.182,1.427l-1.05,1.271C1152.666,207.854,1152.096,207.451,1151.445,207.162z"/>
			<path fill="#83A521" d="M1165.452,206.029c1.038,0.578,1.856,1.366,2.459,2.367c0.602,1.001,0.902,2.104,0.902,3.307
				s-0.301,2.312-0.902,3.324c-0.603,1.014-1.421,1.812-2.459,2.395s-2.177,0.875-3.417,0.875s-2.379-0.292-3.416-0.875
				c-1.039-0.583-1.857-1.381-2.459-2.395c-0.603-1.013-0.903-2.121-0.903-3.324s0.301-2.306,0.903-3.307
				c0.602-1.001,1.418-1.789,2.449-2.367c1.031-0.576,2.174-0.865,3.426-0.865C1163.276,205.164,1164.414,205.453,1165.452,206.029z
				 M1159.559,207.411c-0.768,0.442-1.379,1.041-1.834,1.796c-0.453,0.755-0.681,1.587-0.681,2.496c0,0.908,0.228,1.743,0.681,2.505
				c0.455,0.762,1.066,1.366,1.834,1.814c0.767,0.448,1.599,0.672,2.495,0.672c0.896,0,1.722-0.224,2.478-0.672
				c0.755-0.448,1.356-1.053,1.805-1.814s0.672-1.597,0.672-2.505c0-0.909-0.224-1.741-0.672-2.496s-1.05-1.354-1.805-1.796
				c-0.756-0.442-1.582-0.663-2.478-0.663C1161.157,206.748,1160.325,206.969,1159.559,207.411z"/>
			<path fill="#83A521" d="M1180.529,205.274h1.75v12.894h-1.787l-7.367-9.983v9.983h-1.769v-12.894h1.787l7.386,10.002V205.274z"/>
			<path fill="#83A521" d="M1193.606,207.162c-0.65-0.288-1.32-0.433-2.008-0.433c-0.908,0-1.744,0.222-2.505,0.663
				c-0.761,0.442-1.362,1.041-1.805,1.796s-0.663,1.587-0.663,2.496c0,0.896,0.221,1.726,0.663,2.486
				c0.442,0.762,1.044,1.363,1.805,1.806c0.761,0.441,1.597,0.663,2.505,0.663c0.676,0,1.338-0.139,1.99-0.415
				c0.65-0.276,1.227-0.653,1.73-1.133l1.068,1.16c-0.65,0.639-1.406,1.14-2.266,1.502s-1.73,0.543-2.615,0.543
				c-1.229,0-2.352-0.292-3.371-0.875s-1.823-1.378-2.412-2.385c-0.59-1.007-0.885-2.118-0.885-3.334
				c0-1.203,0.298-2.306,0.894-3.307c0.595-1.001,1.409-1.789,2.44-2.367c1.031-0.576,2.167-0.865,3.408-0.865
				c0.896,0,1.765,0.169,2.605,0.507c0.842,0.338,1.568,0.813,2.184,1.427l-1.051,1.271
				C1194.827,207.854,1194.256,207.451,1193.606,207.162z"/>
			<path fill="#83A521" d="M1207.181,218.168l-2.561-4.052c-0.294,0.024-0.534,0.036-0.718,0.036h-3.279v4.016h-1.768v-12.894h5.047
				c1.633,0,2.895,0.378,3.785,1.133c0.89,0.755,1.335,1.827,1.335,3.214c0,1.044-0.243,1.922-0.728,2.635
				c-0.485,0.712-1.182,1.228-2.091,1.547l3.003,4.365H1207.181z M1203.903,212.55c1.104,0,1.952-0.242,2.541-0.728
				c0.59-0.484,0.885-1.2,0.885-2.146c0-0.921-0.295-1.618-0.885-2.091c-0.589-0.473-1.437-0.709-2.541-0.709h-3.279v5.673H1203.903
				z"/>
			<path fill="#83A521" d="M1212.172,205.274h8.951v1.603h-7.184v3.979h6.429v1.603h-6.429v4.107h7.404v1.603h-9.172V205.274z"/>
			<path fill="#83A521" d="M1222.541,205.274h10.076v1.621h-4.163v11.272h-1.769v-11.272h-4.145V205.274z"/>
			<path fill="#83A521" d="M1242.886,206.029c1.038,0.578,1.856,1.366,2.459,2.367c0.602,1.001,0.902,2.104,0.902,3.307
				s-0.301,2.312-0.902,3.324c-0.603,1.014-1.421,1.812-2.459,2.395s-2.177,0.875-3.417,0.875s-2.379-0.292-3.416-0.875
				c-1.039-0.583-1.857-1.381-2.459-2.395c-0.603-1.013-0.903-2.121-0.903-3.324s0.301-2.306,0.903-3.307
				c0.602-1.001,1.418-1.789,2.449-2.367c1.031-0.576,2.174-0.865,3.426-0.865C1240.709,205.164,1241.848,205.453,1242.886,206.029z
				 M1236.992,207.411c-0.768,0.442-1.379,1.041-1.834,1.796c-0.453,0.755-0.681,1.587-0.681,2.496c0,0.908,0.228,1.743,0.681,2.505
				c0.455,0.762,1.066,1.366,1.834,1.814c0.767,0.448,1.599,0.672,2.495,0.672c0.896,0,1.722-0.224,2.478-0.672
				c0.755-0.448,1.356-1.053,1.805-1.814s0.672-1.597,0.672-2.505c0-0.909-0.224-1.741-0.672-2.496s-1.05-1.354-1.805-1.796
				c-0.756-0.442-1.582-0.663-2.478-0.663C1238.591,206.748,1237.759,206.969,1236.992,207.411z"/>
			<path fill="#83A521" d="M1254.453,207.107c-0.645-0.19-1.238-0.285-1.777-0.285c-0.75,0-1.349,0.144-1.797,0.433
				c-0.448,0.288-0.672,0.685-0.672,1.188c0,0.455,0.135,0.826,0.405,1.114c0.271,0.289,0.602,0.517,0.995,0.682
				c0.393,0.166,0.939,0.359,1.639,0.58c0.871,0.271,1.578,0.528,2.118,0.774c0.54,0.245,1.001,0.61,1.382,1.096
				c0.38,0.485,0.57,1.127,0.57,1.925c0,0.736-0.199,1.381-0.598,1.934c-0.4,0.553-0.959,0.979-1.677,1.28s-1.544,0.451-2.478,0.451
				c-0.945,0-1.867-0.184-2.763-0.553c-0.896-0.368-1.67-0.859-2.321-1.474l0.793-1.528c0.613,0.602,1.305,1.065,2.072,1.391
				c0.767,0.325,1.513,0.488,2.237,0.488c0.859,0,1.538-0.169,2.035-0.507s0.746-0.795,0.746-1.372c0-0.454-0.136-0.829-0.405-1.124
				c-0.27-0.294-0.611-0.527-1.021-0.699c-0.412-0.172-0.968-0.362-1.668-0.571c-0.859-0.258-1.559-0.51-2.1-0.755
				c-0.541-0.246-0.998-0.608-1.372-1.087s-0.562-1.111-0.562-1.897c0-0.688,0.189-1.295,0.57-1.823s0.915-0.933,1.604-1.216
				c0.688-0.282,1.484-0.424,2.395-0.424c0.773,0,1.531,0.114,2.273,0.341c0.744,0.228,1.403,0.531,1.98,0.912l-0.736,1.584
				C1255.721,207.583,1255.098,207.298,1254.453,207.107z"/>
		</g>
	</g>
</g>
</svg>
