<?xml version="1.0" encoding="utf-8"?>
<!-- Generator: Adobe Illustrator 15.0.2, SVG Export Plug-In . SVG Version: 6.00 Build 0)  -->
<!DOCTYPE svg PUBLIC "-//W3C//DTD SVG 1.1//EN" "http://www.w3.org/Graphics/SVG/1.1/DTD/svg11.dtd">
<svg version="1.1" id="Capa_1" xmlns="http://www.w3.org/2000/svg" xmlns:xlink="http://www.w3.org/1999/xlink" x="0px" y="0px"
	 width="1281px" height="236px" viewBox="0 0 1281 236" enable-background="new 0 0 1281 236" xml:space="preserve">
<path fill="#D2DEB2" d="M282.014,22.886c0-12.807-10.383-23.19-23.19-23.19c-0.005,0-0.009,0-0.014,0
	c-1.36-0.131-2.764-0.197-4.206-0.197H6.993c-19.738,0-48.552,27.61-48.552,72c0,46.218,24.686,72,70.552,72h16.964l13.109-25.495
	L45.951,92.5H28.993c-7.746,0-14.058-15.154-14.058-23.244c0-8.092,6.312-22.756,19.225-22.756h225.61
	c4.9,0,9.487-1.963,13.141-5.198C278.443,37.064,282.014,30.394,282.014,22.886z"/>
<rect y="-242.5" display="none" fill="#ECEED7" width="1280" height="720"/>
<g>
	<g>
		<g>
			<g>
				<g>
					<path fill="#D2DEB2" d="M985.973,118.117c0-0.26-0.1-0.729-0.299-0.929L973.699,94H813.461l12.697,24.005L813.47,142h160.237
						l11.967-23.064C985.873,118.734,985.973,118.377,985.973,118.117z"/>
				</g>
			</g>
		</g>
	</g>
	<g>
		<g>
			<g>
				<g>
					<g>
						<g>
							<g>
								<g>
									<path fill="#D2DEB2" d="M236.639,118.117c0-0.26-0.1-0.729-0.299-0.929L224.365,94H64.128l12.697,24.005L64.136,142
										h160.237l11.967-23.064C236.539,118.734,236.639,118.377,236.639,118.117z"/>
								</g>
							</g>
						</g>
					</g>
				</g>
				<g>
					<g>
						<text transform="matrix(1 0 0 1 105.73 116.3672)" fill="#83A521" font-family="'Montserrat-Regular'" font-size="18.4191">INSIGHTS</text>
						<text transform="matrix(1 0 0 1 78.2393 134.7852)" fill="#83A521" font-family="'Montserrat-Regular'" font-size="18.4191">ESPONTÁNEOS</text>
					</g>
				</g>
			</g>
			<g>
				<g>
					<g>
						<g>
							<path fill="#EADFD4" d="M742.971,118.117c0-0.26-0.102-0.729-0.299-0.929L730.695,94H570.46l12.698,24.005L570.468,142
								h160.235l11.969-23.064C742.869,118.734,742.971,118.377,742.971,118.117z"/>
						</g>
					</g>
				</g>
				<g>
					<g>
						<g>
							<path fill="#D2DEB2" d="M742.971,118.117c0-0.26-0.102-0.729-0.299-0.929L730.695,94H570.46l12.698,24.005L570.468,142
								h160.235l11.969-23.064C742.869,118.734,742.971,118.377,742.971,118.117z"/>
						</g>
					</g>
				</g>
				<text transform="matrix(1 0 0 1 614.9824 116.3672)" fill="#83A521" font-family="'Montserrat-Regular'" font-size="18.4191">PUNTOS</text>
				<text transform="matrix(1 0 0 1 611.6943 134.7852)" fill="#83A521" font-family="'Montserrat-Regular'" font-size="18.4191">DE VISTA</text>
			</g>
			<g>
				<text transform="matrix(1 0 0 1 846.958 124.9141)" fill="#83A521" font-family="'Montserrat-Regular'" font-size="18.4191">PAINPOINTS</text>
			</g>
			<g>
				<g>
					<g>
						<g>
							<g>
								<path fill="#D2DEB2" d="M1229.252,118.117c0-0.26-0.1-0.729-0.299-0.929L1216.979,94h-160.234l12.697,24.005L1056.75,142
									h160.236l11.967-23.064C1229.152,118.734,1229.252,118.377,1229.252,118.117z"/>
							</g>
						</g>
					</g>
				</g>
				<text transform="matrix(1 0 0 1 1092.6299 125.9141)" fill="#83A521" font-family="'Montserrat-Regular'" font-size="18.4191">ME SIENTO</text>
			</g>
			<g>
				<g>
					<g>
						<g>
							<g>
								<path fill="#D2DEB2" d="M481.274,118.117c0-0.26-0.102-0.729-0.301-0.929L469,94H308.764l12.697,24.005L308.771,142h160.237
									l11.967-23.064C481.175,118.734,481.274,118.377,481.274,118.117z"/>
							</g>
						</g>
					</g>
				</g>
				<g>
					<g>
						<text transform="matrix(1 0 0 1 335.7324 117.5137)" fill="#83A521" font-family="'Montserrat-Regular'" font-size="18.4191">PREGUNTAS </text>
						<text transform="matrix(1 0 0 1 352.9722 135.9316)" fill="#83A521" font-family="'Montserrat-Regular'" font-size="18.4191">BÁSICAS</text>
					</g>
				</g>
			</g>
			<g>
				<g>
					<text transform="matrix(1 0 0 1 980.9092 96.832)" fill="#83A521" font-family="'Montserrat-Regular'" font-size="16.5">PARADA</text>
					<text transform="matrix(1 0 0 1 985.5703 150.832)" fill="#83A521" font-family="'Montserrat-Regular'" font-size="16.5">LÚDICA</text>
					<g>
						<path fill="#83A521" d="M1030.678,107.726c-0.945-2.227-3.155-3.795-5.722-3.794l-14.238,0.004
							c-3.418,0-6.21,2.795-6.21,6.213l0.008,14.243c0.003,3.416,2.793,6.207,6.211,6.205l14.241-0.002
							c3.416,0,6.208-2.794,6.205-6.211l-0.002-14.248C1031.167,109.284,1030.991,108.465,1030.678,107.726z M1028.396,108.677
							c0.185,0.445,0.286,0.943,0.289,1.461l0.001,14.249c0.003,2.084-1.638,3.723-3.722,3.723l-14.241,0.008
							c-2.083-0.004-3.724-1.64-3.723-3.725l-0.003-14.246c-0.001-2.086,1.635-3.723,3.723-3.724l14.236-0.004
							C1026.521,106.414,1027.834,107.336,1028.396,108.677z"/>
						<circle fill="#83A521" cx="1021.73" cy="121.22" r="1.86"/>
						<circle fill="#83A521" cx="1013.93" cy="113.307" r="1.863"/>
						<path fill="#83A521" d="M1021.2,111.605c-0.98,0.316-1.517,1.366-1.2,2.343c0.319,0.98,1.368,1.515,2.349,1.195
							c0.976-0.316,1.515-1.365,1.195-2.346C1023.225,111.821,1022.177,111.287,1021.2,111.605z"/>
						<circle fill="#83A521" cx="1013.883" cy="121.159" r="1.862"/>
					</g>
				</g>
				<g>
					<text transform="matrix(1 0 0 1 755.0801 104.5615)" fill="#83A521" font-family="'Montserrat-Regular'" font-size="11">PARADA</text>
					<text transform="matrix(1 0 0 1 758.1875 140.5615)" fill="#83A521" font-family="'Montserrat-Regular'" font-size="11">LÚDICA</text>
					<path fill="#83A521" d="M773.094,110.609c-1.398,0.594-2.383,1.982-2.382,3.595l0.007,8.94
						c0.003,2.146,1.755,3.896,3.899,3.894l8.948-0.005c2.144-0.002,3.895-1.756,3.893-3.899l-0.006-8.943
						c-0.001-2.148-1.755-3.897-3.9-3.896l-8.945,0.006C774.071,110.301,773.557,110.412,773.094,110.609z M773.691,112.042
						c0.277-0.118,0.591-0.181,0.918-0.182l8.944-0.004c1.311-0.003,2.338,1.027,2.341,2.336l0.007,8.943
						c0,1.309-1.028,2.34-2.338,2.34l-8.947,0.004c-1.309,0.002-2.337-1.024-2.338-2.334l-0.007-8.942
						C772.271,113.22,772.848,112.394,773.691,112.042z M781.64,114.655c-0.597,0.248-0.88,0.931-0.633,1.527
						c0.248,0.597,0.934,0.879,1.528,0.632c0.597-0.248,0.879-0.932,0.632-1.529C782.921,114.69,782.236,114.408,781.64,114.655z
						 M778.638,117.588c-0.595,0.247-0.877,0.932-0.63,1.528c0.247,0.596,0.932,0.878,1.526,0.631l0,0
						c0.596-0.248,0.878-0.931,0.631-1.527l0,0C779.917,117.624,779.235,117.342,778.638,117.588z M775.637,120.52
						c-0.596,0.248-0.879,0.934-0.632,1.526c0.247,0.599,0.933,0.884,1.528,0.634c0.597-0.246,0.88-0.933,0.632-1.529
						C776.918,120.557,776.232,120.271,775.637,120.52z"/>
				</g>
				<g>
					<text transform="matrix(1 0 0 1 506.7876 104.5615)" fill="#83A521" font-family="'Montserrat-Regular'" font-size="11">CASOS</text>
					<text transform="matrix(1 0 0 1 493.9175 140.5615)" fill="#83A521" font-family="'Montserrat-Regular'" font-size="11">PRÁCTICOS</text>
					<g>
						<path fill="#83A521" d="M519.508,109.442c-1.483,0.629-2.53,2.102-2.529,3.814l0.004,9.493c0,2.278,1.862,4.14,4.142,4.14
							l9.495-0.006c2.278-0.002,4.137-1.861,4.137-4.14l-0.003-9.494c0-2.278-1.862-4.139-4.139-4.137l-9.499,0.001
							C520.547,109.115,520.001,109.232,519.508,109.442z M520.142,110.962c0.298-0.124,0.63-0.192,0.975-0.193l9.499-0.001
							c1.39-0.001,2.481,1.092,2.481,2.481l0.005,9.494c-0.003,1.389-1.094,2.483-2.483,2.481l-9.497,0.002
							c-1.39,0.002-2.482-1.09-2.483-2.48l-0.002-9.493C518.633,112.213,519.248,111.337,520.142,110.962z M527.814,114.058
							c-0.634,0.263-0.936,0.987-0.674,1.621c0.264,0.635,0.989,0.934,1.623,0.671c0.635-0.263,0.936-0.987,0.67-1.622
							C529.172,114.095,528.447,113.795,527.814,114.058z M522.968,119.646c-0.632,0.263-0.933,0.99-0.669,1.623
							s0.989,0.935,1.62,0.672c0.632-0.262,0.935-0.989,0.673-1.623C524.33,119.688,523.6,119.386,522.968,119.646z"/>
					</g>
				</g>
				<g>
					<text transform="matrix(1 0 0 1 248.7485 104.5615)" fill="#83A521" font-family="'Montserrat-Regular'" font-size="11">PARADA</text>
					<text transform="matrix(1 0 0 1 251.8555 140.5615)" fill="#83A521" font-family="'Montserrat-Regular'" font-size="11">LÚDICA</text>
					<path fill="#83A521" d="M267.207,110.609c-1.399,0.594-2.383,1.982-2.382,3.595l0.007,8.94
						c0.002,2.146,1.755,3.896,3.899,3.894l8.948-0.005c2.144-0.002,3.895-1.756,3.893-3.899l-0.006-8.943
						c-0.001-2.148-1.755-3.897-3.9-3.896l-8.947,0.006C268.185,110.301,267.67,110.412,267.207,110.609z M267.805,112.042
						c0.278-0.118,0.591-0.181,0.918-0.182l8.945-0.004c1.31-0.003,2.338,1.027,2.34,2.336l0.006,8.943
						c0.001,1.309-1.028,2.34-2.338,2.34l-8.947,0.004c-1.307,0.002-2.336-1.024-2.337-2.334l-0.007-8.942
						C266.386,113.22,266.961,112.394,267.805,112.042z M272.751,117.588c-0.595,0.247-0.877,0.932-0.63,1.528
						c0.247,0.596,0.931,0.878,1.527,0.631l0,0c0.596-0.248,0.878-0.931,0.631-1.527l0,0
						C274.031,117.624,273.349,117.342,272.751,117.588z"/>
				</g>
			</g>
		</g>
	</g>
</g>
<g>
	<g>
		<g>
			<g>
				<text transform="matrix(1 0 0 1 32.9302 29.2344)" fill="#83A521" font-family="'Montserrat-Regular'" font-size="18.4191">PROBLEMÁTICA INICIAL</text>
			</g>
		</g>
	</g>
</g>
<path fill="#D2DEB2" d="M1281,96.102c-6-1.671-14.219-2.523-22.672-2.523h-26.033l12.342,22.865
	c0.201,0.203,0.305,0.228,0.305,0.491s-0.104,0.816-0.305,1.02l-12.334,23.624h26.025c7.736,0,15.364,8.267,15.039,22.747
	c-0.324,14.418-8.636,22.16-15.039,22.255H1066.15v0.532c-13.704,0-24.814,11.109-24.814,24.813
	c0,13.705,11.11,24.815,24.814,24.815c2.623,0,5.148-0.41,7.521-1.164h184.656c8.453,0,16.672-0.854,22.672,17.479V116.103V96.102z"
	/>
<g>
	<g>
		<text transform="matrix(1 0 0 1 1075.8721 218.167)" fill="#83A521" font-family="'Montserrat-Regular'" font-size="18.4191">RETOS CONCRETOS</text>
	</g>
</g>
</svg>
