<?xml version="1.0" encoding="utf-8"?>
<!-- Generator: Adobe Illustrator 15.0.2, SVG Export Plug-In . SVG Version: 6.00 Build 0)  -->
<!DOCTYPE svg PUBLIC "-//W3C//DTD SVG 1.1//EN" "http://www.w3.org/Graphics/SVG/1.1/DTD/svg11.dtd">
<svg version="1.1" id="Capa_1" xmlns="http://www.w3.org/2000/svg" xmlns:xlink="http://www.w3.org/1999/xlink" x="0px" y="0px"
	 width="637px" height="470px" viewBox="0 0 637 470" enable-background="new 0 0 637 470" xml:space="preserve">
<rect fill="#ECEED7" width="636" height="470"/>
<g>
	<g>
		<text transform="matrix(1 0 0 1 82.8818 313.6445)" fill="#666666" font-family="'Montserrat-Light'" font-size="37.0716">3ยบ</text>
		<path fill="#666666" stroke="#ECEED7" stroke-width="2" stroke-miterlimit="10" d="M63.094,281.48H46.676
			c0.49,7.106,2.695,23.035,16.418,27.938c0-0.246,0-0.736,0-0.981V281.48z M131.713,308.437c0,0.245,0,0.735,0,0.981
			c13.479-4.902,15.929-20.831,16.419-27.938h-16.419V308.437z M70.202,308.437c0,14.459,12.008,31.613,27.202,31.613
			c15.193,0,27.201-16.909,27.201-31.613v-37.739H70.202V308.437L70.202,308.437z M130.732,317.26
			c-3.432,14.213-14.949,27.691-29.652,29.652v34.309h17.645c1.96,0,3.676,1.715,3.676,3.676s-1.716,3.676-3.676,3.676h-42.15
			c-1.961,0-3.676-1.715-3.676-3.676s1.715-3.676,3.676-3.676h17.643v-34.309c-14.703-1.961-26.221-15.194-29.651-29.652
			c-20.585-4.901-25.241-27.692-24.751-39.456c0-1.96,1.715-3.431,3.676-3.431h20.096v-7.352c0-1.961,1.715-3.676,3.676-3.676h61.51
			c1.961,0,3.676,1.715,3.676,3.676v7.352h20.096c1.961,0,3.432,1.471,3.676,3.431C155.975,289.567,151.317,312.358,130.732,317.26z
			"/>
	</g>
	<g>
		<text transform="matrix(1 0 0 1 523.4648 243.7578)" fill="#666666" font-family="'Montserrat-Light'" font-size="52.5293">2ยบ</text>
		<path fill="#666666" stroke="#ECEED7" stroke-width="4" stroke-miterlimit="10" d="M493.395,198.682h-23.783
			c0.711,10.295,3.904,33.369,23.783,40.469c0-0.354,0-1.064,0-1.419V198.682z M592.797,237.731c0,0.354,0,1.064,0,1.419
			c19.525-7.1,23.074-30.174,23.783-40.469h-23.783V237.731z M503.692,237.731c0,20.945,17.395,45.795,39.405,45.795
			c22.008,0,39.402-24.495,39.402-45.795v-54.67h-78.808V237.731L503.692,237.731z M591.377,250.513
			c-4.971,20.589-21.656,40.114-42.955,42.954v49.701h25.561c2.839,0,5.324,2.482,5.324,5.324c0,2.84-2.485,5.324-5.324,5.324
			h-61.06c-2.841,0-5.325-2.484-5.325-5.324c0-2.842,2.484-5.324,5.325-5.324h25.559v-49.701c-21.3-2.84-37.985-22.01-42.954-42.954
			c-29.82-7.101-36.566-40.116-35.855-57.157c0-2.838,2.484-4.969,5.324-4.969h29.111v-10.649c0-2.841,2.484-5.325,5.326-5.325
			h89.104c2.84,0,5.325,2.484,5.325,5.325v10.649h29.11c2.838,0,4.971,2.131,5.324,4.969
			C627.943,210.396,621.195,243.412,591.377,250.513z"/>
	</g>
	<g>
		<g>
			<path fill="#666666" d="M267.139,293.172c-3.475,0-6.639-3.165-6.639-6.64c0-3.476,3.164-6.641,6.639-6.641h43.473v-84.391
				l-1.736-0.231c-31.52-4.203-59.487-32.238-68.014-68.176l-0.284-1.198l-1.198-0.286c-47.322-11.267-57.743-64.26-56.642-90.708
				c0.002-3.426,2.98-6.146,6.642-6.146h49.232V9.476c0-3.475,3.165-6.64,6.641-6.64h144.575c3.476,0,6.641,3.165,6.641,6.64v19.28
				h49.231c3.411,0,6.123,2.531,6.638,6.174c-0.192,8.644-1.742,30.62-11.822,51.435c-10.229,21.124-25.889,34.328-46.542,39.246
				l-1.193,0.284l-0.288,1.192c-3.991,16.537-12.662,32.424-24.414,44.736c-12.617,13.218-27.694,21.326-43.602,23.447l-1.735,0.231
				v84.391h43.472c3.475,0,6.64,3.165,6.64,6.641c0,3.475-3.165,6.64-6.64,6.64H267.139z M250.164,106.819
				c0,17.218,7.109,36.339,19.017,51.15c13.042,16.222,29.705,25.155,46.918,25.155c37.134,0,65.936-41.019,65.936-76.306V16.116
				H250.164V106.819z M394.738,111.98l2.684-0.976c31.464-11.442,38.508-47.144,39.905-67.407l0.147-2.138h-42.736V111.98z
				 M194.872,43.598c2.459,35.652,16.262,58.962,39.914,67.411l2.673,0.955V41.46h-42.734L194.872,43.598z"/>
			<path fill="#ECEED7" d="M389.827,4.836c2.386,0,4.641,2.255,4.641,4.64v17.28v4h4h47.231c2.727,0,4.27,2.122,4.634,4.304
				c-0.206,8.629-1.776,30.11-11.618,50.433c-9.955,20.557-25.164,33.4-45.206,38.172l-2.386,0.568l-0.576,2.385
				c-3.91,16.2-12.404,31.764-23.917,43.825c-12.299,12.885-26.967,20.785-42.418,22.845l-3.472,0.463v3.502v80.64v4h4h41.472
				c2.385,0,4.64,2.255,4.64,4.641c0,2.385-2.255,4.64-4.64,4.64h-99.073c-2.384,0-4.639-2.255-4.639-4.64
				c0-2.386,2.254-4.641,4.639-4.641h41.473h4v-4v-80.64v-3.502l-3.471-0.463c-15.526-2.07-30.198-9.898-42.427-22.637
				c-11.531-12.011-20.021-27.644-23.905-44.018l-0.569-2.397l-2.397-0.57c-46.054-10.965-56.184-62.801-55.106-88.679l0.003-0.083
				v-0.083c0-2.241,2.082-4.063,4.64-4.063h47.232h4v-4V9.476c0-2.385,2.255-4.64,4.641-4.64H389.827 M316.1,185.125
				c38.26,0,67.936-42.094,67.936-78.306V18.116v-4h-4H252.164h-4v4v88.703c0,17.659,7.274,37.249,19.458,52.403
				C281.052,175.926,298.268,185.125,316.1,185.125 M392.738,114.836l5.367-1.952c32.527-11.829,39.786-48.401,41.217-69.149
				l0.295-4.275h-4.285h-38.594h-4v4v63.359v2.306V114.836 M239.459,114.801v-5.676v-2.306V43.46v-4h-4h-38.592h-4.286l0.295,4.275
				c2.519,36.506,16.778,60.42,41.237,69.157L239.459,114.801 M389.827,0.836H245.252c-4.609,0-8.641,4.032-8.641,8.64v17.28
				h-47.232c-4.607,0-8.64,3.456-8.64,8.063c-1.151,27.648,9.792,81.217,58.177,92.736c8.062,33.984,35.136,65.088,69.695,69.696
				v80.64h-41.473c-4.607,0-8.639,4.032-8.639,8.641c0,4.607,4.031,8.64,8.639,8.64h99.073c4.606,0,8.64-4.032,8.64-8.64
				c0-4.608-4.033-8.641-8.64-8.641H324.74v-80.64c34.56-4.608,61.631-36.288,69.695-69.696
				c48.383-11.52,59.328-65.088,59.904-92.736c-0.576-4.607-4.033-8.063-8.641-8.063h-47.231V9.476
				C398.468,4.868,394.436,0.836,389.827,0.836L389.827,0.836z M316.1,181.125c-35.712,0-63.936-40.321-63.936-74.306V18.116
				h127.871v88.703C380.035,141.38,351.811,181.125,316.1,181.125L316.1,181.125z M435.332,43.46
				c-1.152,16.703-6.912,54.144-38.594,65.665c0-0.577,0-1.729,0-2.306V43.46H435.332L435.332,43.46z M235.459,109.125
				c-32.256-11.521-37.439-48.962-38.592-65.665h38.592v63.359C235.459,107.396,235.459,108.548,235.459,109.125L235.459,109.125z"
				/>
		</g>
		<text transform="matrix(1 0 0 1 297.1206 119.8091)" fill="#666666" font-family="'Montserrat-Light'" font-size="82.1469">1ยบ</text>
	</g>
	<g>
		<g>
			<path fill="#666666" d="M405,304v161H225V304H405 M411,298H219v173h192V298L411,298z"/>
		</g>
		<g>
			<path fill="#666666" d="M629,362v103H449V362H629 M635,356H443v115h192V356L635,356z"/>
		</g>
		<g>
			<path fill="#666666" d="M185,397v68H5v-68H185 M191,391H-1v80h192V391L191,391z"/>
		</g>
	</g>
</g>
</svg>
