<?xml version="1.0" encoding="utf-8"?>
<!-- Generator: Adobe Illustrator 15.0.2, SVG Export Plug-In . SVG Version: 6.00 Build 0)  -->
<!DOCTYPE svg PUBLIC "-//W3C//DTD SVG 1.1//EN" "http://www.w3.org/Graphics/SVG/1.1/DTD/svg11.dtd">
<svg version="1.1" id="Capa_1" xmlns="http://www.w3.org/2000/svg" xmlns:xlink="http://www.w3.org/1999/xlink" x="0px" y="0px"
	 width="637px" height="470px" viewBox="0 0 637 470" enable-background="new 0 0 637 470" xml:space="preserve">
<rect x="0" y="0" fill="#ECEED7" width="636" height="470"/>
<g>
	<g>
		<g enable-background="new    ">
			<path fill="#666666" d="M99.953,300.78c1.619,1.212,2.428,2.854,2.428,4.931c0,1.582-0.402,2.984-1.205,4.208
				c-0.804,1.224-1.959,2.175-3.466,2.854c-1.508,0.68-3.262,1.02-5.264,1.02c-1.582,0-3.151-0.229-4.708-0.686
				s-2.929-1.069-4.115-1.836l1.149-2.001c1.038,0.717,2.218,1.285,3.541,1.705c1.322,0.42,2.65,0.63,3.985,0.63
				c2.348,0,4.202-0.524,5.561-1.575c1.359-1.051,2.039-2.44,2.039-4.171c0-1.729-0.673-3.046-2.02-3.948
				c-1.348-0.901-3.232-1.353-5.653-1.353h-3.337v-1.669l8.823-8.896H84.846v-2.299h16.2v1.705l-9.268,9.343l1.631,0.073
				C96.153,298.915,98.334,299.57,99.953,300.78z"/>
			<path fill="#666666" d="M116.171,286.786c1.137,1.075,1.706,2.465,1.706,4.171c0,1.705-0.562,3.09-1.687,4.151
				c-1.125,1.063-2.576,1.595-4.356,1.595c-1.804,0-3.269-0.531-4.393-1.595c-1.125-1.062-1.687-2.446-1.687-4.151
				c0-1.706,0.562-3.096,1.687-4.171c1.124-1.075,2.588-1.612,4.393-1.612C113.589,285.174,115.034,285.711,116.171,286.786z
				 M108.813,287.898c-0.779,0.778-1.168,1.798-1.168,3.059c0,1.26,0.389,2.286,1.168,3.076c0.778,0.792,1.785,1.187,3.021,1.187
				c1.211,0,2.2-0.395,2.966-1.187c0.766-0.79,1.149-1.816,1.149-3.076c0-1.261-0.383-2.28-1.149-3.059s-1.755-1.168-2.966-1.168
				C110.598,286.73,109.591,287.12,108.813,287.898z"/>
		</g>
		<path fill="#666666" stroke="#ECEED7" stroke-width="2" stroke-miterlimit="10" d="M63.094,281.48H46.676
			c0.49,7.105,2.695,23.035,16.418,27.938c0-0.246,0-0.735,0-0.98V281.48z M131.713,308.437c0,0.245,0,0.734,0,0.98
			c13.479-4.901,15.929-20.831,16.419-27.938h-16.419V308.437z M70.202,308.437c0,14.459,12.008,31.613,27.201,31.613
			s27.201-16.909,27.201-31.613v-37.739H70.202V308.437L70.202,308.437z M130.732,317.26c-3.432,14.213-14.948,27.69-29.651,29.651
			v34.31h17.645c1.96,0,3.676,1.715,3.676,3.676s-1.716,3.676-3.676,3.676H76.575c-1.962,0-3.677-1.715-3.677-3.676
			s1.715-3.676,3.677-3.676h17.643v-34.31c-14.703-1.961-26.221-15.193-29.651-29.651c-20.585-4.901-25.24-27.692-24.751-39.456
			c0-1.96,1.715-3.432,3.677-3.432h20.096v-7.352c0-1.961,1.715-3.676,3.676-3.676h61.51c1.961,0,3.677,1.715,3.677,3.676v7.352
			h20.096c1.961,0,3.432,1.472,3.676,3.432C155.975,289.567,151.317,312.358,130.732,317.26z"/>
	</g>
	<g>
		<g enable-background="new    ">
			<path fill="#666666" d="M551.568,240.501v3.257h-26.054v-2.994l14.498-15.129c1.68-1.75,3.011-3.457,3.992-5.121
				c0.979-1.663,1.471-3.107,1.471-4.334c0-1.925-0.719-3.432-2.154-4.518c-1.436-1.085-3.432-1.628-5.988-1.628
				c-1.752,0-3.555,0.394-5.41,1.182c-1.857,0.788-3.537,1.883-5.043,3.283l-1.629-2.679c1.786-1.576,3.773-2.802,5.963-3.678
				c2.188-0.875,4.367-1.312,6.539-1.312c3.502,0,6.295,0.806,8.379,2.416c2.083,1.611,3.125,3.765,3.125,6.461
				c0,1.646-0.604,3.493-1.812,5.542c-1.207,2.049-2.862,4.176-4.963,6.382l-12.397,12.87H551.568z"/>
			<path fill="#666666" d="M570.11,205.7c1.611,1.523,2.417,3.493,2.417,5.91c0,2.416-0.797,4.378-2.39,5.883
				c-1.594,1.506-3.651,2.259-6.172,2.259c-2.558,0-4.633-0.753-6.226-2.259c-1.594-1.505-2.39-3.467-2.39-5.883
				c0-2.417,0.796-4.387,2.39-5.91c1.593-1.523,3.668-2.285,6.226-2.285C566.45,203.415,568.499,204.177,570.11,205.7z
				 M559.684,207.276c-1.104,1.103-1.655,2.548-1.655,4.334c0,1.785,0.552,3.239,1.655,4.359c1.103,1.121,2.529,1.681,4.281,1.681
				c1.715,0,3.115-0.56,4.201-1.681c1.086-1.12,1.629-2.574,1.629-4.359c0-1.786-0.543-3.231-1.629-4.334
				c-1.086-1.104-2.486-1.655-4.201-1.655C562.213,205.621,560.786,206.173,559.684,207.276z"/>
		</g>
		<path fill="#666666" stroke="#ECEED7" stroke-width="4" stroke-miterlimit="10" d="M493.395,198.682h-23.783
			c0.711,10.295,3.904,33.369,23.783,40.469c0-0.354,0-1.064,0-1.419V198.682z M592.797,237.731c0,0.354,0,1.063,0,1.419
			c19.524-7.101,23.073-30.174,23.782-40.469h-23.782V237.731z M503.692,237.731c0,20.945,17.396,45.795,39.405,45.795
			c22.008,0,39.401-24.495,39.401-45.795v-54.67h-78.808L503.692,237.731L503.692,237.731z M591.377,250.513
			c-4.972,20.589-21.656,40.113-42.955,42.954v49.7h25.561c2.839,0,5.324,2.482,5.324,5.324c0,2.84-2.485,5.324-5.324,5.324h-61.06
			c-2.842,0-5.325-2.484-5.325-5.324c0-2.842,2.483-5.324,5.325-5.324h25.559v-49.7c-21.3-2.841-37.985-22.011-42.954-42.954
			c-29.82-7.102-36.565-40.116-35.854-57.157c0-2.838,2.483-4.969,5.323-4.969h29.111v-10.649c0-2.841,2.484-5.325,5.326-5.325
			h89.104c2.841,0,5.325,2.484,5.325,5.325v10.649h29.11c2.838,0,4.971,2.131,5.324,4.969
			C627.943,210.396,621.195,243.412,591.377,250.513z"/>
	</g>
	<g>
		<g>
			<path fill="#666666" d="M267.139,293.172c-3.475,0-6.639-3.165-6.639-6.64c0-3.476,3.164-6.641,6.639-6.641h43.473V195.5
				l-1.735-0.23c-31.521-4.203-59.487-32.238-68.015-68.176l-0.283-1.198l-1.198-0.286c-47.322-11.268-57.743-64.26-56.643-90.708
				c0.002-3.426,2.98-6.146,6.643-6.146h49.231V9.476c0-3.476,3.165-6.641,6.642-6.641h144.574c3.477,0,6.642,3.165,6.642,6.641
				v19.279h49.23c3.411,0,6.123,2.531,6.639,6.175c-0.192,8.644-1.742,30.619-11.822,51.435
				c-10.229,21.124-25.889,34.328-46.542,39.246l-1.193,0.284l-0.288,1.191c-3.99,16.537-12.662,32.425-24.414,44.736
				c-12.616,13.218-27.693,21.326-43.602,23.447l-1.735,0.23v84.392h43.473c3.475,0,6.64,3.165,6.64,6.641
				c0,3.475-3.165,6.64-6.64,6.64L267.139,293.172L267.139,293.172z M250.164,106.819c0,17.218,7.108,36.339,19.017,51.15
				c13.042,16.222,29.705,25.154,46.918,25.154c37.134,0,65.936-41.019,65.936-76.306V16.116h-131.87V106.819z M394.738,111.98
				l2.685-0.977c31.464-11.441,38.508-47.144,39.904-67.406l0.147-2.139h-42.736V111.98z M194.872,43.598
				c2.459,35.651,16.262,58.962,39.914,67.411l2.673,0.954V41.46h-42.734L194.872,43.598z"/>
			<path fill="#ECEED7" d="M389.826,4.836c2.387,0,4.642,2.255,4.642,4.641v17.279v4h4h47.23c2.728,0,4.271,2.122,4.634,4.305
				c-0.205,8.629-1.775,30.109-11.617,50.433c-9.955,20.557-25.164,33.4-45.206,38.172l-2.387,0.568l-0.575,2.385
				c-3.91,16.2-12.404,31.764-23.917,43.825c-12.3,12.885-26.968,20.785-42.418,22.845l-3.473,0.463v3.502v80.641v4h4h41.473
				c2.385,0,4.64,2.255,4.64,4.641c0,2.385-2.255,4.64-4.64,4.64h-99.073c-2.384,0-4.639-2.255-4.639-4.64
				c0-2.386,2.254-4.641,4.639-4.641h41.473h4v-4v-80.641v-3.502l-3.471-0.463c-15.525-2.069-30.198-9.897-42.427-22.637
				c-11.531-12.011-20.021-27.645-23.905-44.019l-0.568-2.396l-2.397-0.57c-46.054-10.965-56.184-62.801-55.106-88.679l0.004-0.083
				v-0.083c0-2.241,2.081-4.063,4.64-4.063h47.231h4v-4V9.476c0-2.386,2.256-4.641,4.642-4.641H389.826 M316.1,185.125
				c38.26,0,67.936-42.094,67.936-78.306V18.116v-4h-4H252.164h-4v4v88.703c0,17.659,7.273,37.249,19.458,52.403
				C281.052,175.927,298.268,185.125,316.1,185.125 M392.738,114.836l5.367-1.952c32.527-11.828,39.786-48.4,41.217-69.148
				l0.295-4.275h-4.284h-38.595h-4v4v63.359v2.306V114.836 M239.459,114.802v-5.677v-2.306V43.46v-4h-4h-38.592h-4.286l0.295,4.275
				c2.519,36.506,16.777,60.42,41.236,69.157L239.459,114.802 M389.826,0.836H245.252c-4.609,0-8.642,4.032-8.642,8.641v17.279
				h-47.231c-4.607,0-8.641,3.456-8.641,8.063c-1.15,27.647,9.792,81.217,58.178,92.736c8.062,33.983,35.136,65.088,69.694,69.695
				v80.641h-41.473c-4.607,0-8.639,4.031-8.639,8.641c0,4.607,4.03,8.64,8.639,8.64h99.073c4.605,0,8.64-4.031,8.64-8.64
				s-4.033-8.641-8.64-8.641H324.74v-80.641c34.561-4.607,61.631-36.288,69.695-69.695c48.383-11.521,59.328-65.089,59.904-92.736
				c-0.576-4.607-4.033-8.063-8.642-8.063h-47.23V9.476C398.468,4.868,394.436,0.836,389.826,0.836L389.826,0.836z M316.1,181.125
				c-35.712,0-63.936-40.32-63.936-74.306V18.116h127.87v88.703C380.034,141.38,351.811,181.125,316.1,181.125L316.1,181.125z
				 M435.332,43.46c-1.152,16.703-6.912,54.145-38.595,65.665c0-0.577,0-1.729,0-2.306V43.46H435.332L435.332,43.46z
				 M235.459,109.125c-32.256-11.521-37.439-48.962-38.592-65.665h38.592v63.359C235.459,107.396,235.459,108.548,235.459,109.125
				L235.459,109.125z"/>
		</g>
		<g enable-background="new    ">
			<path fill="#666666" d="M297.613,62.306h19.551v57.503h-5.668v-52.41h-13.883V62.306z"/>
			<path fill="#666666" d="M352.981,60.294c2.518,2.383,3.778,5.463,3.778,9.242c0,3.778-1.246,6.846-3.737,9.2
				c-2.493,2.355-5.709,3.532-9.652,3.532c-3.998,0-7.243-1.177-9.734-3.532c-2.492-2.354-3.738-5.422-3.738-9.2
				c0-3.779,1.246-6.859,3.738-9.242c2.491-2.382,5.736-3.573,9.734-3.573C347.257,56.72,350.461,57.912,352.981,60.294z
				 M336.674,62.759c-1.725,1.725-2.588,3.984-2.588,6.777s0.863,5.065,2.588,6.817c1.725,1.754,3.956,2.629,6.695,2.629
				c2.683,0,4.873-0.875,6.572-2.629c1.696-1.752,2.546-4.024,2.546-6.817s-0.85-5.053-2.546-6.777
				c-1.699-1.726-3.89-2.588-6.572-2.588C340.63,60.171,338.399,61.033,336.674,62.759z"/>
		</g>
	</g>
	<g>
		<g>
			<path fill="#666666" d="M405,304v161H225V304H405 M411,298H219v173h192V298L411,298z"/>
		</g>
		<g>
			<path fill="#666666" d="M629,362v103H449V362H629 M635,356H443v115h192V356L635,356z"/>
		</g>
		<g>
			<path fill="#666666" d="M185,397v68H5v-68H185 M191,391H-1v80h192V391L191,391z"/>
		</g>
	</g>
</g>
</svg>
