<?xml version="1.0" encoding="utf-8"?>
<!-- Generator: Adobe Illustrator 15.0.2, SVG Export Plug-In . SVG Version: 6.00 Build 0)  -->
<!DOCTYPE svg PUBLIC "-//W3C//DTD SVG 1.1//EN" "http://www.w3.org/Graphics/SVG/1.1/DTD/svg11.dtd">
<svg version="1.1" id="Capa_1" xmlns="http://www.w3.org/2000/svg" xmlns:xlink="http://www.w3.org/1999/xlink" x="0px" y="0px"
	 width="1281px" height="236px" viewBox="0 0 1281 236" enable-background="new 0 0 1281 236" xml:space="preserve">
<path fill="#D2DEB2" d="M282.014,22.886c0-12.807-10.383-23.19-23.19-23.19c-0.005,0-0.009,0-0.014,0
	c-1.36-0.131-2.764-0.197-4.206-0.197H6.993c-19.738,0-48.552,27.61-48.552,72c0,46.218,24.686,72,70.552,72h16.964l13.109-25.495
	L45.951,92.5H28.993c-7.746,0-14.058-15.154-14.058-23.244c0-8.092,6.312-22.756,19.225-22.756h225.61
	c4.9,0,9.487-1.963,13.141-5.198C278.443,37.064,282.014,30.394,282.014,22.886z"/>
<rect y="-242.5" display="none" fill="#ECEED7" width="1280" height="720"/>
<g>
	<g>
		<g>
			<g>
				<g>
					<path fill="#D2DEB2" d="M985.973,118.117c0-0.26-0.1-0.729-0.299-0.929L973.699,94H813.461l12.697,24.005L813.47,142h160.237
						l11.967-23.064C985.873,118.734,985.973,118.377,985.973,118.117z"/>
				</g>
			</g>
		</g>
	</g>
	<g>
		<g>
			<g>
				<g>
					<g>
						<g>
							<g>
								<g>
									<path fill="#D2DEB2" d="M236.639,118.117c0-0.26-0.1-0.729-0.299-0.929L224.365,94H64.128l12.697,24.005L64.136,142
										h160.237l11.967-23.064C236.539,118.734,236.639,118.377,236.639,118.117z"/>
								</g>
							</g>
						</g>
					</g>
				</g>
				<g>
					<g>
						<text transform="matrix(1 0 0 1 105.73 116.3672)" fill="#83A521" font-family="'Montserrat-Regular'" font-size="18.4191">INSIGHTS</text>
						<text transform="matrix(1 0 0 1 78.2393 134.7852)" fill="#83A521" font-family="'Montserrat-Regular'" font-size="18.4191">ESPONTÁNEOS</text>
					</g>
				</g>
			</g>
			<g>
				<g>
					<g>
						<g>
							<path fill="#EADFD4" d="M742.971,118.117c0-0.26-0.102-0.729-0.299-0.929L730.695,94H570.46l12.698,24.005L570.468,142
								h160.235l11.969-23.064C742.869,118.734,742.971,118.377,742.971,118.117z"/>
						</g>
					</g>
				</g>
				<g>
					<g>
						<g>
							<path fill="#D2DEB2" d="M742.971,118.117c0-0.26-0.102-0.729-0.299-0.929L730.695,94H570.46l12.698,24.005L570.468,142
								h160.235l11.969-23.064C742.869,118.734,742.971,118.377,742.971,118.117z"/>
						</g>
					</g>
				</g>
				<text transform="matrix(1 0 0 1 614.9824 116.3672)" fill="#83A521" font-family="'Montserrat-Regular'" font-size="18.4191">PUNTOS</text>
				<text transform="matrix(1 0 0 1 611.6943 134.7852)" fill="#83A521" font-family="'Montserrat-Regular'" font-size="18.4191">DE VISTA</text>
			</g>
			<g>
				<text transform="matrix(1 0 0 1 846.958 124.9141)" fill="#83A521" font-family="'Montserrat-Regular'" font-size="18.4191">PAINPOINTS</text>
			</g>
			<g>
				<g>
					<g>
						<g>
							<g>
								<path fill="#D2DEB2" d="M1229.252,118.117c0-0.26-0.1-0.729-0.299-0.929L1216.979,94h-160.234l12.697,24.005L1056.75,142
									h160.236l11.967-23.064C1229.152,118.734,1229.252,118.377,1229.252,118.117z"/>
							</g>
						</g>
					</g>
				</g>
				<text transform="matrix(1 0 0 1 1092.6299 125.9141)" fill="#83A521" font-family="'Montserrat-Regular'" font-size="18.4191">ME SIENTO</text>
			</g>
			<g>
				<g>
					<g>
						<g>
							<g>
								<path fill="#D2DEB2" d="M481.274,118.117c0-0.26-0.102-0.729-0.301-0.929L469,94H308.764l12.697,24.005L308.771,142h160.237
									l11.967-23.064C481.175,118.734,481.274,118.377,481.274,118.117z"/>
							</g>
						</g>
					</g>
				</g>
				<g>
					<g>
						<text transform="matrix(1 0 0 1 335.7324 117.5137)" fill="#83A521" font-family="'Montserrat-Regular'" font-size="18.4191">PREGUNTAS </text>
						<text transform="matrix(1 0 0 1 352.9722 135.9316)" fill="#83A521" font-family="'Montserrat-Regular'" font-size="18.4191">BÁSICAS</text>
					</g>
				</g>
			</g>
			<g>
				<g>
					<text transform="matrix(1 0 0 1 996.7266 104.5615)" fill="#83A521" font-family="'Montserrat-Regular'" font-size="11">PARADA</text>
					<text transform="matrix(1 0 0 1 999.834 140.5615)" fill="#83A521" font-family="'Montserrat-Regular'" font-size="11">LÚDICA</text>
					<g>
						<path fill="#83A521" d="M1029.238,111.824c-0.63-1.484-2.104-2.53-3.814-2.529l-9.492,0.003c-2.278,0-4.14,1.863-4.14,4.142
							l0.005,9.496c0.002,2.277,1.862,4.138,4.141,4.137l9.494-0.002c2.277,0,4.139-1.862,4.137-4.141l-0.001-9.499
							C1029.564,112.863,1029.447,112.317,1029.238,111.824z M1027.718,112.458c0.123,0.297,0.19,0.629,0.192,0.974l0.001,9.5
							c0.002,1.389-1.092,2.481-2.481,2.481l-9.494,0.005c-1.389-0.002-2.482-1.093-2.481-2.482l-0.002-9.498
							c-0.001-1.391,1.09-2.482,2.481-2.483l9.491-0.003C1026.467,110.949,1027.343,111.564,1027.718,112.458z"/>
						<circle fill="#83A521" cx="1023.273" cy="120.82" r="1.24"/>
						<circle fill="#83A521" cx="1018.073" cy="115.545" r="1.242"/>
						<path fill="#83A521" d="M1022.92,114.41c-0.653,0.211-1.011,0.911-0.8,1.562c0.213,0.654,0.912,1.01,1.565,0.797
							c0.65-0.211,1.01-0.91,0.797-1.564C1024.27,114.554,1023.571,114.198,1022.92,114.41z"/>
						<circle fill="#83A521" cx="1018.042" cy="120.78" r="1.242"/>
					</g>
				</g>
				<g>
					<text transform="matrix(1 0 0 1 739.2627 96.832)" fill="#83A521" font-family="'Montserrat-Regular'" font-size="16.5">PARADA</text>
					<text transform="matrix(1 0 0 1 743.9238 150.832)" fill="#83A521" font-family="'Montserrat-Regular'" font-size="16.5">LÚDICA</text>
					<path fill="#83A521" d="M766.284,105.903c-2.098,0.891-3.574,2.973-3.573,5.393l0.011,13.411
						c0.004,3.218,2.632,5.843,5.849,5.84l13.423-0.008c3.215-0.002,5.842-2.633,5.839-5.849l-0.009-13.414
						c-0.002-3.222-2.633-5.846-5.851-5.844l-13.418,0.009C767.75,105.441,766.979,105.608,766.284,105.903z M767.181,108.053
						c0.416-0.177,0.886-0.271,1.377-0.273l13.416-0.006c1.966-0.004,3.507,1.541,3.512,3.504l0.01,13.414
						c0,1.963-1.542,3.51-3.507,3.51l-13.421,0.006c-1.963,0.004-3.505-1.536-3.507-3.5l-0.01-13.414
						C765.051,109.819,765.915,108.581,767.181,108.053z M779.103,111.973c-0.895,0.371-1.319,1.396-0.949,2.29
						c0.372,0.896,1.4,1.318,2.293,0.948c0.895-0.372,1.318-1.398,0.947-2.293C781.024,112.024,779.998,111.602,779.103,111.973z
						 M774.6,116.372c-0.892,0.371-1.315,1.397-0.944,2.292c0.37,0.894,1.397,1.316,2.289,0.946l0,0
						c0.894-0.372,1.317-1.396,0.946-2.291l0,0C776.519,116.426,775.496,116.002,774.6,116.372z M770.099,120.77
						c-0.894,0.371-1.318,1.4-0.948,2.289c0.371,0.898,1.399,1.326,2.293,0.951c0.895-0.369,1.319-1.399,0.947-2.295
						C772.021,120.824,770.992,120.396,770.099,120.77z"/>
				</g>
				<g>
					<text transform="matrix(1 0 0 1 506.7876 104.5615)" fill="#83A521" font-family="'Montserrat-Regular'" font-size="11">CASOS</text>
					<text transform="matrix(1 0 0 1 493.9175 140.5615)" fill="#83A521" font-family="'Montserrat-Regular'" font-size="11">PRÁCTICOS</text>
					<g>
						<path fill="#83A521" d="M519.508,109.442c-1.483,0.629-2.53,2.102-2.529,3.814l0.004,9.493c0,2.278,1.862,4.14,4.142,4.14
							l9.495-0.006c2.278-0.002,4.137-1.861,4.137-4.14l-0.003-9.494c0-2.278-1.862-4.139-4.139-4.137l-9.499,0.001
							C520.547,109.115,520.001,109.232,519.508,109.442z M520.142,110.962c0.298-0.124,0.63-0.192,0.975-0.193l9.499-0.001
							c1.39-0.001,2.481,1.092,2.481,2.481l0.005,9.494c-0.003,1.389-1.094,2.483-2.483,2.481l-9.497,0.002
							c-1.39,0.002-2.482-1.09-2.483-2.48l-0.002-9.493C518.633,112.213,519.248,111.337,520.142,110.962z M527.814,114.058
							c-0.634,0.263-0.936,0.987-0.674,1.621c0.264,0.635,0.989,0.934,1.623,0.671c0.635-0.263,0.936-0.987,0.67-1.622
							C529.172,114.095,528.447,113.795,527.814,114.058z M522.968,119.646c-0.632,0.263-0.933,0.99-0.669,1.623
							s0.989,0.935,1.62,0.672c0.632-0.262,0.935-0.989,0.673-1.623C524.33,119.688,523.6,119.386,522.968,119.646z"/>
					</g>
				</g>
				<g>
					<text transform="matrix(1 0 0 1 248.7485 104.5615)" fill="#83A521" font-family="'Montserrat-Regular'" font-size="11">PARADA</text>
					<text transform="matrix(1 0 0 1 251.8555 140.5615)" fill="#83A521" font-family="'Montserrat-Regular'" font-size="11">LÚDICA</text>
					<path fill="#83A521" d="M267.207,110.609c-1.399,0.594-2.383,1.982-2.382,3.595l0.007,8.94
						c0.002,2.146,1.755,3.896,3.899,3.894l8.948-0.005c2.144-0.002,3.895-1.756,3.893-3.899l-0.006-8.943
						c-0.001-2.148-1.755-3.897-3.9-3.896l-8.947,0.006C268.185,110.301,267.67,110.412,267.207,110.609z M267.805,112.042
						c0.278-0.118,0.591-0.181,0.918-0.182l8.945-0.004c1.31-0.003,2.338,1.027,2.34,2.336l0.006,8.943
						c0.001,1.309-1.028,2.34-2.338,2.34l-8.947,0.004c-1.307,0.002-2.336-1.024-2.337-2.334l-0.007-8.942
						C266.386,113.22,266.961,112.394,267.805,112.042z M272.751,117.588c-0.595,0.247-0.877,0.932-0.63,1.528
						c0.247,0.596,0.931,0.878,1.527,0.631l0,0c0.596-0.248,0.878-0.931,0.631-1.527l0,0
						C274.031,117.624,273.349,117.342,272.751,117.588z"/>
				</g>
			</g>
		</g>
	</g>
</g>
<g>
	<g>
		<g>
			<g>
				<text transform="matrix(1 0 0 1 32.9302 29.2344)" fill="#83A521" font-family="'Montserrat-Regular'" font-size="18.4191">PROBLEMÁTICA INICIAL</text>
			</g>
		</g>
	</g>
</g>
<path fill="#D2DEB2" d="M1281,96.102c-6-1.671-14.219-2.523-22.672-2.523h-26.033l12.342,22.865
	c0.201,0.203,0.305,0.228,0.305,0.491s-0.104,0.816-0.305,1.02l-12.334,23.624h26.025c7.736,0,15.364,8.267,15.039,22.747
	c-0.324,14.418-8.636,22.16-15.039,22.255H1066.15v0.532c-13.704,0-24.814,11.109-24.814,24.813
	c0,13.705,11.11,24.815,24.814,24.815c2.623,0,5.148-0.41,7.521-1.164h184.656c8.453,0,16.672-0.854,22.672,17.479V116.103V96.102z"
	/>
<g>
	<g>
		<text transform="matrix(1 0 0 1 1075.8721 218.167)" fill="#83A521" font-family="'Montserrat-Regular'" font-size="18.4191">RETOS CONCRETOS</text>
	</g>
</g>
</svg>
