<?xml version="1.0" encoding="utf-8"?>
<!-- Generator: Adobe Illustrator 15.0.2, SVG Export Plug-In . SVG Version: 6.00 Build 0)  -->
<!DOCTYPE svg PUBLIC "-//W3C//DTD SVG 1.1//EN" "http://www.w3.org/Graphics/SVG/1.1/DTD/svg11.dtd">
<svg version="1.1" id="Capa_1" xmlns="http://www.w3.org/2000/svg" xmlns:xlink="http://www.w3.org/1999/xlink" x="0px" y="0px"
	 width="1281px" height="236px" viewBox="0 0 1281 236" enable-background="new 0 0 1281 236" xml:space="preserve">
<g>
	<g>
		<g>
			<g>
				<g>
					<path fill="#D2DEB2" d="M985.973,118.117c0-0.26-0.1-0.729-0.299-0.929L973.698,94H813.461l12.696,24.005L813.47,142h160.237
						l11.967-23.064C985.873,118.734,985.973,118.377,985.973,118.117z"/>
				</g>
			</g>
		</g>
	</g>
	<g>
		<g>
			<g>
				<g>
					<g>
						<g>
							<g>
								<path fill="#D2DEB2" d="M236.639,118.117c0-0.26-0.1-0.729-0.299-0.929L224.365,94H64.128l12.697,24.005L64.136,142h160.237
									l11.967-23.064C236.539,118.734,236.639,118.377,236.639,118.117z"/>
							</g>
						</g>
					</g>
				</g>
				<g>
					<g enable-background="new    ">
						<path fill="#83A521" d="M107.572,103.474h1.769v12.894h-1.769V103.474z"/>
						<path fill="#83A521" d="M122.196,103.474h1.75v12.894h-1.787l-7.367-9.983v9.983h-1.769v-12.894h1.787l7.386,10.002V103.474z"
							/>
						<path fill="#83A521" d="M133.312,105.307c-0.645-0.19-1.237-0.285-1.777-0.285c-0.75,0-1.348,0.144-1.796,0.433
							c-0.449,0.288-0.672,0.685-0.672,1.188c0,0.455,0.135,0.826,0.405,1.114c0.27,0.289,0.602,0.517,0.995,0.682
							c0.393,0.166,0.939,0.359,1.639,0.58c0.872,0.271,1.578,0.528,2.118,0.774c0.54,0.245,1,0.61,1.381,1.096
							c0.38,0.485,0.571,1.127,0.571,1.925c0,0.736-0.2,1.381-0.599,1.934c-0.399,0.553-0.958,0.979-1.676,1.28
							s-1.544,0.451-2.478,0.451c-0.945,0-1.867-0.184-2.763-0.553c-0.896-0.368-1.67-0.859-2.321-1.474l0.792-1.528
							c0.614,0.602,1.305,1.065,2.072,1.391c0.767,0.325,1.513,0.488,2.238,0.488c0.859,0,1.538-0.169,2.035-0.507
							c0.498-0.338,0.746-0.795,0.746-1.372c0-0.454-0.135-0.829-0.405-1.124c-0.27-0.294-0.611-0.527-1.022-0.699
							c-0.412-0.172-0.967-0.362-1.667-0.571c-0.86-0.258-1.56-0.51-2.1-0.755c-0.541-0.246-0.998-0.608-1.372-1.087
							s-0.562-1.111-0.562-1.897c0-0.688,0.19-1.295,0.571-1.823c0.38-0.528,0.915-0.933,1.603-1.216
							c0.688-0.282,1.485-0.424,2.395-0.424c0.773,0,1.532,0.114,2.274,0.341c0.743,0.228,1.403,0.531,1.98,0.912l-0.737,1.584
							C134.58,105.782,133.957,105.497,133.312,105.307z"/>
						<path fill="#83A521" d="M138.994,103.474h1.769v12.894h-1.769V103.474z"/>
						<path fill="#83A521" d="M153.361,110.067h1.565v4.734c-0.651,0.516-1.412,0.927-2.284,1.233
							c-0.872,0.308-1.738,0.461-2.597,0.461c-1.241,0-2.376-0.292-3.408-0.875c-1.031-0.583-1.845-1.381-2.44-2.395
							c-0.596-1.013-0.894-2.121-0.894-3.324s0.301-2.306,0.903-3.307c0.602-1.001,1.424-1.789,2.468-2.367
							c1.043-0.576,2.198-0.865,3.462-0.865c0.896,0,1.771,0.16,2.625,0.479c0.853,0.32,1.593,0.756,2.219,1.309l-1.013,1.289
							c-0.516-0.479-1.108-0.851-1.778-1.114c-0.669-0.265-1.354-0.396-2.054-0.396c-0.921,0-1.768,0.222-2.542,0.663
							c-0.774,0.442-1.385,1.044-1.833,1.806c-0.448,0.761-0.672,1.596-0.672,2.505c0,0.908,0.227,1.747,0.681,2.514
							c0.454,0.768,1.068,1.376,1.842,1.824c0.774,0.448,1.621,0.672,2.542,0.672c0.54,0,1.09-0.089,1.648-0.268
							c0.559-0.178,1.078-0.426,1.557-0.745V110.067z"/>
						<path fill="#83A521" d="M158.279,103.474h1.769v5.747h7.367v-5.747h1.787v12.894h-1.787v-5.544h-7.367v5.544h-1.769V103.474z"
							/>
						<path fill="#83A521" d="M171.227,103.474h10.075v1.621h-4.163v11.272h-1.768v-11.272h-4.145V103.474z"/>
						<path fill="#83A521" d="M188.992,105.307c-0.645-0.19-1.237-0.285-1.777-0.285c-0.75,0-1.348,0.144-1.796,0.433
							c-0.449,0.288-0.672,0.685-0.672,1.188c0,0.455,0.135,0.826,0.405,1.114c0.27,0.289,0.602,0.517,0.995,0.682
							c0.393,0.166,0.939,0.359,1.639,0.58c0.872,0.271,1.578,0.528,2.118,0.774c0.54,0.245,1,0.61,1.381,1.096
							c0.38,0.485,0.571,1.127,0.571,1.925c0,0.736-0.2,1.381-0.599,1.934c-0.399,0.553-0.958,0.979-1.676,1.28
							s-1.544,0.451-2.478,0.451c-0.945,0-1.867-0.184-2.763-0.553c-0.896-0.368-1.67-0.859-2.321-1.474l0.792-1.528
							c0.614,0.602,1.305,1.065,2.072,1.391c0.767,0.325,1.513,0.488,2.238,0.488c0.859,0,1.538-0.169,2.035-0.507
							c0.498-0.338,0.746-0.795,0.746-1.372c0-0.454-0.135-0.829-0.405-1.124c-0.27-0.294-0.611-0.527-1.022-0.699
							c-0.412-0.172-0.967-0.362-1.667-0.571c-0.86-0.258-1.56-0.51-2.1-0.755c-0.541-0.246-0.998-0.608-1.372-1.087
							s-0.562-1.111-0.562-1.897c0-0.688,0.19-1.295,0.571-1.823c0.38-0.528,0.915-0.933,1.603-1.216
							c0.688-0.282,1.485-0.424,2.395-0.424c0.773,0,1.532,0.114,2.274,0.341c0.743,0.228,1.403,0.531,1.98,0.912l-0.737,1.584
							C190.26,105.782,189.637,105.497,188.992,105.307z"/>
					</g>
					<g enable-background="new    ">
						<path fill="#83A521" d="M80.081,121.893h8.952v1.603h-7.183v3.979h6.428v1.603h-6.428v4.107h7.404v1.603h-9.173V121.893z"/>
						<path fill="#83A521" d="M97.773,123.726c-0.645-0.19-1.237-0.285-1.777-0.285c-0.75,0-1.348,0.144-1.796,0.433
							c-0.449,0.288-0.672,0.685-0.672,1.188c0,0.455,0.135,0.826,0.405,1.114c0.27,0.289,0.602,0.517,0.995,0.682
							c0.393,0.166,0.939,0.359,1.639,0.58c0.872,0.271,1.578,0.528,2.118,0.774c0.54,0.245,1,0.61,1.381,1.096
							c0.38,0.485,0.571,1.127,0.571,1.925c0,0.736-0.2,1.381-0.599,1.934c-0.399,0.553-0.958,0.979-1.676,1.28
							s-1.544,0.451-2.478,0.451c-0.945,0-1.867-0.184-2.763-0.553c-0.896-0.368-1.67-0.859-2.321-1.474l0.792-1.528
							c0.614,0.602,1.305,1.065,2.072,1.391c0.767,0.325,1.513,0.488,2.238,0.488c0.859,0,1.538-0.169,2.035-0.507
							c0.498-0.338,0.746-0.795,0.746-1.372c0-0.454-0.135-0.829-0.405-1.124c-0.27-0.294-0.611-0.527-1.022-0.699
							c-0.412-0.172-0.967-0.362-1.667-0.571c-0.86-0.258-1.56-0.51-2.1-0.755c-0.541-0.246-0.998-0.608-1.372-1.087
							s-0.562-1.111-0.562-1.897c0-0.688,0.19-1.295,0.571-1.823c0.38-0.528,0.915-0.933,1.603-1.216
							c0.688-0.282,1.485-0.424,2.395-0.424c0.773,0,1.532,0.114,2.274,0.341c0.743,0.228,1.403,0.531,1.98,0.912l-0.737,1.584
							C99.04,124.201,98.417,123.916,97.773,123.726z"/>
						<path fill="#83A521" d="M112.157,123.035c0.878,0.761,1.317,1.829,1.317,3.204c0,1.438-0.442,2.552-1.326,3.344
							s-2.125,1.188-3.721,1.188h-3.205v4.016h-1.769v-12.894h4.973C110.036,121.893,111.28,122.273,112.157,123.035z
							 M110.896,128.44c0.589-0.484,0.884-1.2,0.884-2.146c0-0.921-0.295-1.618-0.884-2.091s-1.437-0.709-2.542-0.709l-3.131,0.019
							v5.654h3.131C109.459,129.168,110.306,128.926,110.896,128.44z"/>
						<path fill="#83A521" d="M124.867,122.647c1.038,0.578,1.857,1.366,2.459,2.367c0.602,1.001,0.902,2.104,0.902,3.307
							s-0.301,2.312-0.902,3.324c-0.602,1.014-1.421,1.812-2.459,2.395c-1.038,0.583-2.177,0.875-3.417,0.875
							s-2.379-0.292-3.417-0.875c-1.038-0.583-1.857-1.381-2.459-2.395c-0.602-1.013-0.903-2.121-0.903-3.324
							s0.301-2.306,0.903-3.307c0.602-1.001,1.418-1.789,2.45-2.367c1.031-0.576,2.173-0.865,3.426-0.865
							C122.69,121.782,123.829,122.071,124.867,122.647z M118.973,124.029c-0.768,0.442-1.379,1.041-1.833,1.796
							s-0.681,1.587-0.681,2.496c0,0.908,0.227,1.743,0.681,2.505s1.065,1.366,1.833,1.814c0.767,0.448,1.599,0.672,2.496,0.672
							c0.896,0,1.722-0.224,2.478-0.672c0.755-0.448,1.356-1.053,1.805-1.814s0.672-1.597,0.672-2.505
							c0-0.909-0.224-1.741-0.672-2.496s-1.05-1.354-1.805-1.796c-0.755-0.442-1.582-0.663-2.478-0.663
							C120.572,123.366,119.74,123.587,118.973,124.029z"/>
						<path fill="#83A521" d="M139.943,121.893h1.75v12.894h-1.787l-7.367-9.983v9.983h-1.769v-12.894h1.787l7.386,10.002V121.893z"
							/>
						<path fill="#83A521" d="M143.737,121.893h10.075v1.621h-4.163v11.272h-1.768v-11.272h-4.145V121.893z"/>
						<path fill="#83A521" d="M164.182,134.786l-1.363-3.131h-6.796l-1.345,3.131h-1.86l5.729-12.894h1.842l5.71,12.894H164.182z
							 M156.722,130.053h5.416l-2.726-6.263L156.722,130.053z M160.461,118.172l1.768,0.773l-2.284,1.806l-1.455-0.185
							L160.461,118.172z"/>
						<path fill="#83A521" d="M177.149,121.893h1.75v12.894h-1.787l-7.367-9.983v9.983h-1.769v-12.894h1.787l7.386,10.002V121.893z"
							/>
						<path fill="#83A521" d="M182.601,121.893h8.952v1.603h-7.183v3.979h6.428v1.603h-6.428v4.107h7.404v1.603h-9.173V121.893z"/>
						<path fill="#83A521" d="M203.682,122.647c1.038,0.578,1.857,1.366,2.459,2.367c0.602,1.001,0.902,2.104,0.902,3.307
							s-0.301,2.312-0.902,3.324c-0.602,1.014-1.421,1.812-2.459,2.395c-1.038,0.583-2.177,0.875-3.417,0.875
							s-2.379-0.292-3.417-0.875c-1.038-0.583-1.857-1.381-2.459-2.395c-0.602-1.013-0.903-2.121-0.903-3.324
							s0.301-2.306,0.903-3.307c0.602-1.001,1.418-1.789,2.45-2.367c1.031-0.576,2.173-0.865,3.426-0.865
							C201.505,121.782,202.644,122.071,203.682,122.647z M197.788,124.029c-0.768,0.442-1.379,1.041-1.833,1.796
							s-0.681,1.587-0.681,2.496c0,0.908,0.227,1.743,0.681,2.505s1.065,1.366,1.833,1.814c0.767,0.448,1.599,0.672,2.496,0.672
							c0.896,0,1.722-0.224,2.478-0.672c0.755-0.448,1.356-1.053,1.805-1.814s0.672-1.597,0.672-2.505
							c0-0.909-0.224-1.741-0.672-2.496s-1.05-1.354-1.805-1.796c-0.755-0.442-1.582-0.663-2.478-0.663
							C199.387,123.366,198.555,123.587,197.788,124.029z"/>
						<path fill="#83A521" d="M215.249,123.726c-0.645-0.19-1.237-0.285-1.777-0.285c-0.75,0-1.348,0.144-1.796,0.433
							c-0.449,0.288-0.672,0.685-0.672,1.188c0,0.455,0.135,0.826,0.405,1.114c0.27,0.289,0.602,0.517,0.995,0.682
							c0.393,0.166,0.939,0.359,1.639,0.58c0.872,0.271,1.578,0.528,2.118,0.774c0.54,0.245,1,0.61,1.381,1.096
							c0.38,0.485,0.571,1.127,0.571,1.925c0,0.736-0.2,1.381-0.599,1.934c-0.399,0.553-0.958,0.979-1.676,1.28
							s-1.544,0.451-2.478,0.451c-0.945,0-1.867-0.184-2.763-0.553c-0.896-0.368-1.67-0.859-2.321-1.474l0.792-1.528
							c0.614,0.602,1.305,1.065,2.072,1.391c0.767,0.325,1.513,0.488,2.238,0.488c0.859,0,1.538-0.169,2.035-0.507
							c0.498-0.338,0.746-0.795,0.746-1.372c0-0.454-0.135-0.829-0.405-1.124c-0.27-0.294-0.611-0.527-1.022-0.699
							c-0.412-0.172-0.967-0.362-1.667-0.571c-0.86-0.258-1.56-0.51-2.1-0.755c-0.541-0.246-0.998-0.608-1.372-1.087
							s-0.562-1.111-0.562-1.897c0-0.688,0.19-1.295,0.571-1.823c0.38-0.528,0.915-0.933,1.603-1.216
							c0.688-0.282,1.485-0.424,2.395-0.424c0.773,0,1.532,0.114,2.274,0.341c0.743,0.228,1.403,0.531,1.98,0.912l-0.737,1.584
							C216.516,124.201,215.893,123.916,215.249,123.726z"/>
					</g>
				</g>
			</g>
			<g>
				<g>
					<g>
						<g>
							<path fill="#EADFD4" d="M742.971,118.117c0-0.26-0.103-0.729-0.299-0.929L730.695,94H570.46l12.697,24.005L570.468,142
								h160.234l11.97-23.064C742.868,118.734,742.971,118.377,742.971,118.117z"/>
						</g>
					</g>
				</g>
				<g>
					<g>
						<g>
							<path fill="#D2DEB2" d="M742.971,118.117c0-0.26-0.103-0.729-0.299-0.929L730.695,94H570.46l12.697,24.005L570.468,142
								h160.234l11.97-23.064C742.868,118.734,742.971,118.377,742.971,118.117z"/>
						</g>
					</g>
				</g>
				<g enable-background="new    ">
					<path fill="#83A521" d="M625.527,104.616c0.878,0.761,1.317,1.829,1.317,3.204c0,1.438-0.442,2.552-1.326,3.344
						s-2.125,1.188-3.721,1.188h-3.205v4.016h-1.769v-12.894h4.973C623.406,103.474,624.649,103.854,625.527,104.616z
						 M624.265,110.021c0.589-0.484,0.884-1.2,0.884-2.146c0-0.921-0.295-1.618-0.884-2.091s-1.437-0.709-2.542-0.709l-3.131,0.019
						v5.654h3.131C622.829,110.749,623.676,110.507,624.265,110.021z"/>
					<path fill="#83A521" d="M631.66,113.89c0.657,0.67,1.562,1.004,2.717,1.004c1.142,0,2.038-0.334,2.689-1.004
						c0.651-0.669,0.977-1.6,0.977-2.79v-7.626h1.768v7.626c0,1.683-0.482,3.002-1.446,3.96c-0.964,0.958-2.293,1.437-3.988,1.437
						c-1.707,0-3.045-0.479-4.016-1.437c-0.97-0.958-1.455-2.277-1.455-3.96v-7.626h1.769v7.626
						C630.675,112.29,631.003,113.221,631.66,113.89z"/>
					<path fill="#83A521" d="M652.391,103.474h1.75v12.894h-1.787l-7.367-9.983v9.983h-1.769v-12.894h1.786l7.387,10.002V103.474z"
						/>
					<path fill="#83A521" d="M656.186,103.474h10.074v1.621h-4.162v11.272h-1.768v-11.272h-4.145V103.474z"/>
					<path fill="#83A521" d="M676.53,104.229c1.037,0.578,1.856,1.366,2.459,2.367c0.602,1.001,0.902,2.104,0.902,3.307
						s-0.301,2.312-0.902,3.324c-0.603,1.014-1.422,1.812-2.459,2.395c-1.039,0.583-2.178,0.875-3.418,0.875
						s-2.379-0.292-3.416-0.875c-1.038-0.583-1.857-1.381-2.459-2.395c-0.602-1.013-0.902-2.121-0.902-3.324
						s0.301-2.306,0.902-3.307s1.418-1.789,2.449-2.367c1.031-0.576,2.174-0.865,3.426-0.865
						C674.352,103.363,675.49,103.652,676.53,104.229z M670.635,105.61c-0.768,0.442-1.379,1.041-1.833,1.796
						s-0.681,1.587-0.681,2.496c0,0.908,0.227,1.743,0.681,2.505s1.065,1.366,1.833,1.814s1.6,0.672,2.496,0.672
						c0.896,0,1.722-0.224,2.477-0.672c0.756-0.448,1.357-1.053,1.805-1.814c0.449-0.762,0.673-1.597,0.673-2.505
						c0-0.909-0.224-1.741-0.673-2.496c-0.447-0.755-1.049-1.354-1.805-1.796c-0.755-0.442-1.581-0.663-2.477-0.663
						C672.235,104.947,671.403,105.168,670.635,105.61z"/>
					<path fill="#83A521" d="M688.096,105.307c-0.645-0.19-1.237-0.285-1.777-0.285c-0.75,0-1.348,0.144-1.796,0.433
						c-0.448,0.288-0.673,0.685-0.673,1.188c0,0.455,0.135,0.826,0.406,1.114c0.27,0.289,0.602,0.517,0.994,0.682
						c0.393,0.166,0.939,0.359,1.639,0.58c0.872,0.271,1.578,0.528,2.119,0.774c0.539,0.245,1,0.61,1.381,1.096
						s0.571,1.127,0.571,1.925c0,0.736-0.2,1.381-0.599,1.934c-0.399,0.553-0.958,0.979-1.676,1.28
						c-0.719,0.301-1.545,0.451-2.479,0.451c-0.945,0-1.866-0.184-2.762-0.553c-0.896-0.368-1.67-0.859-2.321-1.474l0.792-1.528
						c0.613,0.602,1.305,1.065,2.072,1.391s1.514,0.488,2.238,0.488c0.859,0,1.537-0.169,2.035-0.507
						c0.497-0.338,0.746-0.795,0.746-1.372c0-0.454-0.136-0.829-0.406-1.124c-0.27-0.294-0.61-0.527-1.021-0.699
						c-0.412-0.172-0.967-0.362-1.667-0.571c-0.86-0.258-1.56-0.51-2.101-0.755c-0.54-0.246-0.997-0.608-1.371-1.087
						c-0.375-0.479-0.562-1.111-0.562-1.897c0-0.688,0.19-1.295,0.571-1.823c0.38-0.528,0.915-0.933,1.603-1.216
						c0.688-0.282,1.485-0.424,2.395-0.424c0.773,0,1.531,0.114,2.274,0.341c0.743,0.228,1.403,0.531,1.98,0.912l-0.737,1.584
						C689.364,105.782,688.74,105.497,688.096,105.307z"/>
				</g>
				<g enable-background="new    ">
					<path fill="#83A521" d="M622.184,122.73c1.013,0.56,1.808,1.33,2.385,2.312c0.577,0.983,0.866,2.082,0.866,3.298
						c0,1.215-0.292,2.314-0.875,3.297c-0.583,0.982-1.385,1.753-2.404,2.312s-2.161,0.838-3.426,0.838h-5.194v-12.894h5.25
						C620.038,121.893,621.171,122.172,622.184,122.73z M621.263,132.558c0.73-0.418,1.308-0.995,1.731-1.731
						c0.423-0.737,0.635-1.56,0.635-2.469c0-0.921-0.215-1.749-0.645-2.486c-0.43-0.736-1.016-1.316-1.759-1.74
						s-1.569-0.636-2.477-0.636h-3.444v9.688h3.518C619.719,133.184,620.532,132.975,621.263,132.558z"/>
					<path fill="#83A521" d="M627.958,121.893h8.952v1.603h-7.183v3.979h6.428v1.603h-6.428v4.107h7.404v1.603h-9.173V121.893z"/>
					<path fill="#83A521" d="M643.062,121.893h1.897l4.254,10.923l4.256-10.923h1.859l-5.23,12.894h-1.842L643.062,121.893z"/>
					<path fill="#83A521" d="M657.262,121.893h1.77v12.894h-1.77V121.893z"/>
					<path fill="#83A521" d="M668.378,123.726c-0.645-0.19-1.237-0.285-1.777-0.285c-0.749,0-1.349,0.144-1.796,0.433
						c-0.449,0.288-0.672,0.685-0.672,1.188c0,0.455,0.135,0.826,0.404,1.114c0.271,0.289,0.602,0.517,0.995,0.682
						c0.393,0.166,0.939,0.359,1.64,0.58c0.871,0.271,1.577,0.528,2.117,0.774c0.541,0.245,1.001,0.61,1.382,1.096
						c0.38,0.485,0.571,1.127,0.571,1.925c0,0.736-0.199,1.381-0.599,1.934s-0.958,0.979-1.677,1.28
						c-0.718,0.301-1.544,0.451-2.477,0.451c-0.945,0-1.867-0.184-2.764-0.553c-0.896-0.368-1.67-0.859-2.32-1.474l0.792-1.528
						c0.614,0.602,1.305,1.065,2.072,1.391c0.767,0.325,1.513,0.488,2.237,0.488c0.859,0,1.539-0.169,2.035-0.507
						c0.498-0.338,0.746-0.795,0.746-1.372c0-0.454-0.135-0.829-0.404-1.124c-0.271-0.294-0.611-0.527-1.022-0.699
						s-0.968-0.362-1.667-0.571c-0.859-0.258-1.56-0.51-2.1-0.755c-0.541-0.246-0.998-0.608-1.373-1.087
						c-0.374-0.479-0.561-1.111-0.561-1.897c0-0.688,0.189-1.295,0.57-1.823s0.914-0.933,1.603-1.216
						c0.688-0.282,1.485-0.424,2.395-0.424c0.773,0,1.532,0.114,2.274,0.341c0.743,0.228,1.402,0.531,1.98,0.912l-0.736,1.584
						C669.646,124.201,669.023,123.916,668.378,123.726z"/>
					<path fill="#83A521" d="M672.403,121.893h10.075v1.621h-4.163v11.272h-1.768v-11.272h-4.145V121.893z"/>
					<path fill="#83A521" d="M692.848,134.786l-1.363-3.131h-6.797l-1.344,3.131h-1.861l5.729-12.894h1.842l5.711,12.894H692.848z
						 M685.388,130.053h5.415l-2.726-6.263L685.388,130.053z"/>
				</g>
			</g>
			<g>
				<g enable-background="new    ">
					<path fill="#83A521" d="M857.502,113.164c0.879,0.761,1.317,1.829,1.317,3.204c0,1.438-0.442,2.552-1.326,3.344
						s-2.124,1.188-3.721,1.188h-3.204v4.016h-1.77v-12.894h4.974C855.381,112.021,856.625,112.402,857.502,113.164z
						 M856.24,118.569c0.59-0.484,0.885-1.2,0.885-2.146c0-0.921-0.295-1.618-0.885-2.091c-0.589-0.473-1.436-0.709-2.541-0.709
						l-3.131,0.019v5.654h3.131C854.805,119.297,855.652,119.055,856.24,118.569z"/>
					<path fill="#83A521" d="M869.982,124.915l-1.363-3.131h-6.796l-1.346,3.131h-1.859l5.729-12.894h1.842l5.709,12.894H869.982z
						 M862.522,120.182h5.416l-2.727-6.263L862.522,120.182z"/>
					<path fill="#83A521" d="M873.776,112.021h1.77v12.894h-1.77V112.021z"/>
					<path fill="#83A521" d="M888.401,112.021h1.75v12.894h-1.787l-7.367-9.983v9.983h-1.769v-12.894h1.786l7.387,10.002V112.021z"
						/>
					<path fill="#83A521" d="M902.555,113.164c0.879,0.761,1.317,1.829,1.317,3.204c0,1.438-0.442,2.552-1.326,3.344
						s-2.124,1.188-3.721,1.188h-3.204v4.016h-1.77v-12.894h4.974C900.434,112.021,901.678,112.402,902.555,113.164z
						 M901.293,118.569c0.59-0.484,0.885-1.2,0.885-2.146c0-0.921-0.295-1.618-0.885-2.091c-0.589-0.473-1.436-0.709-2.541-0.709
						l-3.131,0.019v5.654h3.131C899.858,119.297,900.704,119.055,901.293,118.569z"/>
					<path fill="#83A521" d="M915.264,112.776c1.038,0.578,1.857,1.366,2.459,2.367s0.902,2.104,0.902,3.307
						s-0.301,2.312-0.902,3.324c-0.602,1.014-1.421,1.812-2.459,2.395c-1.037,0.583-2.176,0.875-3.416,0.875
						s-2.379-0.292-3.417-0.875s-1.857-1.381-2.459-2.395c-0.603-1.013-0.903-2.121-0.903-3.324s0.301-2.306,0.903-3.307
						c0.602-1.001,1.418-1.789,2.45-2.367c1.031-0.576,2.173-0.865,3.426-0.865C913.088,111.911,914.227,112.2,915.264,112.776z
						 M909.37,114.158c-0.768,0.442-1.379,1.041-1.833,1.796s-0.682,1.587-0.682,2.496c0,0.908,0.228,1.743,0.682,2.505
						s1.065,1.366,1.833,1.814c0.767,0.448,1.599,0.672,2.495,0.672s1.723-0.224,2.479-0.672c0.754-0.448,1.355-1.053,1.805-1.814
						c0.447-0.762,0.672-1.597,0.672-2.505c0-0.909-0.225-1.741-0.672-2.496c-0.449-0.755-1.051-1.354-1.805-1.796
						c-0.756-0.442-1.582-0.663-2.479-0.663S910.137,113.716,909.37,114.158z"/>
					<path fill="#83A521" d="M921.168,112.021h1.768v12.894h-1.768V112.021z"/>
					<path fill="#83A521" d="M935.792,112.021h1.75v12.894h-1.787l-7.367-9.983v9.983h-1.769v-12.894h1.787l7.386,10.002V112.021z"
						/>
					<path fill="#83A521" d="M939.586,112.021h10.075v1.621h-4.163v11.272h-1.768v-11.272h-4.145V112.021z"/>
					<path fill="#83A521" d="M957.352,113.854c-0.645-0.19-1.238-0.285-1.777-0.285c-0.75,0-1.349,0.144-1.797,0.433
						c-0.448,0.288-0.672,0.685-0.672,1.188c0,0.455,0.135,0.826,0.405,1.114c0.271,0.289,0.602,0.517,0.995,0.682
						c0.393,0.166,0.939,0.359,1.639,0.58c0.871,0.271,1.578,0.528,2.118,0.774c0.54,0.245,1.001,0.61,1.382,1.096
						c0.38,0.485,0.57,1.127,0.57,1.925c0,0.736-0.199,1.381-0.598,1.934c-0.4,0.553-0.959,0.979-1.677,1.28
						s-1.544,0.451-2.478,0.451c-0.945,0-1.867-0.184-2.763-0.553c-0.896-0.368-1.67-0.859-2.321-1.474l0.793-1.528
						c0.613,0.602,1.305,1.065,2.072,1.391c0.767,0.325,1.513,0.488,2.237,0.488c0.859,0,1.538-0.169,2.035-0.507
						s0.746-0.795,0.746-1.372c0-0.454-0.136-0.829-0.405-1.124c-0.27-0.294-0.611-0.527-1.021-0.699
						c-0.412-0.172-0.968-0.362-1.668-0.571c-0.859-0.258-1.559-0.51-2.1-0.755c-0.541-0.246-0.998-0.608-1.372-1.087
						s-0.562-1.111-0.562-1.897c0-0.688,0.189-1.295,0.57-1.823s0.915-0.933,1.604-1.216c0.688-0.282,1.484-0.424,2.395-0.424
						c0.773,0,1.531,0.114,2.273,0.341c0.744,0.228,1.403,0.531,1.98,0.912l-0.736,1.584
						C958.619,114.33,957.996,114.045,957.352,113.854z"/>
				</g>
			</g>
			<g>
				<g>
					<g>
						<g>
							<g>
								<path fill="#D2DEB2" d="M1229.252,118.117c0-0.26-0.101-0.729-0.3-0.929L1216.979,94h-160.235l12.697,24.005L1056.75,142
									h160.235l11.967-23.064C1229.152,118.734,1229.252,118.377,1229.252,118.117z"/>
							</g>
						</g>
					</g>
				</g>
				<g enable-background="new    ">
					<path fill="#83A521" d="M1094.471,113.021h2.101l4.715,9.062l4.679-9.062h2.118v12.894h-1.657l-0.02-10.296l-4.586,8.933
						h-1.086l-4.623-8.933v10.296h-1.641V113.021z"/>
					<path fill="#83A521" d="M1111.767,113.021h8.952v1.603h-7.184v3.979h6.428v1.603h-6.428v4.107h7.404v1.603h-9.173V113.021z"/>
					<path fill="#83A521" d="M1134.284,114.854c-0.645-0.19-1.237-0.285-1.777-0.285c-0.749,0-1.349,0.144-1.796,0.433
						c-0.449,0.288-0.672,0.685-0.672,1.188c0,0.455,0.135,0.826,0.404,1.114c0.271,0.289,0.602,0.517,0.995,0.682
						c0.393,0.166,0.939,0.359,1.64,0.58c0.871,0.271,1.577,0.528,2.117,0.774c0.541,0.245,1.001,0.61,1.382,1.096
						c0.38,0.485,0.571,1.127,0.571,1.925c0,0.736-0.199,1.381-0.599,1.934s-0.958,0.979-1.677,1.28
						c-0.718,0.301-1.544,0.451-2.477,0.451c-0.945,0-1.867-0.184-2.764-0.553c-0.896-0.368-1.67-0.859-2.32-1.474l0.792-1.528
						c0.614,0.602,1.305,1.065,2.072,1.391c0.767,0.325,1.513,0.488,2.237,0.488c0.859,0,1.539-0.169,2.035-0.507
						c0.498-0.338,0.746-0.795,0.746-1.372c0-0.454-0.135-0.829-0.404-1.124c-0.271-0.294-0.611-0.527-1.022-0.699
						s-0.968-0.362-1.667-0.571c-0.859-0.258-1.56-0.51-2.1-0.755c-0.541-0.246-0.998-0.608-1.373-1.087
						c-0.374-0.479-0.561-1.111-0.561-1.897c0-0.688,0.189-1.295,0.57-1.823s0.914-0.933,1.603-1.216
						c0.688-0.282,1.485-0.424,2.395-0.424c0.773,0,1.532,0.114,2.274,0.341c0.743,0.228,1.402,0.531,1.98,0.912l-0.736,1.584
						C1135.552,115.33,1134.929,115.045,1134.284,114.854z"/>
					<path fill="#83A521" d="M1139.967,113.021h1.768v12.894h-1.768V113.021z"/>
					<path fill="#83A521" d="M1145.418,113.021h8.951v1.603h-7.183v3.979h6.429v1.603h-6.429v4.107h7.404v1.603h-9.173V113.021z"/>
					<path fill="#83A521" d="M1166.619,113.021h1.75v12.894h-1.787l-7.367-9.983v9.983h-1.77v-12.894h1.787l7.387,10.002V113.021z"
						/>
					<path fill="#83A521" d="M1170.412,113.021h10.076v1.621h-4.163v11.272h-1.769v-11.272h-4.145V113.021z"/>
					<path fill="#83A521" d="M1190.756,113.776c1.038,0.578,1.857,1.366,2.459,2.367s0.902,2.104,0.902,3.307
						s-0.301,2.312-0.902,3.324c-0.602,1.014-1.421,1.812-2.459,2.395c-1.037,0.583-2.176,0.875-3.416,0.875
						s-2.379-0.292-3.417-0.875s-1.857-1.381-2.459-2.395c-0.603-1.013-0.903-2.121-0.903-3.324s0.301-2.306,0.903-3.307
						c0.602-1.001,1.418-1.789,2.45-2.367c1.031-0.576,2.173-0.865,3.426-0.865C1188.58,112.911,1189.719,113.2,1190.756,113.776z
						 M1184.863,115.158c-0.768,0.442-1.379,1.041-1.833,1.796s-0.682,1.587-0.682,2.496c0,0.908,0.228,1.743,0.682,2.505
						s1.065,1.366,1.833,1.814c0.767,0.448,1.599,0.672,2.495,0.672s1.723-0.224,2.479-0.672c0.754-0.448,1.355-1.053,1.805-1.814
						c0.447-0.762,0.672-1.597,0.672-2.505c0-0.909-0.225-1.741-0.672-2.496c-0.449-0.755-1.051-1.354-1.805-1.796
						c-0.756-0.442-1.582-0.663-2.479-0.663S1185.629,114.716,1184.863,115.158z"/>
				</g>
			</g>
			<g>
				<g>
					<g>
						<g>
							<g>
								<path fill="#D2DEB2" d="M481.274,118.117c0-0.26-0.101-0.729-0.3-0.929L469,94H308.764l12.697,24.005L308.771,142h160.237
									l11.967-23.064C481.175,118.734,481.274,118.377,481.274,118.117z"/>
							</g>
						</g>
					</g>
				</g>
				<g>
					<g enable-background="new    ">
						<path fill="#83A521" d="M346.277,105.763c0.878,0.761,1.317,1.829,1.317,3.204c0,1.438-0.442,2.552-1.326,3.344
							s-2.125,1.188-3.721,1.188h-3.205v4.016h-1.769V104.62h4.973C344.156,104.62,345.399,105.001,346.277,105.763z
							 M345.015,111.168c0.589-0.484,0.884-1.2,0.884-2.146c0-0.921-0.295-1.618-0.884-2.091s-1.437-0.709-2.542-0.709l-3.131,0.019
							v5.654h3.131C343.579,111.896,344.426,111.653,345.015,111.168z"/>
						<path fill="#83A521" d="M358.259,117.514l-2.561-4.052c-0.294,0.024-0.534,0.036-0.718,0.036h-3.278v4.016h-1.769V104.62
							h5.047c1.633,0,2.895,0.378,3.785,1.133c0.89,0.755,1.335,1.827,1.335,3.214c0,1.044-0.243,1.922-0.728,2.635
							c-0.485,0.712-1.182,1.228-2.091,1.547l3.002,4.365H358.259z M354.98,111.896c1.105,0,1.953-0.242,2.542-0.728
							c0.589-0.484,0.884-1.2,0.884-2.146c0-0.921-0.294-1.618-0.884-2.091s-1.437-0.709-2.542-0.709h-3.278v5.673H354.98z"/>
						<path fill="#83A521" d="M363.25,104.62h8.952v1.603h-7.183v3.979h6.428v1.603h-6.428v4.107h7.404v1.603h-9.173V104.62z"/>
						<path fill="#83A521" d="M384.193,111.214h1.565v4.734c-0.651,0.516-1.412,0.927-2.284,1.233
							c-0.872,0.308-1.738,0.461-2.597,0.461c-1.241,0-2.376-0.292-3.408-0.875c-1.031-0.583-1.845-1.381-2.44-2.395
							c-0.596-1.013-0.894-2.121-0.894-3.324s0.301-2.306,0.903-3.307c0.602-1.001,1.424-1.789,2.468-2.367
							c1.043-0.576,2.198-0.865,3.462-0.865c0.896,0,1.771,0.16,2.625,0.479c0.853,0.32,1.593,0.756,2.219,1.309l-1.013,1.289
							c-0.516-0.479-1.108-0.851-1.778-1.114c-0.669-0.265-1.354-0.396-2.054-0.396c-0.921,0-1.768,0.222-2.542,0.663
							c-0.774,0.442-1.385,1.044-1.833,1.806c-0.448,0.761-0.672,1.596-0.672,2.505c0,0.908,0.227,1.747,0.681,2.514
							c0.454,0.768,1.068,1.376,1.842,1.824c0.774,0.448,1.621,0.672,2.542,0.672c0.54,0,1.09-0.089,1.648-0.268
							c0.559-0.178,1.078-0.426,1.557-0.745V111.214z"/>
						<path fill="#83A521" d="M391.588,115.036c0.657,0.67,1.562,1.004,2.717,1.004c1.142,0,2.038-0.334,2.689-1.004
							c0.651-0.669,0.977-1.6,0.977-2.79v-7.626h1.768v7.626c0,1.683-0.482,3.002-1.446,3.96c-0.964,0.958-2.293,1.437-3.988,1.437
							c-1.707,0-3.045-0.479-4.016-1.437c-0.97-0.958-1.455-2.277-1.455-3.96v-7.626h1.769v7.626
							C390.602,113.437,390.93,114.367,391.588,115.036z"/>
						<path fill="#83A521" d="M412.318,104.62h1.75v12.894h-1.787l-7.367-9.983v9.983h-1.769V104.62h1.787l7.386,10.002V104.62z"/>
						<path fill="#83A521" d="M416.112,104.62h10.075v1.621h-4.163v11.272h-1.768v-11.272h-4.145V104.62z"/>
						<path fill="#83A521" d="M436.557,117.514l-1.363-3.131h-6.796l-1.345,3.131h-1.86l5.729-12.894h1.842l5.71,12.894H436.557z
							 M429.097,112.78h5.416l-2.726-6.263L429.097,112.78z"/>
						<path fill="#83A521" d="M445.887,106.453c-0.645-0.19-1.237-0.285-1.777-0.285c-0.75,0-1.348,0.144-1.796,0.433
							c-0.449,0.288-0.672,0.685-0.672,1.188c0,0.455,0.135,0.826,0.405,1.114c0.27,0.289,0.602,0.517,0.995,0.682
							c0.393,0.166,0.939,0.359,1.639,0.58c0.872,0.271,1.578,0.528,2.118,0.774c0.54,0.245,1,0.61,1.381,1.096
							c0.38,0.485,0.571,1.127,0.571,1.925c0,0.736-0.2,1.381-0.599,1.934c-0.399,0.553-0.958,0.979-1.676,1.28
							s-1.544,0.451-2.478,0.451c-0.945,0-1.867-0.184-2.763-0.553c-0.896-0.368-1.67-0.859-2.321-1.474l0.792-1.528
							c0.614,0.602,1.305,1.065,2.072,1.391c0.767,0.325,1.513,0.488,2.238,0.488c0.859,0,1.538-0.169,2.035-0.507
							c0.498-0.338,0.746-0.795,0.746-1.372c0-0.454-0.135-0.829-0.405-1.124c-0.27-0.294-0.611-0.527-1.022-0.699
							c-0.412-0.172-0.967-0.362-1.667-0.571c-0.86-0.258-1.56-0.51-2.1-0.755c-0.541-0.246-0.998-0.608-1.372-1.087
							s-0.562-1.111-0.562-1.897c0-0.688,0.19-1.295,0.571-1.823c0.38-0.528,0.915-0.933,1.603-1.216
							c0.688-0.282,1.485-0.424,2.395-0.424c0.773,0,1.532,0.114,2.274,0.341c0.743,0.228,1.403,0.531,1.98,0.912l-0.737,1.584
							C447.155,106.929,446.531,106.644,445.887,106.453z"/>
					</g>
					<g enable-background="new    ">
						<path fill="#83A521" d="M363.425,123.895c0.755,0.571,1.133,1.36,1.133,2.367c0,0.736-0.209,1.36-0.626,1.869
							c-0.417,0.51-0.989,0.851-1.713,1.022c0.896,0.136,1.599,0.494,2.109,1.077c0.509,0.584,0.764,1.312,0.764,2.184
							c0,1.104-0.414,1.968-1.243,2.588c-0.829,0.62-1.974,0.93-3.435,0.93h-5.6v-12.894h5.507
							C361.635,123.038,362.67,123.324,363.425,123.895z M362.08,128.002c0.436-0.337,0.654-0.819,0.654-1.445
							c0-0.614-0.218-1.087-0.654-1.419c-0.436-0.331-1.053-0.49-1.851-0.479h-3.647v3.85h3.647
							C361.027,128.509,361.644,128.34,362.08,128.002z M362.476,133.768c0.54-0.375,0.81-0.899,0.81-1.575
							c0-0.65-0.27-1.16-0.81-1.528c-0.541-0.369-1.29-0.553-2.247-0.553h-3.647v4.199h3.647
							C361.187,134.323,361.936,134.143,362.476,133.768z"/>
						<path fill="#83A521" d="M377.506,135.932l-1.363-3.131h-6.796l-1.345,3.131h-1.86l5.729-12.894h1.842l5.71,12.894H377.506z
							 M370.046,131.198h5.416l-2.726-6.263L370.046,131.198z M373.785,119.317l1.768,0.773l-2.284,1.806l-1.455-0.185
							L373.785,119.317z"/>
						<path fill="#83A521" d="M386.836,124.871c-0.645-0.19-1.237-0.285-1.777-0.285c-0.75,0-1.348,0.144-1.796,0.433
							c-0.449,0.288-0.672,0.685-0.672,1.188c0,0.455,0.135,0.826,0.405,1.114c0.27,0.289,0.602,0.517,0.995,0.682
							c0.393,0.166,0.939,0.359,1.639,0.58c0.872,0.271,1.578,0.528,2.118,0.774c0.54,0.245,1,0.61,1.381,1.096
							c0.38,0.485,0.571,1.127,0.571,1.925c0,0.736-0.2,1.381-0.599,1.934c-0.399,0.553-0.958,0.979-1.676,1.28
							s-1.544,0.451-2.478,0.451c-0.945,0-1.867-0.184-2.763-0.553c-0.896-0.368-1.67-0.859-2.321-1.474l0.792-1.528
							c0.614,0.602,1.305,1.065,2.072,1.391c0.767,0.325,1.513,0.488,2.238,0.488c0.859,0,1.538-0.169,2.035-0.507
							c0.498-0.338,0.746-0.795,0.746-1.372c0-0.454-0.135-0.829-0.405-1.124c-0.27-0.294-0.611-0.527-1.022-0.699
							c-0.412-0.172-0.967-0.362-1.667-0.571c-0.86-0.258-1.56-0.51-2.1-0.755c-0.541-0.246-0.998-0.608-1.372-1.087
							s-0.562-1.111-0.562-1.897c0-0.688,0.19-1.295,0.571-1.823c0.38-0.528,0.915-0.933,1.603-1.216
							c0.688-0.282,1.485-0.424,2.395-0.424c0.773,0,1.532,0.114,2.274,0.341c0.743,0.228,1.403,0.531,1.98,0.912l-0.737,1.584
							C388.103,125.347,387.48,125.062,386.836,124.871z"/>
						<path fill="#83A521" d="M392.517,123.038h1.769v12.894h-1.769V123.038z"/>
						<path fill="#83A521" d="M405.595,124.926c-0.651-0.288-1.32-0.433-2.007-0.433c-0.909,0-1.744,0.222-2.505,0.663
							c-0.761,0.442-1.363,1.041-1.805,1.796c-0.442,0.755-0.663,1.587-0.663,2.496c0,0.896,0.221,1.726,0.663,2.486
							c0.442,0.762,1.043,1.363,1.805,1.806c0.761,0.441,1.596,0.663,2.505,0.663c0.675,0,1.338-0.139,1.989-0.415
							c0.65-0.276,1.228-0.653,1.731-1.133l1.068,1.16c-0.651,0.639-1.406,1.14-2.266,1.502s-1.731,0.543-2.615,0.543
							c-1.228,0-2.352-0.292-3.371-0.875c-1.02-0.583-1.824-1.378-2.413-2.385s-0.884-2.118-0.884-3.334
							c0-1.203,0.298-2.306,0.894-3.307c0.595-1.001,1.409-1.789,2.44-2.367c1.032-0.576,2.167-0.865,3.408-0.865
							c0.896,0,1.765,0.169,2.606,0.507c0.841,0.338,1.568,0.813,2.183,1.427l-1.05,1.271
							C406.817,125.617,406.246,125.215,405.595,124.926z"/>
						<path fill="#83A521" d="M420.349,135.932l-1.363-3.131h-6.796l-1.345,3.131h-1.86l5.729-12.894h1.842l5.71,12.894H420.349z
							 M412.889,131.198h5.416l-2.726-6.263L412.889,131.198z"/>
						<path fill="#83A521" d="M429.678,124.871c-0.645-0.19-1.237-0.285-1.777-0.285c-0.75,0-1.348,0.144-1.796,0.433
							c-0.449,0.288-0.672,0.685-0.672,1.188c0,0.455,0.135,0.826,0.405,1.114c0.27,0.289,0.602,0.517,0.995,0.682
							c0.393,0.166,0.939,0.359,1.639,0.58c0.872,0.271,1.578,0.528,2.118,0.774c0.54,0.245,1,0.61,1.381,1.096
							c0.38,0.485,0.571,1.127,0.571,1.925c0,0.736-0.2,1.381-0.599,1.934c-0.399,0.553-0.958,0.979-1.676,1.28
							s-1.544,0.451-2.478,0.451c-0.945,0-1.867-0.184-2.763-0.553c-0.896-0.368-1.67-0.859-2.321-1.474l0.792-1.528
							c0.614,0.602,1.305,1.065,2.072,1.391c0.767,0.325,1.513,0.488,2.238,0.488c0.859,0,1.538-0.169,2.035-0.507
							c0.498-0.338,0.746-0.795,0.746-1.372c0-0.454-0.135-0.829-0.405-1.124c-0.27-0.294-0.611-0.527-1.022-0.699
							c-0.412-0.172-0.967-0.362-1.667-0.571c-0.86-0.258-1.56-0.51-2.1-0.755c-0.541-0.246-0.998-0.608-1.372-1.087
							s-0.562-1.111-0.562-1.897c0-0.688,0.19-1.295,0.571-1.823c0.38-0.528,0.915-0.933,1.603-1.216
							c0.688-0.282,1.485-0.424,2.395-0.424c0.773,0,1.532,0.114,2.274,0.341c0.743,0.228,1.403,0.531,1.98,0.912l-0.737,1.584
							C430.946,125.347,430.323,125.062,429.678,124.871z"/>
					</g>
				</g>
			</g>
			<g>
				<g>
					<g enable-background="new    ">
						<path fill="#83A521" d="M1003.024,97.545c0.524,0.454,0.787,1.093,0.787,1.914c0,0.857-0.265,1.523-0.793,1.996
							c-0.527,0.473-1.268,0.709-2.222,0.709h-1.914v2.398h-1.056v-7.7h2.97C1001.757,96.862,1002.499,97.09,1003.024,97.545z
							 M1002.27,100.773c0.353-0.29,0.528-0.717,0.528-1.282c0-0.55-0.176-0.966-0.528-1.248c-0.352-0.282-0.857-0.424-1.518-0.424
							l-1.87,0.011v3.377h1.87C1001.412,101.207,1001.918,101.062,1002.27,100.773z"/>
						<path fill="#83A521" d="M1010.477,104.562l-0.814-1.87h-4.059l-0.803,1.87h-1.111l3.421-7.7h1.101l3.409,7.7H1010.477z
							 M1006.022,101.735h3.234l-1.629-3.74L1006.022,101.735z"/>
						<path fill="#83A521" d="M1017.714,104.562l-1.528-2.42c-0.176,0.015-0.319,0.021-0.43,0.021h-1.958v2.398h-1.056v-7.7h3.014
							c0.976,0,1.729,0.226,2.261,0.677s0.798,1.091,0.798,1.92c0,0.623-0.145,1.147-0.436,1.572
							c-0.289,0.426-0.705,0.733-1.248,0.924l1.793,2.607H1017.714z M1015.756,101.207c0.66,0,1.166-0.145,1.518-0.434
							c0.353-0.29,0.529-0.717,0.529-1.282c0-0.55-0.177-0.966-0.529-1.248c-0.352-0.282-0.857-0.424-1.518-0.424h-1.958v3.388
							H1015.756z"/>
						<path fill="#83A521" d="M1026.415,104.562l-0.813-1.87h-4.06l-0.803,1.87h-1.11l3.42-7.7h1.101l3.409,7.7H1026.415z
							 M1021.961,101.735h3.233l-1.628-3.74L1021.961,101.735z"/>
						<path fill="#83A521" d="M1033.846,97.363c0.605,0.334,1.08,0.794,1.424,1.38c0.346,0.587,0.518,1.243,0.518,1.97
							c0,0.726-0.174,1.382-0.522,1.969s-0.827,1.047-1.436,1.38c-0.608,0.334-1.291,0.501-2.046,0.501h-3.102v-7.7h3.135
							C1032.565,96.862,1033.24,97.029,1033.846,97.363z M1033.295,103.231c0.438-0.249,0.781-0.594,1.035-1.034
							c0.252-0.439,0.379-0.931,0.379-1.474c0-0.55-0.129-1.045-0.385-1.485c-0.257-0.439-0.607-0.786-1.051-1.039
							s-0.938-0.38-1.479-0.38h-2.058v5.786h2.102C1032.373,103.605,1032.86,103.48,1033.295,103.231z"/>
						<path fill="#83A521" d="M1042.826,104.562l-0.813-1.87h-4.06l-0.803,1.87h-1.11l3.421-7.7h1.1l3.41,7.7H1042.826z
							 M1038.372,101.735h3.233l-1.627-3.74L1038.372,101.735z"/>
					</g>
					<g enable-background="new    ">
						<path fill="#83A521" d="M1000.934,132.862h1.056v6.743h3.366v0.957h-4.422V132.862z"/>
						<path fill="#83A521" d="M1008.177,139.083c0.392,0.399,0.933,0.6,1.622,0.6c0.682,0,1.218-0.2,1.606-0.6
							s0.583-0.955,0.583-1.667v-4.554h1.056v4.554c0,1.005-0.288,1.794-0.863,2.365c-0.575,0.572-1.37,0.858-2.382,0.858
							c-1.02,0-1.818-0.286-2.397-0.858c-0.579-0.571-0.869-1.36-0.869-2.365v-4.554h1.056v4.554
							C1007.588,138.128,1007.784,138.684,1008.177,139.083z M1010.405,130.641l1.056,0.462l-1.364,1.078l-0.869-0.11
							L1010.405,130.641z"/>
						<path fill="#83A521" d="M1020.244,133.363c0.605,0.334,1.08,0.794,1.424,1.38c0.346,0.587,0.518,1.243,0.518,1.97
							c0,0.726-0.174,1.382-0.522,1.969s-0.827,1.047-1.436,1.38c-0.608,0.334-1.291,0.501-2.046,0.501h-3.102v-7.7h3.135
							C1018.963,132.862,1019.639,133.029,1020.244,133.363z M1019.694,139.231c0.438-0.249,0.781-0.594,1.035-1.034
							c0.252-0.439,0.379-0.931,0.379-1.474c0-0.55-0.129-1.045-0.385-1.485c-0.257-0.439-0.607-0.786-1.051-1.039
							s-0.938-0.38-1.479-0.38h-2.058v5.786h2.102C1018.772,139.605,1019.258,139.48,1019.694,139.231z"/>
						<path fill="#83A521" d="M1023.693,132.862h1.056v7.7h-1.056V132.862z"/>
						<path fill="#83A521" d="M1031.502,133.99c-0.389-0.173-0.788-0.259-1.199-0.259c-0.543,0-1.041,0.132-1.496,0.396
							c-0.454,0.264-0.813,0.621-1.078,1.072c-0.264,0.451-0.396,0.947-0.396,1.49c0,0.535,0.132,1.03,0.396,1.485
							c0.265,0.454,0.624,0.813,1.078,1.078c0.455,0.264,0.953,0.396,1.496,0.396c0.404,0,0.8-0.082,1.188-0.247
							s0.733-0.391,1.034-0.677l0.638,0.693c-0.389,0.381-0.84,0.68-1.353,0.896c-0.514,0.216-1.034,0.324-1.562,0.324
							c-0.733,0-1.404-0.174-2.013-0.522s-1.089-0.823-1.441-1.425c-0.352-0.602-0.528-1.265-0.528-1.991
							c0-0.719,0.178-1.376,0.534-1.975c0.355-0.598,0.841-1.068,1.458-1.413c0.615-0.345,1.293-0.517,2.034-0.517
							c0.535,0,1.054,0.101,1.557,0.302c0.503,0.202,0.937,0.486,1.304,0.853l-0.627,0.76
							C1032.233,134.402,1031.891,134.162,1031.502,133.99z"/>
						<path fill="#83A521" d="M1040.313,140.562l-0.813-1.87h-4.06l-0.803,1.87h-1.11l3.421-7.7h1.1l3.41,7.7H1040.313z
							 M1035.859,137.735h3.233l-1.627-3.74L1035.859,137.735z"/>
					</g>
					<g>
						<path fill="#83A521" d="M1029.238,111.824c-0.63-1.484-2.103-2.53-3.813-2.529l-9.493,0.003c-2.278,0-4.139,1.863-4.139,4.142
							l0.005,9.496c0.002,2.277,1.861,4.137,4.14,4.137l9.494-0.002c2.278,0,4.139-1.862,4.137-4.141l-0.001-9.499
							C1029.564,112.863,1029.447,112.317,1029.238,111.824z M1027.718,112.458c0.123,0.297,0.189,0.629,0.191,0.974l0.001,9.5
							c0.002,1.389-1.092,2.481-2.48,2.481l-9.494,0.005c-1.389-0.002-2.482-1.093-2.482-2.482l-0.002-9.498
							c-0.001-1.391,1.09-2.482,2.481-2.483l9.492-0.003C1026.467,110.949,1027.343,111.564,1027.718,112.458z"/>
						<circle fill="#83A521" cx="1023.274" cy="120.82" r="1.24"/>
						<circle fill="#83A521" cx="1018.073" cy="115.545" r="1.242"/>
						<path fill="#83A521" d="M1022.92,114.41c-0.653,0.211-1.012,0.911-0.801,1.562c0.213,0.654,0.912,1.01,1.565,0.797
							c0.651-0.211,1.01-0.91,0.797-1.564C1024.27,114.554,1023.571,114.198,1022.92,114.41z"/>
						<circle fill="#83A521" cx="1018.041" cy="120.78" r="1.242"/>
					</g>
				</g>
				<g>
					<g enable-background="new    ">
						<path fill="#83A521" d="M761.377,97.545c0.524,0.454,0.787,1.093,0.787,1.914c0,0.857-0.265,1.523-0.793,1.996
							c-0.527,0.473-1.268,0.709-2.222,0.709h-1.914v2.398h-1.056v-7.7h2.97C760.111,96.862,760.853,97.09,761.377,97.545z
							 M760.623,100.773c0.353-0.29,0.528-0.717,0.528-1.282c0-0.55-0.176-0.966-0.528-1.248c-0.352-0.282-0.857-0.424-1.518-0.424
							l-1.87,0.011v3.377h1.87C759.766,101.207,760.272,101.062,760.623,100.773z"/>
						<path fill="#83A521" d="M768.83,104.562l-0.814-1.87h-4.059l-0.803,1.87h-1.111l3.421-7.7h1.101l3.409,7.7H768.83z
							 M764.375,101.735h3.234l-1.629-3.74L764.375,101.735z"/>
						<path fill="#83A521" d="M776.068,104.562l-1.528-2.42c-0.176,0.015-0.319,0.021-0.43,0.021h-1.958v2.398h-1.056v-7.7h3.014
							c0.976,0,1.729,0.226,2.261,0.677s0.798,1.091,0.798,1.92c0,0.623-0.145,1.147-0.436,1.572
							c-0.289,0.426-0.705,0.733-1.248,0.924l1.793,2.607H776.068z M774.11,101.207c0.66,0,1.166-0.145,1.518-0.434
							c0.353-0.29,0.529-0.717,0.529-1.282c0-0.55-0.177-0.966-0.529-1.248c-0.352-0.282-0.857-0.424-1.518-0.424h-1.958v3.388
							H774.11z"/>
						<path fill="#83A521" d="M784.769,104.562l-0.813-1.87h-4.06l-0.803,1.87h-1.11l3.42-7.7h1.101l3.409,7.7H784.769z
							 M780.315,101.735h3.233l-1.628-3.74L780.315,101.735z"/>
						<path fill="#83A521" d="M792.199,97.363c0.605,0.334,1.08,0.794,1.424,1.38c0.346,0.587,0.518,1.243,0.518,1.97
							c0,0.726-0.174,1.382-0.522,1.969s-0.827,1.047-1.436,1.38c-0.608,0.334-1.291,0.501-2.046,0.501h-3.102v-7.7h3.135
							C790.918,96.862,791.594,97.029,792.199,97.363z M791.649,103.231c0.438-0.249,0.781-0.594,1.035-1.034
							c0.252-0.439,0.379-0.931,0.379-1.474c0-0.55-0.129-1.045-0.385-1.485c-0.257-0.439-0.607-0.786-1.051-1.039
							s-0.938-0.38-1.479-0.38h-2.058v5.786h2.102C790.727,103.605,791.213,103.48,791.649,103.231z"/>
						<path fill="#83A521" d="M801.18,104.562l-0.813-1.87h-4.06l-0.803,1.87h-1.11l3.421-7.7h1.1l3.41,7.7H801.18z
							 M796.726,101.735h3.233l-1.627-3.74L796.726,101.735z"/>
					</g>
					<g enable-background="new    ">
						<path fill="#83A521" d="M759.287,132.862h1.056v6.743h3.366v0.957h-4.422V132.862z"/>
						<path fill="#83A521" d="M766.531,139.083c0.392,0.399,0.933,0.6,1.622,0.6c0.682,0,1.218-0.2,1.606-0.6
							s0.583-0.955,0.583-1.667v-4.554h1.056v4.554c0,1.005-0.288,1.794-0.863,2.365c-0.575,0.572-1.37,0.858-2.382,0.858
							c-1.02,0-1.818-0.286-2.397-0.858c-0.579-0.571-0.869-1.36-0.869-2.365v-4.554h1.056v4.554
							C765.942,138.128,766.138,138.684,766.531,139.083z M768.758,130.641l1.056,0.462l-1.364,1.078l-0.869-0.11L768.758,130.641z"
							/>
						<path fill="#83A521" d="M778.598,133.363c0.605,0.334,1.08,0.794,1.424,1.38c0.346,0.587,0.518,1.243,0.518,1.97
							c0,0.726-0.174,1.382-0.522,1.969s-0.827,1.047-1.436,1.38c-0.608,0.334-1.291,0.501-2.046,0.501h-3.102v-7.7h3.135
							C777.317,132.862,777.992,133.029,778.598,133.363z M778.047,139.231c0.438-0.249,0.781-0.594,1.035-1.034
							c0.252-0.439,0.379-0.931,0.379-1.474c0-0.55-0.129-1.045-0.385-1.485c-0.257-0.439-0.607-0.786-1.051-1.039
							s-0.938-0.38-1.479-0.38h-2.058v5.786h2.102C777.125,139.605,777.612,139.48,778.047,139.231z"/>
						<path fill="#83A521" d="M782.046,132.862h1.056v7.7h-1.056V132.862z"/>
						<path fill="#83A521" d="M789.856,133.99c-0.389-0.173-0.788-0.259-1.199-0.259c-0.543,0-1.041,0.132-1.496,0.396
							c-0.454,0.264-0.813,0.621-1.078,1.072c-0.264,0.451-0.396,0.947-0.396,1.49c0,0.535,0.132,1.03,0.396,1.485
							c0.265,0.454,0.624,0.813,1.078,1.078c0.455,0.264,0.953,0.396,1.496,0.396c0.404,0,0.8-0.082,1.188-0.247
							s0.733-0.391,1.034-0.677l0.638,0.693c-0.389,0.381-0.84,0.68-1.353,0.896c-0.514,0.216-1.034,0.324-1.562,0.324
							c-0.733,0-1.404-0.174-2.013-0.522s-1.089-0.823-1.441-1.425c-0.352-0.602-0.528-1.265-0.528-1.991
							c0-0.719,0.178-1.376,0.534-1.975c0.355-0.598,0.841-1.068,1.458-1.413c0.615-0.345,1.293-0.517,2.034-0.517
							c0.535,0,1.054,0.101,1.557,0.302c0.503,0.202,0.937,0.486,1.304,0.853l-0.627,0.76
							C790.586,134.402,790.244,134.162,789.856,133.99z"/>
						<path fill="#83A521" d="M798.666,140.562l-0.813-1.87h-4.06l-0.803,1.87h-1.11l3.421-7.7h1.1l3.41,7.7H798.666z
							 M794.212,137.735h3.233l-1.627-3.74L794.212,137.735z"/>
					</g>
					<path fill="#83A521" d="M773.094,110.609c-1.399,0.594-2.383,1.982-2.382,3.595l0.007,8.94
						c0.003,2.146,1.755,3.896,3.898,3.894l8.948-0.005c2.144-0.002,3.896-1.756,3.894-3.898l-0.007-8.944
						c-0.001-2.148-1.755-3.897-3.899-3.896l-8.946,0.006C774.071,110.301,773.557,110.412,773.094,110.609z M773.691,112.042
						c0.278-0.118,0.591-0.181,0.918-0.182l8.945-0.004c1.31-0.003,2.338,1.027,2.34,2.336l0.007,8.943
						c0,1.309-1.027,2.34-2.338,2.34l-8.947,0.004c-1.308,0.002-2.337-1.024-2.338-2.334l-0.007-8.942
						C772.272,113.22,772.848,112.394,773.691,112.042z M781.64,114.655c-0.597,0.248-0.88,0.931-0.633,1.527
						c0.248,0.597,0.933,0.879,1.527,0.632c0.598-0.248,0.88-0.932,0.633-1.529C782.921,114.69,782.236,114.408,781.64,114.655z
						 M778.638,117.588c-0.595,0.247-0.877,0.932-0.63,1.527c0.247,0.597,0.931,0.879,1.525,0.632l0,0
						c0.597-0.248,0.878-0.931,0.631-1.527l0,0C779.916,117.624,779.235,117.342,778.638,117.588z M775.637,120.52
						c-0.596,0.248-0.879,0.934-0.632,1.526c0.247,0.599,0.933,0.884,1.527,0.634c0.598-0.246,0.88-0.933,0.632-1.529
						C776.918,120.557,776.232,120.271,775.637,120.52z"/>
				</g>
				<g>
					<g enable-background="new    ">
						<path fill="#83A521" d="M512.441,97.99c-0.389-0.173-0.788-0.259-1.199-0.259c-0.543,0-1.042,0.132-1.496,0.396
							c-0.455,0.264-0.814,0.621-1.078,1.072c-0.264,0.451-0.396,0.947-0.396,1.49c0,0.535,0.132,1.03,0.396,1.485
							c0.264,0.454,0.624,0.813,1.078,1.078c0.455,0.264,0.953,0.396,1.496,0.396c0.403,0,0.799-0.082,1.188-0.247
							s0.733-0.391,1.034-0.677l0.638,0.693c-0.389,0.381-0.84,0.68-1.353,0.896c-0.513,0.216-1.034,0.324-1.562,0.324
							c-0.733,0-1.404-0.174-2.013-0.522c-0.609-0.349-1.089-0.823-1.441-1.425c-0.352-0.602-0.528-1.265-0.528-1.991
							c0-0.719,0.178-1.376,0.534-1.975c0.355-0.598,0.841-1.068,1.458-1.413c0.616-0.345,1.294-0.517,2.035-0.517
							c0.535,0,1.054,0.101,1.557,0.302c0.502,0.202,0.937,0.486,1.304,0.853l-0.627,0.76
							C513.171,98.402,512.83,98.162,512.441,97.99z"/>
						<path fill="#83A521" d="M521.252,104.562l-0.814-1.87h-4.059l-0.803,1.87h-1.111l3.421-7.7h1.1l3.41,7.7H521.252z
							 M516.798,101.735h3.234l-1.628-3.74L516.798,101.735z"/>
						<path fill="#83A521" d="M526.824,97.957c-0.385-0.113-0.739-0.171-1.062-0.171c-0.447,0-0.805,0.087-1.072,0.259
							c-0.268,0.173-0.402,0.409-0.402,0.71c0,0.271,0.081,0.493,0.242,0.665c0.161,0.173,0.359,0.308,0.594,0.407
							c0.234,0.099,0.561,0.214,0.979,0.347c0.521,0.161,0.942,0.315,1.265,0.462s0.598,0.364,0.825,0.654
							c0.227,0.29,0.341,0.673,0.341,1.149c0,0.44-0.119,0.825-0.357,1.155s-0.572,0.585-1.001,0.765s-0.922,0.27-1.479,0.27
							c-0.565,0-1.115-0.11-1.65-0.33c-0.536-0.221-0.998-0.514-1.386-0.88l0.473-0.913c0.367,0.359,0.779,0.636,1.237,0.83
							c0.458,0.194,0.904,0.292,1.337,0.292c0.513,0,0.918-0.102,1.215-0.303c0.297-0.202,0.445-0.475,0.445-0.819
							c0-0.271-0.081-0.495-0.242-0.671c-0.162-0.177-0.365-0.315-0.611-0.419c-0.246-0.103-0.577-0.216-0.995-0.341
							c-0.514-0.153-0.932-0.304-1.254-0.451c-0.323-0.146-0.596-0.362-0.819-0.648s-0.335-0.664-0.335-1.133
							c0-0.411,0.114-0.773,0.341-1.089c0.228-0.315,0.546-0.558,0.957-0.727c0.411-0.168,0.887-0.253,1.43-0.253
							c0.462,0,0.915,0.068,1.358,0.203c0.444,0.137,0.838,0.317,1.183,0.545l-0.44,0.946
							C527.581,98.241,527.209,98.07,526.824,97.957z"/>
						<path fill="#83A521" d="M535.624,97.313c0.62,0.345,1.109,0.815,1.469,1.413c0.359,0.599,0.539,1.256,0.539,1.975
							s-0.18,1.381-0.539,1.985c-0.359,0.605-0.849,1.082-1.469,1.431s-1.3,0.522-2.041,0.522s-1.421-0.174-2.041-0.522
							s-1.109-0.825-1.468-1.431c-0.359-0.604-0.539-1.267-0.539-1.985s0.18-1.376,0.539-1.975c0.359-0.598,0.847-1.068,1.463-1.413
							c0.616-0.345,1.298-0.517,2.046-0.517C534.324,96.797,535.004,96.969,535.624,97.313z M532.104,98.139
							c-0.458,0.264-0.823,0.621-1.094,1.072c-0.271,0.451-0.407,0.948-0.407,1.49c0,0.543,0.136,1.042,0.407,1.496
							c0.271,0.455,0.636,0.816,1.094,1.084c0.458,0.268,0.955,0.401,1.491,0.401c0.535,0,1.028-0.134,1.479-0.401
							s0.81-0.629,1.078-1.084c0.268-0.454,0.401-0.953,0.401-1.496c0-0.542-0.134-1.039-0.401-1.49
							c-0.268-0.451-0.627-0.809-1.078-1.072c-0.451-0.265-0.944-0.396-1.479-0.396C533.059,97.742,532.562,97.874,532.104,98.139z"
							/>
						<path fill="#83A521" d="M542.531,97.957c-0.385-0.113-0.739-0.171-1.062-0.171c-0.447,0-0.805,0.087-1.072,0.259
							c-0.268,0.173-0.402,0.409-0.402,0.71c0,0.271,0.081,0.493,0.242,0.665c0.161,0.173,0.359,0.308,0.594,0.407
							c0.234,0.099,0.561,0.214,0.979,0.347c0.521,0.161,0.942,0.315,1.265,0.462s0.598,0.364,0.825,0.654
							c0.227,0.29,0.341,0.673,0.341,1.149c0,0.44-0.119,0.825-0.357,1.155s-0.572,0.585-1.001,0.765s-0.922,0.27-1.479,0.27
							c-0.565,0-1.115-0.11-1.65-0.33c-0.536-0.221-0.998-0.514-1.386-0.88l0.473-0.913c0.367,0.359,0.779,0.636,1.237,0.83
							c0.458,0.194,0.904,0.292,1.337,0.292c0.513,0,0.918-0.102,1.215-0.303c0.297-0.202,0.445-0.475,0.445-0.819
							c0-0.271-0.081-0.495-0.242-0.671c-0.162-0.177-0.365-0.315-0.611-0.419c-0.246-0.103-0.577-0.216-0.995-0.341
							c-0.514-0.153-0.932-0.304-1.254-0.451c-0.323-0.146-0.596-0.362-0.819-0.648s-0.335-0.664-0.335-1.133
							c0-0.411,0.114-0.773,0.341-1.089c0.228-0.315,0.546-0.558,0.957-0.727c0.411-0.168,0.887-0.253,1.43-0.253
							c0.462,0,0.915,0.068,1.358,0.203c0.444,0.137,0.838,0.317,1.183,0.545l-0.44,0.946
							C543.289,98.241,542.917,98.07,542.531,97.957z"/>
					</g>
					<g enable-background="new    ">
						<path fill="#83A521" d="M500.215,133.545c0.524,0.454,0.787,1.093,0.787,1.914c0,0.857-0.264,1.523-0.792,1.996
							s-1.269,0.709-2.222,0.709h-1.914v2.398h-1.056v-7.7h2.97C498.948,132.862,499.69,133.09,500.215,133.545z M499.461,136.773
							c0.352-0.29,0.528-0.717,0.528-1.282c0-0.55-0.176-0.966-0.528-1.248s-0.858-0.424-1.518-0.424l-1.87,0.011v3.377h1.87
							C498.603,137.207,499.109,137.062,499.461,136.773z"/>
						<path fill="#83A521" d="M507.37,140.562l-1.529-2.42c-0.176,0.015-0.319,0.021-0.429,0.021h-1.958v2.398h-1.056v-7.7h3.014
							c0.976,0,1.729,0.226,2.261,0.677s0.797,1.091,0.797,1.92c0,0.623-0.145,1.147-0.435,1.572
							c-0.29,0.426-0.706,0.733-1.249,0.924l1.793,2.607H507.37z M505.412,137.207c0.66,0,1.166-0.145,1.518-0.434
							c0.352-0.29,0.528-0.717,0.528-1.282c0-0.55-0.176-0.966-0.528-1.248s-0.858-0.424-1.518-0.424h-1.958v3.388H505.412z"/>
						<path fill="#83A521" d="M516.071,140.562l-0.814-1.87h-4.059l-0.803,1.87h-1.111l3.421-7.7h1.1l3.41,7.7H516.071z
							 M511.616,137.735h3.234l-1.628-3.74L511.616,137.735z M513.849,130.641l1.056,0.462l-1.364,1.078l-0.869-0.11
							L513.849,130.641z"/>
						<path fill="#83A521" d="M522.704,133.99c-0.389-0.173-0.788-0.259-1.199-0.259c-0.543,0-1.042,0.132-1.496,0.396
							c-0.455,0.264-0.814,0.621-1.078,1.072c-0.264,0.451-0.396,0.947-0.396,1.49c0,0.535,0.132,1.03,0.396,1.485
							c0.264,0.454,0.624,0.813,1.078,1.078c0.455,0.264,0.953,0.396,1.496,0.396c0.403,0,0.799-0.082,1.188-0.247
							s0.733-0.391,1.034-0.677l0.638,0.693c-0.389,0.381-0.84,0.68-1.353,0.896c-0.513,0.216-1.034,0.324-1.562,0.324
							c-0.733,0-1.404-0.174-2.013-0.522c-0.609-0.349-1.089-0.823-1.441-1.425c-0.352-0.602-0.528-1.265-0.528-1.991
							c0-0.719,0.178-1.376,0.534-1.975c0.355-0.598,0.841-1.068,1.458-1.413c0.616-0.345,1.294-0.517,2.035-0.517
							c0.535,0,1.054,0.101,1.557,0.302c0.502,0.202,0.937,0.486,1.304,0.853l-0.627,0.76
							C523.434,134.402,523.093,134.162,522.704,133.99z"/>
						<path fill="#83A521" d="M524.849,132.862h6.017v0.968h-2.486v6.732h-1.056v-6.732h-2.475V132.862z"/>
						<path fill="#83A521" d="M532.076,132.862h1.056v7.7h-1.056V132.862z"/>
						<path fill="#83A521" d="M539.885,133.99c-0.389-0.173-0.788-0.259-1.199-0.259c-0.543,0-1.042,0.132-1.496,0.396
							c-0.455,0.264-0.814,0.621-1.078,1.072c-0.264,0.451-0.396,0.947-0.396,1.49c0,0.535,0.132,1.03,0.396,1.485
							c0.264,0.454,0.624,0.813,1.078,1.078c0.455,0.264,0.953,0.396,1.496,0.396c0.403,0,0.799-0.082,1.188-0.247
							s0.733-0.391,1.034-0.677l0.638,0.693c-0.389,0.381-0.84,0.68-1.353,0.896c-0.513,0.216-1.034,0.324-1.562,0.324
							c-0.733,0-1.404-0.174-2.013-0.522c-0.609-0.349-1.089-0.823-1.441-1.425c-0.352-0.602-0.528-1.265-0.528-1.991
							c0-0.719,0.178-1.376,0.534-1.975c0.355-0.598,0.841-1.068,1.458-1.413c0.616-0.345,1.294-0.517,2.035-0.517
							c0.535,0,1.054,0.101,1.557,0.302c0.502,0.202,0.937,0.486,1.304,0.853l-0.627,0.76
							C540.615,134.402,540.274,134.162,539.885,133.99z"/>
						<path fill="#83A521" d="M548.251,133.313c0.62,0.345,1.109,0.815,1.469,1.413c0.359,0.599,0.539,1.256,0.539,1.975
							s-0.18,1.381-0.539,1.985c-0.359,0.605-0.849,1.082-1.469,1.431s-1.3,0.522-2.041,0.522s-1.421-0.174-2.041-0.522
							s-1.109-0.825-1.468-1.431c-0.359-0.604-0.539-1.267-0.539-1.985s0.18-1.376,0.539-1.975c0.359-0.598,0.847-1.068,1.463-1.413
							c0.616-0.345,1.298-0.517,2.046-0.517C546.951,132.797,547.632,132.969,548.251,133.313z M544.731,134.139
							c-0.458,0.264-0.823,0.621-1.094,1.072c-0.271,0.451-0.407,0.948-0.407,1.49c0,0.543,0.136,1.042,0.407,1.496
							c0.271,0.455,0.636,0.816,1.094,1.084c0.458,0.268,0.955,0.401,1.491,0.401c0.535,0,1.028-0.134,1.479-0.401
							s0.81-0.629,1.078-1.084c0.268-0.454,0.401-0.953,0.401-1.496c0-0.542-0.134-1.039-0.401-1.49
							c-0.268-0.451-0.627-0.809-1.078-1.072c-0.451-0.265-0.944-0.396-1.479-0.396C545.686,133.742,545.19,133.874,544.731,134.139
							z"/>
						<path fill="#83A521" d="M555.159,133.957c-0.385-0.113-0.739-0.171-1.062-0.171c-0.447,0-0.805,0.087-1.072,0.259
							c-0.268,0.173-0.402,0.409-0.402,0.71c0,0.271,0.081,0.493,0.242,0.665c0.161,0.173,0.359,0.308,0.594,0.407
							c0.234,0.099,0.561,0.214,0.979,0.347c0.521,0.161,0.942,0.315,1.265,0.462s0.598,0.364,0.825,0.654
							c0.227,0.29,0.341,0.673,0.341,1.149c0,0.44-0.119,0.825-0.357,1.155s-0.572,0.585-1.001,0.765s-0.922,0.27-1.479,0.27
							c-0.565,0-1.115-0.11-1.65-0.33c-0.536-0.221-0.998-0.514-1.386-0.88l0.473-0.913c0.367,0.359,0.779,0.636,1.237,0.83
							c0.458,0.194,0.904,0.292,1.337,0.292c0.513,0,0.918-0.102,1.215-0.303c0.297-0.202,0.445-0.475,0.445-0.819
							c0-0.271-0.081-0.495-0.242-0.671c-0.162-0.177-0.365-0.315-0.611-0.419c-0.246-0.103-0.577-0.216-0.995-0.341
							c-0.514-0.153-0.932-0.304-1.254-0.451c-0.323-0.146-0.596-0.362-0.819-0.648s-0.335-0.664-0.335-1.133
							c0-0.411,0.114-0.773,0.341-1.089c0.228-0.315,0.546-0.558,0.957-0.727c0.411-0.168,0.887-0.253,1.43-0.253
							c0.462,0,0.915,0.068,1.358,0.203c0.444,0.137,0.838,0.317,1.183,0.545l-0.44,0.946
							C555.916,134.241,555.544,134.07,555.159,133.957z"/>
					</g>
					<g>
						<path fill="#83A521" d="M519.508,109.442c-1.484,0.629-2.53,2.102-2.529,3.814l0.003,9.493c0,2.278,1.863,4.14,4.142,4.14
							l9.495-0.006c2.278-0.002,4.138-1.861,4.138-4.14l-0.003-9.494c0-2.278-1.862-4.139-4.14-4.137l-9.499,0.001
							C520.547,109.115,520,109.232,519.508,109.442z M520.142,110.962c0.297-0.124,0.629-0.192,0.974-0.193l9.499-0.001
							c1.391-0.001,2.482,1.092,2.482,2.481l0.005,9.494c-0.003,1.389-1.094,2.483-2.484,2.481l-9.497,0.002
							c-1.39,0.002-2.481-1.09-2.482-2.48l-0.002-9.493C518.633,112.213,519.247,111.337,520.142,110.962z M527.814,114.058
							c-0.633,0.263-0.935,0.987-0.673,1.621c0.263,0.635,0.989,0.934,1.623,0.671c0.634-0.263,0.935-0.987,0.67-1.622
							C529.172,114.095,528.447,113.795,527.814,114.058z M522.968,119.646c-0.632,0.263-0.934,0.99-0.669,1.623
							c0.263,0.633,0.988,0.935,1.62,0.672c0.632-0.262,0.935-0.989,0.673-1.623C524.329,119.688,523.6,119.387,522.968,119.646z"/>
					</g>
				</g>
				<g>
					<g enable-background="new    ">
						<path fill="#83A521" d="M255.046,97.545c0.524,0.454,0.787,1.093,0.787,1.914c0,0.857-0.264,1.523-0.792,1.996
							s-1.269,0.709-2.222,0.709h-1.914v2.398h-1.056v-7.7h2.97C253.779,96.862,254.521,97.09,255.046,97.545z M254.292,100.773
							c0.352-0.29,0.528-0.717,0.528-1.282c0-0.55-0.176-0.966-0.528-1.248s-0.858-0.424-1.518-0.424l-1.87,0.011v3.377h1.87
							C253.434,101.207,253.94,101.062,254.292,100.773z"/>
						<path fill="#83A521" d="M262.498,104.562l-0.814-1.87h-4.059l-0.803,1.87h-1.111l3.421-7.7h1.1l3.41,7.7H262.498z
							 M258.044,101.735h3.234l-1.628-3.74L258.044,101.735z"/>
						<path fill="#83A521" d="M269.736,104.562l-1.529-2.42c-0.176,0.015-0.319,0.021-0.429,0.021h-1.958v2.398h-1.056v-7.7h3.014
							c0.976,0,1.729,0.226,2.261,0.677s0.797,1.091,0.797,1.92c0,0.623-0.145,1.147-0.435,1.572
							c-0.29,0.426-0.706,0.733-1.249,0.924l1.793,2.607H269.736z M267.778,101.207c0.66,0,1.166-0.145,1.518-0.434
							c0.352-0.29,0.528-0.717,0.528-1.282c0-0.55-0.176-0.966-0.528-1.248s-0.858-0.424-1.518-0.424h-1.958v3.388H267.778z"/>
						<path fill="#83A521" d="M278.437,104.562l-0.814-1.87h-4.059l-0.803,1.87h-1.111l3.421-7.7h1.1l3.41,7.7H278.437z
							 M273.983,101.735h3.234l-1.628-3.74L273.983,101.735z"/>
						<path fill="#83A521" d="M285.868,97.363c0.605,0.334,1.08,0.794,1.424,1.38c0.345,0.587,0.517,1.243,0.517,1.97
							c0,0.726-0.174,1.382-0.522,1.969c-0.349,0.587-0.827,1.047-1.436,1.38c-0.609,0.334-1.291,0.501-2.046,0.501h-3.102v-7.7
							h3.135C284.586,96.862,285.263,97.029,285.868,97.363z M285.318,103.231c0.437-0.249,0.781-0.594,1.034-1.034
							c0.253-0.439,0.379-0.931,0.379-1.474c0-0.55-0.128-1.045-0.385-1.485c-0.257-0.439-0.607-0.786-1.051-1.039
							s-0.937-0.38-1.479-0.38h-2.057v5.786h2.101C284.395,103.605,284.882,103.48,285.318,103.231z"/>
						<path fill="#83A521" d="M294.849,104.562l-0.814-1.87h-4.059l-0.803,1.87h-1.111l3.421-7.7h1.1l3.41,7.7H294.849z
							 M290.394,101.735h3.234L292,97.995L290.394,101.735z"/>
					</g>
					<g enable-background="new    ">
						<path fill="#83A521" d="M252.955,132.862h1.056v6.743h3.366v0.957h-4.422V132.862z"/>
						<path fill="#83A521" d="M260.198,139.083c0.392,0.399,0.933,0.6,1.623,0.6c0.682,0,1.217-0.2,1.606-0.6
							s0.583-0.955,0.583-1.667v-4.554h1.056v4.554c0,1.005-0.288,1.794-0.863,2.365c-0.576,0.572-1.37,0.858-2.381,0.858
							c-1.02,0-1.819-0.286-2.398-0.858c-0.58-0.571-0.869-1.36-0.869-2.365v-4.554h1.056v4.554
							C259.61,138.128,259.806,138.684,260.198,139.083z M262.426,130.641l1.056,0.462l-1.364,1.078l-0.869-0.11L262.426,130.641z"
							/>
						<path fill="#83A521" d="M272.266,133.363c0.605,0.334,1.08,0.794,1.424,1.38c0.345,0.587,0.517,1.243,0.517,1.97
							c0,0.726-0.174,1.382-0.522,1.969c-0.349,0.587-0.827,1.047-1.436,1.38c-0.609,0.334-1.291,0.501-2.046,0.501h-3.102v-7.7
							h3.135C270.984,132.862,271.661,133.029,272.266,133.363z M271.716,139.231c0.437-0.249,0.781-0.594,1.034-1.034
							c0.253-0.439,0.379-0.931,0.379-1.474c0-0.55-0.128-1.045-0.385-1.485c-0.257-0.439-0.607-0.786-1.051-1.039
							s-0.937-0.38-1.479-0.38h-2.057v5.786h2.101C270.793,139.605,271.28,139.48,271.716,139.231z"/>
						<path fill="#83A521" d="M275.714,132.862h1.056v7.7h-1.056V132.862z"/>
						<path fill="#83A521" d="M283.524,133.99c-0.389-0.173-0.788-0.259-1.199-0.259c-0.543,0-1.042,0.132-1.496,0.396
							c-0.455,0.264-0.814,0.621-1.078,1.072c-0.264,0.451-0.396,0.947-0.396,1.49c0,0.535,0.132,1.03,0.396,1.485
							c0.264,0.454,0.624,0.813,1.078,1.078c0.455,0.264,0.953,0.396,1.496,0.396c0.403,0,0.799-0.082,1.188-0.247
							s0.733-0.391,1.034-0.677l0.638,0.693c-0.389,0.381-0.84,0.68-1.353,0.896c-0.513,0.216-1.034,0.324-1.562,0.324
							c-0.733,0-1.404-0.174-2.013-0.522c-0.609-0.349-1.089-0.823-1.441-1.425c-0.352-0.602-0.528-1.265-0.528-1.991
							c0-0.719,0.178-1.376,0.534-1.975c0.355-0.598,0.841-1.068,1.458-1.413c0.616-0.345,1.294-0.517,2.035-0.517
							c0.535,0,1.054,0.101,1.557,0.302c0.502,0.202,0.937,0.486,1.304,0.853l-0.627,0.76
							C284.254,134.402,283.912,134.162,283.524,133.99z"/>
						<path fill="#83A521" d="M292.335,140.562l-0.814-1.87h-4.059l-0.803,1.87h-1.111l3.421-7.7h1.1l3.41,7.7H292.335z
							 M287.88,137.735h3.234l-1.628-3.74L287.88,137.735z"/>
					</g>
					<path fill="#83A521" d="M267.207,110.609c-1.399,0.594-2.383,1.982-2.382,3.595l0.007,8.94
						c0.002,2.146,1.755,3.896,3.898,3.894l8.948-0.005c2.144-0.002,3.895-1.756,3.893-3.898l-0.006-8.944
						c-0.001-2.148-1.755-3.897-3.899-3.896l-8.947,0.006C268.185,110.301,267.67,110.412,267.207,110.609z M267.805,112.042
						c0.278-0.118,0.591-0.181,0.918-0.182l8.945-0.004c1.31-0.003,2.338,1.027,2.34,2.336l0.006,8.943
						c0.001,1.309-1.028,2.34-2.338,2.34l-8.947,0.004c-1.307,0.002-2.336-1.024-2.337-2.334l-0.007-8.942
						C266.386,113.22,266.961,112.394,267.805,112.042z M272.751,117.588c-0.596,0.247-0.877,0.932-0.63,1.527
						c0.247,0.597,0.931,0.879,1.526,0.632l0,0c0.597-0.248,0.878-0.931,0.631-1.527l0,0
						C274.031,117.624,273.349,117.342,272.751,117.588z"/>
				</g>
			</g>
		</g>
	</g>
</g>
<g>
	<g>
		<path fill="#AEEBD7" d="M1281,96.523c-6-1.671-14.22-2.523-22.673-2.523h-26.032l12.342,22.865
			c0.201,0.203,0.304,0.229,0.304,0.491c0,0.263-0.103,0.816-0.304,1.02L1232.303,142h26.024c7.736,0,14.039,4.665,14.039,12.746
			c0,8.078-6.303,12.254-14.039,12.254H966.141c-18.996,0-34.396,15.504-34.396,34.5s15.399,34.5,34.396,34.5h292.188
			c8.453,0,16.672-0.854,22.672-2.523V96.523L1281,96.523z"/>
	</g>
	<g>
		<g enable-background="new    ">
			<path fill="#00C081" d="M987.703,213.412l-3.799-6.013c-0.438,0.037-0.793,0.055-1.066,0.055h-4.865v5.958h-2.623v-19.131h7.488
				c2.423,0,4.295,0.561,5.616,1.681c1.321,1.121,1.981,2.711,1.981,4.77c0,1.549-0.359,2.852-1.08,3.908
				c-0.719,1.057-1.753,1.821-3.102,2.295l4.455,6.478H987.703z M982.838,205.076c1.641,0,2.896-0.359,3.771-1.079
				s1.312-1.78,1.312-3.184c0-1.367-0.438-2.4-1.312-3.103c-0.875-0.701-2.131-1.052-3.771-1.052h-4.865v8.417H982.838z"/>
			<path fill="#00C081" d="M995.11,194.281h13.281v2.378h-10.658v5.903h9.538v2.377h-9.538v6.095h10.986v2.378H995.11V194.281z"/>
			<path fill="#00C081" d="M1010.496,194.281h14.949v2.405h-6.178v16.726h-2.623v-16.726h-6.148V194.281z"/>
			<path fill="#00C081" d="M1040.682,195.401c1.539,0.857,2.755,2.027,3.648,3.513c0.893,1.484,1.339,3.12,1.339,4.905
				c0,1.786-0.446,3.43-1.339,4.933c-0.894,1.504-2.109,2.688-3.648,3.554c-1.541,0.865-3.23,1.298-5.07,1.298
				s-3.53-0.433-5.069-1.298c-1.54-0.865-2.757-2.05-3.649-3.554c-0.893-1.503-1.338-3.146-1.338-4.933
				c0-1.785,0.445-3.421,1.338-4.905c0.893-1.485,2.105-2.655,3.636-3.513c1.53-0.855,3.225-1.284,5.083-1.284
				C1037.451,194.117,1039.141,194.546,1040.682,195.401z M1031.936,197.451c-1.139,0.656-2.045,1.545-2.719,2.665
				c-0.675,1.12-1.012,2.355-1.012,3.703c0,1.349,0.337,2.588,1.012,3.717c0.674,1.13,1.58,2.027,2.719,2.692
				s2.373,0.997,3.703,0.997s2.556-0.332,3.676-0.997c1.121-0.665,2.014-1.562,2.679-2.692c0.665-1.129,0.997-2.368,0.997-3.717
				c0-1.348-0.332-2.583-0.997-3.703s-1.558-2.009-2.679-2.665c-1.12-0.655-2.346-0.983-3.676-0.983
				S1033.074,196.796,1031.936,197.451z"/>
			<path fill="#00C081" d="M1057.844,197.001c-0.957-0.282-1.836-0.424-2.637-0.424c-1.111,0-2,0.214-2.665,0.643
				c-0.665,0.428-0.997,1.016-0.997,1.763c0,0.674,0.199,1.226,0.601,1.653s0.893,0.765,1.476,1.011s1.395,0.533,2.433,0.861
				c1.294,0.4,2.341,0.783,3.144,1.147c0.801,0.365,1.484,0.906,2.049,1.626c0.564,0.721,0.848,1.672,0.848,2.856
				c0,1.093-0.297,2.05-0.889,2.869c-0.592,0.82-1.421,1.453-2.486,1.899c-1.066,0.447-2.291,0.67-3.676,0.67
				c-1.404,0-2.77-0.273-4.1-0.82c-1.33-0.546-2.479-1.274-3.443-2.187l1.175-2.268c0.911,0.893,1.936,1.58,3.075,2.063
				c1.138,0.482,2.244,0.724,3.32,0.724c1.275,0,2.281-0.25,3.02-0.751s1.107-1.18,1.107-2.036c0-0.674-0.201-1.23-0.602-1.667
				c-0.401-0.438-0.906-0.783-1.518-1.039c-0.61-0.255-1.434-0.537-2.473-0.847c-1.275-0.383-2.314-0.756-3.115-1.121
				c-0.803-0.364-1.48-0.901-2.037-1.612c-0.556-0.711-0.833-1.648-0.833-2.815c0-1.02,0.282-1.922,0.847-2.705
				s1.357-1.385,2.379-1.804c1.02-0.419,2.203-0.629,3.553-0.629c1.147,0,2.271,0.169,3.375,0.506
				c1.102,0.337,2.081,0.788,2.938,1.353l-1.094,2.351C1059.725,197.707,1058.801,197.283,1057.844,197.001z"/>
			<path fill="#00C081" d="M1084.75,197.083c-0.967-0.429-1.959-0.643-2.979-0.643c-1.349,0-2.587,0.328-3.717,0.983
				c-1.13,0.656-2.022,1.545-2.679,2.665c-0.655,1.12-0.983,2.355-0.983,3.703c0,1.33,0.328,2.561,0.983,3.689
				c0.656,1.13,1.549,2.022,2.679,2.679c1.13,0.655,2.368,0.983,3.717,0.983c1.002,0,1.985-0.205,2.952-0.614
				c0.965-0.41,1.821-0.971,2.568-1.682l1.586,1.722c-0.967,0.948-2.087,1.69-3.362,2.228c-1.275,0.538-2.569,0.807-3.881,0.807
				c-1.821,0-3.489-0.433-5.001-1.298c-1.513-0.865-2.705-2.046-3.58-3.54c-0.875-1.493-1.312-3.143-1.312-4.946
				c0-1.785,0.441-3.421,1.326-4.905c0.883-1.485,2.09-2.655,3.621-3.513c1.53-0.855,3.215-1.284,5.056-1.284
				c1.33,0,2.619,0.251,3.867,0.752s2.327,1.207,3.239,2.118l-1.559,1.886C1086.563,198.107,1085.715,197.511,1084.75,197.083z"/>
			<path fill="#00C081" d="M1105.533,195.401c1.54,0.857,2.756,2.027,3.648,3.513c0.893,1.484,1.34,3.12,1.34,4.905
				c0,1.786-0.447,3.43-1.34,4.933c-0.893,1.504-2.108,2.688-3.648,3.554c-1.539,0.865-3.229,1.298-5.069,1.298
				s-3.53-0.433-5.069-1.298c-1.54-0.865-2.756-2.05-3.648-3.554c-0.893-1.503-1.34-3.146-1.34-4.933
				c0-1.785,0.447-3.421,1.34-4.905c0.893-1.485,2.104-2.655,3.635-3.513c1.53-0.855,3.225-1.284,5.083-1.284
				C1102.305,194.117,1103.994,194.546,1105.533,195.401z M1096.788,197.451c-1.139,0.656-2.046,1.545-2.72,2.665
				s-1.011,2.355-1.011,3.703c0,1.349,0.337,2.588,1.011,3.717c0.674,1.13,1.581,2.027,2.72,2.692s2.373,0.997,3.703,0.997
				s2.556-0.332,3.676-0.997s2.013-1.562,2.679-2.692c0.664-1.129,0.998-2.368,0.998-3.717c0-1.348-0.334-2.583-0.998-3.703
				c-0.666-1.12-1.559-2.009-2.679-2.665c-1.12-0.655-2.346-0.983-3.676-0.983S1097.927,196.796,1096.788,197.451z"/>
			<path fill="#00C081" d="M1127.904,194.281h2.597v19.131h-2.651l-10.933-14.812v14.812h-2.623v-19.131h2.65l10.96,14.84V194.281z"
				/>
			<path fill="#00C081" d="M1147.307,197.083c-0.966-0.429-1.959-0.643-2.979-0.643c-1.349,0-2.588,0.328-3.717,0.983
				c-1.131,0.656-2.023,1.545-2.679,2.665s-0.983,2.355-0.983,3.703c0,1.33,0.328,2.561,0.983,3.689
				c0.655,1.13,1.548,2.022,2.679,2.679c1.129,0.655,2.368,0.983,3.717,0.983c1.002,0,1.985-0.205,2.951-0.614
				c0.966-0.41,1.822-0.971,2.569-1.682l1.585,1.722c-0.966,0.948-2.086,1.69-3.361,2.228c-1.275,0.538-2.569,0.807-3.881,0.807
				c-1.822,0-3.489-0.433-5.002-1.298c-1.512-0.865-2.705-2.046-3.58-3.54c-0.875-1.493-1.312-3.143-1.312-4.946
				c0-1.785,0.441-3.421,1.325-4.905c0.884-1.485,2.091-2.655,3.621-3.513c1.531-0.855,3.216-1.284,5.057-1.284
				c1.33,0,2.619,0.251,3.867,0.752s2.327,1.207,3.238,2.118l-1.558,1.886C1149.119,198.107,1148.273,197.511,1147.307,197.083z"/>
			<path fill="#00C081" d="M1167.449,213.412l-3.799-6.013c-0.438,0.037-0.793,0.055-1.066,0.055h-4.865v5.958h-2.623v-19.131h7.488
				c2.423,0,4.295,0.561,5.616,1.681c1.321,1.121,1.981,2.711,1.981,4.77c0,1.549-0.359,2.852-1.08,3.908
				c-0.719,1.057-1.753,1.821-3.102,2.295l4.455,6.478H1167.449z M1162.584,205.076c1.641,0,2.896-0.359,3.771-1.079
				s1.312-1.78,1.312-3.184c0-1.367-0.438-2.4-1.312-3.103c-0.875-0.701-2.131-1.052-3.771-1.052h-4.865v8.417H1162.584z"/>
			<path fill="#00C081" d="M1174.855,194.281h13.282v2.378h-10.658v5.903h9.537v2.377h-9.537v6.095h10.986v2.378h-13.61V194.281z"/>
			<path fill="#00C081" d="M1190.242,194.281h14.949v2.405h-6.178v16.726h-2.623v-16.726h-6.148V194.281z"/>
			<path fill="#00C081" d="M1220.427,195.401c1.54,0.857,2.755,2.027,3.648,3.513c0.893,1.484,1.339,3.12,1.339,4.905
				c0,1.786-0.446,3.43-1.339,4.933c-0.894,1.504-2.108,2.688-3.648,3.554s-3.229,1.298-5.069,1.298
				c-1.841,0-3.531-0.433-5.07-1.298s-2.756-2.05-3.648-3.554c-0.893-1.503-1.339-3.146-1.339-4.933
				c0-1.785,0.446-3.421,1.339-4.905c0.893-1.485,2.104-2.655,3.635-3.513c1.531-0.855,3.225-1.284,5.084-1.284
				C1217.198,194.117,1218.887,194.546,1220.427,195.401z M1211.682,197.451c-1.139,0.656-2.046,1.545-2.72,2.665
				c-0.675,1.12-1.011,2.355-1.011,3.703c0,1.349,0.336,2.588,1.011,3.717c0.674,1.13,1.581,2.027,2.72,2.692
				s2.373,0.997,3.703,0.997s2.555-0.332,3.676-0.997c1.12-0.665,2.013-1.562,2.678-2.692c0.665-1.129,0.998-2.368,0.998-3.717
				c0-1.348-0.333-2.583-0.998-3.703s-1.558-2.009-2.678-2.665c-1.121-0.655-2.346-0.983-3.676-0.983
				S1212.821,196.796,1211.682,197.451z"/>
			<path fill="#00C081" d="M1237.59,197.001c-0.957-0.282-1.836-0.424-2.637-0.424c-1.111,0-2,0.214-2.665,0.643
				c-0.665,0.428-0.997,1.016-0.997,1.763c0,0.674,0.199,1.226,0.601,1.653s0.893,0.765,1.476,1.011s1.395,0.533,2.433,0.861
				c1.294,0.4,2.341,0.783,3.144,1.147c0.801,0.365,1.484,0.906,2.049,1.626c0.564,0.721,0.848,1.672,0.848,2.856
				c0,1.093-0.297,2.05-0.889,2.869c-0.592,0.82-1.421,1.453-2.486,1.899c-1.066,0.447-2.291,0.67-3.676,0.67
				c-1.404,0-2.77-0.273-4.1-0.82c-1.33-0.546-2.479-1.274-3.443-2.187l1.175-2.268c0.911,0.893,1.936,1.58,3.075,2.063
				c1.138,0.482,2.244,0.724,3.32,0.724c1.275,0,2.281-0.25,3.02-0.751s1.107-1.18,1.107-2.036c0-0.674-0.201-1.23-0.602-1.667
				c-0.401-0.438-0.906-0.783-1.518-1.039c-0.61-0.255-1.434-0.537-2.473-0.847c-1.275-0.383-2.314-0.756-3.115-1.121
				c-0.803-0.364-1.48-0.901-2.037-1.612c-0.556-0.711-0.833-1.648-0.833-2.815c0-1.02,0.282-1.922,0.847-2.705
				s1.357-1.385,2.379-1.804c1.02-0.419,2.203-0.629,3.553-0.629c1.147,0,2.271,0.169,3.375,0.506
				c1.102,0.337,2.081,0.788,2.938,1.353l-1.094,2.351C1239.471,197.707,1238.547,197.283,1237.59,197.001z"/>
		</g>
	</g>
</g>
<g>
	<g>
		<path fill="#FFBEB8" d="M28.993,92.5c-7.746,0-14.059-4.154-14.059-12.244c0-8.092,6.312-11.756,19.226-11.756h317.872
			c13.857,0,29.279-15.477,29.279-34.5c0-19.024-15.422-34.5-34.446-34.5H28.993c-45.867,0-70.553,25.781-70.553,72
			c0,46.218,24.687,72,70.553,72h16.964l13.108-25.495L45.951,92.5H28.993z"/>
	</g>
	<g>
		<g enable-background="new    ">
			<path fill="#FF4331" d="M43.244,28.641c1.302,1.13,1.954,2.715,1.954,4.756c0,2.132-0.656,3.785-1.967,4.96
				c-1.312,1.175-3.152,1.763-5.521,1.763h-4.755v5.958H30.33V26.946h7.379C40.096,26.946,41.941,27.512,43.244,28.641z
				 M41.371,36.662c0.875-0.72,1.312-1.78,1.312-3.184c0-1.367-0.437-2.4-1.312-3.103c-0.875-0.701-2.131-1.052-3.771-1.052
				l-4.646,0.027v8.39H37.6C39.24,37.741,40.497,37.382,41.371,36.662z"/>
			<path fill="#FF4331" d="M61.021,46.077l-3.799-6.013c-0.437,0.037-0.792,0.055-1.066,0.055h-4.865v5.958h-2.624V26.946h7.488
				c2.423,0,4.295,0.561,5.616,1.681c1.321,1.121,1.981,2.711,1.981,4.77c0,1.549-0.36,2.852-1.08,3.908s-1.753,1.821-3.102,2.295
				l4.455,6.478H61.021z M56.156,37.741c1.64,0,2.897-0.359,3.771-1.079s1.312-1.78,1.312-3.184c0-1.367-0.438-2.4-1.312-3.103
				c-0.875-0.701-2.131-1.052-3.771-1.052h-4.865v8.417H56.156z"/>
			<path fill="#FF4331" d="M81.86,28.066c1.54,0.857,2.755,2.027,3.648,3.513c0.893,1.484,1.339,3.12,1.339,4.905
				c0,1.786-0.447,3.43-1.339,4.933c-0.893,1.504-2.109,2.688-3.648,3.554c-1.54,0.865-3.229,1.298-5.07,1.298
				s-3.53-0.433-5.069-1.298c-1.54-0.865-2.756-2.05-3.649-3.554c-0.893-1.503-1.339-3.146-1.339-4.933
				c0-1.785,0.446-3.421,1.339-4.905c0.893-1.485,2.104-2.655,3.635-3.513c1.53-0.855,3.225-1.284,5.083-1.284
				C78.631,26.782,80.32,27.211,81.86,28.066z M73.115,30.116c-1.139,0.656-2.045,1.545-2.719,2.665
				c-0.674,1.12-1.011,2.355-1.011,3.703c0,1.349,0.337,2.588,1.011,3.717c0.674,1.13,1.581,2.027,2.719,2.692
				s2.373,0.997,3.703,0.997s2.556-0.332,3.676-0.997c1.121-0.665,2.013-1.562,2.679-2.692c0.665-1.129,0.998-2.368,0.998-3.717
				c0-1.348-0.333-2.583-0.998-3.703c-0.666-1.12-1.558-2.009-2.679-2.665c-1.12-0.655-2.346-0.983-3.676-0.983
				S74.253,29.461,73.115,30.116z"/>
			<path fill="#FF4331" d="M103.396,28.217c1.12,0.848,1.681,2.019,1.681,3.513c0,1.093-0.31,2.018-0.929,2.773
				c-0.62,0.757-1.467,1.262-2.542,1.517c1.33,0.201,2.373,0.734,3.129,1.599c0.756,0.866,1.134,1.945,1.134,3.239
				c0,1.64-0.615,2.92-1.845,3.84s-2.929,1.38-5.097,1.38h-8.308V26.946h8.172C100.74,26.946,102.275,27.37,103.396,28.217z
				 M101.401,34.312c0.646-0.501,0.97-1.216,0.97-2.146c0-0.91-0.324-1.612-0.97-2.104c-0.647-0.491-1.562-0.729-2.747-0.71h-5.412
				v5.712h5.412C99.838,35.063,100.754,34.813,101.401,34.312z M101.988,42.866c0.802-0.556,1.203-1.335,1.203-2.337
				c0-0.966-0.401-1.722-1.203-2.269s-1.913-0.819-3.334-0.819h-5.412v6.23h5.412C100.075,43.69,101.186,43.422,101.988,42.866z"/>
			<path fill="#FF4331" d="M110.077,26.946h2.624v16.753h8.363v2.378h-10.987V26.946z"/>
			<path fill="#FF4331" d="M124.398,26.946h13.282v2.378h-10.659v5.903h9.538v2.377h-9.538v6.095h10.987v2.378h-13.61V26.946z"/>
			<path fill="#FF4331" d="M142.244,26.946h3.116l6.996,13.446l6.942-13.446h3.143v19.131h-2.46L159.954,30.8l-6.805,13.255h-1.613
				L144.677,30.8v15.277h-2.433V26.946z"/>
			<path fill="#FF4331" d="M182.118,46.077l-2.022-4.646h-10.084l-1.995,4.646h-2.76l8.5-19.131h2.733l8.472,19.131H182.118z
				 M171.05,39.054h8.035l-4.044-9.292L171.05,39.054z M176.597,21.426l2.624,1.147l-3.389,2.679l-2.159-0.273L176.597,21.426z"/>
			<path fill="#FF4331" d="M183.458,26.946h14.949v2.405h-6.177v16.726h-2.624V29.352h-6.149V26.946z"/>
			<path fill="#FF4331" d="M201.413,26.946h2.624v19.131h-2.624V26.946z"/>
			<path fill="#FF4331" d="M220.817,29.748c-0.966-0.429-1.958-0.643-2.979-0.643c-1.348,0-2.587,0.328-3.717,0.983
				c-1.13,0.656-2.022,1.545-2.678,2.665s-0.984,2.355-0.984,3.703c0,1.33,0.328,2.561,0.984,3.689
				c0.656,1.13,1.548,2.022,2.678,2.679c1.129,0.655,2.369,0.983,3.717,0.983c1.002,0,1.986-0.205,2.952-0.614
				c0.966-0.41,1.822-0.971,2.569-1.682l1.585,1.722c-0.966,0.948-2.086,1.69-3.362,2.228c-1.275,0.538-2.569,0.807-3.881,0.807
				c-1.822,0-3.489-0.433-5.001-1.298c-1.513-0.865-2.706-2.046-3.58-3.54c-0.875-1.493-1.312-3.143-1.312-4.946
				c0-1.785,0.441-3.421,1.326-4.905c0.883-1.485,2.09-2.655,3.621-3.513c1.53-0.855,3.215-1.284,5.056-1.284
				c1.33,0,2.619,0.251,3.867,0.752s2.328,1.207,3.239,2.118l-1.558,1.886C222.63,30.772,221.782,30.176,220.817,29.748z"/>
			<path fill="#FF4331" d="M242.707,46.077l-2.022-4.646H230.6l-1.995,4.646h-2.76l8.5-19.131h2.733l8.472,19.131H242.707z
				 M231.639,39.054h8.035l-4.044-9.292L231.639,39.054z"/>
			<path fill="#FF4331" d="M255.497,26.946h2.624v19.131h-2.624V26.946z"/>
			<path fill="#FF4331" d="M277.197,26.946h2.596v19.131h-2.651L266.21,31.265v14.812h-2.624V26.946h2.651l10.959,14.84V26.946z"/>
			<path fill="#FF4331" d="M285.286,26.946h2.624v19.131h-2.624V26.946z"/>
			<path fill="#FF4331" d="M304.69,29.748c-0.966-0.429-1.958-0.643-2.979-0.643c-1.348,0-2.587,0.328-3.717,0.983
				c-1.13,0.656-2.022,1.545-2.678,2.665s-0.984,2.355-0.984,3.703c0,1.33,0.328,2.561,0.984,3.689
				c0.656,1.13,1.548,2.022,2.678,2.679c1.129,0.655,2.369,0.983,3.717,0.983c1.002,0,1.986-0.205,2.952-0.614
				c0.966-0.41,1.822-0.971,2.569-1.682l1.585,1.722c-0.966,0.948-2.086,1.69-3.362,2.228c-1.275,0.538-2.569,0.807-3.881,0.807
				c-1.822,0-3.489-0.433-5.001-1.298c-1.513-0.865-2.706-2.046-3.58-3.54c-0.875-1.493-1.312-3.143-1.312-4.946
				c0-1.785,0.441-3.421,1.326-4.905c0.883-1.485,2.09-2.655,3.621-3.513c1.53-0.855,3.215-1.284,5.056-1.284
				c1.33,0,2.619,0.251,3.867,0.752s2.328,1.207,3.239,2.118l-1.558,1.886C306.503,30.772,305.656,30.176,304.69,29.748z"/>
			<path fill="#FF4331" d="M312.479,26.946h2.624v19.131h-2.624V26.946z"/>
			<path fill="#FF4331" d="M334.78,46.077l-2.022-4.646h-10.084l-1.995,4.646h-2.76l8.5-19.131h2.733l8.472,19.131H334.78z
				 M323.711,39.054h8.035l-4.044-9.292L323.711,39.054z"/>
			<path fill="#FF4331" d="M340.409,26.946h2.624v16.753h8.363v2.378h-10.987V26.946z"/>
		</g>
	</g>
</g>
</svg>
