<?xml version="1.0" encoding="utf-8"?>
<!-- Generator: Adobe Illustrator 15.0.2, SVG Export Plug-In . SVG Version: 6.00 Build 0)  -->
<!DOCTYPE svg PUBLIC "-//W3C//DTD SVG 1.1//EN" "http://www.w3.org/Graphics/SVG/1.1/DTD/svg11.dtd">
<svg version="1.1" id="Capa_1" xmlns="http://www.w3.org/2000/svg" xmlns:xlink="http://www.w3.org/1999/xlink" x="0px" y="0px"
	 width="392px" height="134.473px" viewBox="0 0 392 134.473" enable-background="new 0 0 392 134.473" xml:space="preserve">
<rect y="-61.527" fill="#ECEED7" width="392" height="196"/>
<g>
	<g>
		<g>
			<g>
				<path fill="#666666" d="M22.125,10.837c0.893,0.697,1.339,1.661,1.339,2.891c0,0.93-0.259,1.71-0.776,2.34
					c-0.517,0.63-1.241,1.043-2.171,1.238c1.155,0.15,2.055,0.578,2.7,1.282c0.645,0.706,0.968,1.598,0.968,2.678
					c0,1.35-0.503,2.4-1.508,3.15s-2.4,1.125-4.185,1.125h-6.66V9.791h6.592C19.999,9.791,21.232,10.139,22.125,10.837z
					 M20.943,16.012c0.615-0.487,0.922-1.181,0.922-2.081c0-0.87-0.308-1.545-0.922-2.025c-0.615-0.48-1.478-0.712-2.587-0.698
					h-4.973v5.535h4.973C19.466,16.743,20.328,16.5,20.943,16.012z M21.495,23.347c0.743-0.532,1.114-1.278,1.114-2.239
					c0-0.945-0.375-1.68-1.125-2.205c-0.75-0.525-1.792-0.787-3.127-0.787h-4.973v6.03h4.973
					C19.706,24.146,20.752,23.879,21.495,23.347z"/>
				<path fill="#666666" d="M29.246,9.599c0.195,0.203,0.292,0.454,0.292,0.754c0,0.3-0.101,0.555-0.304,0.765
					s-0.446,0.315-0.731,0.315c-0.3,0-0.551-0.105-0.754-0.315s-0.304-0.465-0.304-0.765c0-0.3,0.101-0.551,0.304-0.754
					c0.203-0.202,0.454-0.304,0.754-0.304C28.803,9.295,29.051,9.397,29.246,9.599z M27.738,13.75h1.507v11.79h-1.507V13.75z"/>
				<path fill="#666666" d="M42.408,15.449c0.96,1.163,1.402,2.727,1.328,4.691h-9.833c0.104,1.26,0.57,2.276,1.395,3.049
					c0.825,0.772,1.845,1.159,3.06,1.159c0.75,0,1.447-0.135,2.092-0.405s1.2-0.652,1.665-1.147l0.855,0.855
					c-0.57,0.615-1.256,1.091-2.059,1.429c-0.803,0.338-1.684,0.506-2.644,0.506c-1.14,0-2.152-0.251-3.037-0.754
					c-0.885-0.502-1.579-1.204-2.082-2.104s-0.754-1.927-0.754-3.083c0-1.14,0.251-2.164,0.754-3.071
					c0.502-0.907,1.196-1.612,2.082-2.115c0.885-0.502,1.882-0.754,2.992-0.754C40.053,13.706,41.448,14.287,42.408,15.449z
					 M42.386,18.971c-0.075-1.23-0.484-2.208-1.226-2.937c-0.743-0.727-1.714-1.091-2.914-1.091c-1.185,0-2.175,0.368-2.97,1.103
					c-0.795,0.735-1.253,1.71-1.373,2.925H42.386z"/>
				<path fill="#666666" d="M56.37,14.932c0.802,0.818,1.204,1.939,1.204,3.364v7.245h-1.53v-6.885c0-1.11-0.308-1.98-0.922-2.61
					c-0.615-0.63-1.47-0.945-2.565-0.945c-1.215,0.015-2.187,0.39-2.914,1.125c-0.728,0.735-1.144,1.725-1.249,2.97v6.345h-1.507
					V13.75h1.507v2.745c0.405-0.915,1.001-1.605,1.789-2.07c0.787-0.464,1.744-0.705,2.869-0.72
					C54.46,13.706,55.567,14.114,56.37,14.932z"/>
				<path fill="#666666" d="M58.99,13.75h1.62l3.915,10.283l3.87-10.283h1.575l-4.68,11.79h-1.598L58.99,13.75z"/>
				<path fill="#666666" d="M80.523,15.449c0.96,1.163,1.402,2.727,1.328,4.691h-9.833c0.104,1.26,0.57,2.276,1.395,3.049
					c0.825,0.772,1.845,1.159,3.06,1.159c0.75,0,1.447-0.135,2.092-0.405s1.2-0.652,1.665-1.147l0.855,0.855
					c-0.57,0.615-1.256,1.091-2.059,1.429c-0.803,0.338-1.684,0.506-2.644,0.506c-1.14,0-2.152-0.251-3.037-0.754
					c-0.885-0.502-1.579-1.204-2.082-2.104s-0.754-1.927-0.754-3.083c0-1.14,0.251-2.164,0.754-3.071
					c0.502-0.907,1.196-1.612,2.082-2.115c0.885-0.502,1.882-0.754,2.992-0.754C78.168,13.706,79.563,14.287,80.523,15.449z
					 M80.5,18.971c-0.075-1.23-0.484-2.208-1.226-2.937c-0.743-0.727-1.714-1.091-2.914-1.091c-1.185,0-2.175,0.368-2.97,1.103
					c-0.795,0.735-1.253,1.71-1.373,2.925H80.5z"/>
				<path fill="#666666" d="M94.484,14.932c0.802,0.818,1.204,1.939,1.204,3.364v7.245h-1.53v-6.885c0-1.11-0.308-1.98-0.922-2.61
					c-0.615-0.63-1.47-0.945-2.565-0.945c-1.215,0.015-2.187,0.39-2.914,1.125c-0.728,0.735-1.144,1.725-1.249,2.97v6.345H85V13.75
					h1.507v2.745c0.405-0.915,1.001-1.605,1.789-2.07c0.787-0.464,1.744-0.705,2.869-0.72
					C92.575,13.706,93.681,14.114,94.484,14.932z"/>
				<path fill="#666666" d="M101.222,9.599c0.195,0.203,0.292,0.454,0.292,0.754c0,0.3-0.101,0.555-0.304,0.765
					s-0.446,0.315-0.731,0.315c-0.3,0-0.551-0.105-0.754-0.315s-0.304-0.465-0.304-0.765c0-0.3,0.101-0.551,0.304-0.754
					c0.203-0.202,0.454-0.304,0.754-0.304C100.78,9.295,101.027,9.397,101.222,9.599z M99.715,13.75h1.507v11.79h-1.507V13.75z"/>
				<path fill="#666666" d="M116.342,8.846v16.695h-1.507v-2.7c-0.45,0.885-1.08,1.572-1.89,2.059s-1.755,0.731-2.835,0.731
					c-1.11,0-2.1-0.255-2.97-0.765s-1.545-1.223-2.025-2.138c-0.48-0.915-0.72-1.95-0.72-3.105c0-1.155,0.243-2.183,0.731-3.083
					c0.487-0.9,1.162-1.605,2.025-2.115c0.862-0.51,1.841-0.765,2.937-0.765c1.08,0,2.028,0.248,2.846,0.742
					c0.817,0.495,1.451,1.186,1.901,2.07V8.846H116.342z M112.675,23.729c0.675-0.397,1.204-0.949,1.586-1.654
					c0.382-0.705,0.574-1.508,0.574-2.408s-0.191-1.706-0.574-2.418c-0.383-0.712-0.912-1.271-1.586-1.676
					c-0.675-0.405-1.44-0.608-2.295-0.608s-1.62,0.203-2.295,0.608c-0.675,0.405-1.208,0.964-1.598,1.676
					c-0.39,0.712-0.585,1.519-0.585,2.418s0.191,1.703,0.574,2.408s0.915,1.256,1.598,1.654c0.682,0.397,1.451,0.596,2.306,0.596
					S112,24.127,112.675,23.729z"/>
				<path fill="#666666" d="M128.267,25.541l-0.022-1.98c-0.465,0.69-1.073,1.204-1.822,1.541c-0.75,0.338-1.613,0.506-2.588,0.506
					c-0.795,0-1.496-0.153-2.104-0.461s-1.077-0.731-1.406-1.271c-0.33-0.54-0.495-1.147-0.495-1.822
					c0-1.02,0.394-1.823,1.181-2.408c0.788-0.585,1.871-0.877,3.251-0.877h3.96v-0.9c0-0.93-0.278-1.65-0.833-2.16
					c-0.555-0.51-1.365-0.765-2.43-0.765c-1.26,0-2.527,0.473-3.802,1.417l-0.675-1.035c0.795-0.555,1.553-0.964,2.273-1.227
					c0.72-0.262,1.544-0.394,2.475-0.394c1.425,0,2.527,0.356,3.308,1.069c0.78,0.712,1.177,1.699,1.192,2.958l0.022,7.808H128.267z
					 M126.771,23.617c0.728-0.487,1.218-1.173,1.474-2.059v-1.62h-3.802c-1.035,0-1.823,0.173-2.363,0.518
					c-0.54,0.345-0.81,0.863-0.81,1.552c0,0.706,0.259,1.271,0.776,1.699c0.518,0.428,1.204,0.642,2.059,0.642
					C125.154,24.348,126.043,24.104,126.771,23.617z"/>
				<path fill="#666666" d="M138.369,15.179c-0.555-0.157-1.103-0.236-1.643-0.236c-0.75,0-1.354,0.146-1.811,0.439
					c-0.458,0.292-0.687,0.731-0.687,1.316c0,0.405,0.124,0.735,0.372,0.99c0.248,0.255,0.555,0.461,0.922,0.619
					c0.367,0.158,0.881,0.334,1.542,0.529c0.81,0.24,1.47,0.477,1.98,0.709c0.51,0.232,0.945,0.57,1.305,1.012
					c0.36,0.443,0.54,1.024,0.54,1.744c0,1.065-0.405,1.879-1.215,2.441s-1.823,0.844-3.038,0.844c-0.855,0-1.68-0.142-2.475-0.427
					s-1.462-0.69-2.002-1.215l0.607-1.08c0.51,0.465,1.114,0.833,1.812,1.103c0.697,0.27,1.406,0.405,2.126,0.405
					c0.795,0,1.444-0.165,1.946-0.495c0.502-0.33,0.754-0.81,0.754-1.44c0-0.435-0.128-0.791-0.383-1.069
					c-0.255-0.277-0.574-0.495-0.956-0.652c-0.382-0.158-0.911-0.341-1.586-0.551c-0.795-0.24-1.44-0.473-1.935-0.698
					c-0.495-0.225-0.916-0.551-1.26-0.979c-0.345-0.428-0.518-0.986-0.518-1.676c0-1.035,0.386-1.815,1.159-2.34
					s1.736-0.788,2.892-0.788c0.675,0,1.327,0.09,1.958,0.27c0.63,0.18,1.192,0.427,1.688,0.742l-0.585,1.148
					C139.427,15.558,138.924,15.337,138.369,15.179z"/>
				<path fill="#666666" d="M268.844,25.541l-0.022-1.98c-0.465,0.69-1.073,1.204-1.822,1.541c-0.751,0.338-1.612,0.506-2.588,0.506
					c-0.795,0-1.496-0.153-2.104-0.461s-1.077-0.731-1.406-1.271c-0.33-0.54-0.495-1.147-0.495-1.822
					c0-1.02,0.395-1.823,1.182-2.408s1.871-0.877,3.251-0.877h3.96v-0.9c0-0.93-0.277-1.65-0.832-2.16
					c-0.556-0.51-1.365-0.765-2.431-0.765c-1.26,0-2.527,0.473-3.802,1.417l-0.676-1.035c0.795-0.555,1.553-0.964,2.273-1.227
					c0.719-0.262,1.544-0.394,2.475-0.394c1.425,0,2.527,0.356,3.307,1.069c0.78,0.712,1.178,1.699,1.193,2.958l0.021,7.808H268.844
					z M267.348,23.617c0.728-0.487,1.219-1.173,1.474-2.059v-1.62h-3.802c-1.035,0-1.823,0.173-2.363,0.518
					c-0.54,0.345-0.811,0.863-0.811,1.552c0,0.706,0.26,1.271,0.777,1.699c0.518,0.428,1.203,0.642,2.059,0.642
					C265.73,24.348,266.619,24.104,267.348,23.617z"/>
				<path fill="#666666" d="M274.469,8.846h1.508v16.695h-1.508V8.846z"/>
				<path fill="#666666" d="M284.729,28.668c0.615,0.015,1.084-0.207,1.406-0.664c0.322-0.458,0.484-1.129,0.484-2.014V13.75h1.507
					v12.42c0,1.215-0.267,2.149-0.799,2.801c-0.532,0.653-1.294,0.979-2.284,0.979c-0.6,0-1.215-0.128-1.845-0.383l0.36-1.147
					C283.963,28.57,284.354,28.653,284.729,28.668z M288.126,9.599c0.194,0.203,0.292,0.454,0.292,0.754
					c0,0.3-0.101,0.555-0.303,0.765c-0.203,0.21-0.447,0.315-0.732,0.315c-0.3,0-0.551-0.105-0.753-0.315s-0.304-0.465-0.304-0.765
					c0-0.3,0.102-0.551,0.304-0.754c0.202-0.202,0.453-0.304,0.753-0.304C287.684,9.295,287.931,9.397,288.126,9.599z"/>
				<path fill="#666666" d="M302.369,13.75v11.79h-1.531v-2.812c-0.39,0.93-0.971,1.635-1.743,2.115s-1.706,0.727-2.802,0.742
					c-1.395,0-2.486-0.408-3.273-1.226c-0.787-0.817-1.182-1.938-1.182-3.364V13.75h1.531v6.885c0,1.11,0.303,1.976,0.91,2.599
					s1.443,0.934,2.51,0.934c1.26-0.015,2.25-0.446,2.97-1.293c0.72-0.848,1.079-1.961,1.079-3.341V13.75H302.369z"/>
				<path fill="#666666" d="M315.531,15.449c0.959,1.163,1.402,2.727,1.327,4.691h-9.833c0.105,1.26,0.57,2.276,1.396,3.049
					s1.845,1.159,3.06,1.159c0.75,0,1.447-0.135,2.093-0.405s1.2-0.652,1.665-1.147l0.855,0.855
					c-0.57,0.615-1.257,1.091-2.059,1.429c-0.803,0.338-1.685,0.506-2.645,0.506c-1.141,0-2.152-0.251-3.037-0.754
					c-0.885-0.502-1.579-1.204-2.082-2.104c-0.502-0.9-0.754-1.927-0.754-3.083c0-1.14,0.252-2.164,0.754-3.071
					c0.503-0.907,1.197-1.612,2.082-2.115s1.882-0.754,2.992-0.754C313.176,13.706,314.57,14.287,315.531,15.449z M315.508,18.971
					c-0.074-1.23-0.483-2.208-1.226-2.937c-0.743-0.727-1.714-1.091-2.914-1.091c-1.185,0-2.175,0.368-2.97,1.103
					c-0.795,0.735-1.253,1.71-1.373,2.925H315.508z"/>
				<path fill="#666666" d="M330.2,13.75v10.553c0,1.14-0.24,2.137-0.72,2.992c-0.48,0.855-1.166,1.511-2.059,1.969
					s-1.924,0.687-3.094,0.687c-1.74,0-3.354-0.6-4.838-1.8l0.721-1.08c0.6,0.525,1.229,0.923,1.889,1.193s1.381,0.405,2.16,0.405
					c1.351,0,2.427-0.394,3.229-1.181c0.803-0.788,1.205-1.841,1.205-3.161v-1.913c-0.421,0.825-1.021,1.47-1.801,1.935
					s-1.68,0.697-2.699,0.697c-1.051,0-1.984-0.244-2.802-0.731s-1.455-1.163-1.913-2.025c-0.457-0.862-0.686-1.841-0.686-2.936
					c0-1.095,0.229-2.07,0.686-2.925c0.458-0.855,1.1-1.522,1.924-2.003c0.825-0.479,1.763-0.72,2.812-0.72
					c1.021,0,1.913,0.229,2.678,0.686c0.766,0.458,1.365,1.106,1.801,1.946V13.75H330.2z M326.645,23.257
					c0.646-0.382,1.148-0.911,1.508-1.586c0.36-0.675,0.541-1.432,0.541-2.272c0-0.855-0.181-1.62-0.541-2.295
					c-0.359-0.675-0.862-1.204-1.508-1.586c-0.645-0.382-1.371-0.574-2.182-0.574s-1.538,0.191-2.183,0.574
					c-0.646,0.383-1.151,0.912-1.519,1.586c-0.368,0.675-0.551,1.44-0.551,2.295s0.183,1.617,0.551,2.284
					c0.367,0.668,0.869,1.193,1.508,1.575c0.637,0.382,1.368,0.574,2.193,0.574C325.273,23.831,326,23.639,326.645,23.257z"/>
				<path fill="#666666" d="M342.08,14.459c0.9,0.502,1.605,1.204,2.115,2.104s0.766,1.92,0.766,3.06
					c0,1.155-0.256,2.187-0.766,3.094c-0.51,0.908-1.215,1.613-2.115,2.115c-0.9,0.503-1.92,0.754-3.06,0.754
					s-2.16-0.251-3.06-0.754c-0.9-0.502-1.605-1.207-2.115-2.115c-0.51-0.907-0.766-1.938-0.766-3.094c0-1.14,0.256-2.16,0.766-3.06
					s1.215-1.601,2.115-2.104c0.899-0.502,1.92-0.754,3.06-0.754S341.18,13.957,342.08,14.459z M336.725,15.596
					c-0.674,0.39-1.199,0.938-1.574,1.642c-0.375,0.706-0.562,1.508-0.562,2.408c0,0.915,0.188,1.725,0.562,2.43
					s0.9,1.252,1.574,1.643c0.676,0.39,1.441,0.585,2.296,0.585s1.62-0.195,2.295-0.585s1.2-0.938,1.575-1.643
					s0.562-1.515,0.562-2.43c0-0.9-0.188-1.702-0.562-2.408c-0.375-0.705-0.9-1.252-1.575-1.642s-1.44-0.585-2.295-0.585
					S337.4,15.206,336.725,15.596z"/>
				<path fill="#666666" d="M365.075,8.846v16.695h-1.507v-2.7c-0.451,0.885-1.08,1.572-1.891,2.059s-1.755,0.731-2.835,0.731
					c-1.11,0-2.101-0.255-2.97-0.765c-0.871-0.51-1.545-1.223-2.025-2.138c-0.48-0.915-0.72-1.95-0.72-3.105
					c0-1.155,0.243-2.183,0.731-3.083c0.486-0.9,1.162-1.605,2.024-2.115c0.862-0.51,1.841-0.765,2.937-0.765
					c1.08,0,2.028,0.248,2.846,0.742c0.818,0.495,1.451,1.186,1.902,2.07V8.846H365.075z M361.408,23.729
					c0.674-0.397,1.203-0.949,1.586-1.654s0.574-1.508,0.574-2.408s-0.191-1.706-0.574-2.418s-0.912-1.271-1.586-1.676
					c-0.676-0.405-1.44-0.608-2.295-0.608c-0.855,0-1.621,0.203-2.295,0.608c-0.676,0.405-1.209,0.964-1.598,1.676
					c-0.391,0.712-0.586,1.519-0.586,2.418s0.191,1.703,0.574,2.408s0.914,1.256,1.598,1.654c0.682,0.397,1.451,0.596,2.307,0.596
					C359.968,24.326,360.732,24.127,361.408,23.729z"/>
				<path fill="#666666" d="M378.373,15.449c0.959,1.163,1.402,2.727,1.327,4.691h-9.833c0.105,1.26,0.57,2.276,1.396,3.049
					s1.845,1.159,3.06,1.159c0.75,0,1.447-0.135,2.093-0.405s1.2-0.652,1.665-1.147l0.855,0.855
					c-0.57,0.615-1.257,1.091-2.059,1.429c-0.803,0.338-1.685,0.506-2.645,0.506c-1.141,0-2.152-0.251-3.037-0.754
					c-0.885-0.502-1.579-1.204-2.082-2.104c-0.502-0.9-0.754-1.927-0.754-3.083c0-1.14,0.252-2.164,0.754-3.071
					c0.503-0.907,1.197-1.612,2.082-2.115s1.882-0.754,2.992-0.754C376.018,13.706,377.412,14.287,378.373,15.449z M378.35,18.971
					c-0.074-1.23-0.483-2.208-1.226-2.937c-0.743-0.727-1.714-1.091-2.914-1.091c-1.185,0-2.175,0.368-2.97,1.103
					c-0.795,0.735-1.253,1.71-1.373,2.925H378.35z"/>
			</g>
		</g>
		<g>
			<g>
				<path fill="#C0D192" d="M12.766,48.29h7.557l16.97,32.613L54.13,48.29h7.623v46.401h-5.966l-0.066-37.055L39.215,89.786h-3.911
					L18.665,57.637v37.055h-5.899V48.29z"/>
				<path fill="#C0D192" d="M77.993,48.29h6.364v46.401h-6.364V48.29z"/>
				<path fill="#C0D192" d="M120.98,54.886c-2.32-0.685-4.453-1.028-6.397-1.028c-2.696,0-4.851,0.521-6.463,1.559
					c-1.613,1.038-2.419,2.464-2.419,4.275c0,1.635,0.486,2.973,1.458,4.01c0.972,1.039,2.165,1.856,3.58,2.453
					c1.414,0.597,3.38,1.293,5.899,2.088c3.137,0.973,5.678,1.9,7.624,2.784c1.944,0.885,3.601,2.199,4.972,3.944
					c1.369,1.746,2.055,4.055,2.055,6.927c0,2.651-0.719,4.972-2.154,6.961c-1.437,1.988-3.447,3.524-6.032,4.606
					c-2.585,1.084-5.558,1.624-8.916,1.624c-3.403,0-6.718-0.663-9.943-1.988c-3.226-1.326-6.01-3.093-8.352-5.303l2.85-5.502
					c2.209,2.165,4.695,3.834,7.458,5.005c2.761,1.171,5.446,1.756,8.054,1.756c3.093,0,5.535-0.606,7.325-1.822
					c1.79-1.215,2.685-2.861,2.685-4.938c0-1.635-0.487-2.983-1.458-4.044c-0.973-1.061-2.199-1.899-3.679-2.519
					c-1.481-0.619-3.48-1.304-5.999-2.056c-3.094-0.928-5.613-1.833-7.557-2.718c-1.945-0.883-3.591-2.188-4.938-3.911
					c-1.349-1.723-2.022-3.999-2.022-6.827c0-2.475,0.685-4.662,2.055-6.562c1.369-1.899,3.292-3.358,5.767-4.375
					c2.475-1.017,5.347-1.524,8.618-1.524c2.784,0,5.512,0.408,8.187,1.226c2.673,0.818,5.048,1.912,7.126,3.281l-2.651,5.701
					C125.543,56.599,123.3,55.571,120.98,54.886z"/>
				<path fill="#C0D192" d="M144.413,48.29h6.364v46.401h-6.364V48.29z"/>
				<path fill="#C0D192" d="M301.778,48.29h6.298v46.401h-6.431l-26.515-35.928v35.928h-6.364V48.29h6.431l26.581,35.994V48.29z"/>
				<path fill="#C0D192" d="M376.484,54.09c3.357,4.044,5.038,9.844,5.038,17.4s-1.681,13.369-5.038,17.434
					c-3.359,4.066-8.153,6.099-14.385,6.099c-6.275,0-11.082-2.032-14.418-6.099c-3.337-4.064-5.005-9.877-5.005-17.434
					s1.668-13.356,5.005-17.4c3.336-4.044,8.143-6.065,14.418-6.065C368.331,48.024,373.125,50.046,376.484,54.09z M349.24,71.49
					c0,6.099,1.082,10.695,3.248,13.788c2.164,3.094,5.369,4.641,9.611,4.641s7.446-1.547,9.611-4.641
					c2.165-3.093,3.248-7.689,3.248-13.788c0-12.285-4.286-18.428-12.859-18.428C353.525,53.062,349.24,59.205,349.24,71.49z"/>
			</g>
			<g>
				<g>
					<path fill="#C0D192" d="M218.754,7.042l6.364,2.784l-8.22,6.496l-5.237-0.663L218.754,7.042z"/>
				</g>
			</g>
			<g>
				<path fill="#C0D192" d="M215.951,73.951c-0.106,0.029-0.216,0.029-0.328,0.039c-0.543,0.395-1.237,0.634-2.091,0.634
					c-0.682,0-1.261-0.155-1.743-0.419c-3.16-0.371-3.871-4.252-2.115-6.191c0.028-0.105,0.045-0.212,0.078-0.314l-3.258-3.285
					l-12.863,22.237c-0.583,1.07-0.484,2.333,0.293,3.111c0.485,0.485,1.07,0.681,1.75,0.681c0.485,0,0.972-0.099,1.359-0.391
					l22.171-12.82L215.951,73.951z"/>
				<path fill="#C0D192" d="M245.334,38.341c-7.97-7.873-18.854-12.828-30.905-12.828c-24.102,0-43.733,19.628-43.733,43.731
					c0,12.053,4.955,22.938,12.829,30.905c7.969,7.873,18.854,12.827,30.904,12.827c12.051,0,22.936-4.954,30.905-12.827
					c7.873-7.968,12.828-18.853,12.828-30.905C258.162,57.193,253.207,46.309,245.334,38.341z M214.429,107.148
					c-20.896,0-37.901-17.01-37.901-37.904c0-20.896,17.006-37.903,37.901-37.903c20.896,0,37.903,17.007,37.903,37.903
					C252.332,90.139,235.325,107.148,214.429,107.148z"/>
				<path fill="#83A521" d="M234.93,48.836c-0.861-0.865-2.125-1.064-3.208-0.386l-21.564,12.532l-0.678,0.384
					c-0.092,0.058-0.165,0.11-0.257,0.167c-0.972,0.66-1.833,1.521-2.511,2.508c-0.165,0.277-0.349,0.553-0.495,0.845
					c-0.696,1.3-1.081,2.786-1.081,4.362c0,5.129,4.16,9.288,9.289,9.288c3.537,0,6.596-1.961,8.191-4.854l12.604-21.733
					C235.809,50.89,235.717,49.625,234.93,48.836z M214.425,74.102c-2.71,0-4.855-2.143-4.855-4.854c0-2.73,2.146-4.877,4.855-4.877
					c2.731,0,4.875,2.146,4.875,4.877C219.3,71.959,217.156,74.102,214.425,74.102z"/>
			</g>
		</g>
		<g>
			<g>
				<path fill="#666666" d="M10.887,118.842h0.966v9.787h-0.966V118.842z"/>
				<path fill="#666666" d="M21.443,118.24v10.389h-0.938v-1.681c-0.28,0.551-0.672,0.978-1.176,1.281s-1.092,0.455-1.764,0.455
					c-0.691,0-1.307-0.159-1.848-0.476c-0.542-0.318-0.961-0.762-1.26-1.33c-0.299-0.57-0.448-1.214-0.448-1.933
					c0-0.718,0.151-1.358,0.455-1.918s0.723-0.999,1.26-1.315c0.537-0.318,1.146-0.477,1.827-0.477c0.672,0,1.262,0.154,1.771,0.462
					c0.508,0.308,0.903,0.737,1.183,1.288v-4.746H21.443z M19.161,127.502c0.42-0.248,0.749-0.591,0.987-1.029
					c0.238-0.439,0.357-0.938,0.357-1.498c0-0.561-0.119-1.062-0.357-1.506c-0.238-0.442-0.567-0.791-0.987-1.043
					s-0.896-0.377-1.428-0.377c-0.532,0-1.008,0.125-1.428,0.377s-0.751,0.601-0.994,1.043c-0.243,0.443-0.364,0.945-0.364,1.506
					c0,0.56,0.119,1.059,0.357,1.498c0.238,0.438,0.569,0.781,0.994,1.029c0.425,0.247,0.903,0.371,1.435,0.371
					C18.265,127.873,18.741,127.749,19.161,127.502z"/>
				<path fill="#666666" d="M29.717,122.35c0.597,0.723,0.873,1.696,0.826,2.919h-6.118c0.065,0.784,0.354,1.417,0.868,1.897
					c0.513,0.48,1.148,0.721,1.904,0.721c0.467,0,0.9-0.084,1.302-0.252s0.747-0.406,1.036-0.715l0.532,0.533
					c-0.355,0.383-0.782,0.678-1.281,0.889c-0.5,0.209-1.048,0.314-1.645,0.314c-0.709,0-1.339-0.156-1.89-0.469
					c-0.551-0.312-0.982-0.749-1.295-1.309c-0.312-0.561-0.469-1.199-0.469-1.918c0-0.709,0.156-1.347,0.469-1.912
					c0.313-0.564,0.745-1.002,1.295-1.315c0.55-0.312,1.171-0.469,1.862-0.469C28.251,121.265,29.119,121.627,29.717,122.35z
					 M29.703,124.541c-0.047-0.766-0.301-1.375-0.763-1.828c-0.462-0.452-1.066-0.679-1.813-0.679c-0.738,0-1.354,0.229-1.848,0.687
					s-0.779,1.063-0.854,1.82H29.703z"/>
				<path fill="#666666" d="M38.404,122.027c0.499,0.509,0.749,1.207,0.749,2.094v4.508h-0.952v-4.285
					c0-0.689-0.191-1.231-0.574-1.623c-0.383-0.393-0.915-0.588-1.596-0.588c-0.756,0.009-1.36,0.242-1.813,0.699
					c-0.453,0.458-0.712,1.074-0.777,1.848v3.949h-0.938v-7.336h0.938V123c0.252-0.568,0.623-0.998,1.113-1.287
					c0.49-0.289,1.085-0.439,1.785-0.448C37.216,121.265,37.904,121.52,38.404,122.027z"/>
				<path fill="#666666" d="M45.354,128.125c-0.504,0.345-1.045,0.526-1.624,0.545c-0.56,0-1.003-0.172-1.33-0.518
					s-0.49-0.863-0.49-1.554v-4.368h-1.05l-0.014-0.729h1.064v-1.89h0.938v1.89l2.38-0.014v0.742h-2.38v4.214
					c0,0.905,0.336,1.358,1.008,1.358c0.374,0,0.779-0.131,1.218-0.393L45.354,128.125z"/>
				<path fill="#666666" d="M47.987,118.709c0.121,0.127,0.182,0.283,0.182,0.469c0,0.188-0.063,0.346-0.189,0.477
					c-0.126,0.131-0.278,0.196-0.455,0.196c-0.187,0-0.343-0.065-0.469-0.196s-0.189-0.289-0.189-0.477
					c0-0.186,0.063-0.342,0.189-0.469c0.126-0.125,0.282-0.188,0.469-0.188C47.711,118.521,47.865,118.584,47.987,118.709z
					 M47.049,121.293h0.938v7.336h-0.938V121.293z"/>
				<path fill="#666666" d="M52.249,119.375c-0.266,0.27-0.399,0.629-0.399,1.078v1.035h2.156v0.742H51.85v6.398h-0.938v-6.398
					h-0.938v-0.742h0.938v-0.924c0-0.485,0.103-0.912,0.308-1.281c0.205-0.368,0.48-0.65,0.826-0.847
					c0.345-0.196,0.718-0.294,1.12-0.294c0.458,0,0.887,0.111,1.288,0.336l-0.238,0.756c-0.336-0.178-0.663-0.266-0.98-0.266
					C52.844,118.969,52.515,119.104,52.249,119.375z M56.204,118.709c0.121,0.127,0.182,0.283,0.182,0.469
					c0,0.188-0.063,0.346-0.189,0.477s-0.278,0.196-0.455,0.196c-0.187,0-0.343-0.065-0.469-0.196s-0.189-0.289-0.189-0.477
					c0-0.186,0.063-0.342,0.189-0.469c0.126-0.125,0.282-0.188,0.469-0.188S56.083,118.584,56.204,118.709z M55.266,121.293h0.938
					v7.336h-0.938V121.293z"/>
				<path fill="#666666" d="M61.847,122.09c-0.523,0-0.994,0.122-1.414,0.365c-0.42,0.242-0.747,0.58-0.98,1.014
					c-0.233,0.435-0.35,0.932-0.35,1.492c0,0.56,0.117,1.059,0.35,1.498c0.233,0.438,0.56,0.779,0.98,1.021s0.891,0.363,1.414,0.363
					c0.476,0,0.912-0.084,1.309-0.252c0.397-0.168,0.73-0.41,1.001-0.728l0.532,0.56c-0.327,0.393-0.737,0.695-1.232,0.91
					s-1.045,0.322-1.652,0.322c-0.7,0-1.326-0.156-1.876-0.469c-0.551-0.312-0.982-0.752-1.295-1.316
					c-0.312-0.564-0.469-1.201-0.469-1.91s0.156-1.347,0.469-1.912c0.313-0.564,0.745-1.002,1.295-1.315
					c0.55-0.312,1.176-0.469,1.876-0.469c0.569,0,1.089,0.093,1.561,0.28c0.471,0.187,0.875,0.447,1.211,0.783l-0.532,0.631
					C63.447,122.38,62.714,122.09,61.847,122.09z"/>
				<path fill="#666666" d="M70.96,128.629l-0.014-1.232c-0.289,0.43-0.667,0.749-1.134,0.959c-0.467,0.21-1.003,0.314-1.61,0.314
					c-0.495,0-0.931-0.096-1.309-0.287c-0.378-0.19-0.67-0.455-0.875-0.791c-0.206-0.336-0.308-0.713-0.308-1.133
					c0-0.635,0.245-1.135,0.735-1.498c0.49-0.365,1.164-0.547,2.023-0.547h2.464v-0.56c0-0.579-0.173-1.026-0.518-1.345
					c-0.346-0.316-0.85-0.476-1.512-0.476c-0.784,0-1.573,0.294-2.366,0.882l-0.42-0.644c0.495-0.345,0.966-0.6,1.414-0.763
					c0.448-0.164,0.961-0.245,1.54-0.245c0.887,0,1.573,0.222,2.058,0.665s0.732,1.057,0.742,1.841l0.014,4.858H70.96z
					 M70.029,127.432c0.453-0.303,0.758-0.73,0.917-1.281v-1.008h-2.366c-0.644,0-1.134,0.107-1.47,0.322s-0.504,0.537-0.504,0.965
					c0,0.439,0.161,0.791,0.483,1.058c0.322,0.267,0.749,0.399,1.281,0.399C69.023,127.887,69.577,127.734,70.029,127.432z"/>
				<path fill="#666666" d="M81.936,128.125c-0.504,0.345-1.045,0.526-1.624,0.545c-0.56,0-1.003-0.172-1.33-0.518
					s-0.49-0.863-0.49-1.554v-4.368h-1.05l-0.014-0.729h1.064v-1.89h0.938v1.89l2.38-0.014v0.742h-2.38v4.214
					c0,0.905,0.336,1.358,1.008,1.358c0.374,0,0.779-0.131,1.218-0.393L81.936,128.125z"/>
				<path fill="#666666" d="M89.93,121.293v7.336h-0.952v-1.75c-0.243,0.578-0.604,1.018-1.085,1.315
					c-0.48,0.299-1.062,0.452-1.743,0.462c-0.868,0-1.547-0.254-2.037-0.763c-0.49-0.509-0.735-1.206-0.735-2.093v-4.508h0.952
					v4.283c0,0.691,0.189,1.23,0.567,1.617c0.378,0.388,0.898,0.581,1.561,0.581c0.784-0.009,1.4-0.278,1.848-0.806
					c0.448-0.526,0.672-1.22,0.672-2.078v-3.598H89.93z"/>
				<path fill="#666666" d="M95.516,122.182c-0.345-0.098-0.686-0.147-1.022-0.147c-0.467,0-0.842,0.091-1.127,0.273
					c-0.285,0.182-0.427,0.454-0.427,0.819c0,0.252,0.077,0.457,0.231,0.615c0.154,0.159,0.345,0.287,0.574,0.385
					c0.229,0.099,0.548,0.209,0.959,0.33c0.504,0.148,0.915,0.296,1.232,0.44s0.588,0.354,0.812,0.63s0.336,0.637,0.336,1.085
					c0,0.663-0.252,1.169-0.756,1.519c-0.504,0.351-1.134,0.525-1.89,0.525c-0.532,0-1.045-0.088-1.54-0.266s-0.91-0.43-1.246-0.756
					l0.378-0.672c0.317,0.289,0.693,0.518,1.127,0.686s0.875,0.252,1.323,0.252c0.495,0,0.898-0.103,1.211-0.309
					c0.313-0.205,0.469-0.504,0.469-0.896c0-0.271-0.08-0.492-0.238-0.665c-0.159-0.172-0.357-0.308-0.595-0.406
					c-0.238-0.098-0.567-0.212-0.987-0.343c-0.495-0.149-0.896-0.294-1.204-0.434c-0.308-0.14-0.569-0.343-0.784-0.609
					c-0.215-0.266-0.322-0.613-0.322-1.043c0-0.644,0.24-1.129,0.721-1.456c0.48-0.326,1.08-0.49,1.799-0.49
					c0.42,0,0.826,0.057,1.218,0.168c0.392,0.112,0.742,0.267,1.05,0.463l-0.364,0.713
					C96.174,122.417,95.861,122.279,95.516,122.182z"/>
				<path fill="#666666" d="M104.777,121.719c0.453-0.293,0.996-0.445,1.631-0.454v0.882c-0.775-0.01-1.397,0.217-1.869,0.679
					c-0.472,0.462-0.74,1.09-0.805,1.884v3.92h-0.938v-7.336h0.938V123C103.977,122.44,104.324,122.014,104.777,121.719z"/>
				<path fill="#666666" d="M113.379,122.35c0.597,0.723,0.873,1.696,0.826,2.919h-6.118c0.065,0.784,0.354,1.417,0.868,1.897
					c0.513,0.48,1.148,0.721,1.904,0.721c0.467,0,0.9-0.084,1.302-0.252s0.747-0.406,1.036-0.715l0.532,0.533
					c-0.355,0.383-0.782,0.678-1.281,0.889c-0.5,0.209-1.048,0.314-1.645,0.314c-0.709,0-1.339-0.156-1.89-0.469
					c-0.551-0.312-0.982-0.749-1.295-1.309c-0.312-0.561-0.469-1.199-0.469-1.918c0-0.709,0.156-1.347,0.469-1.912
					c0.313-0.564,0.745-1.002,1.295-1.315c0.55-0.312,1.171-0.469,1.862-0.469C111.914,121.265,112.782,121.627,113.379,122.35z
					 M113.365,124.541c-0.047-0.766-0.301-1.375-0.763-1.828c-0.462-0.452-1.066-0.679-1.813-0.679
					c-0.738,0-1.354,0.229-1.848,0.687s-0.779,1.063-0.854,1.82H113.365z"/>
				<path fill="#666666" d="M119.861,128.125c-0.504,0.345-1.045,0.526-1.624,0.545c-0.56,0-1.003-0.172-1.33-0.518
					s-0.49-0.863-0.49-1.554v-4.368h-1.05l-0.014-0.729h1.064v-1.89h0.938v1.89l2.38-0.014v0.742h-2.38v4.214
					c0,0.905,0.336,1.358,1.008,1.358c0.374,0,0.779-0.131,1.218-0.393L119.861,128.125z"/>
				<path fill="#666666" d="M126.287,121.733c0.56,0.313,0.999,0.749,1.316,1.31c0.317,0.56,0.476,1.194,0.476,1.903
					c0,0.719-0.159,1.36-0.476,1.925c-0.318,0.564-0.756,1.004-1.316,1.316s-1.195,0.469-1.904,0.469
					c-0.709,0-1.344-0.156-1.904-0.469c-0.56-0.312-0.999-0.752-1.316-1.316s-0.476-1.206-0.476-1.925
					c0-0.709,0.158-1.344,0.476-1.903c0.317-0.561,0.756-0.996,1.316-1.31c0.56-0.312,1.194-0.469,1.904-0.469
					C125.092,121.265,125.727,121.421,126.287,121.733z M122.955,122.44c-0.42,0.243-0.747,0.583-0.98,1.022
					c-0.233,0.438-0.35,0.938-0.35,1.498c0,0.568,0.116,1.072,0.35,1.512c0.233,0.438,0.56,0.779,0.98,1.021
					c0.42,0.243,0.896,0.364,1.428,0.364s1.008-0.121,1.428-0.364c0.42-0.242,0.747-0.583,0.98-1.021
					c0.233-0.439,0.35-0.943,0.35-1.512c0-0.561-0.117-1.06-0.35-1.498c-0.233-0.439-0.56-0.779-0.98-1.022
					c-0.42-0.243-0.896-0.364-1.428-0.364S123.375,122.197,122.955,122.44z"/>
				<path fill="#666666" d="M132.923,122.182c-0.345-0.098-0.686-0.147-1.022-0.147c-0.467,0-0.842,0.091-1.127,0.273
					c-0.285,0.182-0.427,0.454-0.427,0.819c0,0.252,0.077,0.457,0.231,0.615c0.154,0.159,0.345,0.287,0.574,0.385
					c0.229,0.099,0.548,0.209,0.959,0.33c0.504,0.148,0.915,0.296,1.232,0.44s0.588,0.354,0.812,0.63s0.336,0.637,0.336,1.085
					c0,0.663-0.252,1.169-0.756,1.519c-0.504,0.351-1.134,0.525-1.89,0.525c-0.532,0-1.045-0.088-1.54-0.266s-0.91-0.43-1.246-0.756
					l0.378-0.672c0.317,0.289,0.693,0.518,1.127,0.686s0.875,0.252,1.323,0.252c0.495,0,0.898-0.103,1.211-0.309
					c0.313-0.205,0.469-0.504,0.469-0.896c0-0.271-0.08-0.492-0.238-0.665c-0.159-0.172-0.357-0.308-0.595-0.406
					c-0.238-0.098-0.567-0.212-0.987-0.343c-0.495-0.149-0.896-0.294-1.204-0.434c-0.308-0.14-0.569-0.343-0.784-0.609
					c-0.215-0.266-0.322-0.613-0.322-1.043c0-0.644,0.24-1.129,0.721-1.456c0.48-0.326,1.08-0.49,1.799-0.49
					c0.42,0,0.826,0.057,1.218,0.168c0.392,0.112,0.742,0.267,1.05,0.463l-0.364,0.713
					C133.582,122.417,133.269,122.279,132.923,122.182z"/>
				<path fill="#666666" d="M145.964,121.733c0.537,0.313,0.955,0.751,1.253,1.315c0.298,0.565,0.448,1.207,0.448,1.926
					c0,0.709-0.149,1.344-0.448,1.904c-0.299,0.56-0.714,0.996-1.246,1.309c-0.532,0.312-1.139,0.469-1.82,0.469
					c-0.672,0-1.26-0.151-1.764-0.455c-0.504-0.303-0.896-0.726-1.176-1.267v4.409h-0.938v-10.051h0.938v1.693
					c0.271-0.541,0.66-0.963,1.169-1.268c0.509-0.303,1.094-0.454,1.757-0.454C144.818,121.265,145.427,121.421,145.964,121.733z
					 M145.383,127.474c0.42-0.247,0.747-0.591,0.98-1.029c0.233-0.438,0.35-0.938,0.35-1.498c0-0.55-0.117-1.045-0.35-1.483
					c-0.233-0.439-0.56-0.782-0.98-1.029c-0.42-0.248-0.891-0.371-1.414-0.371c-0.532,0-1.006,0.123-1.421,0.371
					c-0.415,0.247-0.742,0.59-0.98,1.029c-0.238,0.438-0.357,0.934-0.357,1.483c0,0.56,0.117,1.06,0.35,1.498s0.56,0.782,0.98,1.029
					s0.896,0.37,1.428,0.37C144.492,127.844,144.963,127.721,145.383,127.474z"/>
				<path fill="#666666" d="M154.259,128.629l-0.014-1.232c-0.289,0.43-0.667,0.749-1.134,0.959c-0.467,0.21-1.003,0.314-1.61,0.314
					c-0.495,0-0.931-0.096-1.309-0.287c-0.378-0.19-0.67-0.455-0.875-0.791c-0.206-0.336-0.308-0.713-0.308-1.133
					c0-0.635,0.245-1.135,0.735-1.498c0.49-0.365,1.164-0.547,2.023-0.547h2.464v-0.56c0-0.579-0.173-1.026-0.518-1.345
					c-0.346-0.316-0.85-0.476-1.512-0.476c-0.784,0-1.573,0.294-2.366,0.882l-0.42-0.644c0.495-0.345,0.966-0.6,1.414-0.763
					c0.448-0.164,0.961-0.245,1.54-0.245c0.887,0,1.573,0.222,2.058,0.665s0.732,1.057,0.742,1.841l0.014,4.858H154.259z
					 M153.328,127.432c0.453-0.303,0.758-0.73,0.917-1.281v-1.008h-2.366c-0.644,0-1.134,0.107-1.47,0.322s-0.504,0.537-0.504,0.965
					c0,0.439,0.161,0.791,0.483,1.058c0.322,0.267,0.749,0.399,1.281,0.399C152.322,127.887,152.875,127.734,153.328,127.432z"/>
				<path fill="#666666" d="M159.67,121.719c0.453-0.293,0.996-0.445,1.631-0.454v0.882c-0.775-0.01-1.397,0.217-1.869,0.679
					c-0.472,0.462-0.74,1.09-0.805,1.884v3.92h-0.938v-7.336h0.938V123C158.87,122.44,159.217,122.014,159.67,121.719z"/>
				<path fill="#666666" d="M167.055,128.629l-0.014-1.232c-0.289,0.43-0.667,0.749-1.134,0.959c-0.467,0.21-1.003,0.314-1.61,0.314
					c-0.495,0-0.931-0.096-1.309-0.287c-0.378-0.19-0.67-0.455-0.875-0.791c-0.206-0.336-0.308-0.713-0.308-1.133
					c0-0.635,0.245-1.135,0.735-1.498c0.49-0.365,1.164-0.547,2.023-0.547h2.464v-0.56c0-0.579-0.173-1.026-0.518-1.345
					c-0.346-0.316-0.85-0.476-1.512-0.476c-0.784,0-1.573,0.294-2.366,0.882l-0.42-0.644c0.495-0.345,0.966-0.6,1.414-0.763
					c0.448-0.164,0.961-0.245,1.54-0.245c0.887,0,1.573,0.222,2.058,0.665s0.732,1.057,0.742,1.841l0.014,4.858H167.055z
					 M166.124,127.432c0.453-0.303,0.758-0.73,0.917-1.281v-1.008h-2.366c-0.644,0-1.134,0.107-1.47,0.322s-0.504,0.537-0.504,0.965
					c0,0.439,0.161,0.791,0.483,1.058c0.322,0.267,0.749,0.399,1.281,0.399C165.118,127.887,165.671,127.734,166.124,127.432z"/>
				<path fill="#666666" d="M175.868,119.375c-0.266,0.27-0.399,0.629-0.399,1.078v1.035h2.156v0.742h-2.156v6.398h-0.938v-6.398
					h-0.938v-0.742h0.938v-0.924c0-0.485,0.103-0.912,0.308-1.281c0.205-0.368,0.48-0.65,0.826-0.847
					c0.345-0.196,0.718-0.294,1.12-0.294c0.458,0,0.887,0.111,1.288,0.336l-0.238,0.756c-0.336-0.178-0.663-0.266-0.98-0.266
					C176.463,118.969,176.134,119.104,175.868,119.375z M179.823,118.709c0.121,0.127,0.182,0.283,0.182,0.469
					c0,0.188-0.063,0.346-0.189,0.477s-0.278,0.196-0.455,0.196c-0.187,0-0.343-0.065-0.469-0.196s-0.189-0.289-0.189-0.477
					c0-0.186,0.063-0.342,0.189-0.469c0.126-0.125,0.282-0.188,0.469-0.188S179.702,118.584,179.823,118.709z M178.885,121.293
					h0.938v7.336h-0.938V121.293z"/>
				<path fill="#666666" d="M181.334,130.574c0.383,0.01,0.674-0.129,0.875-0.412c0.201-0.285,0.301-0.703,0.301-1.254v-7.615h0.938
					v7.728c0,0.756-0.166,1.337-0.497,1.743c-0.332,0.406-0.805,0.609-1.421,0.609c-0.373,0-0.756-0.08-1.148-0.238l0.224-0.715
					C180.859,130.514,181.102,130.564,181.334,130.574z M183.449,118.709c0.121,0.127,0.182,0.283,0.182,0.469
					c0,0.188-0.063,0.346-0.189,0.477c-0.126,0.131-0.278,0.196-0.455,0.196c-0.187,0-0.343-0.065-0.469-0.196
					s-0.189-0.289-0.189-0.477c0-0.186,0.063-0.342,0.189-0.469c0.126-0.125,0.282-0.188,0.469-0.188
					C183.173,118.521,183.327,118.584,183.449,118.709z"/>
				<path fill="#666666" d="M190.617,128.629l-0.014-1.232c-0.289,0.43-0.667,0.749-1.134,0.959c-0.467,0.21-1.003,0.314-1.61,0.314
					c-0.495,0-0.931-0.096-1.309-0.287c-0.378-0.19-0.67-0.455-0.875-0.791c-0.206-0.336-0.308-0.713-0.308-1.133
					c0-0.635,0.245-1.135,0.735-1.498c0.49-0.365,1.164-0.547,2.023-0.547h2.464v-0.56c0-0.579-0.173-1.026-0.518-1.345
					c-0.346-0.316-0.85-0.476-1.512-0.476c-0.784,0-1.573,0.294-2.366,0.882l-0.42-0.644c0.495-0.345,0.966-0.6,1.414-0.763
					c0.448-0.164,0.961-0.245,1.54-0.245c0.887,0,1.573,0.222,2.058,0.665s0.732,1.057,0.742,1.841l0.014,4.858H190.617z
					 M189.686,127.432c0.453-0.303,0.758-0.73,0.917-1.281v-1.008h-2.366c-0.644,0-1.134,0.107-1.47,0.322s-0.504,0.537-0.504,0.965
					c0,0.439,0.161,0.791,0.483,1.058c0.322,0.267,0.749,0.399,1.281,0.399C188.68,127.887,189.233,127.734,189.686,127.432z"/>
				<path fill="#666666" d="M196.027,121.719c0.453-0.293,0.996-0.445,1.631-0.454v0.882c-0.775-0.01-1.397,0.217-1.869,0.679
					c-0.472,0.462-0.74,1.09-0.805,1.884v3.92h-0.938v-7.336h0.938V123C195.227,122.44,195.575,122.014,196.027,121.719z"/>
				<path fill="#666666" d="M209.32,121.293v7.336h-0.952v-1.75c-0.243,0.578-0.604,1.018-1.085,1.315
					c-0.48,0.299-1.062,0.452-1.743,0.462c-0.868,0-1.547-0.254-2.037-0.763c-0.49-0.509-0.735-1.206-0.735-2.093v-4.508h0.952
					v4.283c0,0.691,0.189,1.23,0.567,1.617c0.378,0.388,0.898,0.581,1.561,0.581c0.784-0.009,1.4-0.278,1.848-0.806
					c0.448-0.526,0.672-1.22,0.672-2.078v-3.598H209.32z"/>
				<path fill="#666666" d="M217.951,122.027c0.499,0.509,0.749,1.207,0.749,2.094v4.508h-0.952v-4.285
					c0-0.689-0.191-1.231-0.574-1.623c-0.383-0.393-0.914-0.588-1.596-0.588c-0.756,0.009-1.36,0.242-1.812,0.699
					c-0.453,0.458-0.713,1.074-0.777,1.848v3.949h-0.938v-7.336h0.938V123c0.252-0.568,0.623-0.998,1.113-1.287
					s1.084-0.439,1.785-0.448C216.764,121.265,217.451,121.52,217.951,122.027z"/>
				<path fill="#666666" d="M227.037,121.719c0.453-0.293,0.996-0.445,1.631-0.454v0.882c-0.775-0.01-1.397,0.217-1.869,0.679
					c-0.471,0.462-0.74,1.09-0.805,1.884v3.92h-0.938v-7.336h0.938V123C226.236,122.44,226.584,122.014,227.037,121.719z"/>
				<path fill="#666666" d="M236.48,121.293v7.336h-0.952v-1.75c-0.243,0.578-0.604,1.018-1.085,1.315
					c-0.48,0.299-1.062,0.452-1.743,0.462c-0.868,0-1.547-0.254-2.037-0.763c-0.489-0.509-0.735-1.206-0.735-2.093v-4.508h0.952
					v4.283c0,0.691,0.189,1.23,0.567,1.617c0.378,0.388,0.898,0.581,1.561,0.581c0.784-0.009,1.4-0.278,1.848-0.806
					c0.449-0.526,0.673-1.22,0.673-2.078v-3.598H236.48z"/>
				<path fill="#666666" d="M250.605,122.021c0.486,0.504,0.729,1.204,0.729,2.101v4.508h-0.952v-4.285
					c0-0.699-0.188-1.243-0.567-1.631c-0.377-0.387-0.898-0.58-1.561-0.58c-0.784,0.019-1.398,0.289-1.841,0.812
					c-0.443,0.522-0.665,1.214-0.665,2.072v3.612h-0.952v-4.285c0-0.699-0.188-1.243-0.567-1.631
					c-0.377-0.387-0.898-0.58-1.561-0.58c-0.784,0.019-1.4,0.289-1.848,0.812c-0.448,0.522-0.672,1.214-0.672,2.072v3.612h-0.938
					v-7.336h0.938v1.722c0.242-0.579,0.604-1.013,1.084-1.302s1.066-0.439,1.758-0.448c0.699,0,1.281,0.173,1.742,0.518
					c0.463,0.346,0.768,0.831,0.918,1.456c0.224-0.652,0.585-1.143,1.084-1.47c0.5-0.327,1.113-0.495,1.842-0.504
					C249.443,121.265,250.121,121.517,250.605,122.021z"/>
				<path fill="#666666" d="M259.601,121.733c0.536,0.313,0.954,0.751,1.253,1.315c0.299,0.565,0.448,1.207,0.448,1.926
					c0,0.709-0.149,1.344-0.448,1.904c-0.299,0.56-0.714,0.996-1.246,1.309c-0.531,0.312-1.139,0.469-1.82,0.469
					c-0.672,0-1.26-0.151-1.764-0.455c-0.504-0.303-0.896-0.726-1.176-1.267v1.694h-0.938V118.24h0.938v4.746
					c0.271-0.541,0.66-0.963,1.169-1.268c0.509-0.303,1.095-0.454,1.757-0.454C258.455,121.265,259.064,121.421,259.601,121.733z
					 M259.02,127.474c0.42-0.247,0.747-0.591,0.98-1.029c0.232-0.438,0.35-0.938,0.35-1.498c0-0.55-0.117-1.045-0.35-1.483
					c-0.233-0.439-0.561-0.782-0.98-1.029c-0.42-0.248-0.891-0.371-1.414-0.371c-0.531,0-1.006,0.123-1.421,0.371
					c-0.415,0.247-0.741,0.59-0.979,1.029c-0.238,0.438-0.357,0.934-0.357,1.483c0,0.56,0.117,1.06,0.35,1.498
					c0.234,0.438,0.561,0.782,0.98,1.029s0.896,0.37,1.428,0.37C258.129,127.844,258.6,127.721,259.02,127.474z"/>
				<path fill="#666666" d="M268.133,121.733c0.561,0.313,0.999,0.749,1.316,1.31c0.317,0.56,0.477,1.194,0.477,1.903
					c0,0.719-0.159,1.36-0.477,1.925s-0.756,1.004-1.316,1.316c-0.56,0.312-1.194,0.469-1.903,0.469
					c-0.71,0-1.345-0.156-1.903-0.469c-0.561-0.312-1-0.752-1.316-1.316c-0.318-0.564-0.477-1.206-0.477-1.925
					c0-0.709,0.158-1.344,0.477-1.903c0.316-0.561,0.756-0.996,1.316-1.31c0.559-0.312,1.193-0.469,1.903-0.469
					C266.938,121.265,267.573,121.421,268.133,121.733z M264.801,122.44c-0.42,0.243-0.746,0.583-0.979,1.022
					c-0.233,0.438-0.35,0.938-0.35,1.498c0,0.568,0.116,1.072,0.35,1.512c0.233,0.438,0.56,0.779,0.979,1.021
					c0.421,0.243,0.896,0.364,1.429,0.364s1.008-0.121,1.429-0.364c0.42-0.242,0.746-0.583,0.979-1.021
					c0.233-0.439,0.35-0.943,0.35-1.512c0-0.561-0.116-1.06-0.35-1.498c-0.233-0.439-0.56-0.779-0.979-1.022
					c-0.421-0.243-0.896-0.364-1.429-0.364S265.222,122.197,264.801,122.44z"/>
				<path fill="#666666" d="M280.369,128.629l-0.014-1.232c-0.289,0.43-0.668,0.749-1.134,0.959c-0.467,0.21-1.003,0.314-1.61,0.314
					c-0.494,0-0.931-0.096-1.309-0.287c-0.378-0.19-0.67-0.455-0.875-0.791s-0.309-0.713-0.309-1.133
					c0-0.635,0.246-1.135,0.735-1.498c0.49-0.365,1.164-0.547,2.022-0.547h2.465v-0.56c0-0.579-0.173-1.026-0.518-1.345
					c-0.346-0.316-0.85-0.476-1.513-0.476c-0.784,0-1.573,0.294-2.366,0.882l-0.42-0.644c0.494-0.345,0.967-0.6,1.414-0.763
					c0.448-0.164,0.961-0.245,1.54-0.245c0.887,0,1.573,0.222,2.058,0.665c0.486,0.443,0.732,1.057,0.742,1.841l0.014,4.858H280.369
					z M279.438,127.432c0.452-0.303,0.759-0.73,0.917-1.281v-1.008h-2.365c-0.645,0-1.135,0.107-1.471,0.322
					s-0.504,0.537-0.504,0.965c0,0.439,0.161,0.791,0.482,1.058c0.322,0.267,0.75,0.399,1.281,0.399
					C278.433,127.887,278.986,127.734,279.438,127.432z"/>
				<path fill="#666666" d="M291.346,128.125c-0.504,0.345-1.046,0.526-1.625,0.545c-0.56,0-1.003-0.172-1.33-0.518
					c-0.326-0.346-0.489-0.863-0.489-1.554v-4.368h-1.05l-0.014-0.729h1.063v-1.89h0.938v1.89l2.379-0.014v0.742h-2.379v4.214
					c0,0.905,0.336,1.358,1.008,1.358c0.373,0,0.779-0.131,1.218-0.393L291.346,128.125z"/>
				<path fill="#666666" d="M299.339,121.293v7.336h-0.952v-1.75c-0.242,0.578-0.604,1.018-1.085,1.315
					c-0.48,0.299-1.062,0.452-1.743,0.462c-0.867,0-1.547-0.254-2.037-0.763c-0.489-0.509-0.734-1.206-0.734-2.093v-4.508h0.951
					v4.283c0,0.691,0.189,1.23,0.568,1.617c0.377,0.388,0.897,0.581,1.561,0.581c0.783-0.009,1.4-0.278,1.848-0.806
					c0.448-0.526,0.672-1.22,0.672-2.078v-3.598H299.339z"/>
				<path fill="#666666" d="M311.379,122.35c0.598,0.723,0.873,1.696,0.826,2.919h-6.118c0.065,0.784,0.354,1.417,0.868,1.897
					s1.148,0.721,1.904,0.721c0.467,0,0.9-0.084,1.301-0.252c0.402-0.168,0.747-0.406,1.037-0.715l0.531,0.533
					c-0.354,0.383-0.781,0.678-1.281,0.889c-0.499,0.209-1.047,0.314-1.645,0.314c-0.709,0-1.34-0.156-1.89-0.469
					c-0.551-0.312-0.982-0.749-1.296-1.309c-0.312-0.561-0.469-1.199-0.469-1.918c0-0.709,0.156-1.347,0.469-1.912
					c0.313-0.564,0.745-1.002,1.296-1.315c0.55-0.312,1.171-0.469,1.862-0.469C309.914,121.265,310.781,121.627,311.379,122.35z
					 M311.365,124.541c-0.047-0.766-0.301-1.375-0.764-1.828c-0.462-0.452-1.066-0.679-1.812-0.679
					c-0.738,0-1.354,0.229-1.848,0.687c-0.495,0.457-0.779,1.063-0.854,1.82H311.365z"/>
				<path fill="#666666" d="M312.891,121.293h1.092l2.044,2.912l2.058-2.912h1.051l-2.492,3.556l2.674,3.78h-1.105l-2.198-3.137
					l-2.254,3.137h-1.064l2.702-3.78L312.891,121.293z"/>
				<path fill="#666666" d="M326.813,121.733c0.536,0.313,0.954,0.751,1.253,1.315c0.299,0.565,0.448,1.207,0.448,1.926
					c0,0.709-0.149,1.344-0.448,1.904c-0.299,0.56-0.714,0.996-1.246,1.309c-0.531,0.312-1.139,0.469-1.82,0.469
					c-0.672,0-1.26-0.151-1.764-0.455c-0.504-0.303-0.896-0.726-1.176-1.267v4.409h-0.938v-10.051h0.938v1.693
					c0.271-0.541,0.66-0.963,1.169-1.268c0.509-0.303,1.095-0.454,1.757-0.454C325.668,121.265,326.277,121.421,326.813,121.733z
					 M326.232,127.474c0.42-0.247,0.747-0.591,0.98-1.029c0.232-0.438,0.35-0.938,0.35-1.498c0-0.55-0.117-1.045-0.35-1.483
					c-0.233-0.439-0.561-0.782-0.98-1.029c-0.42-0.248-0.891-0.371-1.414-0.371c-0.531,0-1.006,0.123-1.421,0.371
					c-0.415,0.247-0.741,0.59-0.979,1.029c-0.238,0.438-0.357,0.934-0.357,1.483c0,0.56,0.117,1.06,0.35,1.498
					c0.234,0.438,0.561,0.782,0.98,1.029s0.896,0.37,1.428,0.37C325.342,127.844,325.812,127.721,326.232,127.474z"/>
				<path fill="#666666" d="M335.963,122.35c0.597,0.723,0.872,1.696,0.826,2.919h-6.119c0.065,0.784,0.355,1.417,0.869,1.897
					c0.513,0.48,1.147,0.721,1.903,0.721c0.467,0,0.9-0.084,1.302-0.252s0.746-0.406,1.036-0.715l0.532,0.533
					c-0.355,0.383-0.781,0.678-1.281,0.889c-0.5,0.209-1.048,0.314-1.645,0.314c-0.71,0-1.34-0.156-1.891-0.469
					s-0.982-0.749-1.295-1.309c-0.312-0.561-0.469-1.199-0.469-1.918c0-0.709,0.156-1.347,0.469-1.912
					c0.312-0.564,0.744-1.002,1.295-1.315c0.551-0.312,1.172-0.469,1.862-0.469C334.497,121.265,335.365,121.627,335.963,122.35z
					 M335.948,124.541c-0.047-0.766-0.301-1.375-0.763-1.828c-0.463-0.452-1.066-0.679-1.812-0.679
					c-0.738,0-1.354,0.229-1.849,0.687s-0.779,1.063-0.854,1.82H335.948z"/>
				<path fill="#666666" d="M345.426,118.24v10.389h-0.938v-1.681c-0.279,0.551-0.672,0.978-1.176,1.281s-1.092,0.455-1.764,0.455
					c-0.691,0-1.307-0.159-1.848-0.476c-0.542-0.318-0.962-0.762-1.261-1.33c-0.299-0.57-0.448-1.214-0.448-1.933
					c0-0.718,0.152-1.358,0.455-1.918s0.723-0.999,1.26-1.315c0.537-0.318,1.146-0.477,1.828-0.477c0.672,0,1.262,0.154,1.771,0.462
					s0.903,0.737,1.183,1.288v-4.746H345.426z M343.145,127.502c0.42-0.248,0.749-0.591,0.986-1.029
					c0.238-0.439,0.357-0.938,0.357-1.498c0-0.561-0.119-1.062-0.357-1.506c-0.237-0.442-0.566-0.791-0.986-1.043
					s-0.896-0.377-1.428-0.377c-0.532,0-1.008,0.125-1.428,0.377s-0.752,0.601-0.994,1.043c-0.243,0.443-0.364,0.945-0.364,1.506
					c0,0.56,0.118,1.059,0.356,1.498c0.238,0.438,0.569,0.781,0.994,1.029c0.425,0.247,0.903,0.371,1.436,0.371
					C342.248,127.873,342.725,127.749,343.145,127.502z"/>
				<path fill="#666666" d="M349.178,118.709c0.121,0.127,0.183,0.283,0.183,0.469c0,0.188-0.063,0.346-0.188,0.477
					c-0.127,0.131-0.278,0.196-0.455,0.196c-0.188,0-0.344-0.065-0.47-0.196s-0.188-0.289-0.188-0.477
					c0-0.186,0.062-0.342,0.188-0.469c0.126-0.125,0.282-0.188,0.47-0.188C348.902,118.521,349.057,118.584,349.178,118.709z
					 M348.24,121.293h0.938v7.336h-0.938V121.293z"/>
				<path fill="#666666" d="M354.82,122.09c-0.523,0-0.994,0.122-1.414,0.365c-0.42,0.242-0.747,0.58-0.98,1.014
					c-0.232,0.435-0.35,0.932-0.35,1.492c0,0.56,0.117,1.059,0.35,1.498c0.233,0.438,0.561,0.779,0.98,1.021
					s0.891,0.363,1.414,0.363c0.476,0,0.912-0.084,1.309-0.252s0.73-0.41,1.002-0.728l0.531,0.56
					c-0.326,0.393-0.737,0.695-1.232,0.91c-0.494,0.215-1.045,0.322-1.651,0.322c-0.7,0-1.325-0.156-1.876-0.469
					s-0.982-0.752-1.295-1.316s-0.469-1.201-0.469-1.91s0.156-1.347,0.469-1.912c0.312-0.564,0.744-1.002,1.295-1.315
					c0.551-0.312,1.176-0.469,1.876-0.469c0.569,0,1.089,0.093,1.562,0.28c0.471,0.187,0.875,0.447,1.211,0.783l-0.533,0.631
					C356.421,122.38,355.688,122.09,354.82,122.09z"/>
				<path fill="#666666" d="M360.7,118.709c0.121,0.127,0.183,0.283,0.183,0.469c0,0.188-0.063,0.346-0.189,0.477
					c-0.127,0.131-0.277,0.196-0.455,0.196c-0.188,0-0.344-0.065-0.469-0.196c-0.127-0.131-0.189-0.289-0.189-0.477
					c0-0.186,0.062-0.342,0.189-0.469c0.125-0.125,0.281-0.188,0.469-0.188C360.425,118.521,360.578,118.584,360.7,118.709z
					 M359.762,121.293h0.938v7.336h-0.938V121.293z"/>
				<path fill="#666666" d="M368.273,121.733c0.561,0.313,0.998,0.749,1.316,1.31c0.316,0.56,0.476,1.194,0.476,1.903
					c0,0.719-0.159,1.36-0.476,1.925c-0.318,0.564-0.756,1.004-1.316,1.316s-1.195,0.469-1.904,0.469s-1.344-0.156-1.903-0.469
					s-0.999-0.752-1.316-1.316s-0.476-1.206-0.476-1.925c0-0.709,0.158-1.344,0.476-1.903c0.317-0.561,0.757-0.996,1.316-1.31
					c0.56-0.312,1.194-0.469,1.903-0.469S367.713,121.421,368.273,121.733z M364.941,122.44c-0.42,0.243-0.746,0.583-0.98,1.022
					c-0.232,0.438-0.35,0.938-0.35,1.498c0,0.568,0.117,1.072,0.35,1.512c0.234,0.438,0.561,0.779,0.98,1.021
					c0.42,0.243,0.896,0.364,1.428,0.364c0.533,0,1.008-0.121,1.429-0.364c0.42-0.242,0.747-0.583,0.979-1.021
					c0.233-0.439,0.35-0.943,0.35-1.512c0-0.561-0.116-1.06-0.35-1.498c-0.232-0.439-0.56-0.779-0.979-1.022
					c-0.421-0.243-0.896-0.364-1.429-0.364C365.838,122.076,365.361,122.197,364.941,122.44z M367.406,118.17l0.965,0.42l-1.764,1.4
					l-0.84-0.098L367.406,118.17z"/>
				<path fill="#666666" d="M377.955,122.027c0.498,0.509,0.748,1.207,0.748,2.094v4.508h-0.951v-4.285
					c0-0.689-0.191-1.231-0.574-1.623c-0.383-0.393-0.915-0.588-1.596-0.588c-0.756,0.009-1.361,0.242-1.813,0.699
					c-0.452,0.458-0.712,1.074-0.776,1.848v3.949h-0.938v-7.336h0.938V123c0.252-0.568,0.623-0.998,1.112-1.287
					c0.49-0.289,1.085-0.439,1.785-0.448C376.767,121.265,377.455,121.52,377.955,122.027z"/>
				<path fill="#666666" d="M381.798,127.648c0.121,0.121,0.183,0.271,0.183,0.447c0,0.178-0.062,0.33-0.183,0.455
					c-0.122,0.127-0.271,0.189-0.448,0.189s-0.324-0.061-0.441-0.182c-0.116-0.121-0.174-0.275-0.174-0.463
					c0-0.176,0.058-0.326,0.174-0.447c0.117-0.121,0.264-0.182,0.441-0.182S381.676,127.527,381.798,127.648z M380.902,119.01h0.91
					v2.353l-0.141,4.396h-0.645l-0.125-4.396V119.01z"/>
			</g>
		</g>
	</g>
</g>
</svg>
