<?xml version="1.0" encoding="utf-8"?>
<!-- Generator: Adobe Illustrator 15.0.2, SVG Export Plug-In . SVG Version: 6.00 Build 0)  -->
<!DOCTYPE svg PUBLIC "-//W3C//DTD SVG 1.1//EN" "http://www.w3.org/Graphics/SVG/1.1/DTD/svg11.dtd">
<svg version="1.1" id="Capa_1" xmlns="http://www.w3.org/2000/svg" xmlns:xlink="http://www.w3.org/1999/xlink" x="0px" y="0px"
	 width="593.976px" height="201.288px" viewBox="0 0 593.976 201.288" enable-background="new 0 0 593.976 201.288"
	 xml:space="preserve">
<g>
	<defs>
		<rect id="SVGID_1_" width="593.976" height="201.288"/>
	</defs>
	<clipPath id="SVGID_2_">
		<use xlink:href="#SVGID_1_"  overflow="visible"/>
	</clipPath>
	<path clip-path="url(#SVGID_2_)" fill="#FFFFFF" d="M354.996,98.995c0,20.678-13.929,34.605-34.606,34.605
		s-34.606-13.928-34.606-34.605c0-20.678,13.928-34.606,34.606-34.606S354.996,78.317,354.996,98.995 M367.39,98.995
		c0-25.957-21.043-47-47-47s-47,21.043-47,47s21.043,47,47,47S367.39,124.952,367.39,98.995"/>
	<path clip-path="url(#SVGID_2_)" fill="#D9D9D9" d="M303.563,201.28c-0.634-0.131-1.046-0.661-1.042-1.283l1.99-97.119
		c0.016-0.13,0.019-0.252,0.064-0.378c0-0.464-0.006-0.94,0.072-1.554c0.638-4.167,2.872-7.715,5.994-10.024
		c3.171-2.342,7.242-3.456,11.399-2.836c4.206,0.661,7.764,2.908,10.098,6.062c2.325,3.152,3.455,7.215,2.803,11.398
		c-0.162,0.97-0.381,1.922-0.705,2.827l-0.017,0.066l-0.05,0.098l-29.233,91.891C304.763,201.001,304.159,201.347,303.563,201.28"/>
	<path clip-path="url(#SVGID_2_)" fill="#9F9F9F" d="M336.81,0.007c0.642,0.14,1.058,0.676,1.06,1.311l-2.022,98.859
		c-0.019,0.133-0.024,0.254-0.07,0.375c0,0.477,0.007,0.965-0.069,1.593c-0.654,4.242-2.926,7.847-6.109,10.191
		c-3.227,2.389-7.367,3.526-11.601,2.896c-4.279-0.675-7.901-2.96-10.275-6.171c-2.367-3.211-3.514-7.346-2.854-11.602
		c0.165-0.99,0.388-1.958,0.713-2.878l0.021-0.069l0.048-0.1l29.757-93.532C335.589,0.301,336.203-0.053,336.81,0.007"/>
	<path clip-path="url(#SVGID_2_)" fill="#D9D9D9" d="M310.062,97.479c0.966-5.701,6.358-9.54,12.062-8.583
		c5.702,0.966,9.543,6.365,8.585,12.064c-0.961,5.7-6.361,9.543-12.063,8.582C312.942,108.579,309.1,103.178,310.062,97.479"/>
	<path clip-path="url(#SVGID_2_)" fill="#6B6B6B" d="M314.869,98.291c0.515-3.052,3.402-5.107,6.444-4.592
		c3.055,0.516,5.108,3.402,4.593,6.449c-0.518,3.052-3.403,5.106-6.453,4.591C316.406,104.226,314.348,101.334,314.869,98.291"/>
	<path clip-path="url(#SVGID_2_)" fill="#FFFFFF" d="M77.323,62.481v75.782c0,3.852-3.339,7.063-7.192,7.063
		c-3.982,0-7.065-3.212-7.065-7.063V84.188L44.57,109.877c-1.413,1.927-3.468,2.954-5.779,2.954h-0.129h-0.128
		c-2.313,0-4.495-1.027-5.908-2.954L14.258,84.188v54.075c0,3.852-3.211,7.063-7.194,7.063c-3.852,0-7.063-3.212-7.063-7.063V62.481
		c0-3.854,3.211-7.064,7.063-7.064H7.45c2.055,0,4.368,1.026,5.652,2.954l25.56,35.449l25.559-35.449
		c1.414-1.928,3.468-2.954,5.782-2.954h0.128C73.984,55.544,77.323,58.627,77.323,62.481"/>
	<path clip-path="url(#SVGID_2_)" fill="#FFFFFF" d="M109.309,62.481c0-3.983,3.082-7.064,7.064-7.064
		c3.854,0,7.194,3.081,7.194,7.064v75.782c0,3.98-3.34,7.063-7.194,7.063c-3.982,0-7.064-3.083-7.064-7.063V62.481z"/>
	<path clip-path="url(#SVGID_2_)" fill="#FFFFFF" d="M144.759,122.978c2.313-2.826,6.551-3.21,9.377-0.899
		c5.651,4.624,15.413,10.02,24.532,9.891c6.422,0,12.203-1.926,16.056-4.752s5.523-6.036,5.523-9.248c0-1.67-0.385-2.826-1.155-4.11
		c-0.771-1.284-1.928-2.568-3.854-3.854c-3.725-2.44-10.019-4.623-17.597-6.036h-0.257c-6.036-1.157-11.688-2.697-16.569-5.01
		c-4.88-2.312-9.119-5.523-11.946-10.018c-1.925-3.082-2.953-6.679-2.953-10.533c0-7.706,4.366-14.386,10.276-18.752
		c6.036-4.367,13.871-6.808,22.22-6.808c12.33,0,21.45,6.037,28,10.276c2.955,2.055,3.854,6.165,1.799,9.119
		c-1.927,3.083-6.037,3.982-9.119,1.927c-6.551-4.367-12.846-8.22-20.68-8.22c-5.78,0-10.918,1.799-14.385,4.366
		c-3.469,2.569-4.882,5.395-4.882,8.092c0,1.542,0.258,2.57,0.9,3.597c0.642,1.028,1.797,2.184,3.468,3.339
		c3.339,2.312,9.119,4.367,16.056,5.653h0.255c6.551,1.284,12.588,2.953,17.726,5.394c5.267,2.568,9.89,5.908,12.845,10.661
		c1.926,3.082,3.083,6.935,3.083,10.917c0,8.22-4.625,15.284-11.047,19.909c-6.294,4.623-14.643,7.32-23.763,7.32
		c-13.871-0.128-25.559-7.063-32.881-12.844C142.962,130.043,142.576,125.804,144.759,122.978"/>
	<path clip-path="url(#SVGID_2_)" fill="#FFFFFF" d="M234.158,62.481c0-3.983,3.082-7.064,7.064-7.064
		c3.855,0,7.194,3.081,7.194,7.064v75.782c0,3.98-3.339,7.063-7.194,7.063c-3.982,0-7.064-3.083-7.064-7.063V62.481z"/>
	<path clip-path="url(#SVGID_2_)" fill="#FFFFFF" d="M410.557,138.406c0,3.852-3.212,7.064-6.938,7.064
		c-3.98,0-7.063-3.213-7.063-7.064V63.781v-0.129c-0.128-2.184,0.899-4.496,2.825-5.909c3.212-2.183,7.578-1.541,9.763,1.542
		l41.487,57.413V63.781c0-3.727,3.082-6.937,6.936-6.937c3.853,0,7.064,3.21,7.064,6.937v74.625c0,3.852-3.212,7.064-7.064,7.064
		c-2.055,0-3.982-1.028-5.267-2.57c-0.256-0.256-0.515-0.513-0.642-0.77l-41.102-57.03V138.406z"/>
	<path clip-path="url(#SVGID_2_)" fill="#FFFFFF" d="M579.719,100.515c0-9.248-2.569-17.339-6.165-22.863
		c-3.726-5.394-7.964-7.963-11.946-7.835c-3.981-0.128-8.348,2.441-12.201,7.835c-3.597,5.524-6.165,13.615-6.165,22.863
		c0,9.12,2.568,17.34,6.165,22.735c3.854,5.522,8.22,7.964,12.201,7.964c3.982,0,8.221-2.441,11.946-7.964
		C577.149,117.854,579.719,109.635,579.719,100.515 M528.984,100.515c0.127-11.816,3.082-22.477,8.733-30.698
		c5.395-8.22,13.743-14.256,23.89-14.256c9.892,0,18.368,6.036,23.763,14.256c5.523,8.221,8.605,18.882,8.605,30.698
		c0,11.688-3.082,22.479-8.605,30.699c-5.395,8.091-13.871,14.257-23.763,14.257c-10.146,0-18.495-6.166-23.89-14.257
		C532.066,122.993,529.111,112.203,528.984,100.515"/>
</g>
</svg>
