<?xml version="1.0" encoding="utf-8"?>
<!-- Generator: Adobe Illustrator 15.0.2, SVG Export Plug-In . SVG Version: 6.00 Build 0)  -->
<!DOCTYPE svg PUBLIC "-//W3C//DTD SVG 1.1//EN" "http://www.w3.org/Graphics/SVG/1.1/DTD/svg11.dtd">
<svg version="1.1" id="Capa_1" xmlns="http://www.w3.org/2000/svg" xmlns:xlink="http://www.w3.org/1999/xlink" x="0px" y="0px"
	 width="444.782px" height="110.735px" viewBox="0 0 444.782 110.735" enable-background="new 0 0 444.782 110.735"
	 xml:space="preserve">
<g>
	<path fill="#2B2B2B" d="M270.076,91.033h-4.512v-1.628h10.98v1.628h-4.533v13.202h-1.936V91.033z"/>
	<path fill="#2B2B2B" d="M280.547,89.405v8.779c0,3.322,1.475,4.73,3.455,4.73c2.2,0,3.608-1.452,3.608-4.73v-8.779h1.937v8.647
		c0,4.555-2.398,6.425-5.611,6.425c-3.036,0-5.324-1.738-5.324-6.337v-8.735H280.547z"/>
	<path fill="#2B2B2B" d="M305.649,97.282h-5.765v5.347h6.425v1.606h-8.339v-14.83h8.009v1.606h-6.095v4.687h5.765V97.282z"/>
	<path fill="#2B2B2B" d="M317.354,104.235l-1.892-3.278c-0.771-1.254-1.255-2.068-1.717-2.927h-0.044
		c-0.418,0.858-0.836,1.65-1.606,2.948l-1.782,3.257h-2.2l4.533-7.503l-4.356-7.327h2.222l1.958,3.477
		c0.551,0.968,0.969,1.716,1.364,2.508h0.066c0.418-0.88,0.792-1.562,1.342-2.508l2.024-3.477h2.2l-4.511,7.217l4.621,7.613H317.354
		z"/>
	<path fill="#2B2B2B" d="M322.236,89.581c0.925-0.154,2.135-0.286,3.675-0.286c1.893,0,3.278,0.44,4.159,1.232
		c0.813,0.704,1.298,1.782,1.298,3.103c0,1.342-0.396,2.398-1.145,3.168c-1.012,1.078-2.662,1.629-4.532,1.629
		c-0.572,0-1.101-0.022-1.54-0.132v5.94h-1.915V89.581z M324.151,96.732c0.418,0.11,0.945,0.154,1.584,0.154
		c2.311,0,3.719-1.123,3.719-3.169c0-1.958-1.387-2.904-3.499-2.904c-0.836,0-1.474,0.066-1.804,0.154V96.732z"/>
	<path fill="#2B2B2B" d="M342.037,97.282h-5.765v5.347h6.425v1.606h-8.34v-14.83h8.01v1.606h-6.095v4.687h5.765V97.282z"/>
	<path fill="#2B2B2B" d="M345.622,89.604c1.167-0.177,2.553-0.309,4.071-0.309c2.75,0,4.708,0.639,6.007,1.849
		c1.32,1.21,2.09,2.927,2.09,5.324c0,2.421-0.748,4.401-2.134,5.766c-1.387,1.386-3.675,2.134-6.558,2.134
		c-1.364,0-2.508-0.065-3.477-0.176V89.604z M347.537,102.717c0.483,0.088,1.188,0.11,1.936,0.11c4.093,0,6.315-2.288,6.315-6.293
		c0.021-3.498-1.958-5.721-6.007-5.721c-0.99,0-1.738,0.088-2.244,0.198V102.717z"/>
	<path fill="#2B2B2B" d="M362.628,89.405v14.83h-1.915v-14.83H362.628z"/>
	<path fill="#2B2B2B" d="M376.775,103.751c-0.704,0.353-2.112,0.704-3.917,0.704c-4.181,0-7.327-2.64-7.327-7.503
		c0-4.643,3.146-7.789,7.745-7.789c1.849,0,3.015,0.396,3.521,0.66l-0.462,1.562c-0.727-0.353-1.761-0.616-2.992-0.616
		c-3.477,0-5.787,2.223-5.787,6.117c0,3.63,2.09,5.963,5.699,5.963c1.166,0,2.354-0.242,3.124-0.616L376.775,103.751z"/>
	<path fill="#2B2B2B" d="M381.526,89.405v14.83h-1.915v-14.83H381.526z"/>
	<path fill="#2B2B2B" d="M397.982,96.666c0,5.104-3.103,7.812-6.887,7.812c-3.916,0-6.667-3.036-6.667-7.525
		c0-4.709,2.927-7.789,6.887-7.789C395.364,89.163,397.982,92.266,397.982,96.666z M386.476,96.908c0,3.169,1.716,6.007,4.73,6.007
		c3.036,0,4.753-2.794,4.753-6.161c0-2.948-1.541-6.028-4.731-6.028C388.06,90.726,386.476,93.651,386.476,96.908z M394.418,85.995
		l-2.794,2.552h-1.584l2.046-2.552H394.418z"/>
	<path fill="#2B2B2B" d="M400.907,104.235v-14.83h2.091l4.753,7.503c1.1,1.738,1.958,3.301,2.662,4.818l0.044-0.021
		c-0.176-1.98-0.22-3.784-0.22-6.095v-6.205h1.804v14.83h-1.937l-4.708-7.525c-1.034-1.65-2.024-3.344-2.772-4.95l-0.066,0.021
		c0.11,1.87,0.154,3.653,0.154,6.117v6.337H400.907z"/>
	<path fill="#2B2B2B" d="M415.163,103.113c0-0.792,0.55-1.364,1.298-1.364c0.792,0,1.298,0.572,1.298,1.364
		c0,0.771-0.506,1.364-1.298,1.364C415.691,104.478,415.163,103.884,415.163,103.113z M415.713,99.967l-0.308-10.562h2.112
		l-0.309,10.562H415.713z"/>
</g>
<g>
	<defs>
		<rect id="SVGID_1_" width="444.782" height="110.735"/>
	</defs>
	<clipPath id="SVGID_2_">
		<use xlink:href="#SVGID_1_"  overflow="visible"/>
	</clipPath>
	<path clip-path="url(#SVGID_2_)" fill="#FFFFFF" d="M257.875,51.14c0,10.682-7.195,17.877-17.877,17.877
		s-17.876-7.195-17.876-17.877c0-10.683,7.195-17.877,17.876-17.877S257.875,40.457,257.875,51.14 M264.277,51.14
		c0-13.409-10.869-24.28-24.279-24.28c-13.409,0-24.279,10.871-24.279,24.28c0,13.408,10.87,24.279,24.279,24.279
		C253.408,75.419,264.277,64.548,264.277,51.14"/>
	<path clip-path="url(#SVGID_2_)" fill="#D9D9D9" d="M231.307,103.979c-0.328-0.067-0.541-0.341-0.539-0.663l1.028-50.17
		c0.009-0.067,0.009-0.13,0.033-0.196c0-0.239-0.003-0.485,0.037-0.802c0.329-2.153,1.483-3.986,3.097-5.179
		c1.639-1.209,3.741-1.785,5.889-1.466c2.174,0.343,4.01,1.504,5.217,3.133c1.201,1.628,1.785,3.727,1.447,5.888
		c-0.084,0.501-0.197,0.993-0.363,1.461l-0.01,0.034l-0.024,0.05l-15.103,47.47C231.925,103.834,231.613,104.013,231.307,103.979"/>
	<path clip-path="url(#SVGID_2_)" fill="#9F9F9F" d="M248.48,0.004c0.332,0.071,0.546,0.349,0.548,0.677l-1.045,51.069
		c-0.011,0.068-0.013,0.132-0.037,0.193c0,0.247,0.004,0.499-0.035,0.823c-0.338,2.191-1.512,4.054-3.155,5.265
		c-1.668,1.234-3.808,1.821-5.994,1.496c-2.211-0.349-4.08-1.528-5.308-3.188c-1.224-1.658-1.815-3.795-1.476-5.993
		c0.086-0.512,0.201-1.012,0.369-1.487l0.011-0.035l0.024-0.052l15.373-48.318C247.85,0.155,248.167-0.027,248.48,0.004"/>
	<path clip-path="url(#SVGID_2_)" fill="#D9D9D9" d="M234.664,50.356c0.498-2.945,3.284-4.929,6.23-4.435
		c2.945,0.499,4.929,3.288,4.436,6.232c-0.498,2.945-3.287,4.93-6.232,4.434C236.151,56.09,234.166,53.3,234.664,50.356"/>
	<path clip-path="url(#SVGID_2_)" fill="#6B6B6B" d="M237.146,50.775c0.266-1.577,1.757-2.638,3.329-2.372
		c1.577,0.267,2.639,1.757,2.372,3.331c-0.268,1.577-1.758,2.638-3.334,2.372C237.94,53.842,236.877,52.348,237.146,50.775"/>
	<path clip-path="url(#SVGID_2_)" fill="#FFFFFF" d="M114.433,32.277v39.147c0,1.99-1.725,3.649-3.716,3.649
		c-2.056,0-3.649-1.659-3.649-3.649V43.491l-9.554,13.27c-0.73,0.995-1.792,1.526-2.986,1.526h-0.067h-0.066
		c-1.194,0-2.322-0.531-3.052-1.526l-9.489-13.27v27.934c0,1.99-1.658,3.649-3.715,3.649c-1.991,0-3.65-1.659-3.65-3.649V32.277
		c0-1.991,1.659-3.649,3.65-3.649h0.199c1.061,0,2.256,0.53,2.919,1.526l13.204,18.312l13.204-18.312
		c0.73-0.996,1.791-1.526,2.986-1.526h0.066C112.708,28.694,114.433,30.286,114.433,32.277"/>
	<path clip-path="url(#SVGID_2_)" fill="#FFFFFF" d="M130.956,32.277c0-2.058,1.593-3.649,3.65-3.649
		c1.991,0,3.716,1.592,3.716,3.649v39.147c0,2.058-1.725,3.649-3.716,3.649c-2.057,0-3.65-1.592-3.65-3.649V32.277z"/>
	<path clip-path="url(#SVGID_2_)" fill="#FFFFFF" d="M149.27,63.528c1.195-1.46,3.384-1.658,4.844-0.464
		c2.919,2.388,7.962,5.175,12.673,5.109c3.317,0,6.304-0.995,8.294-2.455c1.991-1.46,2.853-3.118,2.853-4.777
		c0-0.863-0.199-1.46-0.597-2.124c-0.398-0.663-0.995-1.327-1.99-1.99c-1.925-1.261-5.176-2.389-9.091-3.118h-0.132
		c-3.119-0.598-6.039-1.394-8.56-2.589c-2.521-1.193-4.711-2.853-6.17-5.175c-0.996-1.592-1.526-3.45-1.526-5.44
		c0-3.981,2.255-7.433,5.308-9.688c3.118-2.256,7.165-3.517,11.478-3.517c6.37,0,11.081,3.118,14.465,5.308
		c1.526,1.062,1.991,3.186,0.929,4.711c-0.995,1.593-3.118,2.058-4.711,0.996c-3.384-2.256-6.635-4.247-10.683-4.247
		c-2.986,0-5.639,0.929-7.431,2.256c-1.791,1.327-2.521,2.787-2.521,4.181c0,0.796,0.132,1.327,0.464,1.857
		c0.332,0.531,0.929,1.128,1.792,1.726c1.725,1.193,4.71,2.256,8.294,2.92h0.132c3.385,0.663,6.503,1.525,9.157,2.786
		c2.72,1.326,5.109,3.053,6.635,5.508c0.995,1.592,1.593,3.582,1.593,5.64c0,4.246-2.389,7.896-5.707,10.284
		c-3.251,2.389-7.563,3.782-12.275,3.782c-7.166-0.066-13.204-3.649-16.986-6.636C148.341,67.179,148.143,64.988,149.27,63.528"/>
	<path clip-path="url(#SVGID_2_)" fill="#FFFFFF" d="M195.452,32.277c0-2.058,1.592-3.649,3.65-3.649
		c1.991,0,3.716,1.592,3.716,3.649v39.147c0,2.058-1.725,3.649-3.716,3.649c-2.058,0-3.65-1.592-3.65-3.649V32.277z"/>
	<path clip-path="url(#SVGID_2_)" fill="#FFFFFF" d="M286.577,71.499c0,1.989-1.659,3.648-3.583,3.648
		c-2.057,0-3.648-1.659-3.648-3.648V32.948v-0.066c-0.067-1.128,0.463-2.322,1.459-3.052c1.658-1.128,3.914-0.796,5.043,0.796
		l21.432,29.659V32.948c0-1.925,1.592-3.583,3.583-3.583c1.99,0,3.648,1.658,3.648,3.583v38.551c0,1.989-1.658,3.648-3.648,3.648
		c-1.062,0-2.058-0.53-2.722-1.327c-0.132-0.133-0.266-0.265-0.332-0.397l-21.231-29.461V71.499z"/>
	<path clip-path="url(#SVGID_2_)" fill="#FFFFFF" d="M373.965,51.925c0-4.777-1.328-8.957-3.186-11.812
		c-1.925-2.786-4.114-4.113-6.171-4.047c-2.057-0.066-4.313,1.261-6.304,4.047c-1.858,2.854-3.185,7.034-3.185,11.812
		c0,4.711,1.326,8.958,3.185,11.744c1.99,2.854,4.247,4.113,6.304,4.113s4.246-1.26,6.171-4.113
		C372.637,60.883,373.965,56.636,373.965,51.925 M347.756,51.925c0.065-6.104,1.592-11.612,4.511-15.858
		c2.787-4.246,7.1-7.365,12.342-7.365c5.109,0,9.488,3.119,12.275,7.365c2.853,4.246,4.445,9.754,4.445,15.858
		c0,6.038-1.593,11.611-4.445,15.857c-2.787,4.181-7.166,7.365-12.275,7.365c-5.242,0-9.555-3.185-12.342-7.365
		C349.348,63.536,347.821,57.963,347.756,51.925"/>
</g>
<path fill="#2B2B2B" d="M39.518,90.594c0,0.748-0.506,1.342-1.298,1.342c-0.77,0-1.298-0.594-1.298-1.342
	c0-0.814,0.55-1.387,1.32-1.387C39.012,89.207,39.518,89.779,39.518,90.594z M37.164,104.302l0.308-10.496h1.497l0.33,10.496H37.164
	z M42.862,89.405h7.987v1.606h-6.073v4.929h5.611v1.584h-5.611v6.711h-1.914V89.405z M55.93,89.405v14.83h-1.915v-14.83H55.93z
	 M62.75,89.405h1.915v9.924c0,3.938-1.937,5.148-4.489,5.148c-0.704,0-1.562-0.154-2.046-0.353l0.286-1.562
	c0.396,0.153,0.968,0.286,1.606,0.286c1.716,0,2.728-0.771,2.728-3.675V89.405z M70.692,99.57l-1.54,4.665h-1.98l5.039-14.83h2.311
	l5.061,14.83h-2.046l-1.584-4.665H70.692z M75.555,98.074l-1.452-4.269c-0.33-0.968-0.55-1.848-0.77-2.706h-0.044
	c-0.22,0.88-0.462,1.782-0.748,2.685l-1.452,4.29H75.555z"/>
<g>
	<path fill="#2B2B2B" d="M94.541,97.282h-5.765v5.347h6.425v1.606h-8.339v-14.83h8.009v1.606h-6.095v4.687h5.765V97.282z"/>
</g>
<g>
	<path fill="#2B2B2B" d="M98.126,89.405h1.914v13.224h6.337v1.606h-8.251V89.405z"/>
	<path fill="#2B2B2B" d="M113.613,89.604c0.968-0.198,2.354-0.309,3.674-0.309c2.046,0,3.367,0.374,4.291,1.21
		c0.748,0.66,1.167,1.673,1.167,2.816c0,1.959-1.232,3.257-2.794,3.785v0.065c1.144,0.396,1.826,1.453,2.178,2.993
		c0.484,2.068,0.836,3.498,1.144,4.07h-1.98c-0.242-0.418-0.572-1.694-0.99-3.543c-0.44-2.046-1.232-2.816-2.971-2.882h-1.804v6.425
		h-1.914V89.604z M115.527,96.358h1.958c2.046,0,3.344-1.122,3.344-2.816c0-1.914-1.386-2.751-3.41-2.772
		c-0.924,0-1.584,0.088-1.893,0.176V96.358z"/>
	<path fill="#2B2B2B" d="M127.781,89.405v8.779c0,3.322,1.474,4.73,3.455,4.73c2.2,0,3.608-1.452,3.608-4.73v-8.779h1.937v8.647
		c0,4.555-2.398,6.425-5.611,6.425c-3.037,0-5.325-1.738-5.325-6.337v-8.735H127.781z"/>
	<path fill="#2B2B2B" d="M153.039,97.723c-0.11-2.068-0.242-4.555-0.22-6.403h-0.066c-0.506,1.738-1.122,3.587-1.87,5.633
		l-2.618,7.195h-1.452l-2.398-7.063c-0.704-2.09-1.298-4.004-1.716-5.765h-0.044c-0.044,1.849-0.154,4.335-0.286,6.557l-0.396,6.359
		h-1.826l1.034-14.83h2.442l2.531,7.173c0.616,1.826,1.122,3.455,1.496,4.995h0.066c0.374-1.496,0.902-3.125,1.562-4.995l2.64-7.173
		h2.442l0.924,14.83h-1.871L153.039,97.723z"/>
	<path fill="#2B2B2B" d="M158.669,89.604c0.836-0.177,2.156-0.309,3.499-0.309c1.914,0,3.146,0.33,4.07,1.078
		c0.77,0.572,1.232,1.452,1.232,2.619c0,1.43-0.946,2.684-2.508,3.256v0.044c1.408,0.353,3.058,1.519,3.058,3.719
		c0,1.276-0.506,2.244-1.254,2.971c-1.034,0.946-2.707,1.386-5.127,1.386c-1.32,0-2.332-0.088-2.97-0.176V89.604z M160.583,95.676
		h1.738c2.024,0,3.212-1.056,3.212-2.486c0-1.738-1.32-2.42-3.256-2.42c-0.88,0-1.386,0.065-1.694,0.132V95.676z M160.583,102.783
		c0.374,0.066,0.924,0.088,1.606,0.088c1.98,0,3.807-0.726,3.807-2.883c0-2.023-1.738-2.86-3.829-2.86h-1.584V102.783z"/>
	<path fill="#2B2B2B" d="M183.707,96.666c0,5.104-3.103,7.812-6.887,7.812c-3.917,0-6.667-3.036-6.667-7.525
		c0-4.709,2.927-7.789,6.887-7.789C181.088,89.163,183.707,92.266,183.707,96.666z M172.199,96.908c0,3.169,1.716,6.007,4.731,6.007
		c3.036,0,4.752-2.794,4.752-6.161c0-2.948-1.54-6.028-4.73-6.028C173.783,90.726,172.199,93.651,172.199,96.908z"/>
</g>
<g>
	<path fill="#2B2B2B" d="M189.404,89.604c1.166-0.177,2.552-0.309,4.07-0.309c2.75,0,4.709,0.639,6.007,1.849
		c1.32,1.21,2.09,2.927,2.09,5.324c0,2.421-0.748,4.401-2.134,5.766c-1.386,1.386-3.674,2.134-6.557,2.134
		c-1.364,0-2.508-0.065-3.477-0.176V89.604z M191.318,102.717c0.484,0.088,1.188,0.11,1.937,0.11c4.092,0,6.315-2.288,6.315-6.293
		c0.022-3.498-1.958-5.721-6.007-5.721c-0.99,0-1.738,0.088-2.245,0.198V102.717z"/>
	<path fill="#2B2B2B" d="M212.175,97.282h-5.765v5.347h6.425v1.606h-8.339v-14.83h8.009v1.606h-6.095v4.687h5.765V97.282z"/>
</g>
</svg>
