<?xml version="1.0" encoding="utf-8"?>
<!-- Generator: Adobe Illustrator 15.0.2, SVG Export Plug-In . SVG Version: 6.00 Build 0)  -->
<!DOCTYPE svg PUBLIC "-//W3C//DTD SVG 1.1//EN" "http://www.w3.org/Graphics/SVG/1.1/DTD/svg11.dtd">
<svg version="1.1" id="Capa_1" xmlns="http://www.w3.org/2000/svg" xmlns:xlink="http://www.w3.org/1999/xlink" x="0px" y="0px"
	 width="200px" height="68.608px" viewBox="96 0 200 68.608" enable-background="new 96 0 200 68.608" xml:space="preserve">
<rect x="96" y="0" fill="#ECEED7" width="200" height="68"/>
<g>
	<g>
		<g>
			<g>
				<path fill="#C0D192" d="M103.342,24.42h3.821l8.582,16.492l8.514-16.492h3.854v23.464h-3.017l-0.033-18.738l-8.347,16.258
					h-1.978l-8.414-16.257v18.738h-2.983V24.42z"/>
				<path fill="#C0D192" d="M136.326,24.42h3.218v23.464h-3.218V24.42z"/>
				<path fill="#C0D192" d="M158.064,27.755c-1.173-0.346-2.252-0.52-3.235-0.52c-1.363,0-2.453,0.264-3.268,0.789
					c-0.816,0.525-1.223,1.246-1.223,2.162c0,0.827,0.246,1.504,0.737,2.028c0.491,0.525,1.095,0.938,1.81,1.24
					c0.715,0.302,1.709,0.654,2.983,1.056c1.586,0.492,2.871,0.96,3.855,1.407c0.983,0.448,1.821,1.112,2.514,1.995
					c0.692,0.883,1.039,2.05,1.039,3.502c0,1.341-0.364,2.515-1.089,3.52c-0.727,1.006-1.743,1.782-3.05,2.33
					c-1.308,0.548-2.811,0.821-4.509,0.821c-1.721,0-3.397-0.335-5.028-1.005c-1.631-0.671-3.04-1.564-4.224-2.682l1.441-2.782
					c1.117,1.095,2.374,1.939,3.771,2.531c1.396,0.592,2.754,0.888,4.073,0.888c1.564,0,2.799-0.306,3.704-0.922
					c0.905-0.614,1.358-1.446,1.358-2.497c0-0.827-0.247-1.509-0.737-2.045c-0.492-0.537-1.112-0.96-1.86-1.274
					c-0.749-0.312-1.76-0.659-3.034-1.04c-1.564-0.469-2.838-0.927-3.821-1.375c-0.984-0.446-1.816-1.106-2.497-1.978
					c-0.682-0.871-1.022-2.022-1.022-3.453c0-1.251,0.346-2.357,1.039-3.318c0.692-0.96,1.665-1.698,2.917-2.212
					c1.251-0.515,2.704-0.771,4.357-0.771c1.408,0,2.788,0.207,4.14,0.62c1.352,0.414,2.553,0.967,3.604,1.659l-1.34,2.883
					C160.371,28.621,159.237,28.101,158.064,27.755z"/>
				<path fill="#C0D192" d="M169.914,24.42h3.218v23.464h-3.218V24.42z"/>
				<path fill="#C0D192" d="M249.489,24.42h3.186v23.464h-3.253l-13.407-18.168v18.168h-3.219V24.42h3.253l13.44,18.202V24.42
					L249.489,24.42z"/>
				<path fill="#C0D192" d="M287.268,27.353c1.697,2.045,2.547,4.978,2.547,8.799c0,3.821-0.85,6.76-2.547,8.816
					c-1.699,2.056-4.123,3.084-7.274,3.084c-3.173,0-5.604-1.027-7.291-3.084c-1.688-2.055-2.531-4.995-2.531-8.816
					c0-3.822,0.844-6.754,2.531-8.799s4.118-3.067,7.291-3.067C283.145,24.285,285.568,25.308,287.268,27.353z M273.49,36.152
					c0,3.084,0.548,5.408,1.643,6.972c1.095,1.565,2.715,2.347,4.86,2.347c2.145,0,3.765-0.782,4.86-2.347
					c1.095-1.564,1.642-3.888,1.642-6.972c0-6.212-2.167-9.319-6.502-9.319C275.657,26.833,273.49,29.939,273.49,36.152z"/>
			</g>
			<g>
				<g>
					<path fill="#C0D192" d="M207.506,3.562l3.219,1.408l-4.156,3.285l-2.648-0.335L207.506,3.562z"/>
				</g>
			</g>
			<g>
				<path fill="#C0D192" d="M206.089,37.396c-0.054,0.014-0.109,0.014-0.166,0.02c-0.274,0.2-0.626,0.321-1.058,0.321
					c-0.345,0-0.637-0.079-0.881-0.212c-1.599-0.188-1.958-2.15-1.07-3.131c0.015-0.053,0.023-0.107,0.04-0.159l-1.647-1.661
					l-6.505,11.245c-0.294,0.541-0.245,1.18,0.148,1.573c0.245,0.246,0.541,0.344,0.885,0.344c0.246,0,0.492-0.05,0.688-0.198
					l11.212-6.483L206.089,37.396z"/>
				<path fill="#C0D192" d="M220.947,19.389c-4.03-3.981-9.534-6.487-15.628-6.487c-12.188,0-22.115,9.925-22.115,22.114
					c0,6.095,2.506,11.599,6.487,15.627c4.03,3.981,9.534,6.486,15.628,6.486s11.599-2.505,15.628-6.486
					c3.981-4.029,6.487-9.533,6.487-15.627S224.929,23.418,220.947,19.389z M205.319,54.183c-10.567,0-19.166-8.602-19.166-19.167
					c0-10.567,8.6-19.167,19.166-19.167s19.167,8.6,19.167,19.167C224.486,45.582,215.886,54.183,205.319,54.183z"/>
				<path fill="#83A521" d="M215.686,24.696c-0.436-0.438-1.074-0.539-1.621-0.195l-10.905,6.337l-0.343,0.195
					c-0.046,0.029-0.084,0.055-0.13,0.084c-0.491,0.333-0.927,0.769-1.27,1.268c-0.084,0.14-0.177,0.279-0.251,0.427
					c-0.352,0.657-0.546,1.409-0.546,2.206c0,2.594,2.104,4.697,4.697,4.697c1.788,0,3.335-0.991,4.142-2.455l6.374-10.99
					C216.131,25.735,216.084,25.095,215.686,24.696z M205.317,37.472c-1.371,0-2.455-1.083-2.455-2.455
					c0-1.38,1.085-2.466,2.455-2.466c1.381,0,2.465,1.085,2.465,2.466C207.782,36.389,206.698,37.472,205.317,37.472z"/>
			</g>
		</g>
	</g>
</g>
</svg>
