<?xml version="1.0" encoding="utf-8"?>
<!-- Generator: Adobe Illustrator 15.0.2, SVG Export Plug-In . SVG Version: 6.00 Build 0)  -->
<!DOCTYPE svg PUBLIC "-//W3C//DTD SVG 1.1//EN" "http://www.w3.org/Graphics/SVG/1.1/DTD/svg11.dtd">
<svg version="1.1" id="Capa_1" xmlns="http://www.w3.org/2000/svg" xmlns:xlink="http://www.w3.org/1999/xlink" x="0px" y="0px"
	 width="392px" height="165px" viewBox="0 0 392 165" enable-background="new 0 0 392 165" xml:space="preserve">
<rect fill="#ECEED7" width="392" height="165"/>
<g>
	<g>
		<g>
			<g>
				<path fill="#C0D192" d="M12.766,50.817h7.557l16.97,32.614L54.13,50.817h7.623v46.402h-5.966l-0.066-37.055l-16.506,32.15
					h-3.911l-16.639-32.15v37.055h-5.899V50.817z"/>
				<path fill="#C0D192" d="M77.993,50.817h6.364v46.402h-6.364V50.817z"/>
				<path fill="#C0D192" d="M120.98,57.413c-2.32-0.685-4.453-1.027-6.397-1.027c-2.696,0-4.851,0.52-6.463,1.558
					c-1.613,1.039-2.419,2.464-2.419,4.276c0,1.635,0.486,2.973,1.458,4.01c0.972,1.039,2.165,1.856,3.58,2.453
					c1.414,0.597,3.38,1.292,5.899,2.088c3.137,0.973,5.678,1.901,7.624,2.784c1.944,0.885,3.601,2.199,4.972,3.944
					c1.369,1.746,2.055,4.055,2.055,6.927c0,2.651-0.719,4.971-2.154,6.96c-1.437,1.989-3.447,3.525-6.032,4.607
					c-2.585,1.083-5.558,1.624-8.916,1.624c-3.403,0-6.718-0.663-9.943-1.988c-3.226-1.326-6.01-3.093-8.352-5.303l2.85-5.502
					c2.209,2.166,4.695,3.834,7.458,5.005c2.761,1.171,5.446,1.756,8.054,1.756c3.093,0,5.535-0.606,7.325-1.823
					c1.79-1.215,2.685-2.861,2.685-4.938c0-1.634-0.487-2.983-1.458-4.043c-0.973-1.061-2.199-1.899-3.679-2.519
					c-1.481-0.618-3.48-1.303-5.999-2.055c-3.094-0.928-5.613-1.833-7.557-2.718c-1.945-0.883-3.591-2.188-4.938-3.911
					c-1.349-1.724-2.022-3.999-2.022-6.828c0-2.475,0.685-4.662,2.055-6.562c1.369-1.9,3.292-3.358,5.767-4.375
					c2.475-1.016,5.347-1.525,8.618-1.525c2.784,0,5.512,0.409,8.187,1.227c2.673,0.818,5.048,1.912,7.126,3.281l-2.651,5.701
					C125.543,59.126,123.3,58.098,120.98,57.413z"/>
				<path fill="#C0D192" d="M144.413,50.817h6.364v46.402h-6.364V50.817z"/>
				<path fill="#C0D192" d="M301.778,50.817h6.298v46.402h-6.431l-26.515-35.928v35.928h-6.364V50.817h6.431l26.581,35.995V50.817z"
					/>
				<path fill="#C0D192" d="M376.484,56.617c3.357,4.043,5.038,9.844,5.038,17.401c0,7.557-1.681,13.368-5.038,17.434
					c-3.359,4.066-8.153,6.099-14.385,6.099c-6.275,0-11.082-2.032-14.418-6.099c-3.337-4.065-5.005-9.877-5.005-17.434
					c0-7.557,1.668-13.357,5.005-17.401c3.336-4.043,8.143-6.065,14.418-6.065C368.331,50.552,373.125,52.574,376.484,56.617z
					 M349.24,74.018c0,6.098,1.082,10.695,3.248,13.788c2.164,3.094,5.369,4.64,9.611,4.64s7.446-1.546,9.611-4.64
					c2.165-3.093,3.248-7.689,3.248-13.788c0-12.285-4.286-18.428-12.859-18.428C353.525,55.59,349.24,61.733,349.24,74.018z"/>
			</g>
			<g>
				<path fill="#C0D192" d="M215.951,76.478c-0.106,0.031-0.216,0.031-0.328,0.04c-0.543,0.395-1.237,0.634-2.091,0.634
					c-0.682,0-1.261-0.156-1.743-0.418c-3.16-0.371-3.871-4.252-2.115-6.192c0.028-0.105,0.045-0.211,0.078-0.314l-3.258-3.286
					l-12.863,22.238c-0.583,1.069-0.484,2.333,0.293,3.111c0.485,0.485,1.07,0.681,1.75,0.681c0.485,0,0.972-0.099,1.359-0.391
					l22.171-12.82L215.951,76.478z"/>
				<path fill="#C0D192" d="M245.334,40.868c-7.97-7.873-18.854-12.828-30.905-12.828c-24.102,0-43.733,19.627-43.733,43.731
					c0,12.053,4.955,22.938,12.829,30.905c7.969,7.873,18.854,12.827,30.904,12.827c12.051,0,22.936-4.954,30.905-12.827
					c7.873-7.968,12.828-18.853,12.828-30.905C258.162,59.72,253.207,48.835,245.334,40.868z M214.429,109.676
					c-20.896,0-37.901-17.01-37.901-37.904c0-20.897,17.006-37.903,37.901-37.903c20.896,0,37.903,17.006,37.903,37.903
					C252.332,92.666,235.325,109.676,214.429,109.676z"/>
				<path fill="#83A521" d="M234.93,51.363c-0.861-0.865-2.125-1.064-3.208-0.385L210.157,63.51l-0.678,0.384
					c-0.092,0.057-0.165,0.11-0.257,0.167c-0.972,0.66-1.833,1.521-2.511,2.508c-0.165,0.277-0.349,0.553-0.495,0.845
					c-0.696,1.299-1.081,2.786-1.081,4.362c0,5.129,4.16,9.288,9.289,9.288c3.537,0,6.596-1.961,8.191-4.855l12.604-21.733
					C235.809,53.417,235.717,52.152,234.93,51.363z M214.425,76.629c-2.71,0-4.855-2.142-4.855-4.854
					c0-2.73,2.146-4.877,4.855-4.877c2.731,0,4.875,2.147,4.875,4.877C219.3,74.487,217.156,76.629,214.425,76.629z"/>
			</g>
		</g>
		<g>
			<g>
				<path fill="#808080" d="M13.562,138.357c0.624,0.64,1.491,0.96,2.6,0.96s1.973-0.32,2.592-0.96s0.928-1.536,0.928-2.688v-6.655
					h1.104v6.655c0,1.451-0.408,2.587-1.224,3.408s-1.95,1.232-3.4,1.232c-1.451,0-2.587-0.411-3.408-1.232
					s-1.232-1.957-1.232-3.408v-6.655h1.104v6.655C12.626,136.821,12.938,137.718,13.562,138.357z"/>
				<path fill="#808080" d="M30.602,132.669c0.571,0.582,0.856,1.379,0.856,2.393v5.151H30.37v-4.896
					c0-0.789-0.219-1.408-0.656-1.856c-0.438-0.447-1.045-0.672-1.824-0.672c-0.864,0.011-1.555,0.277-2.072,0.801
					c-0.518,0.522-0.813,1.227-0.889,2.111v4.512h-1.071v-8.384h1.071v1.952c0.288-0.65,0.712-1.141,1.272-1.472
					c0.56-0.331,1.24-0.501,2.04-0.513C29.245,131.797,30.031,132.088,30.602,132.669z"/>
				<path fill="#808080" d="M37.33,142.438c0.437,0.011,0.771-0.146,1-0.472c0.229-0.326,0.344-0.803,0.344-1.433v-8.704h1.072
					v8.832c0,0.864-0.189,1.528-0.568,1.992s-0.92,0.696-1.624,0.696c-0.427,0-0.864-0.091-1.312-0.272l0.256-0.815
					C36.786,142.368,37.063,142.427,37.33,142.438z M39.746,128.877c0.138,0.145,0.208,0.323,0.208,0.536
					c0,0.214-0.072,0.396-0.216,0.544c-0.144,0.149-0.317,0.225-0.52,0.225c-0.213,0-0.392-0.075-0.536-0.225
					c-0.144-0.148-0.216-0.33-0.216-0.544c0-0.213,0.072-0.392,0.216-0.536c0.145-0.144,0.323-0.216,0.536-0.216
					S39.607,128.733,39.746,128.877z"/>
				<path fill="#808080" d="M49.874,131.829v8.384h-1.088v-2c-0.277,0.662-0.691,1.163-1.24,1.505
					c-0.55,0.341-1.214,0.517-1.992,0.527c-0.992,0-1.768-0.29-2.328-0.872c-0.56-0.581-0.84-1.378-0.84-2.392v-5.152h1.088v4.896
					c0,0.789,0.216,1.405,0.648,1.848c0.432,0.443,1.026,0.664,1.784,0.664c0.896-0.011,1.6-0.317,2.112-0.92
					c0.512-0.603,0.768-1.395,0.768-2.376v-4.112H49.874z"/>
				<path fill="#808080" d="M59.233,133.037c0.683,0.827,0.997,1.939,0.944,3.336h-6.992c0.074,0.896,0.405,1.619,0.992,2.168
					c0.586,0.55,1.312,0.824,2.176,0.824c0.533,0,1.029-0.096,1.488-0.288c0.458-0.191,0.853-0.464,1.184-0.815l0.608,0.607
					c-0.406,0.438-0.894,0.776-1.464,1.017c-0.571,0.239-1.198,0.359-1.88,0.359c-0.811,0-1.531-0.179-2.16-0.536
					c-0.63-0.356-1.123-0.855-1.48-1.496c-0.357-0.64-0.536-1.37-0.536-2.191c0-0.811,0.179-1.539,0.536-2.185
					c0.357-0.645,0.851-1.146,1.48-1.504c0.629-0.356,1.338-0.536,2.128-0.536C57.559,131.797,58.551,132.211,59.233,133.037z
					 M59.218,135.541c-0.054-0.874-0.344-1.57-0.872-2.088c-0.528-0.517-1.219-0.775-2.072-0.775c-0.843,0-1.547,0.261-2.112,0.783
					c-0.566,0.523-0.891,1.217-0.976,2.08H59.218z"/>
				<path fill="#808080" d="M69.665,131.829v7.504c0,0.812-0.17,1.521-0.512,2.128c-0.342,0.608-0.829,1.075-1.464,1.4
					s-1.368,0.488-2.2,0.488c-1.237,0-2.384-0.427-3.44-1.28l0.512-0.768c0.426,0.373,0.874,0.655,1.344,0.848
					c0.469,0.192,0.981,0.288,1.536,0.288c0.96,0,1.725-0.28,2.296-0.84c0.57-0.561,0.856-1.31,0.856-2.248v-1.36
					c-0.298,0.587-0.725,1.046-1.28,1.376c-0.555,0.331-1.195,0.496-1.92,0.496c-0.747,0-1.411-0.173-1.992-0.52
					c-0.582-0.347-1.035-0.827-1.36-1.44c-0.325-0.613-0.487-1.31-0.487-2.088s0.162-1.472,0.487-2.08
					c0.326-0.608,0.781-1.083,1.368-1.424c0.587-0.342,1.253-0.513,2-0.513c0.726,0,1.36,0.163,1.904,0.488
					c0.544,0.326,0.971,0.787,1.28,1.384v-1.84H69.665z M67.138,138.59c0.458-0.272,0.815-0.648,1.072-1.129
					c0.256-0.479,0.384-1.018,0.384-1.615c0-0.608-0.128-1.152-0.384-1.633c-0.256-0.479-0.614-0.855-1.072-1.128
					c-0.459-0.271-0.977-0.407-1.552-0.407c-0.576,0-1.093,0.136-1.552,0.407c-0.458,0.272-0.818,0.648-1.08,1.128
					c-0.261,0.48-0.392,1.024-0.392,1.633c0,0.607,0.13,1.149,0.392,1.624c0.262,0.475,0.619,0.848,1.072,1.12
					c0.453,0.271,0.973,0.407,1.56,0.407C66.161,138.997,66.679,138.861,67.138,138.59z"/>
				<path fill="#808080" d="M78.113,132.333c0.64,0.357,1.142,0.856,1.504,1.496c0.362,0.641,0.544,1.366,0.544,2.177
					c0,0.821-0.182,1.555-0.544,2.199c-0.362,0.646-0.864,1.147-1.504,1.504c-0.64,0.357-1.365,0.536-2.176,0.536
					c-0.811,0-1.536-0.179-2.176-0.536c-0.64-0.356-1.141-0.858-1.504-1.504c-0.363-0.645-0.544-1.378-0.544-2.199
					c0-0.811,0.181-1.536,0.544-2.177c0.363-0.64,0.864-1.139,1.504-1.496c0.64-0.356,1.365-0.536,2.176-0.536
					C76.748,131.797,77.474,131.977,78.113,132.333z M74.305,133.142c-0.48,0.277-0.854,0.667-1.12,1.168
					c-0.267,0.501-0.4,1.072-0.4,1.712c0,0.65,0.133,1.227,0.4,1.728c0.266,0.502,0.64,0.892,1.12,1.168
					c0.48,0.278,1.024,0.416,1.632,0.416c0.607,0,1.152-0.138,1.632-0.416c0.48-0.276,0.854-0.666,1.12-1.168
					c0.267-0.501,0.4-1.077,0.4-1.728c0-0.64-0.133-1.211-0.4-1.712s-0.64-0.891-1.12-1.168s-1.024-0.416-1.632-0.416
					C75.329,132.726,74.785,132.864,74.305,133.142z"/>
				<path fill="#808080" d="M94.465,131.829v11.488h-1.072v-5.024c-0.32,0.63-0.768,1.118-1.344,1.465
					c-0.576,0.347-1.248,0.52-2.016,0.52c-0.79,0-1.494-0.182-2.112-0.544c-0.618-0.362-1.099-0.869-1.439-1.521
					c-0.342-0.65-0.512-1.386-0.512-2.207s0.173-1.553,0.52-2.192s0.826-1.142,1.44-1.504c0.613-0.362,1.309-0.544,2.088-0.544
					c0.768,0,1.443,0.176,2.024,0.527c0.581,0.353,1.032,0.843,1.352,1.473v-1.937H94.465z M91.857,138.926
					c0.479-0.283,0.855-0.675,1.128-1.177c0.271-0.501,0.408-1.071,0.408-1.712c0-0.64-0.136-1.213-0.408-1.72
					c-0.272-0.507-0.648-0.904-1.128-1.192c-0.48-0.288-1.024-0.432-1.632-0.432s-1.152,0.144-1.632,0.432
					c-0.479,0.288-0.858,0.686-1.136,1.192s-0.416,1.08-0.416,1.72c0,0.641,0.136,1.211,0.408,1.712
					c0.272,0.502,0.65,0.894,1.136,1.177c0.485,0.282,1.032,0.424,1.64,0.424S91.377,139.208,91.857,138.926z"/>
				<path fill="#808080" d="M104.881,131.829v8.384h-1.088v-2c-0.277,0.662-0.69,1.163-1.24,1.505
					c-0.549,0.341-1.213,0.517-1.992,0.527c-0.992,0-1.768-0.29-2.328-0.872c-0.561-0.581-0.84-1.378-0.84-2.392v-5.152h1.088v4.896
					c0,0.789,0.216,1.405,0.648,1.848c0.432,0.443,1.026,0.664,1.784,0.664c0.896-0.011,1.6-0.317,2.112-0.92
					c0.512-0.603,0.768-1.395,0.768-2.376v-4.112H104.881z"/>
				<path fill="#808080" d="M114.241,133.037c0.682,0.827,0.997,1.939,0.943,3.336h-6.992c0.075,0.896,0.405,1.619,0.992,2.168
					c0.587,0.55,1.312,0.824,2.176,0.824c0.533,0,1.029-0.096,1.488-0.288c0.459-0.191,0.854-0.464,1.185-0.815l0.607,0.607
					c-0.405,0.438-0.894,0.776-1.464,1.017c-0.57,0.239-1.197,0.359-1.88,0.359c-0.811,0-1.531-0.179-2.16-0.536
					c-0.629-0.356-1.123-0.855-1.479-1.496c-0.358-0.64-0.536-1.37-0.536-2.191c0-0.811,0.178-1.539,0.536-2.185
					c0.357-0.645,0.85-1.146,1.479-1.504c0.629-0.356,1.339-0.536,2.128-0.536C112.566,131.797,113.558,132.211,114.241,133.037z
					 M114.225,135.541c-0.053-0.874-0.344-1.57-0.872-2.088c-0.527-0.517-1.219-0.775-2.072-0.775c-0.842,0-1.546,0.261-2.112,0.783
					c-0.565,0.523-0.891,1.217-0.976,2.08H114.225z"/>
				<path fill="#808080" d="M126.049,139.638c-0.576,0.395-1.195,0.603-1.856,0.624c-0.64,0-1.146-0.197-1.52-0.593
					c-0.374-0.395-0.561-0.986-0.561-1.775v-4.992h-1.2l-0.016-0.832h1.216v-2.16h1.072v2.16l2.72-0.016v0.848h-2.72v4.816
					c0,1.034,0.384,1.552,1.152,1.552c0.426,0,0.89-0.149,1.392-0.448L126.049,139.638z"/>
				<path fill="#808080" d="M134.097,133.037c0.683,0.827,0.997,1.939,0.944,3.336h-6.992c0.074,0.896,0.405,1.619,0.992,2.168
					c0.586,0.55,1.312,0.824,2.176,0.824c0.533,0,1.029-0.096,1.488-0.288c0.458-0.191,0.853-0.464,1.184-0.815l0.608,0.607
					c-0.406,0.438-0.894,0.776-1.464,1.017c-0.57,0.239-1.197,0.359-1.88,0.359c-0.811,0-1.53-0.179-2.16-0.536
					c-0.629-0.356-1.123-0.855-1.48-1.496c-0.357-0.64-0.536-1.37-0.536-2.191c0-0.811,0.179-1.539,0.536-2.185
					c0.357-0.645,0.851-1.146,1.48-1.504c0.629-0.356,1.338-0.536,2.128-0.536C132.422,131.797,133.414,132.211,134.097,133.037z
					 M134.081,135.541c-0.053-0.874-0.344-1.57-0.872-2.088c-0.528-0.517-1.219-0.775-2.072-0.775c-0.843,0-1.547,0.261-2.112,0.783
					c-0.565,0.523-0.891,1.217-0.976,2.08H134.081z"/>
				<path fill="#808080" d="M146.944,140.213l-0.016-1.407c-0.331,0.49-0.763,0.855-1.296,1.096c-0.534,0.24-1.147,0.36-1.84,0.36
					c-0.565,0-1.063-0.109-1.496-0.328s-0.766-0.521-1-0.904c-0.235-0.384-0.352-0.816-0.352-1.296c0-0.726,0.28-1.296,0.84-1.712
					c0.56-0.416,1.331-0.624,2.312-0.624h2.816v-0.64c0-0.662-0.197-1.174-0.592-1.536s-0.971-0.544-1.728-0.544
					c-0.896,0-1.797,0.336-2.704,1.008l-0.48-0.736c0.565-0.395,1.104-0.686,1.616-0.872c0.512-0.187,1.099-0.28,1.76-0.28
					c1.014,0,1.797,0.254,2.352,0.761s0.837,1.208,0.848,2.104l0.016,5.552H146.944z M145.88,138.846
					c0.517-0.347,0.867-0.835,1.048-1.464v-1.152h-2.704c-0.736,0-1.296,0.123-1.681,0.368c-0.384,0.245-0.576,0.613-0.576,1.104
					c0,0.502,0.184,0.904,0.552,1.208c0.368,0.304,0.855,0.456,1.464,0.456C144.73,139.365,145.363,139.192,145.88,138.846z"/>
				<path fill="#808080" d="M151.977,142.869c-0.422,0.331-0.904,0.496-1.448,0.496c-0.651,0-1.227-0.191-1.728-0.576l0.48-0.832
					c0.373,0.256,0.773,0.385,1.2,0.385c0.341,0,0.65-0.112,0.928-0.336c0.277-0.225,0.507-0.55,0.688-0.977l0.352-0.864
					l-3.472-8.336h1.136l2.88,7.2l2.768-7.2h1.104l-3.872,9.584C152.736,142.054,152.397,142.539,151.977,142.869z"/>
				<path fill="#808080" d="M165.6,131.829v8.384h-1.088v-2c-0.277,0.662-0.69,1.163-1.24,1.505
					c-0.549,0.341-1.213,0.517-1.992,0.527c-0.992,0-1.769-0.29-2.328-0.872c-0.56-0.581-0.84-1.378-0.84-2.392v-5.152h1.088v4.896
					c0,0.789,0.216,1.405,0.648,1.848c0.432,0.443,1.026,0.664,1.784,0.664c0.896-0.011,1.6-0.317,2.112-0.92
					c0.512-0.603,0.768-1.395,0.768-2.376v-4.112H165.6z"/>
				<path fill="#808080" d="M176.352,128.342v11.871h-1.072v-1.92c-0.32,0.63-0.768,1.118-1.344,1.465
					c-0.576,0.347-1.248,0.52-2.016,0.52c-0.79,0-1.494-0.182-2.112-0.544c-0.618-0.362-1.099-0.869-1.439-1.521
					c-0.342-0.65-0.512-1.386-0.512-2.207s0.173-1.553,0.52-2.192s0.826-1.142,1.44-1.504c0.613-0.362,1.309-0.544,2.088-0.544
					c0.768,0,1.443,0.176,2.024,0.527c0.581,0.353,1.032,0.843,1.352,1.473v-5.424H176.352z M173.744,138.926
					c0.479-0.283,0.855-0.675,1.128-1.177c0.271-0.501,0.408-1.071,0.408-1.712c0-0.64-0.136-1.213-0.408-1.72
					c-0.272-0.507-0.648-0.904-1.128-1.192c-0.48-0.288-1.024-0.432-1.632-0.432s-1.152,0.144-1.632,0.432
					c-0.479,0.288-0.858,0.686-1.136,1.192s-0.416,1.08-0.416,1.72c0,0.641,0.136,1.211,0.408,1.712
					c0.272,0.502,0.65,0.894,1.136,1.177c0.485,0.282,1.032,0.424,1.64,0.424S173.264,139.208,173.744,138.926z"/>
				<path fill="#808080" d="M184.832,140.213l-0.017-1.407c-0.33,0.49-0.763,0.855-1.296,1.096s-1.146,0.36-1.84,0.36
					c-0.565,0-1.064-0.109-1.496-0.328c-0.432-0.219-0.766-0.521-1-0.904s-0.352-0.816-0.352-1.296c0-0.726,0.28-1.296,0.84-1.712
					c0.56-0.416,1.33-0.624,2.312-0.624h2.816v-0.64c0-0.662-0.197-1.174-0.592-1.536c-0.395-0.362-0.971-0.544-1.729-0.544
					c-0.896,0-1.797,0.336-2.704,1.008l-0.479-0.736c0.565-0.395,1.104-0.686,1.616-0.872c0.512-0.187,1.098-0.28,1.76-0.28
					c1.013,0,1.797,0.254,2.352,0.761s0.838,1.208,0.849,2.104l0.016,5.552H184.832z M183.768,138.846
					c0.518-0.347,0.867-0.835,1.048-1.464v-1.152h-2.704c-0.736,0-1.296,0.123-1.68,0.368s-0.576,0.613-0.576,1.104
					c0,0.502,0.185,0.904,0.552,1.208s0.856,0.456,1.464,0.456C182.618,139.365,183.25,139.192,183.768,138.846z"/>
				<path fill="#808080" d="M191.016,132.317c0.518-0.336,1.139-0.509,1.864-0.521v1.009c-0.886-0.011-1.598,0.248-2.136,0.775
					c-0.539,0.528-0.845,1.246-0.92,2.152v4.479h-1.071v-8.384h1.071v1.952C190.101,133.142,190.498,132.653,191.016,132.317z"/>
				<path fill="#808080" d="M199.456,140.213l-0.017-1.407c-0.33,0.49-0.763,0.855-1.296,1.096s-1.146,0.36-1.84,0.36
					c-0.565,0-1.064-0.109-1.496-0.328c-0.432-0.219-0.766-0.521-1-0.904s-0.352-0.816-0.352-1.296c0-0.726,0.28-1.296,0.84-1.712
					c0.56-0.416,1.33-0.624,2.312-0.624h2.816v-0.64c0-0.662-0.197-1.174-0.592-1.536c-0.395-0.362-0.971-0.544-1.729-0.544
					c-0.896,0-1.797,0.336-2.704,1.008l-0.479-0.736c0.565-0.395,1.104-0.686,1.616-0.872c0.512-0.187,1.098-0.28,1.76-0.28
					c1.013,0,1.797,0.254,2.352,0.761s0.838,1.208,0.849,2.104l0.016,5.552H199.456z M198.392,138.846
					c0.518-0.347,0.867-0.835,1.048-1.464v-1.152h-2.704c-0.736,0-1.296,0.123-1.68,0.368s-0.576,0.613-0.576,1.104
					c0,0.502,0.185,0.904,0.552,1.208s0.856,0.456,1.464,0.456C197.242,139.365,197.874,139.192,198.392,138.846z M198.336,128.262
					l1.104,0.479l-2.016,1.601l-0.96-0.112L198.336,128.262z"/>
				<path fill="#808080" d="M213.039,140.213l-0.016-1.407c-0.33,0.49-0.763,0.855-1.296,1.096s-1.146,0.36-1.84,0.36
					c-0.565,0-1.064-0.109-1.496-0.328c-0.432-0.219-0.766-0.521-1-0.904c-0.235-0.384-0.352-0.816-0.352-1.296
					c0-0.726,0.28-1.296,0.84-1.712c0.56-0.416,1.33-0.624,2.312-0.624h2.816v-0.64c0-0.662-0.197-1.174-0.592-1.536
					c-0.396-0.362-0.971-0.544-1.729-0.544c-0.896,0-1.797,0.336-2.704,1.008l-0.48-0.736c0.565-0.395,1.104-0.686,1.616-0.872
					c0.513-0.187,1.099-0.28,1.761-0.28c1.013,0,1.797,0.254,2.352,0.761s0.837,1.208,0.849,2.104l0.016,5.552H213.039z
					 M211.976,138.846c0.517-0.347,0.866-0.835,1.048-1.464v-1.152h-2.704c-0.735,0-1.296,0.123-1.68,0.368
					s-0.576,0.613-0.576,1.104c0,0.502,0.184,0.904,0.552,1.208c0.368,0.304,0.856,0.456,1.465,0.456
					C210.826,139.365,211.458,139.192,211.976,138.846z"/>
				<path fill="#808080" d="M222.432,128.877c0.139,0.145,0.207,0.323,0.207,0.536c0,0.214-0.071,0.396-0.215,0.544
					c-0.145,0.149-0.318,0.225-0.521,0.225c-0.214,0-0.392-0.075-0.536-0.225c-0.145-0.148-0.216-0.33-0.216-0.544
					c0-0.213,0.071-0.392,0.216-0.536c0.145-0.144,0.322-0.216,0.536-0.216C222.116,128.661,222.293,128.733,222.432,128.877z
					 M221.359,131.829h1.072v8.384h-1.072V131.829z"/>
				<path fill="#808080" d="M233.184,128.342v11.871h-1.072v-1.92c-0.32,0.63-0.768,1.118-1.344,1.465s-1.248,0.52-2.017,0.52
					c-0.789,0-1.493-0.182-2.112-0.544c-0.618-0.362-1.099-0.869-1.439-1.521c-0.342-0.65-0.512-1.386-0.512-2.207
					s0.173-1.553,0.52-2.192s0.826-1.142,1.44-1.504c0.613-0.362,1.309-0.544,2.088-0.544c0.768,0,1.442,0.176,2.023,0.527
					c0.581,0.353,1.032,0.843,1.353,1.473v-5.424H233.184z M230.575,138.926c0.479-0.283,0.856-0.675,1.128-1.177
					c0.271-0.501,0.408-1.071,0.408-1.712c0-0.64-0.137-1.213-0.408-1.72s-0.648-0.904-1.128-1.192s-1.024-0.432-1.632-0.432
					c-0.608,0-1.152,0.144-1.633,0.432c-0.479,0.288-0.858,0.686-1.136,1.192s-0.416,1.08-0.416,1.72
					c0,0.641,0.137,1.211,0.408,1.712c0.272,0.502,0.65,0.894,1.136,1.177c0.485,0.282,1.032,0.424,1.641,0.424
					C229.551,139.35,230.096,139.208,230.575,138.926z"/>
				<path fill="#808080" d="M242.639,133.037c0.683,0.827,0.998,1.939,0.944,3.336h-6.992c0.075,0.896,0.405,1.619,0.992,2.168
					c0.587,0.55,1.312,0.824,2.176,0.824c0.533,0,1.029-0.096,1.488-0.288c0.458-0.191,0.854-0.464,1.185-0.815l0.607,0.607
					c-0.405,0.438-0.894,0.776-1.464,1.017c-0.571,0.239-1.198,0.359-1.88,0.359c-0.811,0-1.531-0.179-2.16-0.536
					c-0.63-0.356-1.123-0.855-1.48-1.496c-0.357-0.64-0.535-1.37-0.535-2.191c0-0.811,0.178-1.539,0.535-2.185
					c0.357-0.645,0.851-1.146,1.48-1.504c0.629-0.356,1.338-0.536,2.128-0.536C240.965,131.797,241.956,132.211,242.639,133.037z
					 M242.623,135.541c-0.054-0.874-0.344-1.57-0.872-2.088c-0.528-0.517-1.219-0.775-2.072-0.775c-0.843,0-1.546,0.261-2.111,0.783
					c-0.565,0.523-0.892,1.217-0.977,2.08H242.623z"/>
				<path fill="#808080" d="M252.566,132.669c0.571,0.582,0.856,1.379,0.856,2.393v5.151h-1.088v-4.896
					c0-0.789-0.219-1.408-0.656-1.856c-0.438-0.447-1.046-0.672-1.823-0.672c-0.864,0.011-1.556,0.277-2.072,0.801
					c-0.518,0.522-0.813,1.227-0.889,2.111v4.512h-1.071v-8.384h1.071v1.952c0.288-0.65,0.713-1.141,1.272-1.472
					s1.24-0.501,2.04-0.513C251.209,131.797,251.996,132.088,252.566,132.669z"/>
				<path fill="#808080" d="M260.511,139.638c-0.576,0.395-1.194,0.603-1.856,0.624c-0.64,0-1.146-0.197-1.52-0.593
					c-0.373-0.395-0.561-0.986-0.561-1.775v-4.992h-1.199l-0.017-0.832h1.216v-2.16h1.072v2.16l2.721-0.016v0.848h-2.721v4.816
					c0,1.034,0.385,1.552,1.152,1.552c0.427,0,0.891-0.149,1.392-0.448L260.511,139.638z"/>
				<path fill="#808080" d="M263.519,128.877c0.139,0.145,0.208,0.323,0.208,0.536c0,0.214-0.072,0.396-0.216,0.544
					c-0.144,0.149-0.317,0.225-0.521,0.225c-0.213,0-0.392-0.075-0.535-0.225c-0.145-0.148-0.217-0.33-0.217-0.544
					c0-0.213,0.072-0.392,0.217-0.536c0.144-0.144,0.322-0.216,0.535-0.216C263.204,128.661,263.38,128.733,263.519,128.877z
					 M262.447,131.829h1.071v8.384h-1.071V131.829z"/>
				<path fill="#808080" d="M268.391,129.638c-0.304,0.31-0.456,0.72-0.456,1.231v1.185h2.464v0.848h-2.464v7.312h-1.072v-7.312
					h-1.071v-0.848h1.071v-1.057c0-0.554,0.117-1.042,0.353-1.464c0.234-0.421,0.549-0.744,0.943-0.968s0.821-0.336,1.28-0.336
					c0.522,0,1.014,0.128,1.472,0.384l-0.271,0.864c-0.384-0.203-0.758-0.304-1.12-0.304
					C269.07,129.174,268.694,129.328,268.391,129.638z M272.91,128.877c0.139,0.145,0.209,0.323,0.209,0.536
					c0,0.214-0.072,0.396-0.217,0.544c-0.144,0.149-0.317,0.225-0.52,0.225c-0.214,0-0.393-0.075-0.536-0.225
					c-0.144-0.148-0.216-0.33-0.216-0.544c0-0.213,0.072-0.392,0.216-0.536c0.144-0.144,0.322-0.216,0.536-0.216
					C272.596,128.661,272.771,128.733,272.91,128.877z M271.839,131.829h1.071v8.384h-1.071V131.829z"/>
				<path fill="#808080" d="M279.358,132.741c-0.598,0-1.136,0.139-1.616,0.416c-0.479,0.277-0.854,0.664-1.12,1.16
					s-0.399,1.064-0.399,1.704s0.133,1.211,0.399,1.712c0.267,0.502,0.641,0.891,1.12,1.168c0.48,0.277,1.019,0.416,1.616,0.416
					c0.544,0,1.042-0.096,1.496-0.288c0.453-0.192,0.835-0.469,1.144-0.832l0.608,0.64c-0.374,0.448-0.843,0.795-1.408,1.04
					c-0.565,0.246-1.194,0.368-1.888,0.368c-0.8,0-1.515-0.179-2.145-0.536c-0.629-0.356-1.122-0.858-1.479-1.504
					c-0.357-0.645-0.536-1.373-0.536-2.184s0.179-1.539,0.536-2.185c0.357-0.645,0.851-1.146,1.479-1.504
					c0.63-0.356,1.345-0.536,2.145-0.536c0.65,0,1.245,0.107,1.784,0.32c0.538,0.214,1,0.512,1.384,0.896l-0.608,0.72
					C281.188,133.072,280.351,132.741,279.358,132.741z"/>
				<path fill="#808080" d="M289.774,140.213l-0.017-1.407c-0.33,0.49-0.762,0.855-1.295,1.096c-0.534,0.24-1.147,0.36-1.841,0.36
					c-0.565,0-1.063-0.109-1.495-0.328c-0.433-0.219-0.766-0.521-1-0.904c-0.235-0.384-0.353-0.816-0.353-1.296
					c0-0.726,0.28-1.296,0.84-1.712s1.331-0.624,2.312-0.624h2.816v-0.64c0-0.662-0.197-1.174-0.592-1.536s-0.971-0.544-1.729-0.544
					c-0.896,0-1.797,0.336-2.703,1.008l-0.48-0.736c0.565-0.395,1.104-0.686,1.616-0.872c0.512-0.187,1.099-0.28,1.76-0.28
					c1.014,0,1.798,0.254,2.353,0.761s0.837,1.208,0.848,2.104l0.016,5.552H289.774z M288.711,138.846
					c0.517-0.347,0.866-0.835,1.047-1.464v-1.152h-2.703c-0.736,0-1.297,0.123-1.681,0.368s-0.575,0.613-0.575,1.104
					c0,0.502,0.184,0.904,0.552,1.208s0.855,0.456,1.464,0.456C287.561,139.365,288.193,139.192,288.711,138.846z"/>
				<path fill="#808080" d="M295.958,132.317c0.518-0.336,1.139-0.509,1.864-0.521v1.009c-0.886-0.011-1.598,0.248-2.136,0.775
					c-0.539,0.528-0.846,1.246-0.921,2.152v4.479h-1.071v-8.384h1.071v1.952C295.043,133.142,295.44,132.653,295.958,132.317z"/>
				<path fill="#808080" d="M308.174,139.638c-0.576,0.395-1.194,0.603-1.855,0.624c-0.641,0-1.146-0.197-1.521-0.593
					c-0.373-0.395-0.56-0.986-0.56-1.775v-4.992h-1.2l-0.017-0.832h1.217v-2.16h1.072v2.16l2.72-0.016v0.848h-2.72v4.816
					c0,1.034,0.384,1.552,1.151,1.552c0.427,0,0.891-0.149,1.392-0.448L308.174,139.638z"/>
				<path fill="#808080" d="M317.311,131.829v8.384h-1.089v-2c-0.277,0.662-0.69,1.163-1.239,1.505
					c-0.55,0.341-1.214,0.517-1.992,0.527c-0.992,0-1.769-0.29-2.328-0.872c-0.561-0.581-0.84-1.378-0.84-2.392v-5.152h1.088v4.896
					c0,0.789,0.216,1.405,0.648,1.848c0.432,0.443,1.025,0.664,1.783,0.664c0.896-0.011,1.6-0.317,2.112-0.92
					c0.512-0.603,0.768-1.395,0.768-2.376v-4.112H317.311z"/>
				<path fill="#808080" d="M323.693,132.846c-0.395-0.112-0.783-0.168-1.168-0.168c-0.533,0-0.963,0.104-1.287,0.312
					c-0.326,0.208-0.488,0.521-0.488,0.937c0,0.287,0.088,0.522,0.264,0.703c0.176,0.182,0.395,0.328,0.656,0.44
					s0.627,0.237,1.096,0.376c0.576,0.171,1.045,0.339,1.408,0.504c0.362,0.166,0.672,0.405,0.928,0.72
					c0.256,0.315,0.385,0.729,0.385,1.24c0,0.758-0.289,1.336-0.865,1.736c-0.575,0.399-1.295,0.6-2.159,0.6
					c-0.608,0-1.194-0.101-1.761-0.304c-0.564-0.202-1.039-0.49-1.424-0.864l0.433-0.768c0.362,0.331,0.792,0.592,1.288,0.784
					c0.496,0.191,1,0.288,1.512,0.288c0.565,0,1.026-0.118,1.385-0.353c0.356-0.234,0.535-0.576,0.535-1.023
					c0-0.31-0.091-0.562-0.271-0.761c-0.182-0.197-0.408-0.352-0.68-0.464c-0.272-0.112-0.648-0.242-1.129-0.392
					c-0.565-0.171-1.023-0.336-1.376-0.496s-0.65-0.393-0.896-0.696c-0.246-0.304-0.368-0.701-0.368-1.191
					c0-0.736,0.274-1.291,0.823-1.664c0.55-0.374,1.235-0.561,2.057-0.561c0.48,0,0.943,0.064,1.393,0.192
					c0.447,0.128,0.848,0.304,1.199,0.527l-0.416,0.816C324.445,133.115,324.088,132.957,323.693,132.846z"/>
				<path fill="#808080" d="M334.277,132.317c0.518-0.336,1.139-0.509,1.863-0.521v1.009c-0.885-0.011-1.597,0.248-2.135,0.775
					c-0.539,0.528-0.846,1.246-0.92,2.152v4.479h-1.072v-8.384h1.072v1.952C333.363,133.142,333.76,132.653,334.277,132.317z"/>
				<path fill="#808080" d="M344.109,133.037c0.684,0.827,0.998,1.939,0.944,3.336h-6.992c0.075,0.896,0.405,1.619,0.992,2.168
					c0.587,0.55,1.312,0.824,2.177,0.824c0.533,0,1.028-0.096,1.487-0.288c0.458-0.191,0.853-0.464,1.185-0.815l0.607,0.607
					c-0.405,0.438-0.894,0.776-1.464,1.017c-0.571,0.239-1.198,0.359-1.88,0.359c-0.811,0-1.531-0.179-2.16-0.536
					c-0.629-0.356-1.123-0.855-1.48-1.496c-0.357-0.64-0.535-1.37-0.535-2.191c0-0.811,0.178-1.539,0.535-2.185
					c0.357-0.645,0.852-1.146,1.48-1.504c0.629-0.356,1.338-0.536,2.128-0.536C342.436,131.797,343.428,132.211,344.109,133.037z
					 M344.094,135.541c-0.054-0.874-0.344-1.57-0.872-2.088c-0.528-0.517-1.219-0.775-2.071-0.775c-0.844,0-1.547,0.261-2.113,0.783
					c-0.564,0.523-0.891,1.217-0.976,2.08H344.094z"/>
				<path fill="#808080" d="M351.518,139.638c-0.576,0.395-1.195,0.603-1.855,0.624c-0.641,0-1.147-0.197-1.521-0.593
					c-0.374-0.395-0.56-0.986-0.56-1.775v-4.992h-1.201l-0.016-0.832h1.217v-2.16h1.072v2.16l2.719-0.016v0.848h-2.719v4.816
					c0,1.034,0.383,1.552,1.151,1.552c0.427,0,0.891-0.149,1.392-0.448L351.518,139.638z"/>
				<path fill="#808080" d="M358.861,132.333c0.641,0.357,1.141,0.856,1.504,1.496c0.363,0.641,0.544,1.366,0.544,2.177
					c0,0.821-0.181,1.555-0.544,2.199c-0.363,0.646-0.863,1.147-1.504,1.504c-0.641,0.357-1.365,0.536-2.176,0.536
					s-1.536-0.179-2.176-0.536c-0.641-0.356-1.143-0.858-1.504-1.504c-0.363-0.645-0.545-1.378-0.545-2.199
					c0-0.811,0.182-1.536,0.545-2.177c0.361-0.64,0.863-1.139,1.504-1.496c0.64-0.356,1.365-0.536,2.176-0.536
					S358.221,131.977,358.861,132.333z M355.053,133.142c-0.479,0.277-0.854,0.667-1.119,1.168c-0.268,0.501-0.4,1.072-0.4,1.712
					c0,0.65,0.133,1.227,0.4,1.728c0.266,0.502,0.64,0.892,1.119,1.168c0.48,0.278,1.024,0.416,1.633,0.416
					c0.607,0,1.152-0.138,1.632-0.416c0.479-0.276,0.853-0.666,1.12-1.168c0.266-0.501,0.4-1.077,0.4-1.728
					c0-0.64-0.135-1.211-0.4-1.712c-0.268-0.501-0.641-0.891-1.12-1.168s-1.024-0.416-1.632-0.416
					C356.077,132.726,355.533,132.864,355.053,133.142z"/>
				<path fill="#808080" d="M366.445,132.846c-0.395-0.112-0.784-0.168-1.168-0.168c-0.533,0-0.963,0.104-1.288,0.312
					s-0.487,0.521-0.487,0.937c0,0.287,0.088,0.522,0.264,0.703c0.176,0.182,0.395,0.328,0.656,0.44
					c0.261,0.112,0.626,0.237,1.096,0.376c0.576,0.171,1.045,0.339,1.408,0.504c0.361,0.166,0.672,0.405,0.928,0.72
					c0.256,0.315,0.384,0.729,0.384,1.24c0,0.758-0.288,1.336-0.864,1.736c-0.576,0.399-1.296,0.6-2.16,0.6
					c-0.607,0-1.194-0.101-1.76-0.304c-0.565-0.202-1.04-0.49-1.424-0.864l0.432-0.768c0.363,0.331,0.793,0.592,1.289,0.784
					c0.495,0.191,1,0.288,1.512,0.288c0.564,0,1.025-0.118,1.384-0.353c0.356-0.234,0.536-0.576,0.536-1.023
					c0-0.31-0.092-0.562-0.272-0.761c-0.182-0.197-0.407-0.352-0.68-0.464s-0.648-0.242-1.128-0.392
					c-0.566-0.171-1.024-0.336-1.377-0.496c-0.352-0.16-0.65-0.393-0.896-0.696s-0.368-0.701-0.368-1.191
					c0-0.736,0.275-1.291,0.824-1.664c0.549-0.374,1.234-0.561,2.057-0.561c0.479,0,0.943,0.064,1.392,0.192s0.848,0.304,1.2,0.527
					l-0.416,0.816C367.197,133.115,366.84,132.957,366.445,132.846z"/>
				<path fill="#808080" d="M370.829,139.117c0.138,0.134,0.208,0.302,0.208,0.504c0,0.203-0.07,0.374-0.208,0.513
					c-0.14,0.138-0.304,0.208-0.496,0.208c-0.203,0-0.368-0.07-0.496-0.208c-0.128-0.139-0.192-0.31-0.192-0.513
					c0-0.202,0.064-0.37,0.192-0.504c0.128-0.133,0.293-0.2,0.496-0.2C370.525,138.917,370.689,138.984,370.829,139.117z
					 M373.693,139.117c0.139,0.134,0.207,0.302,0.207,0.504c0,0.203-0.068,0.374-0.207,0.513c-0.139,0.138-0.305,0.208-0.496,0.208
					c-0.203,0-0.368-0.07-0.496-0.208c-0.129-0.139-0.192-0.31-0.192-0.513c0-0.202,0.063-0.37,0.192-0.504
					c0.128-0.133,0.293-0.2,0.496-0.2C373.389,138.917,373.555,138.984,373.693,139.117z M376.557,139.117
					c0.139,0.134,0.208,0.302,0.208,0.504c0,0.203-0.069,0.374-0.208,0.513c-0.139,0.138-0.304,0.208-0.496,0.208
					c-0.203,0-0.367-0.07-0.496-0.208c-0.127-0.139-0.191-0.31-0.191-0.513c0-0.202,0.064-0.37,0.191-0.504
					c0.129-0.133,0.293-0.2,0.496-0.2C376.253,138.917,376.418,138.984,376.557,139.117z"/>
				<path fill="#808080" d="M60.642,152.165c-0.139-0.138-0.208-0.309-0.208-0.512c0-0.202,0.069-0.376,0.208-0.52
					c0.139-0.145,0.31-0.217,0.512-0.217s0.371,0.07,0.504,0.208c0.133,0.139,0.2,0.315,0.2,0.528c0,0.203-0.066,0.374-0.2,0.512
					c-0.133,0.139-0.301,0.208-0.504,0.208S60.78,152.304,60.642,152.165z M61.666,162.037h-1.04v-2.688l0.16-5.024h0.735
					l0.145,5.024V162.037z"/>
				<path fill="#808080" d="M65.689,162.069c-0.421,0.331-0.904,0.496-1.448,0.496c-0.651,0-1.227-0.192-1.728-0.576l0.48-0.832
					c0.374,0.256,0.773,0.384,1.2,0.384c0.342,0,0.65-0.111,0.928-0.336c0.277-0.224,0.506-0.549,0.688-0.976l0.352-0.864
					l-3.472-8.336h1.136l2.88,7.2l2.768-7.2h1.104l-3.872,9.584C66.45,161.253,66.111,161.738,65.689,162.069z"/>
				<path fill="#808080" d="M81.777,159.413l-0.016-1.407c-0.331,0.49-0.763,0.855-1.296,1.096c-0.534,0.24-1.147,0.359-1.84,0.359
					c-0.565,0-1.063-0.108-1.496-0.327s-0.766-0.521-1-0.904c-0.235-0.384-0.352-0.816-0.352-1.296c0-0.726,0.28-1.296,0.84-1.712
					c0.56-0.416,1.331-0.624,2.312-0.624h2.816v-0.641c0-0.661-0.197-1.173-0.592-1.535c-0.395-0.363-0.971-0.545-1.728-0.545
					c-0.896,0-1.797,0.336-2.704,1.009l-0.48-0.736c0.565-0.395,1.104-0.686,1.616-0.872c0.512-0.187,1.099-0.28,1.76-0.28
					c1.014,0,1.797,0.254,2.352,0.761c0.555,0.506,0.837,1.208,0.848,2.104l0.016,5.552H81.777z M80.713,158.045
					c0.517-0.346,0.867-0.834,1.048-1.464v-1.151h-2.704c-0.736,0-1.296,0.122-1.681,0.368c-0.384,0.245-0.576,0.613-0.576,1.104
					c0,0.502,0.184,0.904,0.552,1.208c0.368,0.304,0.855,0.456,1.464,0.456C79.563,158.565,80.196,158.393,80.713,158.045z"/>
				<path fill="#808080" d="M91.849,148.838c-0.304,0.309-0.456,0.72-0.456,1.231v1.184h2.464v0.849h-2.464v7.312h-1.072v-7.312
					h-1.072v-0.849h1.072v-1.056c0-0.555,0.117-1.042,0.352-1.464c0.234-0.421,0.55-0.744,0.944-0.968
					c0.395-0.225,0.821-0.336,1.28-0.336c0.522,0,1.013,0.128,1.472,0.384l-0.272,0.864c-0.384-0.203-0.757-0.305-1.12-0.305
					C92.529,148.373,92.153,148.528,91.849,148.838z M96.369,148.077c0.139,0.145,0.208,0.323,0.208,0.536
					c0,0.214-0.072,0.395-0.216,0.544c-0.145,0.149-0.318,0.225-0.521,0.225c-0.213,0-0.392-0.075-0.536-0.225
					c-0.144-0.149-0.216-0.33-0.216-0.544c0-0.213,0.072-0.392,0.216-0.536c0.145-0.144,0.323-0.216,0.536-0.216
					S96.23,147.934,96.369,148.077z M95.297,151.029h1.072v8.384h-1.072V151.029z"/>
				<path fill="#808080" d="M98.097,161.638c0.438,0.01,0.771-0.147,1-0.473s0.344-0.803,0.344-1.432v-8.704h1.072v8.832
					c0,0.864-0.189,1.528-0.568,1.992s-0.92,0.696-1.624,0.696c-0.426,0-0.864-0.091-1.312-0.272l0.256-0.816
					C97.553,161.568,97.83,161.627,98.097,161.638z M100.513,148.077c0.139,0.145,0.208,0.323,0.208,0.536
					c0,0.214-0.072,0.395-0.216,0.544s-0.317,0.225-0.52,0.225c-0.213,0-0.392-0.075-0.536-0.225
					c-0.145-0.149-0.216-0.33-0.216-0.544c0-0.213,0.072-0.392,0.216-0.536c0.144-0.144,0.322-0.216,0.536-0.216
					S100.374,147.934,100.513,148.077z"/>
				<path fill="#808080" d="M108.705,159.413l-0.017-1.407c-0.33,0.49-0.763,0.855-1.296,1.096s-1.146,0.359-1.84,0.359
					c-0.565,0-1.064-0.108-1.496-0.327c-0.432-0.219-0.766-0.521-1-0.904s-0.352-0.816-0.352-1.296c0-0.726,0.28-1.296,0.84-1.712
					c0.56-0.416,1.33-0.624,2.312-0.624h2.816v-0.641c0-0.661-0.197-1.173-0.592-1.535c-0.395-0.363-0.971-0.545-1.729-0.545
					c-0.896,0-1.797,0.336-2.704,1.009l-0.479-0.736c0.565-0.395,1.104-0.686,1.616-0.872c0.512-0.187,1.098-0.28,1.76-0.28
					c1.013,0,1.797,0.254,2.352,0.761c0.555,0.506,0.838,1.208,0.849,2.104l0.016,5.552H108.705z M107.641,158.045
					c0.518-0.346,0.867-0.834,1.048-1.464v-1.151h-2.704c-0.736,0-1.296,0.122-1.68,0.368c-0.384,0.245-0.576,0.613-0.576,1.104
					c0,0.502,0.185,0.904,0.552,1.208s0.856,0.456,1.464,0.456C106.491,158.565,107.123,158.393,107.641,158.045z"/>
				<path fill="#808080" d="M114.889,151.518c0.518-0.336,1.139-0.51,1.864-0.521v1.009c-0.886-0.011-1.598,0.247-2.136,0.775
					s-0.845,1.246-0.92,2.152v4.479h-1.071v-8.384h1.071v1.952C113.974,152.342,114.371,151.854,114.889,151.518z"/>
				<path fill="#808080" d="M130.081,151.029v8.384h-1.088v-2c-0.277,0.662-0.69,1.163-1.24,1.504
					c-0.549,0.342-1.213,0.518-1.992,0.528c-0.992,0-1.769-0.29-2.328-0.872c-0.56-0.581-0.84-1.378-0.84-2.392v-5.152h1.088v4.896
					c0,0.789,0.216,1.405,0.648,1.848s1.026,0.664,1.784,0.664c0.896-0.011,1.6-0.317,2.112-0.92
					c0.512-0.603,0.768-1.395,0.768-2.376v-4.112H130.081z"/>
				<path fill="#808080" d="M139.944,151.869c0.57,0.582,0.856,1.379,0.856,2.393v5.151h-1.088v-4.896
					c0-0.789-0.219-1.408-0.656-1.856c-0.438-0.448-1.046-0.672-1.824-0.672c-0.864,0.011-1.555,0.277-2.072,0.8
					c-0.518,0.523-0.813,1.228-0.888,2.112v4.512H133.2v-8.384h1.072v1.952c0.288-0.65,0.712-1.142,1.272-1.472
					c0.56-0.331,1.24-0.502,2.04-0.513C138.587,150.997,139.374,151.288,139.944,151.869z"/>
				<path fill="#808080" d="M150.328,151.518c0.518-0.336,1.139-0.51,1.864-0.521v1.009c-0.886-0.011-1.598,0.247-2.136,0.775
					s-0.845,1.246-0.92,2.152v4.479h-1.071v-8.384h1.071v1.952C149.413,152.342,149.811,151.854,150.328,151.518z"/>
				<path fill="#808080" d="M161.12,151.029v8.384h-1.088v-2c-0.277,0.662-0.691,1.163-1.24,1.504
					c-0.55,0.342-1.213,0.518-1.992,0.528c-0.992,0-1.768-0.29-2.328-0.872c-0.56-0.581-0.84-1.378-0.84-2.392v-5.152h1.088v4.896
					c0,0.789,0.216,1.405,0.648,1.848c0.432,0.442,1.026,0.664,1.784,0.664c0.896-0.011,1.6-0.317,2.112-0.92
					s0.768-1.395,0.768-2.376v-4.112H161.12z"/>
				<path fill="#808080" d="M177.264,151.861c0.555,0.576,0.832,1.376,0.832,2.4v5.151h-1.088v-4.896c0-0.8-0.216-1.422-0.648-1.864
					s-1.027-0.664-1.784-0.664c-0.896,0.021-1.598,0.331-2.104,0.928c-0.507,0.598-0.76,1.387-0.76,2.368v4.128h-1.088v-4.896
					c0-0.8-0.216-1.422-0.648-1.864c-0.432-0.442-1.026-0.664-1.784-0.664c-0.896,0.021-1.6,0.331-2.112,0.928
					c-0.512,0.598-0.769,1.387-0.769,2.368v4.128h-1.071v-8.384h1.071v1.968c0.277-0.661,0.691-1.157,1.24-1.487
					c0.549-0.331,1.219-0.502,2.008-0.513c0.8,0,1.464,0.198,1.992,0.593c0.528,0.395,0.877,0.949,1.048,1.663
					c0.256-0.746,0.669-1.306,1.24-1.68c0.57-0.373,1.272-0.565,2.104-0.576C175.936,150.997,176.709,151.285,177.264,151.861z"/>
				<path fill="#808080" d="M187.544,151.533c0.613,0.357,1.09,0.859,1.432,1.504c0.342,0.646,0.512,1.379,0.512,2.2
					c0,0.811-0.17,1.536-0.512,2.176c-0.341,0.641-0.815,1.139-1.424,1.496c-0.608,0.357-1.302,0.536-2.08,0.536
					c-0.768,0-1.44-0.173-2.016-0.52c-0.576-0.347-1.024-0.83-1.344-1.448v1.936h-1.072v-11.872h1.072v5.425
					c0.309-0.619,0.754-1.102,1.336-1.448s1.25-0.521,2.008-0.521C186.234,150.997,186.931,151.176,187.544,151.533z
					 M186.88,158.094c0.48-0.283,0.854-0.675,1.12-1.177c0.267-0.501,0.4-1.071,0.4-1.712c0-0.629-0.133-1.194-0.4-1.695
					c-0.267-0.502-0.64-0.894-1.12-1.177c-0.48-0.282-1.019-0.424-1.616-0.424c-0.608,0-1.149,0.142-1.624,0.424
					c-0.475,0.283-0.848,0.675-1.12,1.177c-0.271,0.501-0.408,1.066-0.408,1.695c0,0.641,0.133,1.211,0.4,1.712
					c0.267,0.502,0.64,0.894,1.12,1.177c0.48,0.282,1.024,0.424,1.632,0.424C185.861,158.518,186.4,158.376,186.88,158.094z"/>
				<path fill="#808080" d="M197.296,151.533c0.64,0.357,1.141,0.856,1.504,1.496c0.362,0.64,0.544,1.365,0.544,2.176
					c0,0.822-0.182,1.555-0.544,2.2c-0.363,0.646-0.864,1.146-1.504,1.504c-0.64,0.357-1.366,0.536-2.176,0.536
					c-0.811,0-1.536-0.179-2.176-0.536c-0.64-0.357-1.141-0.858-1.504-1.504c-0.362-0.646-0.544-1.378-0.544-2.2
					c0-0.811,0.182-1.536,0.544-2.176c0.363-0.64,0.864-1.139,1.504-1.496c0.641-0.357,1.365-0.536,2.176-0.536
					C195.93,150.997,196.656,151.176,197.296,151.533z M193.487,152.342c-0.479,0.277-0.854,0.666-1.12,1.168
					c-0.267,0.501-0.4,1.071-0.4,1.712c0,0.65,0.133,1.227,0.4,1.728c0.266,0.502,0.64,0.891,1.12,1.168
					c0.48,0.277,1.024,0.416,1.632,0.416s1.152-0.139,1.632-0.416c0.479-0.277,0.853-0.666,1.12-1.168
					c0.267-0.501,0.4-1.077,0.4-1.728c0-0.641-0.133-1.211-0.4-1.712c-0.267-0.502-0.64-0.891-1.12-1.168
					c-0.48-0.277-1.024-0.416-1.632-0.416S193.968,152.064,193.487,152.342z"/>
				<path fill="#808080" d="M211.279,159.413l-0.016-1.407c-0.331,0.49-0.763,0.855-1.296,1.096c-0.534,0.24-1.147,0.359-1.84,0.359
					c-0.565,0-1.064-0.108-1.496-0.327c-0.433-0.219-0.766-0.521-1-0.904c-0.235-0.384-0.353-0.816-0.353-1.296
					c0-0.726,0.28-1.296,0.84-1.712s1.331-0.624,2.312-0.624h2.816v-0.641c0-0.661-0.198-1.173-0.593-1.535
					c-0.395-0.363-0.971-0.545-1.728-0.545c-0.896,0-1.798,0.336-2.704,1.009l-0.48-0.736c0.565-0.395,1.104-0.686,1.616-0.872
					c0.512-0.187,1.099-0.28,1.76-0.28c1.014,0,1.798,0.254,2.353,0.761c0.555,0.506,0.837,1.208,0.848,2.104l0.017,5.552H211.279z
					 M210.216,158.045c0.517-0.346,0.866-0.834,1.048-1.464v-1.151h-2.704c-0.736,0-1.296,0.122-1.68,0.368
					c-0.384,0.245-0.576,0.613-0.576,1.104c0,0.502,0.184,0.904,0.552,1.208s0.856,0.456,1.464,0.456
					C209.066,158.565,209.698,158.393,210.216,158.045z"/>
				<path fill="#808080" d="M223.823,158.838c-0.576,0.395-1.194,0.602-1.856,0.623c-0.64,0-1.146-0.197-1.52-0.592
					s-0.561-0.986-0.561-1.775v-4.992h-1.199l-0.017-0.832h1.216v-2.16h1.072v2.16l2.721-0.017v0.849h-2.721v4.815
					c0,1.035,0.385,1.553,1.152,1.553c0.427,0,0.891-0.149,1.392-0.448L223.823,158.838z"/>
				<path fill="#808080" d="M232.959,151.029v8.384h-1.088v-2c-0.277,0.662-0.69,1.163-1.24,1.504
					c-0.549,0.342-1.213,0.518-1.992,0.528c-0.991,0-1.768-0.29-2.327-0.872c-0.561-0.581-0.841-1.378-0.841-2.392v-5.152h1.088
					v4.896c0,0.789,0.217,1.405,0.648,1.848s1.026,0.664,1.784,0.664c0.896-0.011,1.6-0.317,2.112-0.92
					c0.512-0.603,0.768-1.395,0.768-2.376v-4.112H232.959z"/>
				<path fill="#808080" d="M246.719,152.237c0.683,0.827,0.997,1.938,0.944,3.336h-6.992c0.074,0.896,0.405,1.619,0.992,2.168
					c0.586,0.55,1.312,0.824,2.176,0.824c0.533,0,1.029-0.096,1.488-0.288c0.458-0.192,0.853-0.464,1.184-0.816l0.608,0.608
					c-0.406,0.438-0.894,0.776-1.465,1.016c-0.57,0.24-1.197,0.36-1.879,0.36c-0.812,0-1.531-0.179-2.16-0.536
					c-0.63-0.357-1.123-0.855-1.48-1.496c-0.357-0.64-0.536-1.37-0.536-2.191c0-0.811,0.179-1.539,0.536-2.185
					c0.357-0.645,0.851-1.146,1.48-1.504c0.629-0.357,1.338-0.536,2.128-0.536C245.044,150.997,246.036,151.411,246.719,152.237z
					 M246.703,154.741c-0.054-0.874-0.344-1.57-0.872-2.088s-1.219-0.776-2.072-0.776c-0.843,0-1.547,0.262-2.112,0.784
					c-0.565,0.523-0.891,1.216-0.976,2.08H246.703z"/>
				<path fill="#808080" d="M248.447,151.029h1.248l2.336,3.328l2.352-3.328h1.2l-2.849,4.064l3.057,4.319h-1.264l-2.513-3.584
					l-2.576,3.584h-1.216l3.088-4.319L248.447,151.029z"/>
				<path fill="#808080" d="M264.358,151.533c0.613,0.357,1.091,0.859,1.433,1.504c0.341,0.646,0.512,1.379,0.512,2.2
					c0,0.811-0.171,1.536-0.512,2.176c-0.342,0.641-0.816,1.139-1.425,1.496c-0.607,0.357-1.302,0.536-2.079,0.536
					c-0.769,0-1.44-0.173-2.017-0.52s-1.024-0.83-1.344-1.448v5.04h-1.072v-11.488h1.072v1.937c0.31-0.619,0.755-1.102,1.336-1.448
					s1.25-0.521,2.008-0.521C263.049,150.997,263.745,151.176,264.358,151.533z M263.694,158.094c0.48-0.283,0.854-0.675,1.12-1.177
					c0.267-0.501,0.4-1.071,0.4-1.712c0-0.629-0.134-1.194-0.4-1.695c-0.267-0.502-0.64-0.894-1.12-1.177
					c-0.479-0.282-1.019-0.424-1.616-0.424c-0.607,0-1.149,0.142-1.623,0.424c-0.476,0.283-0.849,0.675-1.121,1.177
					c-0.271,0.501-0.407,1.066-0.407,1.695c0,0.641,0.133,1.211,0.399,1.712c0.267,0.502,0.641,0.894,1.12,1.177
					c0.48,0.282,1.024,0.424,1.632,0.424C262.676,158.518,263.215,158.376,263.694,158.094z"/>
				<path fill="#808080" d="M274.814,152.237c0.683,0.827,0.997,1.938,0.943,3.336h-6.991c0.074,0.896,0.405,1.619,0.991,2.168
					c0.587,0.55,1.312,0.824,2.177,0.824c0.533,0,1.029-0.096,1.487-0.288c0.459-0.192,0.854-0.464,1.185-0.816l0.608,0.608
					c-0.406,0.438-0.895,0.776-1.465,1.016c-0.57,0.24-1.197,0.36-1.88,0.36c-0.811,0-1.53-0.179-2.159-0.536
					c-0.63-0.357-1.123-0.855-1.48-1.496c-0.357-0.64-0.536-1.37-0.536-2.191c0-0.811,0.179-1.539,0.536-2.185
					c0.357-0.645,0.851-1.146,1.48-1.504c0.629-0.357,1.338-0.536,2.127-0.536C273.14,150.997,274.132,151.411,274.814,152.237z
					 M274.799,154.741c-0.054-0.874-0.345-1.57-0.873-2.088c-0.527-0.518-1.219-0.776-2.071-0.776c-0.843,0-1.547,0.262-2.112,0.784
					c-0.565,0.523-0.891,1.216-0.976,2.08H274.799z"/>
				<path fill="#808080" d="M285.63,147.541v11.872h-1.071v-1.92c-0.32,0.63-0.769,1.118-1.345,1.464
					c-0.575,0.347-1.248,0.521-2.016,0.521c-0.79,0-1.493-0.182-2.112-0.544c-0.618-0.362-1.099-0.869-1.439-1.521
					c-0.342-0.65-0.512-1.386-0.512-2.208c0-0.821,0.173-1.552,0.52-2.191c0.347-0.641,0.826-1.142,1.439-1.504
					c0.613-0.363,1.31-0.544,2.088-0.544c0.769,0,1.443,0.176,2.024,0.527c0.581,0.353,1.032,0.843,1.353,1.473v-5.425H285.63z
					 M283.022,158.125c0.479-0.282,0.855-0.674,1.128-1.176c0.271-0.501,0.408-1.072,0.408-1.712s-0.137-1.213-0.408-1.72
					c-0.272-0.507-0.648-0.904-1.128-1.192c-0.48-0.288-1.024-0.432-1.632-0.432c-0.608,0-1.152,0.144-1.633,0.432
					c-0.479,0.288-0.858,0.686-1.136,1.192s-0.416,1.08-0.416,1.72s0.136,1.211,0.408,1.712c0.272,0.502,0.65,0.894,1.136,1.176
					c0.485,0.283,1.032,0.425,1.641,0.425C281.998,158.55,282.542,158.408,283.022,158.125z"/>
				<path fill="#808080" d="M289.918,148.077c0.139,0.145,0.208,0.323,0.208,0.536c0,0.214-0.072,0.395-0.216,0.544
					c-0.145,0.149-0.317,0.225-0.52,0.225c-0.214,0-0.393-0.075-0.537-0.225c-0.144-0.149-0.215-0.33-0.215-0.544
					c0-0.213,0.071-0.392,0.215-0.536c0.145-0.144,0.323-0.216,0.537-0.216C289.604,147.861,289.779,147.934,289.918,148.077z
					 M288.846,151.029h1.072v8.384h-1.072V151.029z"/>
				<path fill="#808080" d="M296.366,151.941c-0.598,0-1.136,0.139-1.616,0.416s-0.854,0.664-1.12,1.16s-0.399,1.063-0.399,1.704
					c0,0.64,0.133,1.21,0.399,1.712c0.267,0.501,0.64,0.891,1.12,1.168s1.019,0.416,1.616,0.416c0.544,0,1.042-0.096,1.496-0.288
					c0.453-0.192,0.834-0.47,1.144-0.832l0.608,0.64c-0.374,0.448-0.843,0.795-1.408,1.04c-0.565,0.246-1.194,0.368-1.888,0.368
					c-0.801,0-1.516-0.179-2.145-0.536s-1.123-0.858-1.479-1.504c-0.358-0.646-0.536-1.373-0.536-2.184s0.178-1.539,0.536-2.185
					c0.356-0.645,0.851-1.146,1.479-1.504s1.344-0.536,2.145-0.536c0.65,0,1.245,0.107,1.783,0.32c0.539,0.214,1,0.512,1.385,0.896
					l-0.608,0.721C298.195,152.272,297.357,151.941,296.366,151.941z"/>
				<path fill="#808080" d="M303.086,148.077c0.139,0.145,0.208,0.323,0.208,0.536c0,0.214-0.072,0.395-0.216,0.544
					c-0.145,0.149-0.318,0.225-0.521,0.225c-0.214,0-0.392-0.075-0.536-0.225c-0.144-0.149-0.216-0.33-0.216-0.544
					c0-0.213,0.072-0.392,0.216-0.536c0.145-0.144,0.322-0.216,0.536-0.216S302.947,147.934,303.086,148.077z M302.014,151.029
					h1.072v8.384h-1.072V151.029z"/>
				<path fill="#808080" d="M311.742,151.533c0.64,0.357,1.141,0.856,1.504,1.496c0.362,0.64,0.544,1.365,0.544,2.176
					c0,0.822-0.182,1.555-0.544,2.2c-0.363,0.646-0.864,1.146-1.504,1.504c-0.641,0.357-1.366,0.536-2.177,0.536
					s-1.536-0.179-2.176-0.536s-1.142-0.858-1.504-1.504s-0.544-1.378-0.544-2.2c0-0.811,0.182-1.536,0.544-2.176
					s0.864-1.139,1.504-1.496s1.365-0.536,2.176-0.536S311.102,151.176,311.742,151.533z M307.934,152.342
					c-0.48,0.277-0.854,0.666-1.12,1.168c-0.267,0.501-0.399,1.071-0.399,1.712c0,0.65,0.133,1.227,0.399,1.728
					c0.267,0.502,0.64,0.891,1.12,1.168s1.024,0.416,1.632,0.416c0.608,0,1.152-0.139,1.632-0.416
					c0.48-0.277,0.854-0.666,1.12-1.168c0.267-0.501,0.4-1.077,0.4-1.728c0-0.641-0.134-1.211-0.4-1.712
					c-0.267-0.502-0.64-0.891-1.12-1.168c-0.479-0.277-1.023-0.416-1.632-0.416C308.958,151.926,308.414,152.064,307.934,152.342z
					 M310.75,147.461l1.104,0.48l-2.016,1.6l-0.96-0.111L310.75,147.461z"/>
				<path fill="#808080" d="M322.806,151.869c0.57,0.582,0.856,1.379,0.856,2.393v5.151h-1.088v-4.896
					c0-0.789-0.219-1.408-0.656-1.856s-1.046-0.672-1.824-0.672c-0.864,0.011-1.555,0.277-2.072,0.8
					c-0.518,0.523-0.813,1.228-0.888,2.112v4.512h-1.072v-8.384h1.072v1.952c0.288-0.65,0.712-1.142,1.272-1.472
					c0.56-0.331,1.239-0.502,2.039-0.513C321.448,150.997,322.234,151.288,322.806,151.869z"/>
				<path fill="#808080" d="M327.197,158.293c0.139,0.139,0.209,0.31,0.209,0.513c0,0.202-0.07,0.376-0.209,0.52
					c-0.139,0.145-0.309,0.216-0.512,0.216s-0.371-0.069-0.504-0.208c-0.134-0.138-0.2-0.314-0.2-0.527
					c0-0.203,0.066-0.374,0.2-0.513c0.133-0.138,0.301-0.208,0.504-0.208S327.059,158.155,327.197,158.293z M326.174,148.422h1.039
					v2.688l-0.159,5.024h-0.736l-0.144-5.024V148.422z"/>
			</g>
		</g>
		<g>
			<g>
				<path fill="#808080" d="M22.151,13.691c0.873,0.682,1.309,1.625,1.309,2.827c0,0.909-0.253,1.672-0.759,2.288
					c-0.506,0.616-1.213,1.02-2.123,1.21c1.129,0.147,2.009,0.565,2.64,1.254c0.63,0.689,0.946,1.562,0.946,2.618
					c0,1.32-0.492,2.347-1.474,3.08c-0.982,0.734-2.347,1.1-4.092,1.1h-6.512v-15.4h6.446
					C20.072,12.668,21.279,13.009,22.151,13.691z M20.997,18.751c0.601-0.477,0.902-1.155,0.902-2.035
					c0-0.851-0.301-1.51-0.902-1.98c-0.602-0.469-1.445-0.696-2.53-0.682h-4.862v5.412h4.862
					C19.552,19.466,20.395,19.228,20.997,18.751z M21.535,25.923c0.727-0.521,1.089-1.25,1.089-2.189c0-0.924-0.367-1.643-1.1-2.156
					c-0.733-0.514-1.753-0.771-3.058-0.771h-4.862v5.896h4.862C19.787,26.704,20.81,26.444,21.535,25.923z"/>
				<path fill="#808080" d="M29.114,12.481c0.19,0.198,0.286,0.444,0.286,0.737c0,0.293-0.099,0.543-0.297,0.748
					c-0.198,0.206-0.437,0.308-0.715,0.308c-0.294,0-0.539-0.103-0.737-0.308c-0.198-0.205-0.297-0.455-0.297-0.748
					c0-0.293,0.099-0.539,0.297-0.737c0.198-0.198,0.443-0.297,0.737-0.297C28.682,12.184,28.924,12.283,29.114,12.481z
					 M27.641,16.54h1.474v11.528h-1.474V16.54z"/>
				<path fill="#808080" d="M41.984,18.201c0.938,1.137,1.371,2.666,1.298,4.587h-9.614c0.103,1.232,0.558,2.226,1.364,2.981
					s1.804,1.133,2.992,1.133c0.733,0,1.415-0.132,2.046-0.396c0.63-0.264,1.173-0.638,1.628-1.122l0.836,0.836
					c-0.558,0.602-1.229,1.067-2.013,1.397c-0.785,0.33-1.646,0.495-2.585,0.495c-1.115,0-2.105-0.246-2.97-0.737
					c-0.866-0.491-1.543-1.177-2.035-2.057c-0.492-0.88-0.737-1.884-0.737-3.014c0-1.114,0.245-2.115,0.737-3.003
					c0.491-0.887,1.169-1.576,2.035-2.068c0.865-0.491,1.84-0.737,2.926-0.737C39.682,16.496,41.045,17.064,41.984,18.201z
					 M41.962,21.644c-0.074-1.203-0.473-2.16-1.199-2.871s-1.676-1.067-2.849-1.067c-1.158,0-2.126,0.359-2.904,1.078
					c-0.778,0.719-1.225,1.672-1.342,2.86H41.962z"/>
				<path fill="#808080" d="M55.635,17.695c0.785,0.8,1.177,1.896,1.177,3.289v7.084h-1.496v-6.732c0-1.085-0.301-1.936-0.902-2.552
					c-0.602-0.616-1.438-0.924-2.508-0.924c-1.188,0.015-2.138,0.381-2.849,1.1s-1.119,1.687-1.221,2.904v6.204h-1.474V16.54h1.474
					v2.684c0.396-0.894,0.979-1.569,1.749-2.024c0.77-0.454,1.705-0.689,2.805-0.704C53.769,16.496,54.851,16.896,55.635,17.695z"/>
				<path fill="#808080" d="M58.198,16.54h1.584l3.828,10.054l3.784-10.054h1.54l-4.576,11.528h-1.562L58.198,16.54z"/>
				<path fill="#808080" d="M79.252,18.201c0.938,1.137,1.371,2.666,1.298,4.587h-9.614c0.103,1.232,0.558,2.226,1.364,2.981
					s1.804,1.133,2.992,1.133c0.733,0,1.415-0.132,2.046-0.396c0.63-0.264,1.173-0.638,1.628-1.122l0.836,0.836
					c-0.558,0.602-1.229,1.067-2.013,1.397c-0.785,0.33-1.646,0.495-2.585,0.495c-1.115,0-2.105-0.246-2.97-0.737
					c-0.866-0.491-1.543-1.177-2.035-2.057c-0.492-0.88-0.737-1.884-0.737-3.014c0-1.114,0.245-2.115,0.737-3.003
					c0.491-0.887,1.169-1.576,2.035-2.068c0.865-0.491,1.84-0.737,2.926-0.737C76.949,16.496,78.313,17.064,79.252,18.201z
					 M79.23,21.644c-0.074-1.203-0.473-2.16-1.199-2.871s-1.676-1.067-2.849-1.067c-1.158,0-2.126,0.359-2.904,1.078
					c-0.778,0.719-1.225,1.672-1.342,2.86H79.23z"/>
				<path fill="#808080" d="M92.902,17.695c0.785,0.8,1.177,1.896,1.177,3.289v7.084h-1.496v-6.732c0-1.085-0.301-1.936-0.902-2.552
					c-0.602-0.616-1.438-0.924-2.508-0.924c-1.188,0.015-2.138,0.381-2.849,1.1s-1.119,1.687-1.221,2.904v6.204H83.63V16.54h1.474
					v2.684c0.396-0.894,0.979-1.569,1.749-2.024c0.77-0.454,1.705-0.689,2.805-0.704C91.036,16.496,92.118,16.896,92.902,17.695z"/>
				<path fill="#808080" d="M99.491,12.481c0.191,0.198,0.286,0.444,0.286,0.737c0,0.293-0.099,0.543-0.297,0.748
					c-0.198,0.206-0.437,0.308-0.715,0.308c-0.294,0-0.539-0.103-0.737-0.308c-0.198-0.205-0.297-0.455-0.297-0.748
					c0-0.293,0.099-0.539,0.297-0.737c0.198-0.198,0.443-0.297,0.737-0.297C99.059,12.184,99.301,12.283,99.491,12.481z
					 M98.018,16.54h1.474v11.528h-1.474V16.54z"/>
				<path fill="#808080" d="M114.275,11.744v16.324h-1.474v-2.64c-0.44,0.866-1.056,1.537-1.848,2.013s-1.716,0.715-2.772,0.715
					c-1.085,0-2.053-0.249-2.904-0.748c-0.851-0.499-1.511-1.195-1.98-2.09c-0.47-0.895-0.704-1.906-0.704-3.036
					c0-1.129,0.238-2.134,0.715-3.014c0.476-0.88,1.136-1.569,1.979-2.068c0.843-0.498,1.8-0.748,2.871-0.748
					c1.056,0,1.983,0.242,2.783,0.726c0.799,0.484,1.419,1.159,1.859,2.024v-7.458H114.275z M110.689,26.297
					c0.66-0.389,1.177-0.927,1.551-1.617c0.374-0.689,0.561-1.474,0.561-2.354c0-0.88-0.187-1.668-0.561-2.365
					c-0.374-0.696-0.891-1.243-1.551-1.639s-1.408-0.594-2.244-0.594s-1.584,0.198-2.244,0.594s-1.181,0.943-1.562,1.639
					c-0.381,0.697-0.572,1.485-0.572,2.365c0,0.88,0.187,1.665,0.561,2.354c0.374,0.69,0.895,1.229,1.562,1.617
					c0.667,0.389,1.419,0.583,2.255,0.583S110.029,26.686,110.689,26.297z"/>
				<path fill="#808080" d="M126.31,17.233c0.88,0.492,1.569,1.177,2.067,2.057c0.499,0.88,0.748,1.877,0.748,2.992
					c0,1.13-0.249,2.138-0.748,3.025c-0.499,0.888-1.188,1.577-2.067,2.068c-0.88,0.491-1.878,0.737-2.992,0.737
					c-1.115,0-2.112-0.246-2.992-0.737s-1.569-1.181-2.068-2.068c-0.499-0.887-0.748-1.895-0.748-3.025
					c0-1.114,0.25-2.112,0.748-2.992c0.499-0.88,1.188-1.565,2.068-2.057c0.88-0.491,1.877-0.737,2.992-0.737
					C124.432,16.496,125.429,16.742,126.31,17.233z M121.073,18.344c-0.66,0.382-1.174,0.917-1.54,1.606
					c-0.367,0.69-0.55,1.474-0.55,2.354c0,0.895,0.183,1.687,0.55,2.376c0.366,0.69,0.88,1.225,1.54,1.606
					c0.66,0.382,1.408,0.572,2.244,0.572s1.584-0.19,2.244-0.572c0.66-0.381,1.173-0.916,1.54-1.606
					c0.366-0.689,0.55-1.481,0.55-2.376c0-0.88-0.184-1.664-0.55-2.354c-0.367-0.689-0.88-1.224-1.54-1.606
					c-0.66-0.381-1.408-0.572-2.244-0.572S121.733,17.963,121.073,18.344z"/>
				<path fill="#808080" d="M136.737,17.937c-0.543-0.154-1.078-0.231-1.606-0.231c-0.734,0-1.324,0.143-1.771,0.429
					c-0.448,0.286-0.671,0.715-0.671,1.287c0,0.396,0.121,0.719,0.363,0.968c0.242,0.25,0.542,0.451,0.902,0.605
					c0.359,0.154,0.862,0.326,1.507,0.517c0.792,0.235,1.437,0.466,1.936,0.693c0.498,0.228,0.924,0.557,1.276,0.99
					s0.528,1.001,0.528,1.705c0,1.042-0.396,1.837-1.188,2.387c-0.792,0.55-1.782,0.825-2.97,0.825c-0.836,0-1.643-0.139-2.42-0.418
					c-0.777-0.278-1.43-0.674-1.958-1.188l0.594-1.056c0.499,0.455,1.089,0.814,1.771,1.078s1.375,0.396,2.079,0.396
					c0.777,0,1.411-0.161,1.903-0.484c0.491-0.323,0.737-0.792,0.737-1.408c0-0.425-0.125-0.773-0.374-1.045
					c-0.25-0.271-0.561-0.484-0.935-0.638c-0.374-0.154-0.891-0.333-1.551-0.539c-0.777-0.235-1.408-0.462-1.892-0.682
					c-0.484-0.22-0.895-0.539-1.232-0.957s-0.506-0.964-0.506-1.639c0-1.012,0.377-1.774,1.133-2.288
					c0.755-0.513,1.698-0.77,2.827-0.77c0.66,0,1.298,0.088,1.914,0.264c0.616,0.176,1.166,0.418,1.65,0.726l-0.572,1.122
					C137.771,18.308,137.28,18.091,136.737,17.937z"/>
				<path fill="#808080" d="M155.415,28.068l-0.022-1.936c-0.455,0.675-1.049,1.177-1.782,1.507c-0.733,0.33-1.577,0.495-2.53,0.495
					c-0.778,0-1.463-0.15-2.057-0.451c-0.594-0.3-1.053-0.715-1.375-1.243c-0.323-0.528-0.484-1.122-0.484-1.782
					c0-0.997,0.385-1.782,1.155-2.354c0.77-0.572,1.83-0.858,3.179-0.858h3.872v-0.88c0-0.909-0.271-1.613-0.814-2.112
					c-0.543-0.499-1.335-0.748-2.376-0.748c-1.232,0-2.472,0.462-3.718,1.386l-0.66-1.012c0.777-0.542,1.518-0.942,2.222-1.199
					c0.704-0.256,1.511-0.385,2.42-0.385c1.394,0,2.471,0.348,3.234,1.045c0.762,0.697,1.151,1.661,1.166,2.893l0.022,7.634H155.415
					z M153.952,26.187c0.711-0.477,1.191-1.147,1.441-2.013V22.59h-3.718c-1.012,0-1.782,0.169-2.31,0.506
					c-0.528,0.338-0.792,0.844-0.792,1.518c0,0.689,0.253,1.243,0.759,1.661s1.177,0.627,2.013,0.627
					C152.372,26.902,153.24,26.664,153.952,26.187z"/>
			</g>
		</g>
	</g>
</g>
</svg>
