<?xml version="1.0" encoding="utf-8"?>
<!-- Generator: Adobe Illustrator 15.0.2, SVG Export Plug-In . SVG Version: 6.00 Build 0)  -->
<!DOCTYPE svg PUBLIC "-//W3C//DTD SVG 1.1//EN" "http://www.w3.org/Graphics/SVG/1.1/DTD/svg11.dtd">
<svg version="1.1" id="Capa_1" xmlns="http://www.w3.org/2000/svg" xmlns:xlink="http://www.w3.org/1999/xlink" x="0px" y="0px"
	 width="79.5px" height="67px" viewBox="0 0 79.5 67" enable-background="new 0 0 79.5 67" xml:space="preserve">
<g>
	<path fill="#9EB81D" d="M53.102,42.449c-8.92,0-16.152-7.233-16.152-16.154c0-8.922,7.232-16.153,16.152-16.153
		c8.923,0,16.155,7.231,16.155,16.153C69.257,35.216,62.024,42.449,53.102,42.449 M53.102,5.296
		c-11.598,0-20.998,9.402-20.998,20.999c0,11.598,9.4,21,20.998,21c11.6,0,21.002-9.402,21.002-21
		C74.104,14.698,64.701,5.296,53.102,5.296 M60.886,19.878c-0.299-0.298-0.782-0.298-1.081,0l-9.713,9.713l-4.621-4.654
		c-0.297-0.298-0.78-0.298-1.078,0l-1.62,1.62c-0.298,0.299-0.298,0.781,0,1.079l5.149,5.188c0.002,0.003,0.002,0.009,0.004,0.014
		l1.621,1.62c0.297,0.298,0.781,0.298,1.08,0l11.878-11.878c0.298-0.299,0.298-0.783,0-1.081L60.886,19.878z"/>
	<path fill="#9EB81D" d="M35.599,37.594l-7.28,5.241c-1.433-1.179-3.492-1.363-5.068-0.227l-13.61,9.8
		c-1.879,1.353-2.305,3.973-0.953,5.852l1.224,1.699c1.354,1.882,3.975,2.308,5.854,0.953l13.61-9.796
		c1.576-1.137,2.057-3.146,1.392-4.878l7.442-5.358L35.599,37.594z"/>
</g>
</svg>
