<?xml version="1.0" encoding="utf-8"?>
<!-- Generator: Adobe Illustrator 15.0.2, SVG Export Plug-In . SVG Version: 6.00 Build 0)  -->
<!DOCTYPE svg PUBLIC "-//W3C//DTD SVG 1.1//EN" "http://www.w3.org/Graphics/SVG/1.1/DTD/svg11.dtd">
<svg version="1.1" id="Capa_1" xmlns="http://www.w3.org/2000/svg" xmlns:xlink="http://www.w3.org/1999/xlink" x="0px" y="0px"
	 width="1075.309px" height="33px" viewBox="0 0 1075.309 33" enable-background="new 0 0 1075.309 33" xml:space="preserve">
<g>
	<g>
		<g>
			<path fill="#D2DEB2" d="M265.68,16.164c0-0.178-0.068-0.591-0.204-0.728L249.776-0.5H140.279l16.192,16.502L140.283,32.5h109.498
				l15.695-15.77C265.611,16.594,265.68,16.343,265.68,16.164z"/>
		</g>
	</g>
	<g>
		<g>
			<g>
				<path fill="#D2DEB2" d="M443.291,16.164c0-0.178-0.067-0.591-0.203-0.728L427.388-0.5H317.892l16.191,16.502L317.895,32.5
					h109.498l15.695-15.77C443.224,16.594,443.291,16.343,443.291,16.164z"/>
			</g>
		</g>
	</g>
	<g>
		<g>
			<g>
				<g>
					<path fill="#D2DEB2" d="M624.803,16.164c0-0.178-0.067-0.591-0.203-0.728L608.898-0.5H499.4l16.194,16.502L499.405,32.5
						h109.498L624.6,16.73C624.734,16.594,624.803,16.343,624.803,16.164z"/>
				</g>
			</g>
		</g>
	</g>
	<g>
		<g>
			<g>
				<path fill="#D2DEB2" d="M978.635,16.164c0-0.178-0.066-0.591-0.204-0.728L962.732-0.5H853.235l16.191,16.502L853.239,32.5
					h109.498l15.692-15.77C978.567,16.594,978.635,16.343,978.635,16.164z"/>
			</g>
		</g>
	</g>
	<g>
		<g>
			<g>
				<path fill="#D2DEB2" d="M799.635,16.164c0-0.178-0.066-0.591-0.204-0.728L783.732-0.5H674.235l16.191,16.502L674.239,32.5
					h109.498l15.692-15.77C799.567,16.594,799.635,16.343,799.635,16.164z"/>
			</g>
		</g>
	</g>
	<g>
		<g>
			<g>
				<g>
					<text transform="matrix(1 0 0 1 176.7017 13.9707)" fill="#83A521" font-family="'Montserrat-Regular'" font-size="11">INSIGHTS</text>
					<text transform="matrix(1 0 0 1 160.2847 26.9707)" fill="#83A521" font-family="'Montserrat-Regular'" font-size="11">ESPONTÁNEOS</text>
				</g>
			</g>
			<g>
				<text transform="matrix(1 0 0 1 540.0098 13.9707)" fill="#83A521" font-family="'Montserrat-Regular'" font-size="11">PUNTOS</text>
				<text transform="matrix(1 0 0 1 538.0464 26.9707)" fill="#83A521" font-family="'Montserrat-Regular'" font-size="11">DE VISTA</text>
			</g>
			<text transform="matrix(1 0 0 1 705.1074 19.4453)" fill="#83A521" font-family="'Montserrat-Regular'" font-size="11">PAINPOINTS</text>
			<text transform="matrix(1 0 0 1 886.2891 19.4453)" fill="#83A521" font-family="'Montserrat-Regular'" font-size="11">ME SIENTO</text>
			<g>
				<text transform="matrix(1 0 0 1 348.9053 14.1465)" fill="#83A521" font-family="'Montserrat-Regular'" font-size="11">PREGUNTAS </text>
				<text transform="matrix(1 0 0 1 359.2012 27.1465)" fill="#83A521" font-family="'Montserrat-Regular'" font-size="11">BÁSICAS</text>
			</g>
		</g>
	</g>
	<g>
		<path fill="#83A521" d="M647.938,6.111c-1.568,0.013-3.058,0.949-3.694,2.488l-3.536,8.535c-0.848,2.05,0.133,4.412,2.18,5.261
			l8.541,3.539c2.048,0.85,4.413-0.133,5.262-2.182l3.537-8.536c0.849-2.051-0.134-4.414-2.182-5.264l-8.539-3.538
			C648.992,6.206,648.459,6.107,647.938,6.111z M647.94,7.714c0.313-0.001,0.636,0.063,0.948,0.19l8.538,3.539
			c1.251,0.517,1.824,1.908,1.309,3.156l-3.535,8.538c-0.519,1.25-1.908,1.825-3.157,1.307l-8.542-3.538
			c-1.246-0.517-1.822-1.905-1.304-3.153l3.535-8.539C646.12,8.277,646.997,7.717,647.94,7.714z M654.491,13.358
			c-0.667,0-1.209,0.54-1.209,1.206c0,0.667,0.542,1.208,1.209,1.208c0.668,0,1.208-0.541,1.208-1.208
			C655.699,13.898,655.159,13.358,654.491,13.358z M650.466,14.97c-0.668,0-1.207,0.54-1.207,1.207c0,0.665,0.539,1.208,1.207,1.208
			l0,0c0.667,0,1.206-0.543,1.206-1.208l0,0C651.672,15.51,651.133,14.97,650.466,14.97z M646.44,16.578
			c-0.669,0-1.209,0.541-1.209,1.206c0,0.669,0.541,1.21,1.209,1.21c0.667,0,1.208-0.541,1.208-1.21
			C647.648,17.119,647.107,16.578,646.44,16.578z"/>
		<path fill="#83A521" d="M470.947,6.111c-1.569,0.013-3.058,0.949-3.696,2.488l-3.535,8.535c-0.85,2.05,0.132,4.414,2.179,5.263
			l8.54,3.539c2.049,0.848,4.413-0.135,5.263-2.184l3.536-8.536c0.849-2.049-0.132-4.414-2.18-5.261l-8.541-3.54
			C472.001,6.206,471.468,6.107,470.947,6.111z M470.949,7.714c0.312,0,0.637,0.063,0.945,0.19l8.541,3.539
			c1.252,0.517,1.824,1.908,1.308,3.156l-3.535,8.54c-0.519,1.248-1.907,1.823-3.158,1.305l-8.538-3.538
			c-1.25-0.517-1.824-1.905-1.309-3.153l3.536-8.539C469.126,8.277,470.007,7.721,470.949,7.714z M476.692,13.358
			c-0.666,0-1.207,0.54-1.207,1.206c0,0.67,0.541,1.208,1.207,1.208c0.669,0,1.21-0.538,1.21-1.208
			C477.902,13.898,477.361,13.358,476.692,13.358z M470.255,16.578c-0.668,0-1.208,0.541-1.208,1.207
			c0,0.668,0.54,1.209,1.208,1.209c0.665,0,1.208-0.541,1.208-1.209C471.463,17.119,470.92,16.578,470.255,16.578z"/>
		<path fill="#83A521" d="M825.542,1.079c-2.354,0.02-4.588,1.424-5.543,3.732l-5.305,12.802c-1.274,3.074,0.198,6.621,3.27,7.894
			l12.812,5.309c3.07,1.271,6.618-0.202,7.892-3.275l5.306-12.804c1.272-3.073-0.198-6.621-3.269-7.891l-12.812-5.31
			C827.124,1.221,826.324,1.073,825.542,1.079z M825.545,3.483c0.47,0,0.955,0.095,1.421,0.285l12.81,5.309
			c1.875,0.775,2.736,2.862,1.959,4.734l-5.299,12.809c-0.779,1.872-2.862,2.735-4.735,1.957l-12.809-5.307
			c-1.877-0.775-2.739-2.858-1.965-4.73l5.305-12.809C822.812,4.328,824.13,3.494,825.545,3.483z M834.416,12.261
			c-0.996-0.06-1.854,0.694-1.919,1.69c-0.063,1,0.697,1.86,1.693,1.922c1,0.064,1.858-0.691,1.923-1.694
			C836.175,13.183,835.416,12.324,834.416,12.261z M824.476,16.475c-1.001-0.064-1.856,0.699-1.921,1.695
			c-0.065,0.999,0.694,1.861,1.692,1.925c0.999,0.062,1.858-0.697,1.922-1.696C826.233,17.399,825.47,16.536,824.476,16.475z
			 M833.248,21.262c0.063-0.999-0.692-1.858-1.69-1.922c-1.005-0.062-1.86,0.697-1.922,1.693c-0.062,0.999,0.693,1.862,1.695,1.925
			C832.33,23.021,833.187,22.261,833.248,21.262z M829.037,11.319c0.062-0.999-0.697-1.858-1.695-1.921
			c-0.999-0.063-1.86,0.693-1.925,1.693c-0.062,0.998,0.697,1.86,1.695,1.923C828.115,13.077,828.976,12.315,829.037,11.319z"/>
		<path fill="#83A521" d="M291.299,6.111c-1.568,0.013-3.057,0.949-3.694,2.488l-3.537,8.535c-0.848,2.05,0.133,4.412,2.18,5.261
			l8.541,3.539c2.048,0.85,4.413-0.133,5.261-2.182l3.538-8.536c0.848-2.051-0.134-4.414-2.182-5.264l-8.539-3.538
			C292.354,6.206,291.821,6.107,291.299,6.111z M291.303,7.714c0.314-0.001,0.636,0.063,0.949,0.19l8.538,3.539
			c1.251,0.517,1.824,1.908,1.308,3.156l-3.535,8.538c-0.518,1.25-1.908,1.825-3.157,1.307l-8.542-3.538
			c-1.246-0.517-1.822-1.905-1.304-3.153l3.535-8.539C289.482,8.277,290.359,7.717,291.303,7.714z M293.828,14.97
			c-0.668,0-1.207,0.54-1.207,1.207c0,0.665,0.539,1.208,1.207,1.208l0,0c0.667,0,1.206-0.543,1.206-1.208l0,0
			C295.034,15.51,294.495,14.97,293.828,14.97z"/>
	</g>
	<path fill="#D2DEB2" d="M136.896,16.002L120.71,32.5H15.97c-8.878,0-16.047-7.605-16.047-16.498C-0.077,7.114,7.092-0.5,15.97-0.5
		h104.732L136.896,16.002z"/>
	<g>
		<g>
			<text transform="matrix(1 0 0 1 19.98 20.7852)" fill="#83A521" font-family="'Montserrat-Regular'" font-size="11">PROBLEMÁTICA</text>
		</g>
	</g>
	<g>
		<path fill="#D2DEB2" d="M1075.23,15.819c0,8.986-7.283,16.3-16.271,16.3c-0.048,0-0.091,0.193-0.139,0.188
			c-0.05,0.006-0.089,0.193-0.139,0.193H993.32l15.765-15.945c0.14-0.137,0.204-0.408,0.204-0.584c0-0.18-0.064-0.461-0.204-0.591
			L993.321-0.5h65.64C1067.947-0.5,1075.23,6.844,1075.23,15.819z"/>
		<text transform="matrix(1 0 0 1 1020.7188 20.8535)" fill="#83A521" font-family="'Montserrat-Regular'" font-size="11">RETOS</text>
	</g>
</g>
</svg>
